M48
; DRILL file {KiCad (5.1.6)-1} date 12/11/20 11:34:01
; FORMAT={-:-/ absolute / metric / decimal}
; #@! TF.CreationDate,2020-12-11T11:34:01+01:00
; #@! TF.GenerationSoftware,Kicad,Pcbnew,(5.1.6)-1
FMAT,2
METRIC
T1C0.300
T2C0.305
T3C0.400
T4C0.550
T5C0.813
T6C1.000
T7C1.200
T8C1.702
T9C2.700
T10C3.000
T11C3.988
%
G90
G05
T2
X83.058Y-76.136
X83.575Y-95.745
X84.468Y-72.504
X84.725Y-93.205
X85.979Y-76.263
X86.36Y-103.378
X88.808Y-52.486
X89.218Y-66.484
X89.834Y-53.83
X90.106Y-106.934
X90.849Y-124.938
X91.504Y-66.484
X91.567Y-44.64
X91.694Y-77.856
X91.703Y-125.255
X91.731Y-78.767
X92.456Y-124.46
X92.918Y-51.29
X93.345Y-69.278
X94.323Y-103.485
X94.742Y-67.818
X95.25Y-83.058
X95.504Y-79.598
X95.567Y-44.64
X95.758Y-104.217
X95.758Y-131.826
X96.174Y-52.486
X96.225Y-93.205
X96.266Y-70.295
X96.359Y-61.947
X96.375Y-58.91
X96.602Y-41.23
X96.647Y-56.642
X96.647Y-64.453
X96.71Y-54.991
X96.839Y-68.384
X96.921Y-118.802
X97.375Y-95.745
X98.361Y-86.931
X98.552Y-76.136
X99.695Y-118.528
X101.981Y-95.948
X103.08Y-117.623
X103.293Y-78.973
X103.314Y-58.864
X103.821Y-130.753
X103.886Y-78.359
X104.457Y-114.744
X104.654Y-77.902
X105.409Y-77.471
X105.445Y-128.487
X106.108Y-59.118
X106.406Y-77.205
X107.5Y-47.46
X107.5Y-56.325
X107.5Y-66.51
X107.5Y-85.56
X107.5Y-104.61
X108.045Y-117.443
X108.204Y-110.744
X108.585Y-74.231
X108.65Y-44.92
X108.65Y-63.97
X108.65Y-83.02
X108.662Y-102.058
X108.712Y-98.298
X109.074Y-117.45
X109.14Y-54.944
X109.347Y-60.071
X109.601Y-93.281
X109.982Y-112.522
X110.045Y-39.624
X110.191Y-54.927
X110.353Y-74.307
X110.553Y-93.091
X111.217Y-41.961
X112.331Y-128.397
X113.03Y-59.372
X113.03Y-117.221
X116.95Y-123.66
X117.03Y-59.436
X117.538Y-51.625
X117.981Y-112.274
X118.1Y-121.12
X118.127Y-73.976
X118.44Y-130.48
X118.459Y-55.086
X118.681Y-93.091
X119.238Y-74.492
X119.38Y-112.395
X119.761Y-96.647
X120.078Y-115.76
X120.15Y-44.92
X120.15Y-63.97
X120.15Y-83.02
X120.15Y-102.07
X120.249Y-131.212
X120.332Y-72.453
X120.396Y-55.626
X120.84Y-58.928
X121.158Y-91.948
X121.164Y-66.457
X121.164Y-85.56
X121.3Y-47.46
X121.3Y-104.61
X121.918Y-74.424
X123.967Y-117.533
X126.55Y-45.06
X126.55Y-64.11
X126.55Y-75.3
X126.55Y-83.16
X126.55Y-102.21
X127.68Y-61.55
X127.7Y-42.52
X127.7Y-99.67
X127.75Y-80.57
X127.762Y-108.585
X128.016Y-52.197
X128.143Y-131.255
X128.207Y-90.614
X128.41Y-70.18
X128.588Y-58.293
X129.159Y-72.517
X129.222Y-90.995
X129.222Y-109.918
X129.413Y-50.101
X129.6Y-121.12
X129.768Y-52.794
X130.112Y-94.107
X130.75Y-123.66
X135.998Y-122.288
X137.179Y-119.717
X137.541Y-129.667
X137.605Y-52.451
X137.851Y-71.667
X138.048Y-109.901
X138.112Y-91.059
X138.748Y-72.136
X138.938Y-129.788
X139.2Y-42.52
X139.2Y-61.57
X139.2Y-80.62
X139.2Y-99.67
X139.382Y-109.601
X139.827Y-88.011
X140.35Y-45.06
X140.35Y-64.11
X140.35Y-83.16
X140.35Y-102.21
X141.16Y-49.974
X141.986Y-54.61
X142.075Y-112.979
X145.351Y-115.379
X145.491Y-74.745
X145.6Y-43.67
X145.6Y-62.72
X145.6Y-81.77
X145.6Y-100.82
X146.75Y-41.13
X146.75Y-60.18
X146.75Y-98.28
X146.804Y-79.176
X146.875Y-51.689
X147.002Y-107.442
X147.193Y-69.532
X147.193Y-130.048
X147.447Y-113.538
X147.765Y-88.947
X148.209Y-108.521
X148.347Y-51.361
X148.526Y-54.229
X148.648Y-119.748
X148.78Y-70.485
X148.78Y-89.281
X149.798Y-122.288
X151.384Y-113.538
X154.305Y-54.61
X155.05Y-121.26
X155.385Y-113.474
X156.256Y-118.664
X156.355Y-55.88
X156.4Y-70.294
X156.654Y-108.331
X156.654Y-114.744
X156.972Y-129.279
X157.035Y-89.599
X157.226Y-51.371
X157.314Y-70.415
X157.861Y-128.778
X157.988Y-108.458
X158.25Y-41.13
X158.25Y-60.18
X158.25Y-79.23
X158.25Y-98.28
X159.195Y-87.757
X159.385Y-48.831
X159.4Y-43.67
X159.4Y-62.72
X159.4Y-81.77
X159.4Y-100.82
X159.83Y-55.88
X160.414Y-132.004
X163.775Y-56.004
X164.65Y-45.06
X164.65Y-64.11
X164.65Y-74.491
X164.65Y-83.16
X164.65Y-102.21
X165.036Y-125.92
X165.696Y-80.62
X165.735Y-109.347
X165.8Y-42.52
X165.8Y-61.57
X165.8Y-99.67
X166.116Y-70.421
X166.139Y-90.574
X166.243Y-128.905
X166.433Y-113.665
X166.497Y-51.943
X166.814Y-72.072
X167.132Y-90.932
X167.7Y-118.72
X167.845Y-110.363
X167.887Y-52.71
X168.85Y-121.26
X170.193Y-114.173
X171.005Y-96.584
X175.139Y-71.783
X175.629Y-72.684
X175.641Y-91.059
X175.704Y-52.705
X176.085Y-109.791
X177.3Y-42.52
X177.3Y-61.57
X177.3Y-80.62
X177.3Y-99.67
X177.355Y-109.728
X178.45Y-45.06
X178.45Y-64.11
X178.45Y-83.16
X178.45Y-102.347
X178.752Y-87.82
X179.235Y-51.219
X182.118Y-113.03
X183.7Y-49.86
X183.7Y-68.91
X183.7Y-87.96
X183.7Y-107.01
X183.929Y-79.85
X184.849Y-101.6
X184.85Y-47.32
X184.85Y-66.37
X184.85Y-85.42
X184.85Y-104.47
X185.166Y-74.993
X185.242Y-63.932
X185.483Y-99.695
X185.611Y-59.69
X185.725Y-80.328
X185.864Y-57.34
X185.992Y-94.91
X186.309Y-114.808
X186.821Y-57.524
X186.944Y-76.581
X187.004Y-95.642
X188.087Y-62.23
X189.357Y-99.568
X191.707Y-61.785
X192.412Y-62.363
X193.675Y-99.885
X194.206Y-76.455
X194.246Y-114.744
X194.564Y-98.489
X194.627Y-95.758
X194.818Y-57.467
X194.945Y-77.231
X195.135Y-94.424
X195.64Y-115.476
X196.088Y-42.672
X196.35Y-47.32
X196.35Y-66.37
X196.35Y-85.42
X196.35Y-104.47
X196.596Y-80.137
X196.977Y-55.308
X197.231Y-92.392
X197.5Y-49.86
X197.5Y-68.91
X197.5Y-87.96
X197.5Y-107.01
X202.75Y-51.36
X202.75Y-70.41
X202.75Y-81.857
X202.75Y-89.46
X202.75Y-108.51
X203.9Y-48.82
X203.9Y-67.87
X203.9Y-86.92
X203.9Y-105.97
X204.534Y-96.965
X204.851Y-113.919
X204.941Y-58.279
X205.296Y-59.182
X205.296Y-76.263
X205.422Y-100.647
X205.549Y-97.282
X205.677Y-116.332
X205.867Y-62.738
X206.112Y-78.03
X213.36Y-78.105
X213.804Y-97.028
X213.804Y-116.205
X214.122Y-59.118
X214.215Y-77.79
X214.716Y-116.207
X214.82Y-56.832
X215.4Y-48.82
X215.4Y-67.87
X215.4Y-86.92
X215.4Y-105.97
X215.456Y-76.2
X216.55Y-51.36
X216.55Y-70.41
X216.55Y-89.46
X216.55Y-108.51
X216.662Y-82.55
X218.123Y-57.531
T3
X104.902Y-85.612
X104.902Y-89.013
X106.782Y-123.94
X108.483Y-126.885
X90.883Y-89.535
X94.283Y-89.535
X123.825Y-83.517
X123.825Y-86.917
X133.35Y-121.998
X133.35Y-125.398
X114.427Y-123.014
X114.427Y-126.414
X162.052Y-82.374
X162.052Y-85.774
X200.025Y-88.279
X200.025Y-91.679
X181.229Y-66.308
X181.229Y-69.709
X162.052Y-64.213
X162.052Y-67.613
X105.029Y-47.767
X105.029Y-51.166
X181.038Y-103.202
X181.038Y-106.602
X143.005Y-82.183
X143.005Y-85.584
X104.965Y-66.308
X104.965Y-69.709
X200.152Y-50.433
X200.152Y-53.834
X200.088Y-108.091
X200.088Y-111.492
X181.165Y-85.295
X181.165Y-88.695
X142.811Y-44.972
X142.811Y-48.372
X123.952Y-64.975
X123.952Y-68.375
X142.939Y-63.832
X142.939Y-67.232
X143.002Y-101.233
X143.002Y-104.633
X104.902Y-104.662
X104.902Y-108.062
X123.952Y-45.417
X123.952Y-48.817
X152.4Y-121.68
X152.4Y-125.081
X162.052Y-44.274
X162.052Y-47.674
X200.279Y-71.388
X200.279Y-74.788
X161.988Y-101.233
X161.988Y-104.633
X123.952Y-103.456
X123.952Y-106.856
X181.229Y-47.893
X181.229Y-51.293
X90.375Y-72.581
X93.775Y-72.581
T4
X110.545Y-38.277
X114.245Y-38.277
T5
X102.616Y-40.894
X107.696Y-40.894
X98.661Y-81.452
X102.253Y-85.045
X102.616Y-38.608
X107.696Y-38.608
X83.286Y-41.13
X83.286Y-43.67
X83.286Y-46.21
X83.286Y-48.75
X83.286Y-51.29
X83.286Y-53.83
X83.286Y-56.37
X83.286Y-58.91
X83.286Y-61.45
X83.286Y-63.99
X83.286Y-66.53
X83.286Y-69.07
X84.585Y-42.326
X84.585Y-44.866
X84.585Y-47.406
X84.585Y-49.946
X84.585Y-52.486
X84.585Y-55.026
X84.585Y-57.566
X84.585Y-60.106
X84.585Y-62.646
X84.585Y-65.186
X84.585Y-67.726
X84.585Y-70.266
X98.526Y-41.13
X98.526Y-43.67
X98.526Y-46.21
X98.526Y-48.75
X98.526Y-51.29
X98.526Y-53.83
X98.526Y-56.37
X98.526Y-58.91
X98.526Y-61.45
X98.526Y-63.99
X98.526Y-66.53
X98.526Y-69.07
X99.825Y-42.326
X99.825Y-44.866
X99.825Y-47.406
X99.825Y-49.946
X99.825Y-52.486
X99.825Y-55.026
X99.825Y-57.566
X99.825Y-60.106
X99.825Y-62.646
X99.825Y-65.186
X99.825Y-67.726
X99.825Y-70.266
X98.597Y-84.564
X102.19Y-88.156
T6
X200.091Y-104.631
X200.091Y-114.791
X181.163Y-81.995
X181.163Y-92.155
X142.809Y-41.672
X142.809Y-51.832
X123.955Y-61.515
X123.955Y-71.675
X142.941Y-60.372
X142.941Y-70.532
X87.82Y-74.993
X90.361Y-74.993
X92.9Y-74.993
X95.441Y-74.993
X143.005Y-97.773
X143.005Y-107.933
X104.905Y-101.203
X104.905Y-111.362
X123.949Y-42.117
X123.949Y-52.277
X152.397Y-118.38
X152.397Y-128.54
X162.049Y-40.974
X162.049Y-51.134
X89.067Y-48.094
X89.067Y-62.594
X91.567Y-48.094
X94.067Y-48.094
X94.067Y-62.594
X200.282Y-67.928
X200.282Y-78.088
X161.991Y-97.773
X161.991Y-107.933
X123.955Y-99.996
X123.955Y-110.156
X181.226Y-44.593
X181.226Y-54.753
X86.915Y-72.583
X97.075Y-72.583
X104.899Y-82.312
X104.899Y-92.472
X105.055Y-120.943
X110.135Y-129.741
X87.423Y-89.532
X97.583Y-89.532
X123.822Y-80.217
X123.822Y-90.377
X133.347Y-118.698
X133.347Y-128.858
X114.424Y-119.714
X114.424Y-129.874
X162.049Y-79.074
X162.049Y-89.234
X200.022Y-84.98
X200.022Y-95.139
X181.232Y-62.848
X181.232Y-73.008
X162.055Y-60.753
X162.055Y-70.913
X105.026Y-44.466
X105.026Y-54.627
X181.041Y-99.742
X181.041Y-109.902
X143.002Y-78.883
X143.002Y-89.043
X104.968Y-62.848
X104.968Y-73.008
X200.149Y-47.133
X200.149Y-57.293
T7
X82.971Y-82.423
X82.971Y-83.773
X89.971Y-82.423
X89.971Y-83.773
T8
X109.32Y-69.05
X119.48Y-69.05
X109.32Y-107.15
X119.48Y-107.15
X185.52Y-109.55
X195.68Y-109.55
X156.87Y-123.8
X167.03Y-123.8
X185.52Y-90.5
X195.68Y-90.5
X128.37Y-66.65
X138.53Y-66.65
X204.57Y-53.9
X214.73Y-53.9
X147.42Y-46.21
X157.58Y-46.21
X204.57Y-111.05
X214.73Y-111.05
X166.47Y-104.75
X176.63Y-104.75
X147.42Y-103.36
X157.58Y-103.36
X109.32Y-88.1
X119.48Y-88.1
X204.57Y-92.0
X214.73Y-92.0
X128.37Y-85.7
X138.53Y-85.7
X128.37Y-104.75
X138.53Y-104.75
X95.631Y-121.648
X100.711Y-130.447
X166.47Y-66.65
X176.63Y-66.65
X147.42Y-84.31
X157.58Y-84.31
X147.42Y-65.26
X157.58Y-65.26
X166.47Y-47.6
X176.63Y-47.6
X185.52Y-52.4
X195.68Y-52.4
X204.57Y-72.95
X214.73Y-72.95
X109.32Y-50.0
X119.48Y-50.0
X118.77Y-126.2
X128.93Y-126.2
X185.52Y-71.45
X195.68Y-71.45
X166.47Y-85.7
X176.63Y-85.7
X128.37Y-47.6
X138.53Y-47.6
X137.818Y-124.828
X147.978Y-124.828
X85.395Y-98.285
X95.555Y-98.285
T9
X98.895Y-114.109
X124.396Y-95.567
X124.325Y-57.409
X199.7Y-100.0
X199.7Y-61.8
T10
X186.79Y-87.96
X188.06Y-85.42
X193.14Y-85.42
X194.41Y-87.96
X129.64Y-64.11
X130.91Y-61.57
X135.99Y-61.57
X137.26Y-64.11
X205.84Y-51.36
X207.11Y-48.82
X212.19Y-48.82
X213.46Y-51.36
X148.69Y-43.67
X149.96Y-41.13
X155.04Y-41.13
X156.31Y-43.67
X205.84Y-108.51
X207.11Y-105.97
X212.19Y-105.97
X213.46Y-108.51
X167.74Y-102.21
X169.01Y-99.67
X174.09Y-99.67
X175.36Y-102.21
X148.69Y-100.82
X149.96Y-98.28
X155.04Y-98.28
X156.31Y-100.82
X110.59Y-85.56
X111.86Y-83.02
X116.94Y-83.02
X118.21Y-85.56
X205.84Y-89.46
X207.11Y-86.92
X212.19Y-86.92
X213.46Y-89.46
X129.64Y-83.16
X130.91Y-80.62
X135.99Y-80.62
X137.26Y-83.16
X129.64Y-102.21
X130.91Y-99.67
X135.99Y-99.67
X137.26Y-102.21
X98.466Y-121.478
X101.3Y-121.308
X102.276Y-128.077
X103.84Y-125.707
X167.74Y-64.11
X169.01Y-61.57
X174.09Y-61.57
X175.36Y-64.11
X148.69Y-81.77
X149.96Y-79.23
X155.04Y-79.23
X156.31Y-81.77
X148.69Y-62.72
X149.96Y-60.18
X155.04Y-60.18
X156.31Y-62.72
X167.74Y-45.06
X169.01Y-42.52
X174.09Y-42.52
X175.36Y-45.06
X186.79Y-49.86
X188.06Y-47.32
X193.14Y-47.32
X194.41Y-49.86
X205.84Y-70.41
X207.11Y-67.87
X212.19Y-67.87
X213.46Y-70.41
X110.59Y-47.46
X111.86Y-44.92
X116.94Y-44.92
X118.21Y-47.46
X120.04Y-123.66
X121.31Y-121.12
X126.39Y-121.12
X127.66Y-123.66
X186.79Y-68.91
X188.06Y-66.37
X193.14Y-66.37
X194.41Y-68.91
X167.74Y-83.16
X169.01Y-80.62
X174.09Y-80.62
X175.36Y-83.16
X129.64Y-45.06
X130.91Y-42.52
X135.99Y-42.52
X137.26Y-45.06
X139.088Y-122.288
X140.358Y-119.748
X145.438Y-119.748
X146.708Y-122.288
X86.665Y-95.745
X87.935Y-93.205
X93.015Y-93.205
X94.285Y-95.745
X110.59Y-66.51
X111.86Y-63.97
X116.94Y-63.97
X118.21Y-66.51
X110.59Y-104.61
X111.86Y-102.07
X116.94Y-102.07
X118.21Y-104.61
X186.79Y-107.01
X188.06Y-104.47
X193.14Y-104.47
X194.41Y-107.01
X158.14Y-121.26
X159.41Y-118.72
X164.49Y-118.72
X165.76Y-121.26
T11
X114.4Y-69.05
X114.4Y-107.15
X190.6Y-109.55
X161.95Y-123.8
X190.6Y-90.5
X133.45Y-66.65
X209.65Y-53.9
X152.5Y-46.21
X209.65Y-111.05
X171.55Y-104.75
X152.5Y-103.36
X114.4Y-88.1
X209.65Y-92.0
X133.45Y-85.7
X133.45Y-104.75
X98.171Y-126.047
X171.55Y-66.65
X152.5Y-84.31
X152.5Y-65.26
X171.55Y-47.6
X190.6Y-52.4
X209.65Y-72.95
X114.4Y-50.0
X123.85Y-126.2
X190.6Y-71.45
X171.55Y-85.7
X133.45Y-47.6
X142.898Y-124.828
X90.475Y-98.285
T1
G00X84.12Y-80.323
M15
G01X85.42Y-80.323
M16
G05
G00X84.12Y-85.873
M15
G01X85.42Y-85.873
M16
G05
G00X87.12Y-80.323
M15
G01X88.42Y-80.323
M16
G05
G00X87.12Y-85.873
M15
G01X88.42Y-85.873
M16
G05
G00X91.12Y-80.323
M15
G01X92.42Y-80.323
M16
G05
G00X91.12Y-85.873
M15
G01X92.42Y-85.873
M16
G05
G00X92.62Y-81.673
M15
G01X93.92Y-81.673
M16
G05
G00X92.62Y-84.523
M15
G01X93.92Y-84.523
M16
G05
T0
M30
