G04 #@! TF.GenerationSoftware,KiCad,Pcbnew,(5.1.6)-1*
G04 #@! TF.CreationDate,2020-12-11T11:33:57+01:00*
G04 #@! TF.ProjectId,Lily58_HS_RGB,4c696c79-3538-45f4-9853-5f5247422e6b,0.9*
G04 #@! TF.SameCoordinates,Original*
G04 #@! TF.FileFunction,Profile,NP*
%FSLAX46Y46*%
G04 Gerber Fmt 4.6, Leading zero omitted, Abs format (unit mm)*
G04 Created by KiCad (PCBNEW (5.1.6)-1) date 2020-12-11 11:33:57*
%MOMM*%
%LPD*%
G01*
G04 APERTURE LIST*
G04 #@! TA.AperFunction,Profile*
%ADD10C,0.200000*%
G04 #@! TD*
G04 #@! TA.AperFunction,Profile*
%ADD11C,0.050000*%
G04 #@! TD*
G04 APERTURE END LIST*
D10*
X80708500Y-111823500D02*
X80772000Y-112649000D01*
X80772000Y-112649000D02*
X80899000Y-114109500D01*
X97594758Y-143271756D02*
X110319820Y-135905240D01*
X218511891Y-42966390D02*
X217795520Y-42621355D01*
X219501720Y-44145200D02*
X219704920Y-44856400D01*
X219133420Y-43510200D02*
X219501720Y-44145200D01*
X175719348Y-121193595D02*
X218180920Y-121193560D01*
X175013524Y-121264638D02*
X175719348Y-121193595D01*
X174356326Y-121468421D02*
X175013524Y-121264638D01*
X173761773Y-121790925D02*
X174356326Y-121468421D01*
X173243884Y-122218131D02*
X173761773Y-121790925D01*
X172816678Y-122736020D02*
X173243884Y-122218131D01*
X172494174Y-123330573D02*
X172816678Y-122736020D01*
X172290391Y-123987771D02*
X172494174Y-123330573D01*
X172194220Y-124696220D02*
X172290391Y-123987771D01*
X217795520Y-42621355D02*
X181000400Y-36690300D01*
X171532040Y-135649242D02*
X171277232Y-135787458D01*
X171753993Y-135466153D02*
X171532040Y-135649242D01*
X171937081Y-135244201D02*
X171753993Y-135466153D01*
X172075297Y-134989392D02*
X171937081Y-135244201D01*
X172162633Y-134707736D02*
X172075297Y-134989392D01*
X172193080Y-134427634D02*
X172162633Y-134707736D01*
X219704920Y-44856400D02*
X219704920Y-119684800D01*
X81163697Y-36869721D02*
X81342063Y-36772970D01*
X81008330Y-36997883D02*
X81163697Y-36869721D01*
X80880169Y-37153249D02*
X81008330Y-36997883D01*
X80783417Y-37331615D02*
X80880169Y-37153249D01*
X80722283Y-37528775D02*
X80783417Y-37331615D01*
X80700300Y-37744400D02*
X80722283Y-37528775D01*
X81539222Y-36711835D02*
X81754400Y-36690300D01*
X81342063Y-36772970D02*
X81539222Y-36711835D01*
X181000400Y-36690300D02*
X81754400Y-36690300D01*
X80645000Y-110617000D02*
X80700300Y-37744400D01*
X81419700Y-116395500D02*
X81978500Y-117665500D01*
X81153000Y-115379500D02*
X81419700Y-116395500D01*
X80645000Y-110617000D02*
X80708500Y-111823500D01*
X97426864Y-143357278D02*
X97594758Y-143271756D01*
X97268206Y-143404468D02*
X97426864Y-143357278D01*
X97119252Y-143413974D02*
X97268206Y-143404468D01*
X96980470Y-143386445D02*
X97119252Y-143413974D01*
X96852328Y-143322532D02*
X96980470Y-143386445D01*
X96735295Y-143222884D02*
X96852328Y-143322532D01*
X96629837Y-143088150D02*
X96735295Y-143222884D01*
X81978500Y-117665500D02*
X96629837Y-143088150D01*
X80899000Y-114109500D02*
X81153000Y-115379500D01*
X110319820Y-135905240D02*
X170693080Y-135905240D01*
X172194220Y-124696220D02*
X172193080Y-134427634D01*
X170995576Y-135874793D02*
X170693080Y-135905240D01*
X171277232Y-135787458D02*
X170995576Y-135874793D01*
X219133420Y-43510200D02*
X218511891Y-42966390D01*
X218500315Y-121165688D02*
X218180920Y-121193560D01*
X218781972Y-121078352D02*
X218500315Y-121165688D01*
X219036780Y-120940136D02*
X218781972Y-121078352D01*
X219258732Y-120757048D02*
X219036780Y-120940136D01*
X219441821Y-120535096D02*
X219258732Y-120757048D01*
X219580037Y-120280287D02*
X219441821Y-120535096D01*
X219667372Y-119998631D02*
X219580037Y-120280287D01*
X219704920Y-119684800D02*
X219667372Y-119998631D01*
D11*
X163700000Y-130680000D02*
X163700000Y-127080000D01*
X160200000Y-130680000D02*
X160200000Y-127080000D01*
X163700000Y-130680000D02*
X160200000Y-130680000D01*
X160200000Y-127080000D02*
X163700000Y-127080000D01*
X144647700Y-131708300D02*
X144647700Y-128108300D01*
X141147700Y-131708300D02*
X141147700Y-128108300D01*
X144647700Y-131708300D02*
X141147700Y-131708300D01*
X141147700Y-128108300D02*
X144647700Y-128108300D01*
X125600000Y-133080000D02*
X125600000Y-129480000D01*
X122100000Y-133080000D02*
X122100000Y-129480000D01*
X125600000Y-133080000D02*
X122100000Y-133080000D01*
X122100000Y-129480000D02*
X125600000Y-129480000D01*
X93087745Y-131003043D02*
X96205437Y-129203043D01*
X91337745Y-127971955D02*
X94455437Y-126171955D01*
X93087745Y-131003043D02*
X91337745Y-127971955D01*
X94455437Y-126171955D02*
X96205437Y-129203043D01*
X88724800Y-101565300D02*
X88724800Y-105165300D01*
X92224800Y-101565300D02*
X92224800Y-105165300D01*
X88724800Y-101565300D02*
X92224800Y-101565300D01*
X92224800Y-105165300D02*
X88724800Y-105165300D01*
X207900000Y-114330000D02*
X207900000Y-117930000D01*
X211400000Y-114330000D02*
X211400000Y-117930000D01*
X207900000Y-114330000D02*
X211400000Y-114330000D01*
X211400000Y-117930000D02*
X207900000Y-117930000D01*
X188850000Y-112830000D02*
X188850000Y-116430000D01*
X192350000Y-112830000D02*
X192350000Y-116430000D01*
X188850000Y-112830000D02*
X192350000Y-112830000D01*
X192350000Y-116430000D02*
X188850000Y-116430000D01*
X169800000Y-108030000D02*
X169800000Y-111630000D01*
X173300000Y-108030000D02*
X173300000Y-111630000D01*
X169800000Y-108030000D02*
X173300000Y-108030000D01*
X173300000Y-111630000D02*
X169800000Y-111630000D01*
X150750000Y-106640000D02*
X150750000Y-110240000D01*
X154250000Y-106640000D02*
X154250000Y-110240000D01*
X150750000Y-106640000D02*
X154250000Y-106640000D01*
X154250000Y-110240000D02*
X150750000Y-110240000D01*
X131700000Y-108030000D02*
X131700000Y-111630000D01*
X135200000Y-108030000D02*
X135200000Y-111630000D01*
X131700000Y-108030000D02*
X135200000Y-108030000D01*
X135200000Y-111630000D02*
X131700000Y-111630000D01*
X112650000Y-110430000D02*
X112650000Y-114030000D01*
X116150000Y-110430000D02*
X116150000Y-114030000D01*
X112650000Y-110430000D02*
X116150000Y-110430000D01*
X116150000Y-114030000D02*
X112650000Y-114030000D01*
X211400000Y-98880000D02*
X211400000Y-95280000D01*
X207900000Y-98880000D02*
X207900000Y-95280000D01*
X211400000Y-98880000D02*
X207900000Y-98880000D01*
X207900000Y-95280000D02*
X211400000Y-95280000D01*
X192350000Y-97380000D02*
X192350000Y-93780000D01*
X188850000Y-97380000D02*
X188850000Y-93780000D01*
X192350000Y-97380000D02*
X188850000Y-97380000D01*
X188850000Y-93780000D02*
X192350000Y-93780000D01*
X173300000Y-92580000D02*
X173300000Y-88980000D01*
X169800000Y-92580000D02*
X169800000Y-88980000D01*
X173300000Y-92580000D02*
X169800000Y-92580000D01*
X169800000Y-88980000D02*
X173300000Y-88980000D01*
X154250000Y-91190000D02*
X154250000Y-87590000D01*
X150750000Y-91190000D02*
X150750000Y-87590000D01*
X154250000Y-91190000D02*
X150750000Y-91190000D01*
X150750000Y-87590000D02*
X154250000Y-87590000D01*
X135200000Y-92580000D02*
X135200000Y-88980000D01*
X131700000Y-92580000D02*
X131700000Y-88980000D01*
X135200000Y-92580000D02*
X131700000Y-92580000D01*
X131700000Y-88980000D02*
X135200000Y-88980000D01*
X116150000Y-94980000D02*
X116150000Y-91380000D01*
X112650000Y-94980000D02*
X112650000Y-91380000D01*
X116150000Y-94980000D02*
X112650000Y-94980000D01*
X112650000Y-91380000D02*
X116150000Y-91380000D01*
X207900000Y-76230000D02*
X207900000Y-79830000D01*
X211400000Y-76230000D02*
X211400000Y-79830000D01*
X207900000Y-76230000D02*
X211400000Y-76230000D01*
X211400000Y-79830000D02*
X207900000Y-79830000D01*
X188850000Y-74730000D02*
X188850000Y-78330000D01*
X192350000Y-74730000D02*
X192350000Y-78330000D01*
X188850000Y-74730000D02*
X192350000Y-74730000D01*
X192350000Y-78330000D02*
X188850000Y-78330000D01*
X169800000Y-69930000D02*
X169800000Y-73530000D01*
X173300000Y-69930000D02*
X173300000Y-73530000D01*
X169800000Y-69930000D02*
X173300000Y-69930000D01*
X173300000Y-73530000D02*
X169800000Y-73530000D01*
X150750000Y-68540000D02*
X150750000Y-72140000D01*
X154250000Y-68540000D02*
X154250000Y-72140000D01*
X150750000Y-68540000D02*
X154250000Y-68540000D01*
X154250000Y-72140000D02*
X150750000Y-72140000D01*
X131700000Y-69930000D02*
X131700000Y-73530000D01*
X135200000Y-69930000D02*
X135200000Y-73530000D01*
X131700000Y-69930000D02*
X135200000Y-69930000D01*
X135200000Y-73530000D02*
X131700000Y-73530000D01*
X112650000Y-72330000D02*
X112650000Y-75930000D01*
X116150000Y-72330000D02*
X116150000Y-75930000D01*
X112650000Y-72330000D02*
X116150000Y-72330000D01*
X116150000Y-75930000D02*
X112650000Y-75930000D01*
X211400000Y-60780000D02*
X211400000Y-57180000D01*
X207900000Y-60780000D02*
X207900000Y-57180000D01*
X211400000Y-60780000D02*
X207900000Y-60780000D01*
X207900000Y-57180000D02*
X211400000Y-57180000D01*
X192350000Y-59280000D02*
X192350000Y-55680000D01*
X188850000Y-59280000D02*
X188850000Y-55680000D01*
X192350000Y-59280000D02*
X188850000Y-59280000D01*
X188850000Y-55680000D02*
X192350000Y-55680000D01*
X173300000Y-54480000D02*
X173300000Y-50880000D01*
X169800000Y-54480000D02*
X169800000Y-50880000D01*
X173300000Y-54480000D02*
X169800000Y-54480000D01*
X169800000Y-50880000D02*
X173300000Y-50880000D01*
X154250000Y-53090000D02*
X154250000Y-49490000D01*
X150750000Y-53090000D02*
X150750000Y-49490000D01*
X154250000Y-53090000D02*
X150750000Y-53090000D01*
X150750000Y-49490000D02*
X154250000Y-49490000D01*
X135150000Y-54480000D02*
X135150000Y-50880000D01*
X131650000Y-54480000D02*
X131650000Y-50880000D01*
X135150000Y-54480000D02*
X131650000Y-54480000D01*
X131650000Y-50880000D02*
X135150000Y-50880000D01*
X116150000Y-56880000D02*
X116150000Y-53280000D01*
X112650000Y-56880000D02*
X112650000Y-53280000D01*
X116150000Y-56880000D02*
X112650000Y-56880000D01*
X112650000Y-53280000D02*
X116150000Y-53280000D01*
M02*
