G04 #@! TF.GenerationSoftware,KiCad,Pcbnew,(5.1.6)-1*
G04 #@! TF.CreationDate,2020-12-11T11:33:57+01:00*
G04 #@! TF.ProjectId,Lily58_HS_RGB,4c696c79-3538-45f4-9853-5f5247422e6b,0.9*
G04 #@! TF.SameCoordinates,Original*
G04 #@! TF.FileFunction,Legend,Bot*
G04 #@! TF.FilePolarity,Positive*
%FSLAX46Y46*%
G04 Gerber Fmt 4.6, Leading zero omitted, Abs format (unit mm)*
G04 Created by KiCad (PCBNEW (5.1.6)-1) date 2020-12-11 11:33:57*
%MOMM*%
%LPD*%
G01*
G04 APERTURE LIST*
%ADD10C,0.150000*%
%ADD11C,0.300000*%
%ADD12R,2.500000X1.400000*%
%ADD13C,1.600000*%
%ADD14R,1.543000X1.035000*%
%ADD15R,1.035000X1.543000*%
%ADD16C,1.797000*%
%ADD17R,2.398980X2.398980*%
%ADD18C,2.398980*%
%ADD19R,2.200000X1.900000*%
%ADD20R,1.900000X2.200000*%
%ADD21C,0.100000*%
%ADD22R,2.400000X1.400000*%
%ADD23R,2.000000X1.400000*%
%ADD24C,1.924000*%
%ADD25O,2.100000X2.100000*%
%ADD26R,2.100000X2.100000*%
%ADD27C,3.400000*%
%ADD28C,2.101800*%
%ADD29C,4.387800*%
%ADD30R,2.900000X2.900000*%
%ADD31R,2.400000X2.400000*%
%ADD32C,2.400000*%
%ADD33C,3.100000*%
G04 APERTURE END LIST*
D10*
X86288380Y-77176380D02*
X86097904Y-77176380D01*
X86002666Y-77224000D01*
X85907428Y-77319238D01*
X85859809Y-77509714D01*
X85859809Y-77843047D01*
X85907428Y-78033523D01*
X86002666Y-78128761D01*
X86097904Y-78176380D01*
X86288380Y-78176380D01*
X86383619Y-78128761D01*
X86478857Y-78033523D01*
X86526476Y-77843047D01*
X86526476Y-77509714D01*
X86478857Y-77319238D01*
X86383619Y-77224000D01*
X86288380Y-77176380D01*
X84955047Y-78176380D02*
X85431238Y-78176380D01*
X85431238Y-77176380D01*
X84621714Y-77652571D02*
X84288380Y-77652571D01*
X84145523Y-78176380D02*
X84621714Y-78176380D01*
X84621714Y-77176380D01*
X84145523Y-77176380D01*
X83716952Y-78176380D02*
X83716952Y-77176380D01*
X83478857Y-77176380D01*
X83336000Y-77224000D01*
X83240761Y-77319238D01*
X83193142Y-77414476D01*
X83145523Y-77604952D01*
X83145523Y-77747809D01*
X83193142Y-77938285D01*
X83240761Y-78033523D01*
X83336000Y-78128761D01*
X83478857Y-78176380D01*
X83716952Y-78176380D01*
X86050190Y-90066761D02*
X85907333Y-90114380D01*
X85669238Y-90114380D01*
X85574000Y-90066761D01*
X85526380Y-90019142D01*
X85478761Y-89923904D01*
X85478761Y-89828666D01*
X85526380Y-89733428D01*
X85574000Y-89685809D01*
X85669238Y-89638190D01*
X85859714Y-89590571D01*
X85954952Y-89542952D01*
X86002571Y-89495333D01*
X86050190Y-89400095D01*
X86050190Y-89304857D01*
X86002571Y-89209619D01*
X85954952Y-89162000D01*
X85859714Y-89114380D01*
X85621619Y-89114380D01*
X85478761Y-89162000D01*
X84669238Y-90066761D02*
X84764476Y-90114380D01*
X84954952Y-90114380D01*
X85050190Y-90066761D01*
X85097809Y-89971523D01*
X85097809Y-89590571D01*
X85050190Y-89495333D01*
X84954952Y-89447714D01*
X84764476Y-89447714D01*
X84669238Y-89495333D01*
X84621619Y-89590571D01*
X84621619Y-89685809D01*
X85097809Y-89781047D01*
X84193047Y-90114380D02*
X84193047Y-89447714D01*
X84193047Y-89638190D02*
X84145428Y-89542952D01*
X84097809Y-89495333D01*
X84002571Y-89447714D01*
X83907333Y-89447714D01*
X83574000Y-90114380D02*
X83574000Y-89447714D01*
X83574000Y-89114380D02*
X83621619Y-89162000D01*
X83574000Y-89209619D01*
X83526380Y-89162000D01*
X83574000Y-89114380D01*
X83574000Y-89209619D01*
X82669238Y-90114380D02*
X82669238Y-89590571D01*
X82716857Y-89495333D01*
X82812095Y-89447714D01*
X83002571Y-89447714D01*
X83097809Y-89495333D01*
X82669238Y-90066761D02*
X82764476Y-90114380D01*
X83002571Y-90114380D01*
X83097809Y-90066761D01*
X83145428Y-89971523D01*
X83145428Y-89876285D01*
X83097809Y-89781047D01*
X83002571Y-89733428D01*
X82764476Y-89733428D01*
X82669238Y-89685809D01*
X82050190Y-90114380D02*
X82145428Y-90066761D01*
X82193047Y-89971523D01*
X82193047Y-89114380D01*
X101814357Y-79420476D02*
X101766738Y-79468095D01*
X101719119Y-79610952D01*
X101719119Y-79706190D01*
X101766738Y-79849047D01*
X101861976Y-79944285D01*
X101957214Y-79991904D01*
X102147690Y-80039523D01*
X102290547Y-80039523D01*
X102481023Y-79991904D01*
X102576261Y-79944285D01*
X102671500Y-79849047D01*
X102719119Y-79706190D01*
X102719119Y-79610952D01*
X102671500Y-79468095D01*
X102623880Y-79420476D01*
X101719119Y-78849047D02*
X101766738Y-78944285D01*
X101861976Y-78991904D01*
X102719119Y-78991904D01*
X101719119Y-78325238D02*
X101766738Y-78420476D01*
X101814357Y-78468095D01*
X101909595Y-78515714D01*
X102195309Y-78515714D01*
X102290547Y-78468095D01*
X102338166Y-78420476D01*
X102385785Y-78325238D01*
X102385785Y-78182380D01*
X102338166Y-78087142D01*
X102290547Y-78039523D01*
X102195309Y-77991904D01*
X101909595Y-77991904D01*
X101814357Y-78039523D01*
X101766738Y-78087142D01*
X101719119Y-78182380D01*
X101719119Y-78325238D01*
X101766738Y-77610952D02*
X101719119Y-77515714D01*
X101719119Y-77325238D01*
X101766738Y-77230000D01*
X101861976Y-77182380D01*
X101909595Y-77182380D01*
X102004833Y-77230000D01*
X102052452Y-77325238D01*
X102052452Y-77468095D01*
X102100071Y-77563333D01*
X102195309Y-77610952D01*
X102242928Y-77610952D01*
X102338166Y-77563333D01*
X102385785Y-77468095D01*
X102385785Y-77325238D01*
X102338166Y-77230000D01*
X101766738Y-76372857D02*
X101719119Y-76468095D01*
X101719119Y-76658571D01*
X101766738Y-76753809D01*
X101861976Y-76801428D01*
X102242928Y-76801428D01*
X102338166Y-76753809D01*
X102385785Y-76658571D01*
X102385785Y-76468095D01*
X102338166Y-76372857D01*
X102242928Y-76325238D01*
X102147690Y-76325238D01*
X102052452Y-76801428D01*
X102719119Y-74944285D02*
X102719119Y-74753809D01*
X102671500Y-74658571D01*
X102576261Y-74563333D01*
X102385785Y-74515714D01*
X102052452Y-74515714D01*
X101861976Y-74563333D01*
X101766738Y-74658571D01*
X101719119Y-74753809D01*
X101719119Y-74944285D01*
X101766738Y-75039523D01*
X101861976Y-75134761D01*
X102052452Y-75182380D01*
X102385785Y-75182380D01*
X102576261Y-75134761D01*
X102671500Y-75039523D01*
X102719119Y-74944285D01*
X101719119Y-73610952D02*
X101719119Y-74087142D01*
X102719119Y-74087142D01*
X102242928Y-73277619D02*
X102242928Y-72944285D01*
X101719119Y-72801428D02*
X101719119Y-73277619D01*
X102719119Y-73277619D01*
X102719119Y-72801428D01*
X101719119Y-72372857D02*
X102719119Y-72372857D01*
X102719119Y-72134761D01*
X102671500Y-71991904D01*
X102576261Y-71896666D01*
X102481023Y-71849047D01*
X102290547Y-71801428D01*
X102147690Y-71801428D01*
X101957214Y-71849047D01*
X101861976Y-71896666D01*
X101766738Y-71991904D01*
X101719119Y-72134761D01*
X101719119Y-72372857D01*
X102385785Y-70610952D02*
X101528642Y-70610952D01*
X101433404Y-70658571D01*
X101385785Y-70753809D01*
X101385785Y-70801428D01*
X102719119Y-70610952D02*
X102671500Y-70658571D01*
X102623880Y-70610952D01*
X102671500Y-70563333D01*
X102719119Y-70610952D01*
X102623880Y-70610952D01*
X102385785Y-69706190D02*
X101719119Y-69706190D01*
X102385785Y-70134761D02*
X101861976Y-70134761D01*
X101766738Y-70087142D01*
X101719119Y-69991904D01*
X101719119Y-69849047D01*
X101766738Y-69753809D01*
X101814357Y-69706190D01*
X101719119Y-69230000D02*
X102385785Y-69230000D01*
X102290547Y-69230000D02*
X102338166Y-69182380D01*
X102385785Y-69087142D01*
X102385785Y-68944285D01*
X102338166Y-68849047D01*
X102242928Y-68801428D01*
X101719119Y-68801428D01*
X102242928Y-68801428D02*
X102338166Y-68753809D01*
X102385785Y-68658571D01*
X102385785Y-68515714D01*
X102338166Y-68420476D01*
X102242928Y-68372857D01*
X101719119Y-68372857D01*
X102385785Y-67896666D02*
X101385785Y-67896666D01*
X102338166Y-67896666D02*
X102385785Y-67801428D01*
X102385785Y-67610952D01*
X102338166Y-67515714D01*
X102290547Y-67468095D01*
X102195309Y-67420476D01*
X101909595Y-67420476D01*
X101814357Y-67468095D01*
X101766738Y-67515714D01*
X101719119Y-67610952D01*
X101719119Y-67801428D01*
X101766738Y-67896666D01*
X101766738Y-66610952D02*
X101719119Y-66706190D01*
X101719119Y-66896666D01*
X101766738Y-66991904D01*
X101861976Y-67039523D01*
X102242928Y-67039523D01*
X102338166Y-66991904D01*
X102385785Y-66896666D01*
X102385785Y-66706190D01*
X102338166Y-66610952D01*
X102242928Y-66563333D01*
X102147690Y-66563333D01*
X102052452Y-67039523D01*
X101719119Y-66134761D02*
X102385785Y-66134761D01*
X102195309Y-66134761D02*
X102290547Y-66087142D01*
X102338166Y-66039523D01*
X102385785Y-65944285D01*
X102385785Y-65849047D01*
X101766738Y-65563333D02*
X101719119Y-65468095D01*
X101719119Y-65277619D01*
X101766738Y-65182380D01*
X101861976Y-65134761D01*
X101909595Y-65134761D01*
X102004833Y-65182380D01*
X102052452Y-65277619D01*
X102052452Y-65420476D01*
X102100071Y-65515714D01*
X102195309Y-65563333D01*
X102242928Y-65563333D01*
X102338166Y-65515714D01*
X102385785Y-65420476D01*
X102385785Y-65277619D01*
X102338166Y-65182380D01*
X101719119Y-63801428D02*
X101766738Y-63896666D01*
X101814357Y-63944285D01*
X101909595Y-63991904D01*
X102195309Y-63991904D01*
X102290547Y-63944285D01*
X102338166Y-63896666D01*
X102385785Y-63801428D01*
X102385785Y-63658571D01*
X102338166Y-63563333D01*
X102290547Y-63515714D01*
X102195309Y-63468095D01*
X101909595Y-63468095D01*
X101814357Y-63515714D01*
X101766738Y-63563333D01*
X101719119Y-63658571D01*
X101719119Y-63801428D01*
X102385785Y-63039523D02*
X101719119Y-63039523D01*
X102290547Y-63039523D02*
X102338166Y-62991904D01*
X102385785Y-62896666D01*
X102385785Y-62753809D01*
X102338166Y-62658571D01*
X102242928Y-62610952D01*
X101719119Y-62610952D01*
X101719119Y-61991904D02*
X101766738Y-62087142D01*
X101861976Y-62134761D01*
X102719119Y-62134761D01*
X102385785Y-61706190D02*
X101719119Y-61468095D01*
X102385785Y-61230000D02*
X101719119Y-61468095D01*
X101481023Y-61563333D01*
X101433404Y-61610952D01*
X101385785Y-61706190D01*
X101719119Y-59944285D02*
X101766738Y-60039523D01*
X101814357Y-60087142D01*
X101909595Y-60134761D01*
X102195309Y-60134761D01*
X102290547Y-60087142D01*
X102338166Y-60039523D01*
X102385785Y-59944285D01*
X102385785Y-59801428D01*
X102338166Y-59706190D01*
X102290547Y-59658571D01*
X102195309Y-59610952D01*
X101909595Y-59610952D01*
X101814357Y-59658571D01*
X101766738Y-59706190D01*
X101719119Y-59801428D01*
X101719119Y-59944285D01*
X102385785Y-59182380D02*
X101719119Y-59182380D01*
X102290547Y-59182380D02*
X102338166Y-59134761D01*
X102385785Y-59039523D01*
X102385785Y-58896666D01*
X102338166Y-58801428D01*
X102242928Y-58753809D01*
X101719119Y-58753809D01*
X102385785Y-57658571D02*
X102385785Y-57277619D01*
X102719119Y-57515714D02*
X101861976Y-57515714D01*
X101766738Y-57468095D01*
X101719119Y-57372857D01*
X101719119Y-57277619D01*
X101719119Y-56801428D02*
X101766738Y-56896666D01*
X101814357Y-56944285D01*
X101909595Y-56991904D01*
X102195309Y-56991904D01*
X102290547Y-56944285D01*
X102338166Y-56896666D01*
X102385785Y-56801428D01*
X102385785Y-56658571D01*
X102338166Y-56563333D01*
X102290547Y-56515714D01*
X102195309Y-56468095D01*
X101909595Y-56468095D01*
X101814357Y-56515714D01*
X101766738Y-56563333D01*
X101719119Y-56658571D01*
X101719119Y-56801428D01*
X102385785Y-56039523D02*
X101385785Y-56039523D01*
X102338166Y-56039523D02*
X102385785Y-55944285D01*
X102385785Y-55753809D01*
X102338166Y-55658571D01*
X102290547Y-55610952D01*
X102195309Y-55563333D01*
X101909595Y-55563333D01*
X101814357Y-55610952D01*
X101766738Y-55658571D01*
X101719119Y-55753809D01*
X101719119Y-55944285D01*
X101766738Y-56039523D01*
X101766738Y-54420476D02*
X101719119Y-54325238D01*
X101719119Y-54134761D01*
X101766738Y-54039523D01*
X101861976Y-53991904D01*
X101909595Y-53991904D01*
X102004833Y-54039523D01*
X102052452Y-54134761D01*
X102052452Y-54277619D01*
X102100071Y-54372857D01*
X102195309Y-54420476D01*
X102242928Y-54420476D01*
X102338166Y-54372857D01*
X102385785Y-54277619D01*
X102385785Y-54134761D01*
X102338166Y-54039523D01*
X101719119Y-53563333D02*
X102385785Y-53563333D01*
X102719119Y-53563333D02*
X102671500Y-53610952D01*
X102623880Y-53563333D01*
X102671500Y-53515714D01*
X102719119Y-53563333D01*
X102623880Y-53563333D01*
X101719119Y-52658571D02*
X102719119Y-52658571D01*
X101766738Y-52658571D02*
X101719119Y-52753809D01*
X101719119Y-52944285D01*
X101766738Y-53039523D01*
X101814357Y-53087142D01*
X101909595Y-53134761D01*
X102195309Y-53134761D01*
X102290547Y-53087142D01*
X102338166Y-53039523D01*
X102385785Y-52944285D01*
X102385785Y-52753809D01*
X102338166Y-52658571D01*
X101766738Y-51801428D02*
X101719119Y-51896666D01*
X101719119Y-52087142D01*
X101766738Y-52182380D01*
X101861976Y-52230000D01*
X102242928Y-52230000D01*
X102338166Y-52182380D01*
X102385785Y-52087142D01*
X102385785Y-51896666D01*
X102338166Y-51801428D01*
X102242928Y-51753809D01*
X102147690Y-51753809D01*
X102052452Y-52230000D01*
X101719119Y-50420476D02*
X101766738Y-50515714D01*
X101814357Y-50563333D01*
X101909595Y-50610952D01*
X102195309Y-50610952D01*
X102290547Y-50563333D01*
X102338166Y-50515714D01*
X102385785Y-50420476D01*
X102385785Y-50277619D01*
X102338166Y-50182380D01*
X102290547Y-50134761D01*
X102195309Y-50087142D01*
X101909595Y-50087142D01*
X101814357Y-50134761D01*
X101766738Y-50182380D01*
X101719119Y-50277619D01*
X101719119Y-50420476D01*
X102385785Y-49801428D02*
X102385785Y-49420476D01*
X101719119Y-49658571D02*
X102576261Y-49658571D01*
X102671500Y-49610952D01*
X102719119Y-49515714D01*
X102719119Y-49420476D01*
X101719119Y-48325238D02*
X102719119Y-48325238D01*
X102338166Y-48325238D02*
X102385785Y-48230000D01*
X102385785Y-48039523D01*
X102338166Y-47944285D01*
X102290547Y-47896666D01*
X102195309Y-47849047D01*
X101909595Y-47849047D01*
X101814357Y-47896666D01*
X101766738Y-47944285D01*
X101719119Y-48039523D01*
X101719119Y-48230000D01*
X101766738Y-48325238D01*
X101719119Y-47277619D02*
X101766738Y-47372857D01*
X101814357Y-47420476D01*
X101909595Y-47468095D01*
X102195309Y-47468095D01*
X102290547Y-47420476D01*
X102338166Y-47372857D01*
X102385785Y-47277619D01*
X102385785Y-47134761D01*
X102338166Y-47039523D01*
X102290547Y-46991904D01*
X102195309Y-46944285D01*
X101909595Y-46944285D01*
X101814357Y-46991904D01*
X101766738Y-47039523D01*
X101719119Y-47134761D01*
X101719119Y-47277619D01*
X101719119Y-46087142D02*
X102242928Y-46087142D01*
X102338166Y-46134761D01*
X102385785Y-46230000D01*
X102385785Y-46420476D01*
X102338166Y-46515714D01*
X101766738Y-46087142D02*
X101719119Y-46182380D01*
X101719119Y-46420476D01*
X101766738Y-46515714D01*
X101861976Y-46563333D01*
X101957214Y-46563333D01*
X102052452Y-46515714D01*
X102100071Y-46420476D01*
X102100071Y-46182380D01*
X102147690Y-46087142D01*
X101719119Y-45610952D02*
X102385785Y-45610952D01*
X102195309Y-45610952D02*
X102290547Y-45563333D01*
X102338166Y-45515714D01*
X102385785Y-45420476D01*
X102385785Y-45325238D01*
X101719119Y-44563333D02*
X102719119Y-44563333D01*
X101766738Y-44563333D02*
X101719119Y-44658571D01*
X101719119Y-44849047D01*
X101766738Y-44944285D01*
X101814357Y-44991904D01*
X101909595Y-45039523D01*
X102195309Y-45039523D01*
X102290547Y-44991904D01*
X102338166Y-44944285D01*
X102385785Y-44849047D01*
X102385785Y-44658571D01*
X102338166Y-44563333D01*
X101814357Y-44087142D02*
X101766738Y-44039523D01*
X101719119Y-44087142D01*
X101766738Y-44134761D01*
X101814357Y-44087142D01*
X101719119Y-44087142D01*
X102100071Y-44087142D02*
X102671500Y-44134761D01*
X102719119Y-44087142D01*
X102671500Y-44039523D01*
X102100071Y-44087142D01*
X102719119Y-44087142D01*
D11*
X101547214Y-110462142D02*
X101332928Y-110533571D01*
X100975785Y-110533571D01*
X100832928Y-110462142D01*
X100761500Y-110390714D01*
X100690071Y-110247857D01*
X100690071Y-110105000D01*
X100761500Y-109962142D01*
X100832928Y-109890714D01*
X100975785Y-109819285D01*
X101261500Y-109747857D01*
X101404357Y-109676428D01*
X101475785Y-109605000D01*
X101547214Y-109462142D01*
X101547214Y-109319285D01*
X101475785Y-109176428D01*
X101404357Y-109105000D01*
X101261500Y-109033571D01*
X100904357Y-109033571D01*
X100690071Y-109105000D01*
X100047214Y-109533571D02*
X100047214Y-111033571D01*
X100047214Y-109605000D02*
X99904357Y-109533571D01*
X99618642Y-109533571D01*
X99475785Y-109605000D01*
X99404357Y-109676428D01*
X99332928Y-109819285D01*
X99332928Y-110247857D01*
X99404357Y-110390714D01*
X99475785Y-110462142D01*
X99618642Y-110533571D01*
X99904357Y-110533571D01*
X100047214Y-110462142D01*
X98475785Y-110533571D02*
X98618642Y-110462142D01*
X98690071Y-110319285D01*
X98690071Y-109033571D01*
X97904357Y-110533571D02*
X97904357Y-109533571D01*
X97904357Y-109033571D02*
X97975785Y-109105000D01*
X97904357Y-109176428D01*
X97832928Y-109105000D01*
X97904357Y-109033571D01*
X97904357Y-109176428D01*
X97404357Y-109533571D02*
X96832928Y-109533571D01*
X97190071Y-109033571D02*
X97190071Y-110319285D01*
X97118642Y-110462142D01*
X96975785Y-110533571D01*
X96832928Y-110533571D01*
X94475785Y-109033571D02*
X95190071Y-109033571D01*
X95261500Y-109747857D01*
X95190071Y-109676428D01*
X95047214Y-109605000D01*
X94690071Y-109605000D01*
X94547214Y-109676428D01*
X94475785Y-109747857D01*
X94404357Y-109890714D01*
X94404357Y-110247857D01*
X94475785Y-110390714D01*
X94547214Y-110462142D01*
X94690071Y-110533571D01*
X95047214Y-110533571D01*
X95190071Y-110462142D01*
X95261500Y-110390714D01*
X93547214Y-109676428D02*
X93690071Y-109605000D01*
X93761500Y-109533571D01*
X93832928Y-109390714D01*
X93832928Y-109319285D01*
X93761500Y-109176428D01*
X93690071Y-109105000D01*
X93547214Y-109033571D01*
X93261500Y-109033571D01*
X93118642Y-109105000D01*
X93047214Y-109176428D01*
X92975785Y-109319285D01*
X92975785Y-109390714D01*
X93047214Y-109533571D01*
X93118642Y-109605000D01*
X93261500Y-109676428D01*
X93547214Y-109676428D01*
X93690071Y-109747857D01*
X93761500Y-109819285D01*
X93832928Y-109962142D01*
X93832928Y-110247857D01*
X93761500Y-110390714D01*
X93690071Y-110462142D01*
X93547214Y-110533571D01*
X93261500Y-110533571D01*
X93118642Y-110462142D01*
X93047214Y-110390714D01*
X92975785Y-110247857D01*
X92975785Y-109962142D01*
X93047214Y-109819285D01*
X93118642Y-109747857D01*
X93261500Y-109676428D01*
X91190071Y-110533571D02*
X91190071Y-109033571D01*
X91190071Y-109747857D02*
X90332928Y-109747857D01*
X90332928Y-110533571D02*
X90332928Y-109033571D01*
X89690071Y-110462142D02*
X89475785Y-110533571D01*
X89118642Y-110533571D01*
X88975785Y-110462142D01*
X88904357Y-110390714D01*
X88832928Y-110247857D01*
X88832928Y-110105000D01*
X88904357Y-109962142D01*
X88975785Y-109890714D01*
X89118642Y-109819285D01*
X89404357Y-109747857D01*
X89547214Y-109676428D01*
X89618642Y-109605000D01*
X89690071Y-109462142D01*
X89690071Y-109319285D01*
X89618642Y-109176428D01*
X89547214Y-109105000D01*
X89404357Y-109033571D01*
X89047214Y-109033571D01*
X88832928Y-109105000D01*
X88190071Y-109962142D02*
X87047214Y-109962142D01*
X85475785Y-110533571D02*
X85975785Y-109819285D01*
X86332928Y-110533571D02*
X86332928Y-109033571D01*
X85761500Y-109033571D01*
X85618642Y-109105000D01*
X85547214Y-109176428D01*
X85475785Y-109319285D01*
X85475785Y-109533571D01*
X85547214Y-109676428D01*
X85618642Y-109747857D01*
X85761500Y-109819285D01*
X86332928Y-109819285D01*
X84047214Y-109105000D02*
X84190071Y-109033571D01*
X84404357Y-109033571D01*
X84618642Y-109105000D01*
X84761500Y-109247857D01*
X84832928Y-109390714D01*
X84904357Y-109676428D01*
X84904357Y-109890714D01*
X84832928Y-110176428D01*
X84761500Y-110319285D01*
X84618642Y-110462142D01*
X84404357Y-110533571D01*
X84261500Y-110533571D01*
X84047214Y-110462142D01*
X83975785Y-110390714D01*
X83975785Y-109890714D01*
X84261500Y-109890714D01*
X82832928Y-109747857D02*
X82618642Y-109819285D01*
X82547214Y-109890714D01*
X82475785Y-110033571D01*
X82475785Y-110247857D01*
X82547214Y-110390714D01*
X82618642Y-110462142D01*
X82761500Y-110533571D01*
X83332928Y-110533571D01*
X83332928Y-109033571D01*
X82832928Y-109033571D01*
X82690071Y-109105000D01*
X82618642Y-109176428D01*
X82547214Y-109319285D01*
X82547214Y-109462142D01*
X82618642Y-109605000D01*
X82690071Y-109676428D01*
X82832928Y-109747857D01*
X83332928Y-109747857D01*
D10*
X81470500Y-81273000D02*
X79570500Y-81273000D01*
X81470500Y-80773000D02*
X81470500Y-81273000D01*
X79570500Y-86223000D02*
X79570500Y-81273000D01*
X81470500Y-86273000D02*
X79570500Y-86273000D01*
X93470500Y-86773000D02*
X81470500Y-86773000D01*
X93470500Y-80773000D02*
X93470500Y-86773000D01*
X81470500Y-80773000D02*
X93470500Y-80773000D01*
X81470500Y-86773000D02*
X81470500Y-86273000D01*
X83578700Y-72580500D02*
X83578700Y-74866500D01*
X83578700Y-74866500D02*
X85356700Y-74866500D01*
X85356700Y-74866500D02*
X85356700Y-72580500D01*
X85356700Y-72580500D02*
X83578700Y-72580500D01*
X84899500Y-86868000D02*
X82613500Y-86868000D01*
X82613500Y-86868000D02*
X82613500Y-88646000D01*
X82613500Y-88646000D02*
X84899500Y-88646000D01*
X84899500Y-88646000D02*
X84899500Y-86868000D01*
X86878900Y-76432500D02*
X86878900Y-78718500D01*
X86878900Y-78718500D02*
X88656900Y-78718500D01*
X88656900Y-78718500D02*
X88656900Y-76432500D01*
X88656900Y-76432500D02*
X86878900Y-76432500D01*
X89450332Y-76432500D02*
X89450332Y-78718500D01*
X89450332Y-78718500D02*
X91228332Y-78718500D01*
X91228332Y-78718500D02*
X91228332Y-76432500D01*
X91228332Y-76432500D02*
X89450332Y-76432500D01*
X92021766Y-76432500D02*
X92021766Y-78718500D01*
X92021766Y-78718500D02*
X93799766Y-78718500D01*
X93799766Y-78718500D02*
X93799766Y-76432500D01*
X93799766Y-76432500D02*
X92021766Y-76432500D01*
X94529700Y-76432500D02*
X94529700Y-78718500D01*
X94529700Y-78718500D02*
X96307700Y-78718500D01*
X96307700Y-78718500D02*
X96307700Y-76432500D01*
X96307700Y-76432500D02*
X94529700Y-76432500D01*
X100747053Y-88127767D02*
X98625733Y-86006447D01*
X98625733Y-86006447D02*
X100039947Y-84592233D01*
X100039947Y-84592233D02*
X102161267Y-86713553D01*
X102161267Y-86713553D02*
X100747053Y-88127767D01*
X100810553Y-85016267D02*
X98689233Y-82894947D01*
X98689233Y-82894947D02*
X100103447Y-81480733D01*
X100103447Y-81480733D02*
X102224767Y-83602053D01*
X102224767Y-83602053D02*
X100810553Y-85016267D01*
X106657140Y-39893240D02*
X106657140Y-41894760D01*
X106657140Y-41894760D02*
X103654860Y-41894760D01*
X103654860Y-41894760D02*
X103654860Y-39893240D01*
X103654860Y-39893240D02*
X106657140Y-39893240D01*
X103654860Y-39608760D02*
X103654860Y-37607240D01*
X103654860Y-37607240D02*
X106657140Y-37607240D01*
X106657140Y-37607240D02*
X106657140Y-39608760D01*
X106657140Y-39608760D02*
X103654860Y-39608760D01*
X92575000Y-73280500D02*
X92575000Y-71880500D01*
X91675000Y-71880500D02*
X92575000Y-72580500D01*
X91675000Y-73280500D02*
X91675000Y-71880500D01*
X92575000Y-72580500D02*
X91675000Y-73280500D01*
X94875000Y-72580500D02*
X95775000Y-72580500D01*
X89275000Y-72580500D02*
X88275000Y-72580500D01*
X151700000Y-122880500D02*
X153100000Y-122880500D01*
X152400000Y-122880500D02*
X151700000Y-123780500D01*
X153100000Y-123780500D02*
X152400000Y-122880500D01*
X151700000Y-123780500D02*
X153100000Y-123780500D01*
X152400000Y-119680500D02*
X152400000Y-120580500D01*
X152400000Y-126180500D02*
X152400000Y-127180500D01*
X132650000Y-123198000D02*
X134050000Y-123198000D01*
X133350000Y-123198000D02*
X132650000Y-124098000D01*
X134050000Y-124098000D02*
X133350000Y-123198000D01*
X132650000Y-124098000D02*
X134050000Y-124098000D01*
X133350000Y-119998000D02*
X133350000Y-120898000D01*
X133350000Y-126498000D02*
X133350000Y-127498000D01*
X113727000Y-124214000D02*
X115127000Y-124214000D01*
X114427000Y-124214000D02*
X113727000Y-125114000D01*
X115127000Y-125114000D02*
X114427000Y-124214000D01*
X113727000Y-125114000D02*
X115127000Y-125114000D01*
X114427000Y-121014000D02*
X114427000Y-121914000D01*
X114427000Y-127514000D02*
X114427000Y-128514000D01*
X108488718Y-125495513D02*
X107276282Y-126195513D01*
X107882500Y-125845513D02*
X108038718Y-124716090D01*
X106826282Y-125416090D02*
X107882500Y-125845513D01*
X108038718Y-124716090D02*
X106826282Y-125416090D01*
X109482500Y-128616794D02*
X109032500Y-127837371D01*
X106232500Y-122987629D02*
X105732500Y-122121603D01*
X93083000Y-88835000D02*
X93083000Y-90235000D01*
X93083000Y-89535000D02*
X92183000Y-88835000D01*
X92183000Y-90235000D02*
X93083000Y-89535000D01*
X92183000Y-88835000D02*
X92183000Y-90235000D01*
X96283000Y-89535000D02*
X95383000Y-89535000D01*
X89783000Y-89535000D02*
X88783000Y-89535000D01*
X200788500Y-110291500D02*
X199388500Y-110291500D01*
X200088500Y-110291500D02*
X200788500Y-109391500D01*
X199388500Y-109391500D02*
X200088500Y-110291500D01*
X200788500Y-109391500D02*
X199388500Y-109391500D01*
X200088500Y-113491500D02*
X200088500Y-112591500D01*
X200088500Y-106991500D02*
X200088500Y-105991500D01*
X181738500Y-105402000D02*
X180338500Y-105402000D01*
X181038500Y-105402000D02*
X181738500Y-104502000D01*
X180338500Y-104502000D02*
X181038500Y-105402000D01*
X181738500Y-104502000D02*
X180338500Y-104502000D01*
X181038500Y-108602000D02*
X181038500Y-107702000D01*
X181038500Y-102102000D02*
X181038500Y-101102000D01*
X162688500Y-103433500D02*
X161288500Y-103433500D01*
X161988500Y-103433500D02*
X162688500Y-102533500D01*
X161288500Y-102533500D02*
X161988500Y-103433500D01*
X162688500Y-102533500D02*
X161288500Y-102533500D01*
X161988500Y-106633500D02*
X161988500Y-105733500D01*
X161988500Y-100133500D02*
X161988500Y-99133500D01*
X143702000Y-103433500D02*
X142302000Y-103433500D01*
X143002000Y-103433500D02*
X143702000Y-102533500D01*
X142302000Y-102533500D02*
X143002000Y-103433500D01*
X143702000Y-102533500D02*
X142302000Y-102533500D01*
X143002000Y-106633500D02*
X143002000Y-105733500D01*
X143002000Y-100133500D02*
X143002000Y-99133500D01*
X124652000Y-105656000D02*
X123252000Y-105656000D01*
X123952000Y-105656000D02*
X124652000Y-104756000D01*
X123252000Y-104756000D02*
X123952000Y-105656000D01*
X124652000Y-104756000D02*
X123252000Y-104756000D01*
X123952000Y-108856000D02*
X123952000Y-107956000D01*
X123952000Y-102356000D02*
X123952000Y-101356000D01*
X105602000Y-106862500D02*
X104202000Y-106862500D01*
X104902000Y-106862500D02*
X105602000Y-105962500D01*
X104202000Y-105962500D02*
X104902000Y-106862500D01*
X105602000Y-105962500D02*
X104202000Y-105962500D01*
X104902000Y-110062500D02*
X104902000Y-109162500D01*
X104902000Y-103562500D02*
X104902000Y-102562500D01*
X199325000Y-89479500D02*
X200725000Y-89479500D01*
X200025000Y-89479500D02*
X199325000Y-90379500D01*
X200725000Y-90379500D02*
X200025000Y-89479500D01*
X199325000Y-90379500D02*
X200725000Y-90379500D01*
X200025000Y-86279500D02*
X200025000Y-87179500D01*
X200025000Y-92779500D02*
X200025000Y-93779500D01*
X180465500Y-86495000D02*
X181865500Y-86495000D01*
X181165500Y-86495000D02*
X180465500Y-87395000D01*
X181865500Y-87395000D02*
X181165500Y-86495000D01*
X180465500Y-87395000D02*
X181865500Y-87395000D01*
X181165500Y-83295000D02*
X181165500Y-84195000D01*
X181165500Y-89795000D02*
X181165500Y-90795000D01*
X161352000Y-83574000D02*
X162752000Y-83574000D01*
X162052000Y-83574000D02*
X161352000Y-84474000D01*
X162752000Y-84474000D02*
X162052000Y-83574000D01*
X161352000Y-84474000D02*
X162752000Y-84474000D01*
X162052000Y-80374000D02*
X162052000Y-81274000D01*
X162052000Y-86874000D02*
X162052000Y-87874000D01*
X142304540Y-83383500D02*
X143704540Y-83383500D01*
X143004540Y-83383500D02*
X142304540Y-84283500D01*
X143704540Y-84283500D02*
X143004540Y-83383500D01*
X142304540Y-84283500D02*
X143704540Y-84283500D01*
X143004540Y-80183500D02*
X143004540Y-81083500D01*
X143004540Y-86683500D02*
X143004540Y-87683500D01*
X123125000Y-84717000D02*
X124525000Y-84717000D01*
X123825000Y-84717000D02*
X123125000Y-85617000D01*
X124525000Y-85617000D02*
X123825000Y-84717000D01*
X123125000Y-85617000D02*
X124525000Y-85617000D01*
X123825000Y-81517000D02*
X123825000Y-82417000D01*
X123825000Y-88017000D02*
X123825000Y-89017000D01*
X104202000Y-86812500D02*
X105602000Y-86812500D01*
X104902000Y-86812500D02*
X104202000Y-87712500D01*
X105602000Y-87712500D02*
X104902000Y-86812500D01*
X104202000Y-87712500D02*
X105602000Y-87712500D01*
X104902000Y-83612500D02*
X104902000Y-84512500D01*
X104902000Y-90112500D02*
X104902000Y-91112500D01*
X200979000Y-73588500D02*
X199579000Y-73588500D01*
X200279000Y-73588500D02*
X200979000Y-72688500D01*
X199579000Y-72688500D02*
X200279000Y-73588500D01*
X200979000Y-72688500D02*
X199579000Y-72688500D01*
X200279000Y-76788500D02*
X200279000Y-75888500D01*
X200279000Y-70288500D02*
X200279000Y-69288500D01*
X181929000Y-68508500D02*
X180529000Y-68508500D01*
X181229000Y-68508500D02*
X181929000Y-67608500D01*
X180529000Y-67608500D02*
X181229000Y-68508500D01*
X181929000Y-67608500D02*
X180529000Y-67608500D01*
X181229000Y-71708500D02*
X181229000Y-70808500D01*
X181229000Y-65208500D02*
X181229000Y-64208500D01*
X162752000Y-66413000D02*
X161352000Y-66413000D01*
X162052000Y-66413000D02*
X162752000Y-65513000D01*
X161352000Y-65513000D02*
X162052000Y-66413000D01*
X162752000Y-65513000D02*
X161352000Y-65513000D01*
X162052000Y-69613000D02*
X162052000Y-68713000D01*
X162052000Y-63113000D02*
X162052000Y-62113000D01*
X143638500Y-66032000D02*
X142238500Y-66032000D01*
X142938500Y-66032000D02*
X143638500Y-65132000D01*
X142238500Y-65132000D02*
X142938500Y-66032000D01*
X143638500Y-65132000D02*
X142238500Y-65132000D01*
X142938500Y-69232000D02*
X142938500Y-68332000D01*
X142938500Y-62732000D02*
X142938500Y-61732000D01*
X124652000Y-67175000D02*
X123252000Y-67175000D01*
X123952000Y-67175000D02*
X124652000Y-66275000D01*
X123252000Y-66275000D02*
X123952000Y-67175000D01*
X124652000Y-66275000D02*
X123252000Y-66275000D01*
X123952000Y-70375000D02*
X123952000Y-69475000D01*
X123952000Y-63875000D02*
X123952000Y-62875000D01*
X105665500Y-68508500D02*
X104265500Y-68508500D01*
X104965500Y-68508500D02*
X105665500Y-67608500D01*
X104265500Y-67608500D02*
X104965500Y-68508500D01*
X105665500Y-67608500D02*
X104265500Y-67608500D01*
X104965500Y-71708500D02*
X104965500Y-70808500D01*
X104965500Y-65208500D02*
X104965500Y-64208500D01*
X199452000Y-51633500D02*
X200852000Y-51633500D01*
X200152000Y-51633500D02*
X199452000Y-52533500D01*
X200852000Y-52533500D02*
X200152000Y-51633500D01*
X199452000Y-52533500D02*
X200852000Y-52533500D01*
X200152000Y-48433500D02*
X200152000Y-49333500D01*
X200152000Y-54933500D02*
X200152000Y-55933500D01*
X180529000Y-49093500D02*
X181929000Y-49093500D01*
X181229000Y-49093500D02*
X180529000Y-49993500D01*
X181929000Y-49993500D02*
X181229000Y-49093500D01*
X180529000Y-49993500D02*
X181929000Y-49993500D01*
X181229000Y-45893500D02*
X181229000Y-46793500D01*
X181229000Y-52393500D02*
X181229000Y-53393500D01*
X161352000Y-45474000D02*
X162752000Y-45474000D01*
X162052000Y-45474000D02*
X161352000Y-46374000D01*
X162752000Y-46374000D02*
X162052000Y-45474000D01*
X161352000Y-46374000D02*
X162752000Y-46374000D01*
X162052000Y-42274000D02*
X162052000Y-43174000D01*
X162052000Y-48774000D02*
X162052000Y-49774000D01*
X142111500Y-46172500D02*
X143511500Y-46172500D01*
X142811500Y-46172500D02*
X142111500Y-47072500D01*
X143511500Y-47072500D02*
X142811500Y-46172500D01*
X142111500Y-47072500D02*
X143511500Y-47072500D01*
X142811500Y-42972500D02*
X142811500Y-43872500D01*
X142811500Y-49472500D02*
X142811500Y-50472500D01*
X123252000Y-46617000D02*
X124652000Y-46617000D01*
X123952000Y-46617000D02*
X123252000Y-47517000D01*
X124652000Y-47517000D02*
X123952000Y-46617000D01*
X123252000Y-47517000D02*
X124652000Y-47517000D01*
X123952000Y-43417000D02*
X123952000Y-44317000D01*
X123952000Y-49917000D02*
X123952000Y-50917000D01*
X104329000Y-48966500D02*
X105729000Y-48966500D01*
X105029000Y-48966500D02*
X104329000Y-49866500D01*
X105729000Y-49866500D02*
X105029000Y-48966500D01*
X104329000Y-49866500D02*
X105729000Y-49866500D01*
X105029000Y-45766500D02*
X105029000Y-46666500D01*
X105029000Y-52266500D02*
X105029000Y-53266500D01*
D11*
X113664000Y-57709000D02*
X116114000Y-57709000D01*
X116114000Y-57709000D02*
X116114000Y-59159000D01*
X116114000Y-59159000D02*
X113694000Y-59159000D01*
X113664000Y-59159000D02*
X113664000Y-57709000D01*
X156463000Y-54280000D02*
X158913000Y-54280000D01*
X158913000Y-54280000D02*
X158913000Y-55730000D01*
X158913000Y-55730000D02*
X156493000Y-55730000D01*
X156463000Y-55730000D02*
X156463000Y-54280000D01*
X188530500Y-60630000D02*
X190980500Y-60630000D01*
X190980500Y-60630000D02*
X190980500Y-62080000D01*
X190980500Y-62080000D02*
X188560500Y-62080000D01*
X188530500Y-62080000D02*
X188530500Y-60630000D01*
X112164500Y-118644500D02*
X109714500Y-118644500D01*
X109714500Y-118644500D02*
X109714500Y-117194500D01*
X109714500Y-117194500D02*
X112134500Y-117194500D01*
X112164500Y-117194500D02*
X112164500Y-118644500D01*
X154560000Y-115074500D02*
X152110000Y-115074500D01*
X152110000Y-115074500D02*
X152110000Y-113624500D01*
X152110000Y-113624500D02*
X154530000Y-113624500D01*
X154560000Y-113624500D02*
X154560000Y-115074500D01*
X192850500Y-101358500D02*
X190400500Y-101358500D01*
X190400500Y-101358500D02*
X190400500Y-99908500D01*
X190400500Y-99908500D02*
X192820500Y-99908500D01*
X192850500Y-99908500D02*
X192850500Y-101358500D01*
X158520000Y-130480000D02*
X158520000Y-129030000D01*
X158520000Y-129030000D02*
X160570000Y-129030000D01*
X160570000Y-129030000D02*
X160570000Y-130480000D01*
X160570000Y-130480000D02*
X158520000Y-130480000D01*
X139467700Y-131508300D02*
X139467700Y-130058300D01*
X139467700Y-130058300D02*
X141517700Y-130058300D01*
X141517700Y-130058300D02*
X141517700Y-131508300D01*
X141517700Y-131508300D02*
X139467700Y-131508300D01*
X120420000Y-132880000D02*
X120420000Y-131430000D01*
X120420000Y-131430000D02*
X122470000Y-131430000D01*
X122470000Y-131430000D02*
X122470000Y-132880000D01*
X122470000Y-132880000D02*
X120420000Y-132880000D01*
X90670950Y-126417032D02*
X91926687Y-125692032D01*
X91926687Y-125692032D02*
X92951687Y-127467384D01*
X92951687Y-127467384D02*
X91695950Y-128192384D01*
X91695950Y-128192384D02*
X90670950Y-126417032D01*
X93904800Y-101765300D02*
X93904800Y-103215300D01*
X93904800Y-103215300D02*
X91854800Y-103215300D01*
X91854800Y-103215300D02*
X91854800Y-101765300D01*
X91854800Y-101765300D02*
X93904800Y-101765300D01*
X213080000Y-114530000D02*
X213080000Y-115980000D01*
X213080000Y-115980000D02*
X211030000Y-115980000D01*
X211030000Y-115980000D02*
X211030000Y-114530000D01*
X211030000Y-114530000D02*
X213080000Y-114530000D01*
X194030000Y-113030000D02*
X194030000Y-114480000D01*
X194030000Y-114480000D02*
X191980000Y-114480000D01*
X191980000Y-114480000D02*
X191980000Y-113030000D01*
X191980000Y-113030000D02*
X194030000Y-113030000D01*
X174980000Y-108230000D02*
X174980000Y-109680000D01*
X174980000Y-109680000D02*
X172930000Y-109680000D01*
X172930000Y-109680000D02*
X172930000Y-108230000D01*
X172930000Y-108230000D02*
X174980000Y-108230000D01*
X155930000Y-106840000D02*
X155930000Y-108290000D01*
X155930000Y-108290000D02*
X153880000Y-108290000D01*
X153880000Y-108290000D02*
X153880000Y-106840000D01*
X153880000Y-106840000D02*
X155930000Y-106840000D01*
X136880000Y-108230000D02*
X136880000Y-109680000D01*
X136880000Y-109680000D02*
X134830000Y-109680000D01*
X134830000Y-109680000D02*
X134830000Y-108230000D01*
X134830000Y-108230000D02*
X136880000Y-108230000D01*
X117830000Y-110630000D02*
X117830000Y-112080000D01*
X117830000Y-112080000D02*
X115780000Y-112080000D01*
X115780000Y-112080000D02*
X115780000Y-110630000D01*
X115780000Y-110630000D02*
X117830000Y-110630000D01*
X206220000Y-98680000D02*
X206220000Y-97230000D01*
X206220000Y-97230000D02*
X208270000Y-97230000D01*
X208270000Y-97230000D02*
X208270000Y-98680000D01*
X208270000Y-98680000D02*
X206220000Y-98680000D01*
X187170000Y-97180000D02*
X187170000Y-95730000D01*
X187170000Y-95730000D02*
X189220000Y-95730000D01*
X189220000Y-95730000D02*
X189220000Y-97180000D01*
X189220000Y-97180000D02*
X187170000Y-97180000D01*
X168120000Y-92380000D02*
X168120000Y-90930000D01*
X168120000Y-90930000D02*
X170170000Y-90930000D01*
X170170000Y-90930000D02*
X170170000Y-92380000D01*
X170170000Y-92380000D02*
X168120000Y-92380000D01*
X149070000Y-90990000D02*
X149070000Y-89540000D01*
X149070000Y-89540000D02*
X151120000Y-89540000D01*
X151120000Y-89540000D02*
X151120000Y-90990000D01*
X151120000Y-90990000D02*
X149070000Y-90990000D01*
X130020000Y-92380000D02*
X130020000Y-90930000D01*
X130020000Y-90930000D02*
X132070000Y-90930000D01*
X132070000Y-90930000D02*
X132070000Y-92380000D01*
X132070000Y-92380000D02*
X130020000Y-92380000D01*
X110970000Y-94780000D02*
X110970000Y-93330000D01*
X110970000Y-93330000D02*
X113020000Y-93330000D01*
X113020000Y-93330000D02*
X113020000Y-94780000D01*
X113020000Y-94780000D02*
X110970000Y-94780000D01*
X213080000Y-76430000D02*
X213080000Y-77880000D01*
X213080000Y-77880000D02*
X211030000Y-77880000D01*
X211030000Y-77880000D02*
X211030000Y-76430000D01*
X211030000Y-76430000D02*
X213080000Y-76430000D01*
X194030000Y-74930000D02*
X194030000Y-76380000D01*
X194030000Y-76380000D02*
X191980000Y-76380000D01*
X191980000Y-76380000D02*
X191980000Y-74930000D01*
X191980000Y-74930000D02*
X194030000Y-74930000D01*
X174980000Y-70130000D02*
X174980000Y-71580000D01*
X174980000Y-71580000D02*
X172930000Y-71580000D01*
X172930000Y-71580000D02*
X172930000Y-70130000D01*
X172930000Y-70130000D02*
X174980000Y-70130000D01*
X155930000Y-68740000D02*
X155930000Y-70190000D01*
X155930000Y-70190000D02*
X153880000Y-70190000D01*
X153880000Y-70190000D02*
X153880000Y-68740000D01*
X153880000Y-68740000D02*
X155930000Y-68740000D01*
X136880000Y-70130000D02*
X136880000Y-71580000D01*
X136880000Y-71580000D02*
X134830000Y-71580000D01*
X134830000Y-71580000D02*
X134830000Y-70130000D01*
X134830000Y-70130000D02*
X136880000Y-70130000D01*
X117830000Y-72530000D02*
X117830000Y-73980000D01*
X117830000Y-73980000D02*
X115780000Y-73980000D01*
X115780000Y-73980000D02*
X115780000Y-72530000D01*
X115780000Y-72530000D02*
X117830000Y-72530000D01*
X206220000Y-60580000D02*
X206220000Y-59130000D01*
X206220000Y-59130000D02*
X208270000Y-59130000D01*
X208270000Y-59130000D02*
X208270000Y-60580000D01*
X208270000Y-60580000D02*
X206220000Y-60580000D01*
X187170000Y-59080000D02*
X187170000Y-57630000D01*
X187170000Y-57630000D02*
X189220000Y-57630000D01*
X189220000Y-57630000D02*
X189220000Y-59080000D01*
X189220000Y-59080000D02*
X187170000Y-59080000D01*
X168120000Y-54280000D02*
X168120000Y-52830000D01*
X168120000Y-52830000D02*
X170170000Y-52830000D01*
X170170000Y-52830000D02*
X170170000Y-54280000D01*
X170170000Y-54280000D02*
X168120000Y-54280000D01*
X149070000Y-52890000D02*
X149070000Y-51440000D01*
X149070000Y-51440000D02*
X151120000Y-51440000D01*
X151120000Y-51440000D02*
X151120000Y-52890000D01*
X151120000Y-52890000D02*
X149070000Y-52890000D01*
X129970000Y-54280000D02*
X129970000Y-52830000D01*
X129970000Y-52830000D02*
X132020000Y-52830000D01*
X132020000Y-52830000D02*
X132020000Y-54280000D01*
X132020000Y-54280000D02*
X129970000Y-54280000D01*
X110970000Y-56680000D02*
X110970000Y-55230000D01*
X110970000Y-55230000D02*
X113020000Y-55230000D01*
X113020000Y-55230000D02*
X113020000Y-56680000D01*
X113020000Y-56680000D02*
X110970000Y-56680000D01*
D10*
X82016000Y-70340000D02*
X82016000Y-39860000D01*
X84556000Y-70340000D02*
X82016000Y-70340000D01*
X84556000Y-39860000D02*
X84556000Y-70340000D01*
X82016000Y-39860000D02*
X84556000Y-39860000D01*
X97256000Y-70340000D02*
X97256000Y-39860000D01*
X99796000Y-70340000D02*
X97256000Y-70340000D01*
X99796000Y-39860000D02*
X99796000Y-70340000D01*
X97256000Y-39860000D02*
X99796000Y-39860000D01*
X82016000Y-70340000D02*
X82016000Y-37320000D01*
X99796000Y-37320000D02*
X99796000Y-70340000D01*
X82016000Y-37320000D02*
X99796000Y-37320000D01*
X95608822Y-135609678D02*
X95108822Y-134743652D01*
X107733178Y-128609678D02*
X106867152Y-129109678D01*
X88608822Y-123485322D02*
X89474848Y-122985322D01*
X107233178Y-127743652D02*
X107733178Y-128609678D01*
X99867152Y-116985322D02*
X100733178Y-116485322D01*
X100733178Y-116485322D02*
X101233178Y-117351348D01*
X89108822Y-124351348D02*
X88608822Y-123485322D01*
X96474848Y-135109678D02*
X95608822Y-135609678D01*
X103039172Y-128779422D02*
X100474335Y-124428994D01*
X103079010Y-128756422D02*
X106463437Y-126802422D01*
X106463437Y-126802422D02*
X102150937Y-119332953D01*
X99321223Y-118339745D02*
X95904753Y-120312245D01*
X95896959Y-120316745D02*
X97701959Y-123443097D01*
X97725244Y-123435427D02*
G75*
G02*
X100483371Y-124452644I870455J-1887672D01*
G01*
X99387345Y-118314271D02*
G75*
G02*
X102150937Y-119332953I872455J-1891137D01*
G01*
X155850000Y-122904000D02*
X159460000Y-122904000D01*
X155850000Y-118950000D02*
X155850000Y-122895000D01*
X166750000Y-116996000D02*
X158125000Y-116996000D01*
X166750000Y-120904000D02*
X166750000Y-116996000D01*
X166750000Y-120950000D02*
X161700000Y-120996000D01*
X168950000Y-129800000D02*
X168950000Y-130800000D01*
X155950000Y-130800000D02*
X154950000Y-130800000D01*
X154950000Y-116800000D02*
X155950000Y-116800000D01*
X154950000Y-117800000D02*
X154950000Y-116800000D01*
X167950000Y-116800000D02*
X168950000Y-116800000D01*
X154950000Y-130800000D02*
X154950000Y-129800000D01*
X168950000Y-116800000D02*
X168950000Y-117800000D01*
X168950000Y-130800000D02*
X167950000Y-130800000D01*
X159465001Y-122879999D02*
G75*
G02*
X161725000Y-121000000I2069999J-190000D01*
G01*
X155861000Y-118880000D02*
G75*
G02*
X158125000Y-116996000I2074000J-190000D01*
G01*
X136797700Y-123932300D02*
X140407700Y-123932300D01*
X136797700Y-119978300D02*
X136797700Y-123923300D01*
X147697700Y-118024300D02*
X139072700Y-118024300D01*
X147697700Y-121932300D02*
X147697700Y-118024300D01*
X147697700Y-121978300D02*
X142647700Y-122024300D01*
X149897700Y-130828300D02*
X149897700Y-131828300D01*
X136897700Y-131828300D02*
X135897700Y-131828300D01*
X135897700Y-117828300D02*
X136897700Y-117828300D01*
X135897700Y-118828300D02*
X135897700Y-117828300D01*
X148897700Y-117828300D02*
X149897700Y-117828300D01*
X135897700Y-131828300D02*
X135897700Y-130828300D01*
X149897700Y-117828300D02*
X149897700Y-118828300D01*
X149897700Y-131828300D02*
X148897700Y-131828300D01*
X140412701Y-123908299D02*
G75*
G02*
X142672700Y-122028300I2069999J-190000D01*
G01*
X136808700Y-119908300D02*
G75*
G02*
X139072700Y-118024300I2074000J-190000D01*
G01*
X117750000Y-125304000D02*
X121360000Y-125304000D01*
X117750000Y-121350000D02*
X117750000Y-125295000D01*
X128650000Y-119396000D02*
X120025000Y-119396000D01*
X128650000Y-123304000D02*
X128650000Y-119396000D01*
X128650000Y-123350000D02*
X123600000Y-123396000D01*
X130850000Y-132200000D02*
X130850000Y-133200000D01*
X117850000Y-133200000D02*
X116850000Y-133200000D01*
X116850000Y-119200000D02*
X117850000Y-119200000D01*
X116850000Y-120200000D02*
X116850000Y-119200000D01*
X129850000Y-119200000D02*
X130850000Y-119200000D01*
X116850000Y-133200000D02*
X116850000Y-132200000D01*
X130850000Y-119200000D02*
X130850000Y-120200000D01*
X130850000Y-133200000D02*
X129850000Y-133200000D01*
X121365001Y-125279999D02*
G75*
G02*
X123625000Y-123400000I2069999J-190000D01*
G01*
X117761000Y-121280000D02*
G75*
G02*
X120025000Y-119396000I2074000J-190000D01*
G01*
X84374800Y-97389300D02*
X87984800Y-97389300D01*
X84374800Y-93435300D02*
X84374800Y-97380300D01*
X95274800Y-91481300D02*
X86649800Y-91481300D01*
X95274800Y-95389300D02*
X95274800Y-91481300D01*
X95274800Y-95435300D02*
X90224800Y-95481300D01*
X97474800Y-104285300D02*
X97474800Y-105285300D01*
X84474800Y-105285300D02*
X83474800Y-105285300D01*
X83474800Y-91285300D02*
X84474800Y-91285300D01*
X83474800Y-92285300D02*
X83474800Y-91285300D01*
X96474800Y-91285300D02*
X97474800Y-91285300D01*
X83474800Y-105285300D02*
X83474800Y-104285300D01*
X97474800Y-91285300D02*
X97474800Y-92285300D01*
X97474800Y-105285300D02*
X96474800Y-105285300D01*
X87989801Y-97365299D02*
G75*
G02*
X90249800Y-95485300I2069999J-190000D01*
G01*
X84385800Y-93365300D02*
G75*
G02*
X86649800Y-91481300I2074000J-190000D01*
G01*
X203550000Y-110154000D02*
X207160000Y-110154000D01*
X203550000Y-106200000D02*
X203550000Y-110145000D01*
X214450000Y-104246000D02*
X205825000Y-104246000D01*
X214450000Y-108154000D02*
X214450000Y-104246000D01*
X214450000Y-108200000D02*
X209400000Y-108246000D01*
X216650000Y-117050000D02*
X216650000Y-118050000D01*
X203650000Y-118050000D02*
X202650000Y-118050000D01*
X202650000Y-104050000D02*
X203650000Y-104050000D01*
X202650000Y-105050000D02*
X202650000Y-104050000D01*
X215650000Y-104050000D02*
X216650000Y-104050000D01*
X202650000Y-118050000D02*
X202650000Y-117050000D01*
X216650000Y-104050000D02*
X216650000Y-105050000D01*
X216650000Y-118050000D02*
X215650000Y-118050000D01*
X207165001Y-110129999D02*
G75*
G02*
X209425000Y-108250000I2069999J-190000D01*
G01*
X203561000Y-106130000D02*
G75*
G02*
X205825000Y-104246000I2074000J-190000D01*
G01*
X184500000Y-108654000D02*
X188110000Y-108654000D01*
X184500000Y-104700000D02*
X184500000Y-108645000D01*
X195400000Y-102746000D02*
X186775000Y-102746000D01*
X195400000Y-106654000D02*
X195400000Y-102746000D01*
X195400000Y-106700000D02*
X190350000Y-106746000D01*
X197600000Y-115550000D02*
X197600000Y-116550000D01*
X184600000Y-116550000D02*
X183600000Y-116550000D01*
X183600000Y-102550000D02*
X184600000Y-102550000D01*
X183600000Y-103550000D02*
X183600000Y-102550000D01*
X196600000Y-102550000D02*
X197600000Y-102550000D01*
X183600000Y-116550000D02*
X183600000Y-115550000D01*
X197600000Y-102550000D02*
X197600000Y-103550000D01*
X197600000Y-116550000D02*
X196600000Y-116550000D01*
X188115001Y-108629999D02*
G75*
G02*
X190375000Y-106750000I2069999J-190000D01*
G01*
X184511000Y-104630000D02*
G75*
G02*
X186775000Y-102746000I2074000J-190000D01*
G01*
X165450000Y-103854000D02*
X169060000Y-103854000D01*
X165450000Y-99900000D02*
X165450000Y-103845000D01*
X176350000Y-97946000D02*
X167725000Y-97946000D01*
X176350000Y-101854000D02*
X176350000Y-97946000D01*
X176350000Y-101900000D02*
X171300000Y-101946000D01*
X178550000Y-110750000D02*
X178550000Y-111750000D01*
X165550000Y-111750000D02*
X164550000Y-111750000D01*
X164550000Y-97750000D02*
X165550000Y-97750000D01*
X164550000Y-98750000D02*
X164550000Y-97750000D01*
X177550000Y-97750000D02*
X178550000Y-97750000D01*
X164550000Y-111750000D02*
X164550000Y-110750000D01*
X178550000Y-97750000D02*
X178550000Y-98750000D01*
X178550000Y-111750000D02*
X177550000Y-111750000D01*
X169065001Y-103829999D02*
G75*
G02*
X171325000Y-101950000I2069999J-190000D01*
G01*
X165461000Y-99830000D02*
G75*
G02*
X167725000Y-97946000I2074000J-190000D01*
G01*
X146400000Y-102464000D02*
X150010000Y-102464000D01*
X146400000Y-98510000D02*
X146400000Y-102455000D01*
X157300000Y-96556000D02*
X148675000Y-96556000D01*
X157300000Y-100464000D02*
X157300000Y-96556000D01*
X157300000Y-100510000D02*
X152250000Y-100556000D01*
X159500000Y-109360000D02*
X159500000Y-110360000D01*
X146500000Y-110360000D02*
X145500000Y-110360000D01*
X145500000Y-96360000D02*
X146500000Y-96360000D01*
X145500000Y-97360000D02*
X145500000Y-96360000D01*
X158500000Y-96360000D02*
X159500000Y-96360000D01*
X145500000Y-110360000D02*
X145500000Y-109360000D01*
X159500000Y-96360000D02*
X159500000Y-97360000D01*
X159500000Y-110360000D02*
X158500000Y-110360000D01*
X150015001Y-102439999D02*
G75*
G02*
X152275000Y-100560000I2069999J-190000D01*
G01*
X146411000Y-98440000D02*
G75*
G02*
X148675000Y-96556000I2074000J-190000D01*
G01*
X127350000Y-103854000D02*
X130960000Y-103854000D01*
X127350000Y-99900000D02*
X127350000Y-103845000D01*
X138250000Y-97946000D02*
X129625000Y-97946000D01*
X138250000Y-101854000D02*
X138250000Y-97946000D01*
X138250000Y-101900000D02*
X133200000Y-101946000D01*
X140450000Y-110750000D02*
X140450000Y-111750000D01*
X127450000Y-111750000D02*
X126450000Y-111750000D01*
X126450000Y-97750000D02*
X127450000Y-97750000D01*
X126450000Y-98750000D02*
X126450000Y-97750000D01*
X139450000Y-97750000D02*
X140450000Y-97750000D01*
X126450000Y-111750000D02*
X126450000Y-110750000D01*
X140450000Y-97750000D02*
X140450000Y-98750000D01*
X140450000Y-111750000D02*
X139450000Y-111750000D01*
X130965001Y-103829999D02*
G75*
G02*
X133225000Y-101950000I2069999J-190000D01*
G01*
X127361000Y-99830000D02*
G75*
G02*
X129625000Y-97946000I2074000J-190000D01*
G01*
X108300000Y-106254000D02*
X111910000Y-106254000D01*
X108300000Y-102300000D02*
X108300000Y-106245000D01*
X119200000Y-100346000D02*
X110575000Y-100346000D01*
X119200000Y-104254000D02*
X119200000Y-100346000D01*
X119200000Y-104300000D02*
X114150000Y-104346000D01*
X121400000Y-113150000D02*
X121400000Y-114150000D01*
X108400000Y-114150000D02*
X107400000Y-114150000D01*
X107400000Y-100150000D02*
X108400000Y-100150000D01*
X107400000Y-101150000D02*
X107400000Y-100150000D01*
X120400000Y-100150000D02*
X121400000Y-100150000D01*
X107400000Y-114150000D02*
X107400000Y-113150000D01*
X121400000Y-100150000D02*
X121400000Y-101150000D01*
X121400000Y-114150000D02*
X120400000Y-114150000D01*
X111915001Y-106229999D02*
G75*
G02*
X114175000Y-104350000I2069999J-190000D01*
G01*
X108311000Y-102230000D02*
G75*
G02*
X110575000Y-100346000I2074000J-190000D01*
G01*
X203550000Y-91104000D02*
X207160000Y-91104000D01*
X203550000Y-87150000D02*
X203550000Y-91095000D01*
X214450000Y-85196000D02*
X205825000Y-85196000D01*
X214450000Y-89104000D02*
X214450000Y-85196000D01*
X214450000Y-89150000D02*
X209400000Y-89196000D01*
X216650000Y-98000000D02*
X216650000Y-99000000D01*
X203650000Y-99000000D02*
X202650000Y-99000000D01*
X202650000Y-85000000D02*
X203650000Y-85000000D01*
X202650000Y-86000000D02*
X202650000Y-85000000D01*
X215650000Y-85000000D02*
X216650000Y-85000000D01*
X202650000Y-99000000D02*
X202650000Y-98000000D01*
X216650000Y-85000000D02*
X216650000Y-86000000D01*
X216650000Y-99000000D02*
X215650000Y-99000000D01*
X207165001Y-91079999D02*
G75*
G02*
X209425000Y-89200000I2069999J-190000D01*
G01*
X203561000Y-87080000D02*
G75*
G02*
X205825000Y-85196000I2074000J-190000D01*
G01*
X184500000Y-89604000D02*
X188110000Y-89604000D01*
X184500000Y-85650000D02*
X184500000Y-89595000D01*
X195400000Y-83696000D02*
X186775000Y-83696000D01*
X195400000Y-87604000D02*
X195400000Y-83696000D01*
X195400000Y-87650000D02*
X190350000Y-87696000D01*
X197600000Y-96500000D02*
X197600000Y-97500000D01*
X184600000Y-97500000D02*
X183600000Y-97500000D01*
X183600000Y-83500000D02*
X184600000Y-83500000D01*
X183600000Y-84500000D02*
X183600000Y-83500000D01*
X196600000Y-83500000D02*
X197600000Y-83500000D01*
X183600000Y-97500000D02*
X183600000Y-96500000D01*
X197600000Y-83500000D02*
X197600000Y-84500000D01*
X197600000Y-97500000D02*
X196600000Y-97500000D01*
X188115001Y-89579999D02*
G75*
G02*
X190375000Y-87700000I2069999J-190000D01*
G01*
X184511000Y-85580000D02*
G75*
G02*
X186775000Y-83696000I2074000J-190000D01*
G01*
X165450000Y-84804000D02*
X169060000Y-84804000D01*
X165450000Y-80850000D02*
X165450000Y-84795000D01*
X176350000Y-78896000D02*
X167725000Y-78896000D01*
X176350000Y-82804000D02*
X176350000Y-78896000D01*
X176350000Y-82850000D02*
X171300000Y-82896000D01*
X178550000Y-91700000D02*
X178550000Y-92700000D01*
X165550000Y-92700000D02*
X164550000Y-92700000D01*
X164550000Y-78700000D02*
X165550000Y-78700000D01*
X164550000Y-79700000D02*
X164550000Y-78700000D01*
X177550000Y-78700000D02*
X178550000Y-78700000D01*
X164550000Y-92700000D02*
X164550000Y-91700000D01*
X178550000Y-78700000D02*
X178550000Y-79700000D01*
X178550000Y-92700000D02*
X177550000Y-92700000D01*
X169065001Y-84779999D02*
G75*
G02*
X171325000Y-82900000I2069999J-190000D01*
G01*
X165461000Y-80780000D02*
G75*
G02*
X167725000Y-78896000I2074000J-190000D01*
G01*
X146400000Y-83414000D02*
X150010000Y-83414000D01*
X146400000Y-79460000D02*
X146400000Y-83405000D01*
X157300000Y-77506000D02*
X148675000Y-77506000D01*
X157300000Y-81414000D02*
X157300000Y-77506000D01*
X157300000Y-81460000D02*
X152250000Y-81506000D01*
X159500000Y-90310000D02*
X159500000Y-91310000D01*
X146500000Y-91310000D02*
X145500000Y-91310000D01*
X145500000Y-77310000D02*
X146500000Y-77310000D01*
X145500000Y-78310000D02*
X145500000Y-77310000D01*
X158500000Y-77310000D02*
X159500000Y-77310000D01*
X145500000Y-91310000D02*
X145500000Y-90310000D01*
X159500000Y-77310000D02*
X159500000Y-78310000D01*
X159500000Y-91310000D02*
X158500000Y-91310000D01*
X150015001Y-83389999D02*
G75*
G02*
X152275000Y-81510000I2069999J-190000D01*
G01*
X146411000Y-79390000D02*
G75*
G02*
X148675000Y-77506000I2074000J-190000D01*
G01*
X127350000Y-84804000D02*
X130960000Y-84804000D01*
X127350000Y-80850000D02*
X127350000Y-84795000D01*
X138250000Y-78896000D02*
X129625000Y-78896000D01*
X138250000Y-82804000D02*
X138250000Y-78896000D01*
X138250000Y-82850000D02*
X133200000Y-82896000D01*
X140450000Y-91700000D02*
X140450000Y-92700000D01*
X127450000Y-92700000D02*
X126450000Y-92700000D01*
X126450000Y-78700000D02*
X127450000Y-78700000D01*
X126450000Y-79700000D02*
X126450000Y-78700000D01*
X139450000Y-78700000D02*
X140450000Y-78700000D01*
X126450000Y-92700000D02*
X126450000Y-91700000D01*
X140450000Y-78700000D02*
X140450000Y-79700000D01*
X140450000Y-92700000D02*
X139450000Y-92700000D01*
X130965001Y-84779999D02*
G75*
G02*
X133225000Y-82900000I2069999J-190000D01*
G01*
X127361000Y-80780000D02*
G75*
G02*
X129625000Y-78896000I2074000J-190000D01*
G01*
X108300000Y-87204000D02*
X111910000Y-87204000D01*
X108300000Y-83250000D02*
X108300000Y-87195000D01*
X119200000Y-81296000D02*
X110575000Y-81296000D01*
X119200000Y-85204000D02*
X119200000Y-81296000D01*
X119200000Y-85250000D02*
X114150000Y-85296000D01*
X121400000Y-94100000D02*
X121400000Y-95100000D01*
X108400000Y-95100000D02*
X107400000Y-95100000D01*
X107400000Y-81100000D02*
X108400000Y-81100000D01*
X107400000Y-82100000D02*
X107400000Y-81100000D01*
X120400000Y-81100000D02*
X121400000Y-81100000D01*
X107400000Y-95100000D02*
X107400000Y-94100000D01*
X121400000Y-81100000D02*
X121400000Y-82100000D01*
X121400000Y-95100000D02*
X120400000Y-95100000D01*
X111915001Y-87179999D02*
G75*
G02*
X114175000Y-85300000I2069999J-190000D01*
G01*
X108311000Y-83180000D02*
G75*
G02*
X110575000Y-81296000I2074000J-190000D01*
G01*
X203550000Y-72054000D02*
X207160000Y-72054000D01*
X203550000Y-68100000D02*
X203550000Y-72045000D01*
X214450000Y-66146000D02*
X205825000Y-66146000D01*
X214450000Y-70054000D02*
X214450000Y-66146000D01*
X214450000Y-70100000D02*
X209400000Y-70146000D01*
X216650000Y-78950000D02*
X216650000Y-79950000D01*
X203650000Y-79950000D02*
X202650000Y-79950000D01*
X202650000Y-65950000D02*
X203650000Y-65950000D01*
X202650000Y-66950000D02*
X202650000Y-65950000D01*
X215650000Y-65950000D02*
X216650000Y-65950000D01*
X202650000Y-79950000D02*
X202650000Y-78950000D01*
X216650000Y-65950000D02*
X216650000Y-66950000D01*
X216650000Y-79950000D02*
X215650000Y-79950000D01*
X207165001Y-72029999D02*
G75*
G02*
X209425000Y-70150000I2069999J-190000D01*
G01*
X203561000Y-68030000D02*
G75*
G02*
X205825000Y-66146000I2074000J-190000D01*
G01*
X184500000Y-70554000D02*
X188110000Y-70554000D01*
X184500000Y-66600000D02*
X184500000Y-70545000D01*
X195400000Y-64646000D02*
X186775000Y-64646000D01*
X195400000Y-68554000D02*
X195400000Y-64646000D01*
X195400000Y-68600000D02*
X190350000Y-68646000D01*
X197600000Y-77450000D02*
X197600000Y-78450000D01*
X184600000Y-78450000D02*
X183600000Y-78450000D01*
X183600000Y-64450000D02*
X184600000Y-64450000D01*
X183600000Y-65450000D02*
X183600000Y-64450000D01*
X196600000Y-64450000D02*
X197600000Y-64450000D01*
X183600000Y-78450000D02*
X183600000Y-77450000D01*
X197600000Y-64450000D02*
X197600000Y-65450000D01*
X197600000Y-78450000D02*
X196600000Y-78450000D01*
X188115001Y-70529999D02*
G75*
G02*
X190375000Y-68650000I2069999J-190000D01*
G01*
X184511000Y-66530000D02*
G75*
G02*
X186775000Y-64646000I2074000J-190000D01*
G01*
X165450000Y-65754000D02*
X169060000Y-65754000D01*
X165450000Y-61800000D02*
X165450000Y-65745000D01*
X176350000Y-59846000D02*
X167725000Y-59846000D01*
X176350000Y-63754000D02*
X176350000Y-59846000D01*
X176350000Y-63800000D02*
X171300000Y-63846000D01*
X178550000Y-72650000D02*
X178550000Y-73650000D01*
X165550000Y-73650000D02*
X164550000Y-73650000D01*
X164550000Y-59650000D02*
X165550000Y-59650000D01*
X164550000Y-60650000D02*
X164550000Y-59650000D01*
X177550000Y-59650000D02*
X178550000Y-59650000D01*
X164550000Y-73650000D02*
X164550000Y-72650000D01*
X178550000Y-59650000D02*
X178550000Y-60650000D01*
X178550000Y-73650000D02*
X177550000Y-73650000D01*
X169065001Y-65729999D02*
G75*
G02*
X171325000Y-63850000I2069999J-190000D01*
G01*
X165461000Y-61730000D02*
G75*
G02*
X167725000Y-59846000I2074000J-190000D01*
G01*
X146400000Y-64364000D02*
X150010000Y-64364000D01*
X146400000Y-60410000D02*
X146400000Y-64355000D01*
X157300000Y-58456000D02*
X148675000Y-58456000D01*
X157300000Y-62364000D02*
X157300000Y-58456000D01*
X157300000Y-62410000D02*
X152250000Y-62456000D01*
X159500000Y-71260000D02*
X159500000Y-72260000D01*
X146500000Y-72260000D02*
X145500000Y-72260000D01*
X145500000Y-58260000D02*
X146500000Y-58260000D01*
X145500000Y-59260000D02*
X145500000Y-58260000D01*
X158500000Y-58260000D02*
X159500000Y-58260000D01*
X145500000Y-72260000D02*
X145500000Y-71260000D01*
X159500000Y-58260000D02*
X159500000Y-59260000D01*
X159500000Y-72260000D02*
X158500000Y-72260000D01*
X150015001Y-64339999D02*
G75*
G02*
X152275000Y-62460000I2069999J-190000D01*
G01*
X146411000Y-60340000D02*
G75*
G02*
X148675000Y-58456000I2074000J-190000D01*
G01*
X127350000Y-65754000D02*
X130960000Y-65754000D01*
X127350000Y-61800000D02*
X127350000Y-65745000D01*
X138250000Y-59846000D02*
X129625000Y-59846000D01*
X138250000Y-63754000D02*
X138250000Y-59846000D01*
X138250000Y-63800000D02*
X133200000Y-63846000D01*
X140450000Y-72650000D02*
X140450000Y-73650000D01*
X127450000Y-73650000D02*
X126450000Y-73650000D01*
X126450000Y-59650000D02*
X127450000Y-59650000D01*
X126450000Y-60650000D02*
X126450000Y-59650000D01*
X139450000Y-59650000D02*
X140450000Y-59650000D01*
X126450000Y-73650000D02*
X126450000Y-72650000D01*
X140450000Y-59650000D02*
X140450000Y-60650000D01*
X140450000Y-73650000D02*
X139450000Y-73650000D01*
X130965001Y-65729999D02*
G75*
G02*
X133225000Y-63850000I2069999J-190000D01*
G01*
X127361000Y-61730000D02*
G75*
G02*
X129625000Y-59846000I2074000J-190000D01*
G01*
X108300000Y-68154000D02*
X111910000Y-68154000D01*
X108300000Y-64200000D02*
X108300000Y-68145000D01*
X119200000Y-62246000D02*
X110575000Y-62246000D01*
X119200000Y-66154000D02*
X119200000Y-62246000D01*
X119200000Y-66200000D02*
X114150000Y-66246000D01*
X121400000Y-75050000D02*
X121400000Y-76050000D01*
X108400000Y-76050000D02*
X107400000Y-76050000D01*
X107400000Y-62050000D02*
X108400000Y-62050000D01*
X107400000Y-63050000D02*
X107400000Y-62050000D01*
X120400000Y-62050000D02*
X121400000Y-62050000D01*
X107400000Y-76050000D02*
X107400000Y-75050000D01*
X121400000Y-62050000D02*
X121400000Y-63050000D01*
X121400000Y-76050000D02*
X120400000Y-76050000D01*
X111915001Y-68129999D02*
G75*
G02*
X114175000Y-66250000I2069999J-190000D01*
G01*
X108311000Y-64130000D02*
G75*
G02*
X110575000Y-62246000I2074000J-190000D01*
G01*
X203550000Y-53004000D02*
X207160000Y-53004000D01*
X203550000Y-49050000D02*
X203550000Y-52995000D01*
X214450000Y-47096000D02*
X205825000Y-47096000D01*
X214450000Y-51004000D02*
X214450000Y-47096000D01*
X214450000Y-51050000D02*
X209400000Y-51096000D01*
X216650000Y-59900000D02*
X216650000Y-60900000D01*
X203650000Y-60900000D02*
X202650000Y-60900000D01*
X202650000Y-46900000D02*
X203650000Y-46900000D01*
X202650000Y-47900000D02*
X202650000Y-46900000D01*
X215650000Y-46900000D02*
X216650000Y-46900000D01*
X202650000Y-60900000D02*
X202650000Y-59900000D01*
X216650000Y-46900000D02*
X216650000Y-47900000D01*
X216650000Y-60900000D02*
X215650000Y-60900000D01*
X207165001Y-52979999D02*
G75*
G02*
X209425000Y-51100000I2069999J-190000D01*
G01*
X203561000Y-48980000D02*
G75*
G02*
X205825000Y-47096000I2074000J-190000D01*
G01*
X184500000Y-51504000D02*
X188110000Y-51504000D01*
X184500000Y-47550000D02*
X184500000Y-51495000D01*
X195400000Y-45596000D02*
X186775000Y-45596000D01*
X195400000Y-49504000D02*
X195400000Y-45596000D01*
X195400000Y-49550000D02*
X190350000Y-49596000D01*
X197600000Y-58400000D02*
X197600000Y-59400000D01*
X184600000Y-59400000D02*
X183600000Y-59400000D01*
X183600000Y-45400000D02*
X184600000Y-45400000D01*
X183600000Y-46400000D02*
X183600000Y-45400000D01*
X196600000Y-45400000D02*
X197600000Y-45400000D01*
X183600000Y-59400000D02*
X183600000Y-58400000D01*
X197600000Y-45400000D02*
X197600000Y-46400000D01*
X197600000Y-59400000D02*
X196600000Y-59400000D01*
X188115001Y-51479999D02*
G75*
G02*
X190375000Y-49600000I2069999J-190000D01*
G01*
X184511000Y-47480000D02*
G75*
G02*
X186775000Y-45596000I2074000J-190000D01*
G01*
X165450000Y-46704000D02*
X169060000Y-46704000D01*
X165450000Y-42750000D02*
X165450000Y-46695000D01*
X176350000Y-40796000D02*
X167725000Y-40796000D01*
X176350000Y-44704000D02*
X176350000Y-40796000D01*
X176350000Y-44750000D02*
X171300000Y-44796000D01*
X178550000Y-53600000D02*
X178550000Y-54600000D01*
X165550000Y-54600000D02*
X164550000Y-54600000D01*
X164550000Y-40600000D02*
X165550000Y-40600000D01*
X164550000Y-41600000D02*
X164550000Y-40600000D01*
X177550000Y-40600000D02*
X178550000Y-40600000D01*
X164550000Y-54600000D02*
X164550000Y-53600000D01*
X178550000Y-40600000D02*
X178550000Y-41600000D01*
X178550000Y-54600000D02*
X177550000Y-54600000D01*
X169065001Y-46679999D02*
G75*
G02*
X171325000Y-44800000I2069999J-190000D01*
G01*
X165461000Y-42680000D02*
G75*
G02*
X167725000Y-40796000I2074000J-190000D01*
G01*
X146400000Y-45314000D02*
X150010000Y-45314000D01*
X146400000Y-41360000D02*
X146400000Y-45305000D01*
X157300000Y-39406000D02*
X148675000Y-39406000D01*
X157300000Y-43314000D02*
X157300000Y-39406000D01*
X157300000Y-43360000D02*
X152250000Y-43406000D01*
X159500000Y-52210000D02*
X159500000Y-53210000D01*
X146500000Y-53210000D02*
X145500000Y-53210000D01*
X145500000Y-39210000D02*
X146500000Y-39210000D01*
X145500000Y-40210000D02*
X145500000Y-39210000D01*
X158500000Y-39210000D02*
X159500000Y-39210000D01*
X145500000Y-53210000D02*
X145500000Y-52210000D01*
X159500000Y-39210000D02*
X159500000Y-40210000D01*
X159500000Y-53210000D02*
X158500000Y-53210000D01*
X150015001Y-45289999D02*
G75*
G02*
X152275000Y-43410000I2069999J-190000D01*
G01*
X146411000Y-41290000D02*
G75*
G02*
X148675000Y-39406000I2074000J-190000D01*
G01*
X127350000Y-46704000D02*
X130960000Y-46704000D01*
X127350000Y-42750000D02*
X127350000Y-46695000D01*
X138250000Y-40796000D02*
X129625000Y-40796000D01*
X138250000Y-44704000D02*
X138250000Y-40796000D01*
X138250000Y-44750000D02*
X133200000Y-44796000D01*
X140450000Y-53600000D02*
X140450000Y-54600000D01*
X127450000Y-54600000D02*
X126450000Y-54600000D01*
X126450000Y-40600000D02*
X127450000Y-40600000D01*
X126450000Y-41600000D02*
X126450000Y-40600000D01*
X139450000Y-40600000D02*
X140450000Y-40600000D01*
X126450000Y-54600000D02*
X126450000Y-53600000D01*
X140450000Y-40600000D02*
X140450000Y-41600000D01*
X140450000Y-54600000D02*
X139450000Y-54600000D01*
X130965001Y-46679999D02*
G75*
G02*
X133225000Y-44800000I2069999J-190000D01*
G01*
X127361000Y-42680000D02*
G75*
G02*
X129625000Y-40796000I2074000J-190000D01*
G01*
X108300000Y-49104000D02*
X111910000Y-49104000D01*
X108300000Y-45150000D02*
X108300000Y-49095000D01*
X119200000Y-43196000D02*
X110575000Y-43196000D01*
X119200000Y-47104000D02*
X119200000Y-43196000D01*
X119200000Y-47150000D02*
X114150000Y-47196000D01*
X121400000Y-56000000D02*
X121400000Y-57000000D01*
X108400000Y-57000000D02*
X107400000Y-57000000D01*
X107400000Y-43000000D02*
X108400000Y-43000000D01*
X107400000Y-44000000D02*
X107400000Y-43000000D01*
X120400000Y-43000000D02*
X121400000Y-43000000D01*
X107400000Y-57000000D02*
X107400000Y-56000000D01*
X121400000Y-43000000D02*
X121400000Y-44000000D01*
X121400000Y-57000000D02*
X120400000Y-57000000D01*
X111915001Y-49079999D02*
G75*
G02*
X114175000Y-47200000I2069999J-190000D01*
G01*
X108311000Y-45080000D02*
G75*
G02*
X110575000Y-43196000I2074000J-190000D01*
G01*
X84692671Y-76059695D02*
X85079719Y-76059695D01*
X85079719Y-75246895D01*
X84421738Y-76059695D02*
X84421738Y-75246895D01*
X84421738Y-75633942D02*
X83957280Y-75633942D01*
X83957280Y-76059695D02*
X83957280Y-75246895D01*
X100231875Y-86710186D02*
X100689811Y-86629374D01*
X100555124Y-87033435D02*
X101120809Y-86467749D01*
X100905310Y-86252250D01*
X100824498Y-86225312D01*
X100770623Y-86225312D01*
X100689811Y-86252250D01*
X100608999Y-86333062D01*
X100582061Y-86413874D01*
X100582061Y-86467749D01*
X100608999Y-86548561D01*
X100824498Y-86764061D01*
X99693127Y-86171438D02*
X100016376Y-86494687D01*
X99854751Y-86333062D02*
X100420437Y-85767377D01*
X100393499Y-85902064D01*
X100393499Y-86009813D01*
X100420437Y-86090625D01*
X100295375Y-83598686D02*
X100753311Y-83517874D01*
X100618624Y-83921935D02*
X101184309Y-83356249D01*
X100968810Y-83140750D01*
X100887998Y-83113812D01*
X100834123Y-83113812D01*
X100753311Y-83140750D01*
X100672499Y-83221562D01*
X100645561Y-83302374D01*
X100645561Y-83356249D01*
X100672499Y-83437061D01*
X100887998Y-83652561D01*
X99756627Y-83059938D02*
X100079876Y-83383187D01*
X99918251Y-83221562D02*
X100483937Y-82655877D01*
X100456999Y-82790564D01*
X100456999Y-82898313D01*
X100483937Y-82979125D01*
X105289333Y-41179714D02*
X105327428Y-41217809D01*
X105441714Y-41255904D01*
X105517904Y-41255904D01*
X105632190Y-41217809D01*
X105708380Y-41141619D01*
X105746476Y-41065428D01*
X105784571Y-40913047D01*
X105784571Y-40798761D01*
X105746476Y-40646380D01*
X105708380Y-40570190D01*
X105632190Y-40494000D01*
X105517904Y-40455904D01*
X105441714Y-40455904D01*
X105327428Y-40494000D01*
X105289333Y-40532095D01*
X104984571Y-40532095D02*
X104946476Y-40494000D01*
X104870285Y-40455904D01*
X104679809Y-40455904D01*
X104603619Y-40494000D01*
X104565523Y-40532095D01*
X104527428Y-40608285D01*
X104527428Y-40684476D01*
X104565523Y-40798761D01*
X105022666Y-41255904D01*
X104527428Y-41255904D01*
X105289333Y-38893714D02*
X105327428Y-38931809D01*
X105441714Y-38969904D01*
X105517904Y-38969904D01*
X105632190Y-38931809D01*
X105708380Y-38855619D01*
X105746476Y-38779428D01*
X105784571Y-38627047D01*
X105784571Y-38512761D01*
X105746476Y-38360380D01*
X105708380Y-38284190D01*
X105632190Y-38208000D01*
X105517904Y-38169904D01*
X105441714Y-38169904D01*
X105327428Y-38208000D01*
X105289333Y-38246095D01*
X104527428Y-38969904D02*
X104984571Y-38969904D01*
X104756000Y-38969904D02*
X104756000Y-38169904D01*
X104832190Y-38284190D01*
X104908380Y-38360380D01*
X104984571Y-38398476D01*
X150693380Y-122102714D02*
X149693380Y-122102714D01*
X149693380Y-122340809D01*
X149741000Y-122483666D01*
X149836238Y-122578904D01*
X149931476Y-122626523D01*
X150121952Y-122674142D01*
X150264809Y-122674142D01*
X150455285Y-122626523D01*
X150550523Y-122578904D01*
X150645761Y-122483666D01*
X150693380Y-122340809D01*
X150693380Y-122102714D01*
X149788619Y-123055095D02*
X149741000Y-123102714D01*
X149693380Y-123197952D01*
X149693380Y-123436047D01*
X149741000Y-123531285D01*
X149788619Y-123578904D01*
X149883857Y-123626523D01*
X149979095Y-123626523D01*
X150121952Y-123578904D01*
X150693380Y-123007476D01*
X150693380Y-123626523D01*
X150693380Y-124102714D02*
X150693380Y-124293190D01*
X150645761Y-124388428D01*
X150598142Y-124436047D01*
X150455285Y-124531285D01*
X150264809Y-124578904D01*
X149883857Y-124578904D01*
X149788619Y-124531285D01*
X149741000Y-124483666D01*
X149693380Y-124388428D01*
X149693380Y-124197952D01*
X149741000Y-124102714D01*
X149788619Y-124055095D01*
X149883857Y-124007476D01*
X150121952Y-124007476D01*
X150217190Y-124055095D01*
X150264809Y-124102714D01*
X150312428Y-124197952D01*
X150312428Y-124388428D01*
X150264809Y-124483666D01*
X150217190Y-124531285D01*
X150121952Y-124578904D01*
X131897380Y-122801214D02*
X130897380Y-122801214D01*
X130897380Y-123039309D01*
X130945000Y-123182166D01*
X131040238Y-123277404D01*
X131135476Y-123325023D01*
X131325952Y-123372642D01*
X131468809Y-123372642D01*
X131659285Y-123325023D01*
X131754523Y-123277404D01*
X131849761Y-123182166D01*
X131897380Y-123039309D01*
X131897380Y-122801214D01*
X130992619Y-123753595D02*
X130945000Y-123801214D01*
X130897380Y-123896452D01*
X130897380Y-124134547D01*
X130945000Y-124229785D01*
X130992619Y-124277404D01*
X131087857Y-124325023D01*
X131183095Y-124325023D01*
X131325952Y-124277404D01*
X131897380Y-123705976D01*
X131897380Y-124325023D01*
X131325952Y-124896452D02*
X131278333Y-124801214D01*
X131230714Y-124753595D01*
X131135476Y-124705976D01*
X131087857Y-124705976D01*
X130992619Y-124753595D01*
X130945000Y-124801214D01*
X130897380Y-124896452D01*
X130897380Y-125086928D01*
X130945000Y-125182166D01*
X130992619Y-125229785D01*
X131087857Y-125277404D01*
X131135476Y-125277404D01*
X131230714Y-125229785D01*
X131278333Y-125182166D01*
X131325952Y-125086928D01*
X131325952Y-124896452D01*
X131373571Y-124801214D01*
X131421190Y-124753595D01*
X131516428Y-124705976D01*
X131706904Y-124705976D01*
X131802142Y-124753595D01*
X131849761Y-124801214D01*
X131897380Y-124896452D01*
X131897380Y-125086928D01*
X131849761Y-125182166D01*
X131802142Y-125229785D01*
X131706904Y-125277404D01*
X131516428Y-125277404D01*
X131421190Y-125229785D01*
X131373571Y-125182166D01*
X131325952Y-125086928D01*
X112974380Y-122928214D02*
X111974380Y-122928214D01*
X111974380Y-123166309D01*
X112022000Y-123309166D01*
X112117238Y-123404404D01*
X112212476Y-123452023D01*
X112402952Y-123499642D01*
X112545809Y-123499642D01*
X112736285Y-123452023D01*
X112831523Y-123404404D01*
X112926761Y-123309166D01*
X112974380Y-123166309D01*
X112974380Y-122928214D01*
X112069619Y-123880595D02*
X112022000Y-123928214D01*
X111974380Y-124023452D01*
X111974380Y-124261547D01*
X112022000Y-124356785D01*
X112069619Y-124404404D01*
X112164857Y-124452023D01*
X112260095Y-124452023D01*
X112402952Y-124404404D01*
X112974380Y-123832976D01*
X112974380Y-124452023D01*
X111974380Y-124785357D02*
X111974380Y-125452023D01*
X112974380Y-125023452D01*
X109689369Y-125737792D02*
X110555394Y-125237792D01*
X110436347Y-125031596D01*
X110323679Y-124931687D01*
X110193581Y-124896828D01*
X110087293Y-124903208D01*
X109898526Y-124957206D01*
X109774808Y-125028635D01*
X109633661Y-125165112D01*
X109574992Y-125253971D01*
X109540132Y-125384068D01*
X109570321Y-125531596D01*
X109689369Y-125737792D01*
X109996725Y-124460625D02*
X110014155Y-124395576D01*
X110007775Y-124289288D01*
X109888728Y-124083092D01*
X109799869Y-124024423D01*
X109734821Y-124006993D01*
X109628532Y-124013373D01*
X109546054Y-124060992D01*
X109446145Y-124173660D01*
X109236988Y-124954245D01*
X108927464Y-124418134D01*
X109364918Y-123175827D02*
X109460156Y-123340784D01*
X109466536Y-123447072D01*
X109449106Y-123512121D01*
X109373007Y-123666028D01*
X109231860Y-123802506D01*
X108901945Y-123992982D01*
X108795657Y-123999362D01*
X108730608Y-123981932D01*
X108641750Y-123923263D01*
X108546512Y-123758306D01*
X108540132Y-123652017D01*
X108557562Y-123586969D01*
X108616231Y-123498110D01*
X108822427Y-123379063D01*
X108928716Y-123372683D01*
X108993764Y-123390113D01*
X109082623Y-123448782D01*
X109177861Y-123613739D01*
X109184241Y-123720027D01*
X109166811Y-123785076D01*
X109108142Y-123873934D01*
X93860785Y-88209380D02*
X93860785Y-87209380D01*
X93622690Y-87209380D01*
X93479833Y-87257000D01*
X93384595Y-87352238D01*
X93336976Y-87447476D01*
X93289357Y-87637952D01*
X93289357Y-87780809D01*
X93336976Y-87971285D01*
X93384595Y-88066523D01*
X93479833Y-88161761D01*
X93622690Y-88209380D01*
X93860785Y-88209380D01*
X92908404Y-87304619D02*
X92860785Y-87257000D01*
X92765547Y-87209380D01*
X92527452Y-87209380D01*
X92432214Y-87257000D01*
X92384595Y-87304619D01*
X92336976Y-87399857D01*
X92336976Y-87495095D01*
X92384595Y-87637952D01*
X92956023Y-88209380D01*
X92336976Y-88209380D01*
X91432214Y-87209380D02*
X91908404Y-87209380D01*
X91956023Y-87685571D01*
X91908404Y-87637952D01*
X91813166Y-87590333D01*
X91575071Y-87590333D01*
X91479833Y-87637952D01*
X91432214Y-87685571D01*
X91384595Y-87780809D01*
X91384595Y-88018904D01*
X91432214Y-88114142D01*
X91479833Y-88161761D01*
X91575071Y-88209380D01*
X91813166Y-88209380D01*
X91908404Y-88161761D01*
X91956023Y-88114142D01*
X199040880Y-108577214D02*
X198040880Y-108577214D01*
X198040880Y-108815309D01*
X198088500Y-108958166D01*
X198183738Y-109053404D01*
X198278976Y-109101023D01*
X198469452Y-109148642D01*
X198612309Y-109148642D01*
X198802785Y-109101023D01*
X198898023Y-109053404D01*
X198993261Y-108958166D01*
X199040880Y-108815309D01*
X199040880Y-108577214D01*
X198136119Y-109529595D02*
X198088500Y-109577214D01*
X198040880Y-109672452D01*
X198040880Y-109910547D01*
X198088500Y-110005785D01*
X198136119Y-110053404D01*
X198231357Y-110101023D01*
X198326595Y-110101023D01*
X198469452Y-110053404D01*
X199040880Y-109481976D01*
X199040880Y-110101023D01*
X198374214Y-110958166D02*
X199040880Y-110958166D01*
X197993261Y-110720071D02*
X198707547Y-110481976D01*
X198707547Y-111101023D01*
X179990880Y-103687714D02*
X178990880Y-103687714D01*
X178990880Y-103925809D01*
X179038500Y-104068666D01*
X179133738Y-104163904D01*
X179228976Y-104211523D01*
X179419452Y-104259142D01*
X179562309Y-104259142D01*
X179752785Y-104211523D01*
X179848023Y-104163904D01*
X179943261Y-104068666D01*
X179990880Y-103925809D01*
X179990880Y-103687714D01*
X179086119Y-104640095D02*
X179038500Y-104687714D01*
X178990880Y-104782952D01*
X178990880Y-105021047D01*
X179038500Y-105116285D01*
X179086119Y-105163904D01*
X179181357Y-105211523D01*
X179276595Y-105211523D01*
X179419452Y-105163904D01*
X179990880Y-104592476D01*
X179990880Y-105211523D01*
X178990880Y-105544857D02*
X178990880Y-106163904D01*
X179371833Y-105830571D01*
X179371833Y-105973428D01*
X179419452Y-106068666D01*
X179467071Y-106116285D01*
X179562309Y-106163904D01*
X179800404Y-106163904D01*
X179895642Y-106116285D01*
X179943261Y-106068666D01*
X179990880Y-105973428D01*
X179990880Y-105687714D01*
X179943261Y-105592476D01*
X179895642Y-105544857D01*
X160940880Y-101719214D02*
X159940880Y-101719214D01*
X159940880Y-101957309D01*
X159988500Y-102100166D01*
X160083738Y-102195404D01*
X160178976Y-102243023D01*
X160369452Y-102290642D01*
X160512309Y-102290642D01*
X160702785Y-102243023D01*
X160798023Y-102195404D01*
X160893261Y-102100166D01*
X160940880Y-101957309D01*
X160940880Y-101719214D01*
X160036119Y-102671595D02*
X159988500Y-102719214D01*
X159940880Y-102814452D01*
X159940880Y-103052547D01*
X159988500Y-103147785D01*
X160036119Y-103195404D01*
X160131357Y-103243023D01*
X160226595Y-103243023D01*
X160369452Y-103195404D01*
X160940880Y-102623976D01*
X160940880Y-103243023D01*
X160036119Y-103623976D02*
X159988500Y-103671595D01*
X159940880Y-103766833D01*
X159940880Y-104004928D01*
X159988500Y-104100166D01*
X160036119Y-104147785D01*
X160131357Y-104195404D01*
X160226595Y-104195404D01*
X160369452Y-104147785D01*
X160940880Y-103576357D01*
X160940880Y-104195404D01*
X141954380Y-101719214D02*
X140954380Y-101719214D01*
X140954380Y-101957309D01*
X141002000Y-102100166D01*
X141097238Y-102195404D01*
X141192476Y-102243023D01*
X141382952Y-102290642D01*
X141525809Y-102290642D01*
X141716285Y-102243023D01*
X141811523Y-102195404D01*
X141906761Y-102100166D01*
X141954380Y-101957309D01*
X141954380Y-101719214D01*
X141049619Y-102671595D02*
X141002000Y-102719214D01*
X140954380Y-102814452D01*
X140954380Y-103052547D01*
X141002000Y-103147785D01*
X141049619Y-103195404D01*
X141144857Y-103243023D01*
X141240095Y-103243023D01*
X141382952Y-103195404D01*
X141954380Y-102623976D01*
X141954380Y-103243023D01*
X141954380Y-104195404D02*
X141954380Y-103623976D01*
X141954380Y-103909690D02*
X140954380Y-103909690D01*
X141097238Y-103814452D01*
X141192476Y-103719214D01*
X141240095Y-103623976D01*
X122904380Y-103941714D02*
X121904380Y-103941714D01*
X121904380Y-104179809D01*
X121952000Y-104322666D01*
X122047238Y-104417904D01*
X122142476Y-104465523D01*
X122332952Y-104513142D01*
X122475809Y-104513142D01*
X122666285Y-104465523D01*
X122761523Y-104417904D01*
X122856761Y-104322666D01*
X122904380Y-104179809D01*
X122904380Y-103941714D01*
X121999619Y-104894095D02*
X121952000Y-104941714D01*
X121904380Y-105036952D01*
X121904380Y-105275047D01*
X121952000Y-105370285D01*
X121999619Y-105417904D01*
X122094857Y-105465523D01*
X122190095Y-105465523D01*
X122332952Y-105417904D01*
X122904380Y-104846476D01*
X122904380Y-105465523D01*
X121904380Y-106084571D02*
X121904380Y-106179809D01*
X121952000Y-106275047D01*
X121999619Y-106322666D01*
X122094857Y-106370285D01*
X122285333Y-106417904D01*
X122523428Y-106417904D01*
X122713904Y-106370285D01*
X122809142Y-106322666D01*
X122856761Y-106275047D01*
X122904380Y-106179809D01*
X122904380Y-106084571D01*
X122856761Y-105989333D01*
X122809142Y-105941714D01*
X122713904Y-105894095D01*
X122523428Y-105846476D01*
X122285333Y-105846476D01*
X122094857Y-105894095D01*
X121999619Y-105941714D01*
X121952000Y-105989333D01*
X121904380Y-106084571D01*
X103854380Y-105148214D02*
X102854380Y-105148214D01*
X102854380Y-105386309D01*
X102902000Y-105529166D01*
X102997238Y-105624404D01*
X103092476Y-105672023D01*
X103282952Y-105719642D01*
X103425809Y-105719642D01*
X103616285Y-105672023D01*
X103711523Y-105624404D01*
X103806761Y-105529166D01*
X103854380Y-105386309D01*
X103854380Y-105148214D01*
X103854380Y-106672023D02*
X103854380Y-106100595D01*
X103854380Y-106386309D02*
X102854380Y-106386309D01*
X102997238Y-106291071D01*
X103092476Y-106195833D01*
X103140095Y-106100595D01*
X103854380Y-107148214D02*
X103854380Y-107338690D01*
X103806761Y-107433928D01*
X103759142Y-107481547D01*
X103616285Y-107576785D01*
X103425809Y-107624404D01*
X103044857Y-107624404D01*
X102949619Y-107576785D01*
X102902000Y-107529166D01*
X102854380Y-107433928D01*
X102854380Y-107243452D01*
X102902000Y-107148214D01*
X102949619Y-107100595D01*
X103044857Y-107052976D01*
X103282952Y-107052976D01*
X103378190Y-107100595D01*
X103425809Y-107148214D01*
X103473428Y-107243452D01*
X103473428Y-107433928D01*
X103425809Y-107529166D01*
X103378190Y-107576785D01*
X103282952Y-107624404D01*
X198699380Y-88638214D02*
X197699380Y-88638214D01*
X197699380Y-88876309D01*
X197747000Y-89019166D01*
X197842238Y-89114404D01*
X197937476Y-89162023D01*
X198127952Y-89209642D01*
X198270809Y-89209642D01*
X198461285Y-89162023D01*
X198556523Y-89114404D01*
X198651761Y-89019166D01*
X198699380Y-88876309D01*
X198699380Y-88638214D01*
X198699380Y-90162023D02*
X198699380Y-89590595D01*
X198699380Y-89876309D02*
X197699380Y-89876309D01*
X197842238Y-89781071D01*
X197937476Y-89685833D01*
X197985095Y-89590595D01*
X198127952Y-90733452D02*
X198080333Y-90638214D01*
X198032714Y-90590595D01*
X197937476Y-90542976D01*
X197889857Y-90542976D01*
X197794619Y-90590595D01*
X197747000Y-90638214D01*
X197699380Y-90733452D01*
X197699380Y-90923928D01*
X197747000Y-91019166D01*
X197794619Y-91066785D01*
X197889857Y-91114404D01*
X197937476Y-91114404D01*
X198032714Y-91066785D01*
X198080333Y-91019166D01*
X198127952Y-90923928D01*
X198127952Y-90733452D01*
X198175571Y-90638214D01*
X198223190Y-90590595D01*
X198318428Y-90542976D01*
X198508904Y-90542976D01*
X198604142Y-90590595D01*
X198651761Y-90638214D01*
X198699380Y-90733452D01*
X198699380Y-90923928D01*
X198651761Y-91019166D01*
X198604142Y-91066785D01*
X198508904Y-91114404D01*
X198318428Y-91114404D01*
X198223190Y-91066785D01*
X198175571Y-91019166D01*
X198127952Y-90923928D01*
X179522380Y-85526714D02*
X178522380Y-85526714D01*
X178522380Y-85764809D01*
X178570000Y-85907666D01*
X178665238Y-86002904D01*
X178760476Y-86050523D01*
X178950952Y-86098142D01*
X179093809Y-86098142D01*
X179284285Y-86050523D01*
X179379523Y-86002904D01*
X179474761Y-85907666D01*
X179522380Y-85764809D01*
X179522380Y-85526714D01*
X179522380Y-87050523D02*
X179522380Y-86479095D01*
X179522380Y-86764809D02*
X178522380Y-86764809D01*
X178665238Y-86669571D01*
X178760476Y-86574333D01*
X178808095Y-86479095D01*
X178522380Y-87383857D02*
X178522380Y-88050523D01*
X179522380Y-87621952D01*
X164409380Y-85209214D02*
X163409380Y-85209214D01*
X163409380Y-85447309D01*
X163457000Y-85590166D01*
X163552238Y-85685404D01*
X163647476Y-85733023D01*
X163837952Y-85780642D01*
X163980809Y-85780642D01*
X164171285Y-85733023D01*
X164266523Y-85685404D01*
X164361761Y-85590166D01*
X164409380Y-85447309D01*
X164409380Y-85209214D01*
X164409380Y-86733023D02*
X164409380Y-86161595D01*
X164409380Y-86447309D02*
X163409380Y-86447309D01*
X163552238Y-86352071D01*
X163647476Y-86256833D01*
X163695095Y-86161595D01*
X163409380Y-87590166D02*
X163409380Y-87399690D01*
X163457000Y-87304452D01*
X163504619Y-87256833D01*
X163647476Y-87161595D01*
X163837952Y-87113976D01*
X164218904Y-87113976D01*
X164314142Y-87161595D01*
X164361761Y-87209214D01*
X164409380Y-87304452D01*
X164409380Y-87494928D01*
X164361761Y-87590166D01*
X164314142Y-87637785D01*
X164218904Y-87685404D01*
X163980809Y-87685404D01*
X163885571Y-87637785D01*
X163837952Y-87590166D01*
X163790333Y-87494928D01*
X163790333Y-87304452D01*
X163837952Y-87209214D01*
X163885571Y-87161595D01*
X163980809Y-87113976D01*
X145549880Y-84320214D02*
X144549880Y-84320214D01*
X144549880Y-84558309D01*
X144597500Y-84701166D01*
X144692738Y-84796404D01*
X144787976Y-84844023D01*
X144978452Y-84891642D01*
X145121309Y-84891642D01*
X145311785Y-84844023D01*
X145407023Y-84796404D01*
X145502261Y-84701166D01*
X145549880Y-84558309D01*
X145549880Y-84320214D01*
X145549880Y-85844023D02*
X145549880Y-85272595D01*
X145549880Y-85558309D02*
X144549880Y-85558309D01*
X144692738Y-85463071D01*
X144787976Y-85367833D01*
X144835595Y-85272595D01*
X144549880Y-86748785D02*
X144549880Y-86272595D01*
X145026071Y-86224976D01*
X144978452Y-86272595D01*
X144930833Y-86367833D01*
X144930833Y-86605928D01*
X144978452Y-86701166D01*
X145026071Y-86748785D01*
X145121309Y-86796404D01*
X145359404Y-86796404D01*
X145454642Y-86748785D01*
X145502261Y-86701166D01*
X145549880Y-86605928D01*
X145549880Y-86367833D01*
X145502261Y-86272595D01*
X145454642Y-86224976D01*
X126372880Y-85717214D02*
X125372880Y-85717214D01*
X125372880Y-85955309D01*
X125420500Y-86098166D01*
X125515738Y-86193404D01*
X125610976Y-86241023D01*
X125801452Y-86288642D01*
X125944309Y-86288642D01*
X126134785Y-86241023D01*
X126230023Y-86193404D01*
X126325261Y-86098166D01*
X126372880Y-85955309D01*
X126372880Y-85717214D01*
X126372880Y-87241023D02*
X126372880Y-86669595D01*
X126372880Y-86955309D02*
X125372880Y-86955309D01*
X125515738Y-86860071D01*
X125610976Y-86764833D01*
X125658595Y-86669595D01*
X125706214Y-88098166D02*
X126372880Y-88098166D01*
X125325261Y-87860071D02*
X126039547Y-87621976D01*
X126039547Y-88241023D01*
X107195880Y-88701714D02*
X106195880Y-88701714D01*
X106195880Y-88939809D01*
X106243500Y-89082666D01*
X106338738Y-89177904D01*
X106433976Y-89225523D01*
X106624452Y-89273142D01*
X106767309Y-89273142D01*
X106957785Y-89225523D01*
X107053023Y-89177904D01*
X107148261Y-89082666D01*
X107195880Y-88939809D01*
X107195880Y-88701714D01*
X107195880Y-90225523D02*
X107195880Y-89654095D01*
X107195880Y-89939809D02*
X106195880Y-89939809D01*
X106338738Y-89844571D01*
X106433976Y-89749333D01*
X106481595Y-89654095D01*
X106195880Y-90558857D02*
X106195880Y-91177904D01*
X106576833Y-90844571D01*
X106576833Y-90987428D01*
X106624452Y-91082666D01*
X106672071Y-91130285D01*
X106767309Y-91177904D01*
X107005404Y-91177904D01*
X107100642Y-91130285D01*
X107148261Y-91082666D01*
X107195880Y-90987428D01*
X107195880Y-90701714D01*
X107148261Y-90606476D01*
X107100642Y-90558857D01*
X199231380Y-71874214D02*
X198231380Y-71874214D01*
X198231380Y-72112309D01*
X198279000Y-72255166D01*
X198374238Y-72350404D01*
X198469476Y-72398023D01*
X198659952Y-72445642D01*
X198802809Y-72445642D01*
X198993285Y-72398023D01*
X199088523Y-72350404D01*
X199183761Y-72255166D01*
X199231380Y-72112309D01*
X199231380Y-71874214D01*
X199231380Y-73398023D02*
X199231380Y-72826595D01*
X199231380Y-73112309D02*
X198231380Y-73112309D01*
X198374238Y-73017071D01*
X198469476Y-72921833D01*
X198517095Y-72826595D01*
X198326619Y-73778976D02*
X198279000Y-73826595D01*
X198231380Y-73921833D01*
X198231380Y-74159928D01*
X198279000Y-74255166D01*
X198326619Y-74302785D01*
X198421857Y-74350404D01*
X198517095Y-74350404D01*
X198659952Y-74302785D01*
X199231380Y-73731357D01*
X199231380Y-74350404D01*
X180181380Y-66794214D02*
X179181380Y-66794214D01*
X179181380Y-67032309D01*
X179229000Y-67175166D01*
X179324238Y-67270404D01*
X179419476Y-67318023D01*
X179609952Y-67365642D01*
X179752809Y-67365642D01*
X179943285Y-67318023D01*
X180038523Y-67270404D01*
X180133761Y-67175166D01*
X180181380Y-67032309D01*
X180181380Y-66794214D01*
X180181380Y-68318023D02*
X180181380Y-67746595D01*
X180181380Y-68032309D02*
X179181380Y-68032309D01*
X179324238Y-67937071D01*
X179419476Y-67841833D01*
X179467095Y-67746595D01*
X180181380Y-69270404D02*
X180181380Y-68698976D01*
X180181380Y-68984690D02*
X179181380Y-68984690D01*
X179324238Y-68889452D01*
X179419476Y-68794214D01*
X179467095Y-68698976D01*
X161004380Y-64698714D02*
X160004380Y-64698714D01*
X160004380Y-64936809D01*
X160052000Y-65079666D01*
X160147238Y-65174904D01*
X160242476Y-65222523D01*
X160432952Y-65270142D01*
X160575809Y-65270142D01*
X160766285Y-65222523D01*
X160861523Y-65174904D01*
X160956761Y-65079666D01*
X161004380Y-64936809D01*
X161004380Y-64698714D01*
X161004380Y-66222523D02*
X161004380Y-65651095D01*
X161004380Y-65936809D02*
X160004380Y-65936809D01*
X160147238Y-65841571D01*
X160242476Y-65746333D01*
X160290095Y-65651095D01*
X160004380Y-66841571D02*
X160004380Y-66936809D01*
X160052000Y-67032047D01*
X160099619Y-67079666D01*
X160194857Y-67127285D01*
X160385333Y-67174904D01*
X160623428Y-67174904D01*
X160813904Y-67127285D01*
X160909142Y-67079666D01*
X160956761Y-67032047D01*
X161004380Y-66936809D01*
X161004380Y-66841571D01*
X160956761Y-66746333D01*
X160909142Y-66698714D01*
X160813904Y-66651095D01*
X160623428Y-66603476D01*
X160385333Y-66603476D01*
X160194857Y-66651095D01*
X160099619Y-66698714D01*
X160052000Y-66746333D01*
X160004380Y-66841571D01*
X141890880Y-64793904D02*
X140890880Y-64793904D01*
X140890880Y-65032000D01*
X140938500Y-65174857D01*
X141033738Y-65270095D01*
X141128976Y-65317714D01*
X141319452Y-65365333D01*
X141462309Y-65365333D01*
X141652785Y-65317714D01*
X141748023Y-65270095D01*
X141843261Y-65174857D01*
X141890880Y-65032000D01*
X141890880Y-64793904D01*
X141890880Y-65841523D02*
X141890880Y-66032000D01*
X141843261Y-66127238D01*
X141795642Y-66174857D01*
X141652785Y-66270095D01*
X141462309Y-66317714D01*
X141081357Y-66317714D01*
X140986119Y-66270095D01*
X140938500Y-66222476D01*
X140890880Y-66127238D01*
X140890880Y-65936761D01*
X140938500Y-65841523D01*
X140986119Y-65793904D01*
X141081357Y-65746285D01*
X141319452Y-65746285D01*
X141414690Y-65793904D01*
X141462309Y-65841523D01*
X141509928Y-65936761D01*
X141509928Y-66127238D01*
X141462309Y-66222476D01*
X141414690Y-66270095D01*
X141319452Y-66317714D01*
X122904380Y-65936904D02*
X121904380Y-65936904D01*
X121904380Y-66175000D01*
X121952000Y-66317857D01*
X122047238Y-66413095D01*
X122142476Y-66460714D01*
X122332952Y-66508333D01*
X122475809Y-66508333D01*
X122666285Y-66460714D01*
X122761523Y-66413095D01*
X122856761Y-66317857D01*
X122904380Y-66175000D01*
X122904380Y-65936904D01*
X122332952Y-67079761D02*
X122285333Y-66984523D01*
X122237714Y-66936904D01*
X122142476Y-66889285D01*
X122094857Y-66889285D01*
X121999619Y-66936904D01*
X121952000Y-66984523D01*
X121904380Y-67079761D01*
X121904380Y-67270238D01*
X121952000Y-67365476D01*
X121999619Y-67413095D01*
X122094857Y-67460714D01*
X122142476Y-67460714D01*
X122237714Y-67413095D01*
X122285333Y-67365476D01*
X122332952Y-67270238D01*
X122332952Y-67079761D01*
X122380571Y-66984523D01*
X122428190Y-66936904D01*
X122523428Y-66889285D01*
X122713904Y-66889285D01*
X122809142Y-66936904D01*
X122856761Y-66984523D01*
X122904380Y-67079761D01*
X122904380Y-67270238D01*
X122856761Y-67365476D01*
X122809142Y-67413095D01*
X122713904Y-67460714D01*
X122523428Y-67460714D01*
X122428190Y-67413095D01*
X122380571Y-67365476D01*
X122332952Y-67270238D01*
X107513380Y-70064404D02*
X106513380Y-70064404D01*
X106513380Y-70302500D01*
X106561000Y-70445357D01*
X106656238Y-70540595D01*
X106751476Y-70588214D01*
X106941952Y-70635833D01*
X107084809Y-70635833D01*
X107275285Y-70588214D01*
X107370523Y-70540595D01*
X107465761Y-70445357D01*
X107513380Y-70302500D01*
X107513380Y-70064404D01*
X106513380Y-70969166D02*
X106513380Y-71635833D01*
X107513380Y-71207261D01*
X199080380Y-51458904D02*
X198080380Y-51458904D01*
X198080380Y-51697000D01*
X198128000Y-51839857D01*
X198223238Y-51935095D01*
X198318476Y-51982714D01*
X198508952Y-52030333D01*
X198651809Y-52030333D01*
X198842285Y-51982714D01*
X198937523Y-51935095D01*
X199032761Y-51839857D01*
X199080380Y-51697000D01*
X199080380Y-51458904D01*
X198080380Y-52887476D02*
X198080380Y-52697000D01*
X198128000Y-52601761D01*
X198175619Y-52554142D01*
X198318476Y-52458904D01*
X198508952Y-52411285D01*
X198889904Y-52411285D01*
X198985142Y-52458904D01*
X199032761Y-52506523D01*
X199080380Y-52601761D01*
X199080380Y-52792238D01*
X199032761Y-52887476D01*
X198985142Y-52935095D01*
X198889904Y-52982714D01*
X198651809Y-52982714D01*
X198556571Y-52935095D01*
X198508952Y-52887476D01*
X198461333Y-52792238D01*
X198461333Y-52601761D01*
X198508952Y-52506523D01*
X198556571Y-52458904D01*
X198651809Y-52411285D01*
X179839880Y-48728404D02*
X178839880Y-48728404D01*
X178839880Y-48966500D01*
X178887500Y-49109357D01*
X178982738Y-49204595D01*
X179077976Y-49252214D01*
X179268452Y-49299833D01*
X179411309Y-49299833D01*
X179601785Y-49252214D01*
X179697023Y-49204595D01*
X179792261Y-49109357D01*
X179839880Y-48966500D01*
X179839880Y-48728404D01*
X178839880Y-50204595D02*
X178839880Y-49728404D01*
X179316071Y-49680785D01*
X179268452Y-49728404D01*
X179220833Y-49823642D01*
X179220833Y-50061738D01*
X179268452Y-50156976D01*
X179316071Y-50204595D01*
X179411309Y-50252214D01*
X179649404Y-50252214D01*
X179744642Y-50204595D01*
X179792261Y-50156976D01*
X179839880Y-50061738D01*
X179839880Y-49823642D01*
X179792261Y-49728404D01*
X179744642Y-49680785D01*
X160662880Y-45362904D02*
X159662880Y-45362904D01*
X159662880Y-45601000D01*
X159710500Y-45743857D01*
X159805738Y-45839095D01*
X159900976Y-45886714D01*
X160091452Y-45934333D01*
X160234309Y-45934333D01*
X160424785Y-45886714D01*
X160520023Y-45839095D01*
X160615261Y-45743857D01*
X160662880Y-45601000D01*
X160662880Y-45362904D01*
X159996214Y-46791476D02*
X160662880Y-46791476D01*
X159615261Y-46553380D02*
X160329547Y-46315285D01*
X160329547Y-46934333D01*
X141295380Y-46442404D02*
X140295380Y-46442404D01*
X140295380Y-46680500D01*
X140343000Y-46823357D01*
X140438238Y-46918595D01*
X140533476Y-46966214D01*
X140723952Y-47013833D01*
X140866809Y-47013833D01*
X141057285Y-46966214D01*
X141152523Y-46918595D01*
X141247761Y-46823357D01*
X141295380Y-46680500D01*
X141295380Y-46442404D01*
X140295380Y-47347166D02*
X140295380Y-47966214D01*
X140676333Y-47632880D01*
X140676333Y-47775738D01*
X140723952Y-47870976D01*
X140771571Y-47918595D01*
X140866809Y-47966214D01*
X141104904Y-47966214D01*
X141200142Y-47918595D01*
X141247761Y-47870976D01*
X141295380Y-47775738D01*
X141295380Y-47490023D01*
X141247761Y-47394785D01*
X141200142Y-47347166D01*
X126309380Y-47712404D02*
X125309380Y-47712404D01*
X125309380Y-47950500D01*
X125357000Y-48093357D01*
X125452238Y-48188595D01*
X125547476Y-48236214D01*
X125737952Y-48283833D01*
X125880809Y-48283833D01*
X126071285Y-48236214D01*
X126166523Y-48188595D01*
X126261761Y-48093357D01*
X126309380Y-47950500D01*
X126309380Y-47712404D01*
X125404619Y-48664785D02*
X125357000Y-48712404D01*
X125309380Y-48807642D01*
X125309380Y-49045738D01*
X125357000Y-49140976D01*
X125404619Y-49188595D01*
X125499857Y-49236214D01*
X125595095Y-49236214D01*
X125737952Y-49188595D01*
X126309380Y-48617166D01*
X126309380Y-49236214D01*
X107449880Y-50506404D02*
X106449880Y-50506404D01*
X106449880Y-50744500D01*
X106497500Y-50887357D01*
X106592738Y-50982595D01*
X106687976Y-51030214D01*
X106878452Y-51077833D01*
X107021309Y-51077833D01*
X107211785Y-51030214D01*
X107307023Y-50982595D01*
X107402261Y-50887357D01*
X107449880Y-50744500D01*
X107449880Y-50506404D01*
X107449880Y-52030214D02*
X107449880Y-51458785D01*
X107449880Y-51744500D02*
X106449880Y-51744500D01*
X106592738Y-51649261D01*
X106687976Y-51554023D01*
X106735595Y-51458785D01*
X91381953Y-131918051D02*
X91269285Y-131818143D01*
X91150238Y-131611946D01*
X91143858Y-131505658D01*
X91161288Y-131440609D01*
X91219957Y-131351751D01*
X91302436Y-131304132D01*
X91408724Y-131297752D01*
X91473773Y-131315182D01*
X91562631Y-131373851D01*
X91699108Y-131514999D01*
X91787967Y-131573668D01*
X91853015Y-131591097D01*
X91959304Y-131584718D01*
X92041782Y-131537099D01*
X92100451Y-131448240D01*
X92117881Y-131383191D01*
X92111501Y-131276903D01*
X91992454Y-131070707D01*
X91879786Y-130970798D01*
X91754358Y-130658314D02*
X90769285Y-130952117D01*
X91292637Y-130430017D01*
X90578809Y-130622203D01*
X91325787Y-129916006D01*
X91076642Y-129674950D02*
X91094072Y-129609901D01*
X91087692Y-129503613D01*
X90968644Y-129297417D01*
X90879786Y-129238748D01*
X90814737Y-129221318D01*
X90708449Y-129227698D01*
X90625970Y-129275317D01*
X90526062Y-129387985D01*
X90316904Y-130168570D01*
X90007381Y-129632459D01*
X90444835Y-128390152D02*
X90540073Y-128555109D01*
X90546452Y-128661397D01*
X90529023Y-128726446D01*
X90452924Y-128880353D01*
X90311776Y-129016831D01*
X89981862Y-129207307D01*
X89875574Y-129213687D01*
X89810525Y-129196257D01*
X89721666Y-129137588D01*
X89626428Y-128972631D01*
X89620049Y-128866342D01*
X89637478Y-128801294D01*
X89696147Y-128712435D01*
X89902344Y-128593388D01*
X90008632Y-128587008D01*
X90073681Y-128604438D01*
X90162539Y-128663107D01*
X90257777Y-128828064D01*
X90264157Y-128934352D01*
X90246727Y-128999401D01*
X90188058Y-129088259D01*
X163639523Y-132614761D02*
X163496666Y-132662380D01*
X163258571Y-132662380D01*
X163163333Y-132614761D01*
X163115714Y-132567142D01*
X163068095Y-132471904D01*
X163068095Y-132376666D01*
X163115714Y-132281428D01*
X163163333Y-132233809D01*
X163258571Y-132186190D01*
X163449047Y-132138571D01*
X163544285Y-132090952D01*
X163591904Y-132043333D01*
X163639523Y-131948095D01*
X163639523Y-131852857D01*
X163591904Y-131757619D01*
X163544285Y-131710000D01*
X163449047Y-131662380D01*
X163210952Y-131662380D01*
X163068095Y-131710000D01*
X162734761Y-131662380D02*
X162496666Y-132662380D01*
X162306190Y-131948095D01*
X162115714Y-132662380D01*
X161877619Y-131662380D01*
X161544285Y-131757619D02*
X161496666Y-131710000D01*
X161401428Y-131662380D01*
X161163333Y-131662380D01*
X161068095Y-131710000D01*
X161020476Y-131757619D01*
X160972857Y-131852857D01*
X160972857Y-131948095D01*
X161020476Y-132090952D01*
X161591904Y-132662380D01*
X160972857Y-132662380D01*
X160496666Y-132662380D02*
X160306190Y-132662380D01*
X160210952Y-132614761D01*
X160163333Y-132567142D01*
X160068095Y-132424285D01*
X160020476Y-132233809D01*
X160020476Y-131852857D01*
X160068095Y-131757619D01*
X160115714Y-131710000D01*
X160210952Y-131662380D01*
X160401428Y-131662380D01*
X160496666Y-131710000D01*
X160544285Y-131757619D01*
X160591904Y-131852857D01*
X160591904Y-132090952D01*
X160544285Y-132186190D01*
X160496666Y-132233809D01*
X160401428Y-132281428D01*
X160210952Y-132281428D01*
X160115714Y-132233809D01*
X160068095Y-132186190D01*
X160020476Y-132090952D01*
X144587223Y-133643061D02*
X144444366Y-133690680D01*
X144206271Y-133690680D01*
X144111033Y-133643061D01*
X144063414Y-133595442D01*
X144015795Y-133500204D01*
X144015795Y-133404966D01*
X144063414Y-133309728D01*
X144111033Y-133262109D01*
X144206271Y-133214490D01*
X144396747Y-133166871D01*
X144491985Y-133119252D01*
X144539604Y-133071633D01*
X144587223Y-132976395D01*
X144587223Y-132881157D01*
X144539604Y-132785919D01*
X144491985Y-132738300D01*
X144396747Y-132690680D01*
X144158652Y-132690680D01*
X144015795Y-132738300D01*
X143682461Y-132690680D02*
X143444366Y-133690680D01*
X143253890Y-132976395D01*
X143063414Y-133690680D01*
X142825319Y-132690680D01*
X142491985Y-132785919D02*
X142444366Y-132738300D01*
X142349128Y-132690680D01*
X142111033Y-132690680D01*
X142015795Y-132738300D01*
X141968176Y-132785919D01*
X141920557Y-132881157D01*
X141920557Y-132976395D01*
X141968176Y-133119252D01*
X142539604Y-133690680D01*
X141920557Y-133690680D01*
X141349128Y-133119252D02*
X141444366Y-133071633D01*
X141491985Y-133024014D01*
X141539604Y-132928776D01*
X141539604Y-132881157D01*
X141491985Y-132785919D01*
X141444366Y-132738300D01*
X141349128Y-132690680D01*
X141158652Y-132690680D01*
X141063414Y-132738300D01*
X141015795Y-132785919D01*
X140968176Y-132881157D01*
X140968176Y-132928776D01*
X141015795Y-133024014D01*
X141063414Y-133071633D01*
X141158652Y-133119252D01*
X141349128Y-133119252D01*
X141444366Y-133166871D01*
X141491985Y-133214490D01*
X141539604Y-133309728D01*
X141539604Y-133500204D01*
X141491985Y-133595442D01*
X141444366Y-133643061D01*
X141349128Y-133690680D01*
X141158652Y-133690680D01*
X141063414Y-133643061D01*
X141015795Y-133595442D01*
X140968176Y-133500204D01*
X140968176Y-133309728D01*
X141015795Y-133214490D01*
X141063414Y-133166871D01*
X141158652Y-133119252D01*
X125539523Y-135014761D02*
X125396666Y-135062380D01*
X125158571Y-135062380D01*
X125063333Y-135014761D01*
X125015714Y-134967142D01*
X124968095Y-134871904D01*
X124968095Y-134776666D01*
X125015714Y-134681428D01*
X125063333Y-134633809D01*
X125158571Y-134586190D01*
X125349047Y-134538571D01*
X125444285Y-134490952D01*
X125491904Y-134443333D01*
X125539523Y-134348095D01*
X125539523Y-134252857D01*
X125491904Y-134157619D01*
X125444285Y-134110000D01*
X125349047Y-134062380D01*
X125110952Y-134062380D01*
X124968095Y-134110000D01*
X124634761Y-134062380D02*
X124396666Y-135062380D01*
X124206190Y-134348095D01*
X124015714Y-135062380D01*
X123777619Y-134062380D01*
X123444285Y-134157619D02*
X123396666Y-134110000D01*
X123301428Y-134062380D01*
X123063333Y-134062380D01*
X122968095Y-134110000D01*
X122920476Y-134157619D01*
X122872857Y-134252857D01*
X122872857Y-134348095D01*
X122920476Y-134490952D01*
X123491904Y-135062380D01*
X122872857Y-135062380D01*
X122539523Y-134062380D02*
X121872857Y-134062380D01*
X122301428Y-135062380D01*
X92164323Y-107100061D02*
X92021466Y-107147680D01*
X91783371Y-107147680D01*
X91688133Y-107100061D01*
X91640514Y-107052442D01*
X91592895Y-106957204D01*
X91592895Y-106861966D01*
X91640514Y-106766728D01*
X91688133Y-106719109D01*
X91783371Y-106671490D01*
X91973847Y-106623871D01*
X92069085Y-106576252D01*
X92116704Y-106528633D01*
X92164323Y-106433395D01*
X92164323Y-106338157D01*
X92116704Y-106242919D01*
X92069085Y-106195300D01*
X91973847Y-106147680D01*
X91735752Y-106147680D01*
X91592895Y-106195300D01*
X91259561Y-106147680D02*
X91021466Y-107147680D01*
X90830990Y-106433395D01*
X90640514Y-107147680D01*
X90402419Y-106147680D01*
X90069085Y-106242919D02*
X90021466Y-106195300D01*
X89926228Y-106147680D01*
X89688133Y-106147680D01*
X89592895Y-106195300D01*
X89545276Y-106242919D01*
X89497657Y-106338157D01*
X89497657Y-106433395D01*
X89545276Y-106576252D01*
X90116704Y-107147680D01*
X89497657Y-107147680D01*
X88592895Y-106147680D02*
X89069085Y-106147680D01*
X89116704Y-106623871D01*
X89069085Y-106576252D01*
X88973847Y-106528633D01*
X88735752Y-106528633D01*
X88640514Y-106576252D01*
X88592895Y-106623871D01*
X88545276Y-106719109D01*
X88545276Y-106957204D01*
X88592895Y-107052442D01*
X88640514Y-107100061D01*
X88735752Y-107147680D01*
X88973847Y-107147680D01*
X89069085Y-107100061D01*
X89116704Y-107052442D01*
X211339523Y-119864761D02*
X211196666Y-119912380D01*
X210958571Y-119912380D01*
X210863333Y-119864761D01*
X210815714Y-119817142D01*
X210768095Y-119721904D01*
X210768095Y-119626666D01*
X210815714Y-119531428D01*
X210863333Y-119483809D01*
X210958571Y-119436190D01*
X211149047Y-119388571D01*
X211244285Y-119340952D01*
X211291904Y-119293333D01*
X211339523Y-119198095D01*
X211339523Y-119102857D01*
X211291904Y-119007619D01*
X211244285Y-118960000D01*
X211149047Y-118912380D01*
X210910952Y-118912380D01*
X210768095Y-118960000D01*
X210434761Y-118912380D02*
X210196666Y-119912380D01*
X210006190Y-119198095D01*
X209815714Y-119912380D01*
X209577619Y-118912380D01*
X209244285Y-119007619D02*
X209196666Y-118960000D01*
X209101428Y-118912380D01*
X208863333Y-118912380D01*
X208768095Y-118960000D01*
X208720476Y-119007619D01*
X208672857Y-119102857D01*
X208672857Y-119198095D01*
X208720476Y-119340952D01*
X209291904Y-119912380D01*
X208672857Y-119912380D01*
X207815714Y-119245714D02*
X207815714Y-119912380D01*
X208053809Y-118864761D02*
X208291904Y-119579047D01*
X207672857Y-119579047D01*
X192289523Y-118364761D02*
X192146666Y-118412380D01*
X191908571Y-118412380D01*
X191813333Y-118364761D01*
X191765714Y-118317142D01*
X191718095Y-118221904D01*
X191718095Y-118126666D01*
X191765714Y-118031428D01*
X191813333Y-117983809D01*
X191908571Y-117936190D01*
X192099047Y-117888571D01*
X192194285Y-117840952D01*
X192241904Y-117793333D01*
X192289523Y-117698095D01*
X192289523Y-117602857D01*
X192241904Y-117507619D01*
X192194285Y-117460000D01*
X192099047Y-117412380D01*
X191860952Y-117412380D01*
X191718095Y-117460000D01*
X191384761Y-117412380D02*
X191146666Y-118412380D01*
X190956190Y-117698095D01*
X190765714Y-118412380D01*
X190527619Y-117412380D01*
X190194285Y-117507619D02*
X190146666Y-117460000D01*
X190051428Y-117412380D01*
X189813333Y-117412380D01*
X189718095Y-117460000D01*
X189670476Y-117507619D01*
X189622857Y-117602857D01*
X189622857Y-117698095D01*
X189670476Y-117840952D01*
X190241904Y-118412380D01*
X189622857Y-118412380D01*
X189289523Y-117412380D02*
X188670476Y-117412380D01*
X189003809Y-117793333D01*
X188860952Y-117793333D01*
X188765714Y-117840952D01*
X188718095Y-117888571D01*
X188670476Y-117983809D01*
X188670476Y-118221904D01*
X188718095Y-118317142D01*
X188765714Y-118364761D01*
X188860952Y-118412380D01*
X189146666Y-118412380D01*
X189241904Y-118364761D01*
X189289523Y-118317142D01*
X173239523Y-113564761D02*
X173096666Y-113612380D01*
X172858571Y-113612380D01*
X172763333Y-113564761D01*
X172715714Y-113517142D01*
X172668095Y-113421904D01*
X172668095Y-113326666D01*
X172715714Y-113231428D01*
X172763333Y-113183809D01*
X172858571Y-113136190D01*
X173049047Y-113088571D01*
X173144285Y-113040952D01*
X173191904Y-112993333D01*
X173239523Y-112898095D01*
X173239523Y-112802857D01*
X173191904Y-112707619D01*
X173144285Y-112660000D01*
X173049047Y-112612380D01*
X172810952Y-112612380D01*
X172668095Y-112660000D01*
X172334761Y-112612380D02*
X172096666Y-113612380D01*
X171906190Y-112898095D01*
X171715714Y-113612380D01*
X171477619Y-112612380D01*
X171144285Y-112707619D02*
X171096666Y-112660000D01*
X171001428Y-112612380D01*
X170763333Y-112612380D01*
X170668095Y-112660000D01*
X170620476Y-112707619D01*
X170572857Y-112802857D01*
X170572857Y-112898095D01*
X170620476Y-113040952D01*
X171191904Y-113612380D01*
X170572857Y-113612380D01*
X170191904Y-112707619D02*
X170144285Y-112660000D01*
X170049047Y-112612380D01*
X169810952Y-112612380D01*
X169715714Y-112660000D01*
X169668095Y-112707619D01*
X169620476Y-112802857D01*
X169620476Y-112898095D01*
X169668095Y-113040952D01*
X170239523Y-113612380D01*
X169620476Y-113612380D01*
X160432523Y-112101261D02*
X160289666Y-112148880D01*
X160051571Y-112148880D01*
X159956333Y-112101261D01*
X159908714Y-112053642D01*
X159861095Y-111958404D01*
X159861095Y-111863166D01*
X159908714Y-111767928D01*
X159956333Y-111720309D01*
X160051571Y-111672690D01*
X160242047Y-111625071D01*
X160337285Y-111577452D01*
X160384904Y-111529833D01*
X160432523Y-111434595D01*
X160432523Y-111339357D01*
X160384904Y-111244119D01*
X160337285Y-111196500D01*
X160242047Y-111148880D01*
X160003952Y-111148880D01*
X159861095Y-111196500D01*
X159527761Y-111148880D02*
X159289666Y-112148880D01*
X159099190Y-111434595D01*
X158908714Y-112148880D01*
X158670619Y-111148880D01*
X158337285Y-111244119D02*
X158289666Y-111196500D01*
X158194428Y-111148880D01*
X157956333Y-111148880D01*
X157861095Y-111196500D01*
X157813476Y-111244119D01*
X157765857Y-111339357D01*
X157765857Y-111434595D01*
X157813476Y-111577452D01*
X158384904Y-112148880D01*
X157765857Y-112148880D01*
X156813476Y-112148880D02*
X157384904Y-112148880D01*
X157099190Y-112148880D02*
X157099190Y-111148880D01*
X157194428Y-111291738D01*
X157289666Y-111386976D01*
X157384904Y-111434595D01*
X135139523Y-113564761D02*
X134996666Y-113612380D01*
X134758571Y-113612380D01*
X134663333Y-113564761D01*
X134615714Y-113517142D01*
X134568095Y-113421904D01*
X134568095Y-113326666D01*
X134615714Y-113231428D01*
X134663333Y-113183809D01*
X134758571Y-113136190D01*
X134949047Y-113088571D01*
X135044285Y-113040952D01*
X135091904Y-112993333D01*
X135139523Y-112898095D01*
X135139523Y-112802857D01*
X135091904Y-112707619D01*
X135044285Y-112660000D01*
X134949047Y-112612380D01*
X134710952Y-112612380D01*
X134568095Y-112660000D01*
X134234761Y-112612380D02*
X133996666Y-113612380D01*
X133806190Y-112898095D01*
X133615714Y-113612380D01*
X133377619Y-112612380D01*
X133044285Y-112707619D02*
X132996666Y-112660000D01*
X132901428Y-112612380D01*
X132663333Y-112612380D01*
X132568095Y-112660000D01*
X132520476Y-112707619D01*
X132472857Y-112802857D01*
X132472857Y-112898095D01*
X132520476Y-113040952D01*
X133091904Y-113612380D01*
X132472857Y-113612380D01*
X131853809Y-112612380D02*
X131758571Y-112612380D01*
X131663333Y-112660000D01*
X131615714Y-112707619D01*
X131568095Y-112802857D01*
X131520476Y-112993333D01*
X131520476Y-113231428D01*
X131568095Y-113421904D01*
X131615714Y-113517142D01*
X131663333Y-113564761D01*
X131758571Y-113612380D01*
X131853809Y-113612380D01*
X131949047Y-113564761D01*
X131996666Y-113517142D01*
X132044285Y-113421904D01*
X132091904Y-113231428D01*
X132091904Y-112993333D01*
X132044285Y-112802857D01*
X131996666Y-112707619D01*
X131949047Y-112660000D01*
X131853809Y-112612380D01*
X116089523Y-115964761D02*
X115946666Y-116012380D01*
X115708571Y-116012380D01*
X115613333Y-115964761D01*
X115565714Y-115917142D01*
X115518095Y-115821904D01*
X115518095Y-115726666D01*
X115565714Y-115631428D01*
X115613333Y-115583809D01*
X115708571Y-115536190D01*
X115899047Y-115488571D01*
X115994285Y-115440952D01*
X116041904Y-115393333D01*
X116089523Y-115298095D01*
X116089523Y-115202857D01*
X116041904Y-115107619D01*
X115994285Y-115060000D01*
X115899047Y-115012380D01*
X115660952Y-115012380D01*
X115518095Y-115060000D01*
X115184761Y-115012380D02*
X114946666Y-116012380D01*
X114756190Y-115298095D01*
X114565714Y-116012380D01*
X114327619Y-115012380D01*
X113422857Y-116012380D02*
X113994285Y-116012380D01*
X113708571Y-116012380D02*
X113708571Y-115012380D01*
X113803809Y-115155238D01*
X113899047Y-115250476D01*
X113994285Y-115298095D01*
X112946666Y-116012380D02*
X112756190Y-116012380D01*
X112660952Y-115964761D01*
X112613333Y-115917142D01*
X112518095Y-115774285D01*
X112470476Y-115583809D01*
X112470476Y-115202857D01*
X112518095Y-115107619D01*
X112565714Y-115060000D01*
X112660952Y-115012380D01*
X112851428Y-115012380D01*
X112946666Y-115060000D01*
X112994285Y-115107619D01*
X113041904Y-115202857D01*
X113041904Y-115440952D01*
X112994285Y-115536190D01*
X112946666Y-115583809D01*
X112851428Y-115631428D01*
X112660952Y-115631428D01*
X112565714Y-115583809D01*
X112518095Y-115536190D01*
X112470476Y-115440952D01*
X211339523Y-100814761D02*
X211196666Y-100862380D01*
X210958571Y-100862380D01*
X210863333Y-100814761D01*
X210815714Y-100767142D01*
X210768095Y-100671904D01*
X210768095Y-100576666D01*
X210815714Y-100481428D01*
X210863333Y-100433809D01*
X210958571Y-100386190D01*
X211149047Y-100338571D01*
X211244285Y-100290952D01*
X211291904Y-100243333D01*
X211339523Y-100148095D01*
X211339523Y-100052857D01*
X211291904Y-99957619D01*
X211244285Y-99910000D01*
X211149047Y-99862380D01*
X210910952Y-99862380D01*
X210768095Y-99910000D01*
X210434761Y-99862380D02*
X210196666Y-100862380D01*
X210006190Y-100148095D01*
X209815714Y-100862380D01*
X209577619Y-99862380D01*
X208672857Y-100862380D02*
X209244285Y-100862380D01*
X208958571Y-100862380D02*
X208958571Y-99862380D01*
X209053809Y-100005238D01*
X209149047Y-100100476D01*
X209244285Y-100148095D01*
X208101428Y-100290952D02*
X208196666Y-100243333D01*
X208244285Y-100195714D01*
X208291904Y-100100476D01*
X208291904Y-100052857D01*
X208244285Y-99957619D01*
X208196666Y-99910000D01*
X208101428Y-99862380D01*
X207910952Y-99862380D01*
X207815714Y-99910000D01*
X207768095Y-99957619D01*
X207720476Y-100052857D01*
X207720476Y-100100476D01*
X207768095Y-100195714D01*
X207815714Y-100243333D01*
X207910952Y-100290952D01*
X208101428Y-100290952D01*
X208196666Y-100338571D01*
X208244285Y-100386190D01*
X208291904Y-100481428D01*
X208291904Y-100671904D01*
X208244285Y-100767142D01*
X208196666Y-100814761D01*
X208101428Y-100862380D01*
X207910952Y-100862380D01*
X207815714Y-100814761D01*
X207768095Y-100767142D01*
X207720476Y-100671904D01*
X207720476Y-100481428D01*
X207768095Y-100386190D01*
X207815714Y-100338571D01*
X207910952Y-100290952D01*
X197643523Y-99401261D02*
X197500666Y-99448880D01*
X197262571Y-99448880D01*
X197167333Y-99401261D01*
X197119714Y-99353642D01*
X197072095Y-99258404D01*
X197072095Y-99163166D01*
X197119714Y-99067928D01*
X197167333Y-99020309D01*
X197262571Y-98972690D01*
X197453047Y-98925071D01*
X197548285Y-98877452D01*
X197595904Y-98829833D01*
X197643523Y-98734595D01*
X197643523Y-98639357D01*
X197595904Y-98544119D01*
X197548285Y-98496500D01*
X197453047Y-98448880D01*
X197214952Y-98448880D01*
X197072095Y-98496500D01*
X196738761Y-98448880D02*
X196500666Y-99448880D01*
X196310190Y-98734595D01*
X196119714Y-99448880D01*
X195881619Y-98448880D01*
X194976857Y-99448880D02*
X195548285Y-99448880D01*
X195262571Y-99448880D02*
X195262571Y-98448880D01*
X195357809Y-98591738D01*
X195453047Y-98686976D01*
X195548285Y-98734595D01*
X194643523Y-98448880D02*
X193976857Y-98448880D01*
X194405428Y-99448880D01*
X173239523Y-94514761D02*
X173096666Y-94562380D01*
X172858571Y-94562380D01*
X172763333Y-94514761D01*
X172715714Y-94467142D01*
X172668095Y-94371904D01*
X172668095Y-94276666D01*
X172715714Y-94181428D01*
X172763333Y-94133809D01*
X172858571Y-94086190D01*
X173049047Y-94038571D01*
X173144285Y-93990952D01*
X173191904Y-93943333D01*
X173239523Y-93848095D01*
X173239523Y-93752857D01*
X173191904Y-93657619D01*
X173144285Y-93610000D01*
X173049047Y-93562380D01*
X172810952Y-93562380D01*
X172668095Y-93610000D01*
X172334761Y-93562380D02*
X172096666Y-94562380D01*
X171906190Y-93848095D01*
X171715714Y-94562380D01*
X171477619Y-93562380D01*
X170572857Y-94562380D02*
X171144285Y-94562380D01*
X170858571Y-94562380D02*
X170858571Y-93562380D01*
X170953809Y-93705238D01*
X171049047Y-93800476D01*
X171144285Y-93848095D01*
X169715714Y-93562380D02*
X169906190Y-93562380D01*
X170001428Y-93610000D01*
X170049047Y-93657619D01*
X170144285Y-93800476D01*
X170191904Y-93990952D01*
X170191904Y-94371904D01*
X170144285Y-94467142D01*
X170096666Y-94514761D01*
X170001428Y-94562380D01*
X169810952Y-94562380D01*
X169715714Y-94514761D01*
X169668095Y-94467142D01*
X169620476Y-94371904D01*
X169620476Y-94133809D01*
X169668095Y-94038571D01*
X169715714Y-93990952D01*
X169810952Y-93943333D01*
X170001428Y-93943333D01*
X170096666Y-93990952D01*
X170144285Y-94038571D01*
X170191904Y-94133809D01*
X154189523Y-93124761D02*
X154046666Y-93172380D01*
X153808571Y-93172380D01*
X153713333Y-93124761D01*
X153665714Y-93077142D01*
X153618095Y-92981904D01*
X153618095Y-92886666D01*
X153665714Y-92791428D01*
X153713333Y-92743809D01*
X153808571Y-92696190D01*
X153999047Y-92648571D01*
X154094285Y-92600952D01*
X154141904Y-92553333D01*
X154189523Y-92458095D01*
X154189523Y-92362857D01*
X154141904Y-92267619D01*
X154094285Y-92220000D01*
X153999047Y-92172380D01*
X153760952Y-92172380D01*
X153618095Y-92220000D01*
X153284761Y-92172380D02*
X153046666Y-93172380D01*
X152856190Y-92458095D01*
X152665714Y-93172380D01*
X152427619Y-92172380D01*
X151522857Y-93172380D02*
X152094285Y-93172380D01*
X151808571Y-93172380D02*
X151808571Y-92172380D01*
X151903809Y-92315238D01*
X151999047Y-92410476D01*
X152094285Y-92458095D01*
X150618095Y-92172380D02*
X151094285Y-92172380D01*
X151141904Y-92648571D01*
X151094285Y-92600952D01*
X150999047Y-92553333D01*
X150760952Y-92553333D01*
X150665714Y-92600952D01*
X150618095Y-92648571D01*
X150570476Y-92743809D01*
X150570476Y-92981904D01*
X150618095Y-93077142D01*
X150665714Y-93124761D01*
X150760952Y-93172380D01*
X150999047Y-93172380D01*
X151094285Y-93124761D01*
X151141904Y-93077142D01*
X135139523Y-94514761D02*
X134996666Y-94562380D01*
X134758571Y-94562380D01*
X134663333Y-94514761D01*
X134615714Y-94467142D01*
X134568095Y-94371904D01*
X134568095Y-94276666D01*
X134615714Y-94181428D01*
X134663333Y-94133809D01*
X134758571Y-94086190D01*
X134949047Y-94038571D01*
X135044285Y-93990952D01*
X135091904Y-93943333D01*
X135139523Y-93848095D01*
X135139523Y-93752857D01*
X135091904Y-93657619D01*
X135044285Y-93610000D01*
X134949047Y-93562380D01*
X134710952Y-93562380D01*
X134568095Y-93610000D01*
X134234761Y-93562380D02*
X133996666Y-94562380D01*
X133806190Y-93848095D01*
X133615714Y-94562380D01*
X133377619Y-93562380D01*
X132472857Y-94562380D02*
X133044285Y-94562380D01*
X132758571Y-94562380D02*
X132758571Y-93562380D01*
X132853809Y-93705238D01*
X132949047Y-93800476D01*
X133044285Y-93848095D01*
X131615714Y-93895714D02*
X131615714Y-94562380D01*
X131853809Y-93514761D02*
X132091904Y-94229047D01*
X131472857Y-94229047D01*
X116089523Y-96914761D02*
X115946666Y-96962380D01*
X115708571Y-96962380D01*
X115613333Y-96914761D01*
X115565714Y-96867142D01*
X115518095Y-96771904D01*
X115518095Y-96676666D01*
X115565714Y-96581428D01*
X115613333Y-96533809D01*
X115708571Y-96486190D01*
X115899047Y-96438571D01*
X115994285Y-96390952D01*
X116041904Y-96343333D01*
X116089523Y-96248095D01*
X116089523Y-96152857D01*
X116041904Y-96057619D01*
X115994285Y-96010000D01*
X115899047Y-95962380D01*
X115660952Y-95962380D01*
X115518095Y-96010000D01*
X115184761Y-95962380D02*
X114946666Y-96962380D01*
X114756190Y-96248095D01*
X114565714Y-96962380D01*
X114327619Y-95962380D01*
X113422857Y-96962380D02*
X113994285Y-96962380D01*
X113708571Y-96962380D02*
X113708571Y-95962380D01*
X113803809Y-96105238D01*
X113899047Y-96200476D01*
X113994285Y-96248095D01*
X113089523Y-95962380D02*
X112470476Y-95962380D01*
X112803809Y-96343333D01*
X112660952Y-96343333D01*
X112565714Y-96390952D01*
X112518095Y-96438571D01*
X112470476Y-96533809D01*
X112470476Y-96771904D01*
X112518095Y-96867142D01*
X112565714Y-96914761D01*
X112660952Y-96962380D01*
X112946666Y-96962380D01*
X113041904Y-96914761D01*
X113089523Y-96867142D01*
X211339523Y-81764761D02*
X211196666Y-81812380D01*
X210958571Y-81812380D01*
X210863333Y-81764761D01*
X210815714Y-81717142D01*
X210768095Y-81621904D01*
X210768095Y-81526666D01*
X210815714Y-81431428D01*
X210863333Y-81383809D01*
X210958571Y-81336190D01*
X211149047Y-81288571D01*
X211244285Y-81240952D01*
X211291904Y-81193333D01*
X211339523Y-81098095D01*
X211339523Y-81002857D01*
X211291904Y-80907619D01*
X211244285Y-80860000D01*
X211149047Y-80812380D01*
X210910952Y-80812380D01*
X210768095Y-80860000D01*
X210434761Y-80812380D02*
X210196666Y-81812380D01*
X210006190Y-81098095D01*
X209815714Y-81812380D01*
X209577619Y-80812380D01*
X208672857Y-81812380D02*
X209244285Y-81812380D01*
X208958571Y-81812380D02*
X208958571Y-80812380D01*
X209053809Y-80955238D01*
X209149047Y-81050476D01*
X209244285Y-81098095D01*
X208291904Y-80907619D02*
X208244285Y-80860000D01*
X208149047Y-80812380D01*
X207910952Y-80812380D01*
X207815714Y-80860000D01*
X207768095Y-80907619D01*
X207720476Y-81002857D01*
X207720476Y-81098095D01*
X207768095Y-81240952D01*
X208339523Y-81812380D01*
X207720476Y-81812380D01*
X192289523Y-80264761D02*
X192146666Y-80312380D01*
X191908571Y-80312380D01*
X191813333Y-80264761D01*
X191765714Y-80217142D01*
X191718095Y-80121904D01*
X191718095Y-80026666D01*
X191765714Y-79931428D01*
X191813333Y-79883809D01*
X191908571Y-79836190D01*
X192099047Y-79788571D01*
X192194285Y-79740952D01*
X192241904Y-79693333D01*
X192289523Y-79598095D01*
X192289523Y-79502857D01*
X192241904Y-79407619D01*
X192194285Y-79360000D01*
X192099047Y-79312380D01*
X191860952Y-79312380D01*
X191718095Y-79360000D01*
X191384761Y-79312380D02*
X191146666Y-80312380D01*
X190956190Y-79598095D01*
X190765714Y-80312380D01*
X190527619Y-79312380D01*
X189622857Y-80312380D02*
X190194285Y-80312380D01*
X189908571Y-80312380D02*
X189908571Y-79312380D01*
X190003809Y-79455238D01*
X190099047Y-79550476D01*
X190194285Y-79598095D01*
X188670476Y-80312380D02*
X189241904Y-80312380D01*
X188956190Y-80312380D02*
X188956190Y-79312380D01*
X189051428Y-79455238D01*
X189146666Y-79550476D01*
X189241904Y-79598095D01*
X173239523Y-75464761D02*
X173096666Y-75512380D01*
X172858571Y-75512380D01*
X172763333Y-75464761D01*
X172715714Y-75417142D01*
X172668095Y-75321904D01*
X172668095Y-75226666D01*
X172715714Y-75131428D01*
X172763333Y-75083809D01*
X172858571Y-75036190D01*
X173049047Y-74988571D01*
X173144285Y-74940952D01*
X173191904Y-74893333D01*
X173239523Y-74798095D01*
X173239523Y-74702857D01*
X173191904Y-74607619D01*
X173144285Y-74560000D01*
X173049047Y-74512380D01*
X172810952Y-74512380D01*
X172668095Y-74560000D01*
X172334761Y-74512380D02*
X172096666Y-75512380D01*
X171906190Y-74798095D01*
X171715714Y-75512380D01*
X171477619Y-74512380D01*
X170572857Y-75512380D02*
X171144285Y-75512380D01*
X170858571Y-75512380D02*
X170858571Y-74512380D01*
X170953809Y-74655238D01*
X171049047Y-74750476D01*
X171144285Y-74798095D01*
X169953809Y-74512380D02*
X169858571Y-74512380D01*
X169763333Y-74560000D01*
X169715714Y-74607619D01*
X169668095Y-74702857D01*
X169620476Y-74893333D01*
X169620476Y-75131428D01*
X169668095Y-75321904D01*
X169715714Y-75417142D01*
X169763333Y-75464761D01*
X169858571Y-75512380D01*
X169953809Y-75512380D01*
X170049047Y-75464761D01*
X170096666Y-75417142D01*
X170144285Y-75321904D01*
X170191904Y-75131428D01*
X170191904Y-74893333D01*
X170144285Y-74702857D01*
X170096666Y-74607619D01*
X170049047Y-74560000D01*
X169953809Y-74512380D01*
X153713333Y-74074761D02*
X153570476Y-74122380D01*
X153332380Y-74122380D01*
X153237142Y-74074761D01*
X153189523Y-74027142D01*
X153141904Y-73931904D01*
X153141904Y-73836666D01*
X153189523Y-73741428D01*
X153237142Y-73693809D01*
X153332380Y-73646190D01*
X153522857Y-73598571D01*
X153618095Y-73550952D01*
X153665714Y-73503333D01*
X153713333Y-73408095D01*
X153713333Y-73312857D01*
X153665714Y-73217619D01*
X153618095Y-73170000D01*
X153522857Y-73122380D01*
X153284761Y-73122380D01*
X153141904Y-73170000D01*
X152808571Y-73122380D02*
X152570476Y-74122380D01*
X152380000Y-73408095D01*
X152189523Y-74122380D01*
X151951428Y-73122380D01*
X151522857Y-74122380D02*
X151332380Y-74122380D01*
X151237142Y-74074761D01*
X151189523Y-74027142D01*
X151094285Y-73884285D01*
X151046666Y-73693809D01*
X151046666Y-73312857D01*
X151094285Y-73217619D01*
X151141904Y-73170000D01*
X151237142Y-73122380D01*
X151427619Y-73122380D01*
X151522857Y-73170000D01*
X151570476Y-73217619D01*
X151618095Y-73312857D01*
X151618095Y-73550952D01*
X151570476Y-73646190D01*
X151522857Y-73693809D01*
X151427619Y-73741428D01*
X151237142Y-73741428D01*
X151141904Y-73693809D01*
X151094285Y-73646190D01*
X151046666Y-73550952D01*
X134663333Y-75464761D02*
X134520476Y-75512380D01*
X134282380Y-75512380D01*
X134187142Y-75464761D01*
X134139523Y-75417142D01*
X134091904Y-75321904D01*
X134091904Y-75226666D01*
X134139523Y-75131428D01*
X134187142Y-75083809D01*
X134282380Y-75036190D01*
X134472857Y-74988571D01*
X134568095Y-74940952D01*
X134615714Y-74893333D01*
X134663333Y-74798095D01*
X134663333Y-74702857D01*
X134615714Y-74607619D01*
X134568095Y-74560000D01*
X134472857Y-74512380D01*
X134234761Y-74512380D01*
X134091904Y-74560000D01*
X133758571Y-74512380D02*
X133520476Y-75512380D01*
X133330000Y-74798095D01*
X133139523Y-75512380D01*
X132901428Y-74512380D01*
X132377619Y-74940952D02*
X132472857Y-74893333D01*
X132520476Y-74845714D01*
X132568095Y-74750476D01*
X132568095Y-74702857D01*
X132520476Y-74607619D01*
X132472857Y-74560000D01*
X132377619Y-74512380D01*
X132187142Y-74512380D01*
X132091904Y-74560000D01*
X132044285Y-74607619D01*
X131996666Y-74702857D01*
X131996666Y-74750476D01*
X132044285Y-74845714D01*
X132091904Y-74893333D01*
X132187142Y-74940952D01*
X132377619Y-74940952D01*
X132472857Y-74988571D01*
X132520476Y-75036190D01*
X132568095Y-75131428D01*
X132568095Y-75321904D01*
X132520476Y-75417142D01*
X132472857Y-75464761D01*
X132377619Y-75512380D01*
X132187142Y-75512380D01*
X132091904Y-75464761D01*
X132044285Y-75417142D01*
X131996666Y-75321904D01*
X131996666Y-75131428D01*
X132044285Y-75036190D01*
X132091904Y-74988571D01*
X132187142Y-74940952D01*
X115613333Y-77864761D02*
X115470476Y-77912380D01*
X115232380Y-77912380D01*
X115137142Y-77864761D01*
X115089523Y-77817142D01*
X115041904Y-77721904D01*
X115041904Y-77626666D01*
X115089523Y-77531428D01*
X115137142Y-77483809D01*
X115232380Y-77436190D01*
X115422857Y-77388571D01*
X115518095Y-77340952D01*
X115565714Y-77293333D01*
X115613333Y-77198095D01*
X115613333Y-77102857D01*
X115565714Y-77007619D01*
X115518095Y-76960000D01*
X115422857Y-76912380D01*
X115184761Y-76912380D01*
X115041904Y-76960000D01*
X114708571Y-76912380D02*
X114470476Y-77912380D01*
X114280000Y-77198095D01*
X114089523Y-77912380D01*
X113851428Y-76912380D01*
X113565714Y-76912380D02*
X112899047Y-76912380D01*
X113327619Y-77912380D01*
X210863333Y-62714761D02*
X210720476Y-62762380D01*
X210482380Y-62762380D01*
X210387142Y-62714761D01*
X210339523Y-62667142D01*
X210291904Y-62571904D01*
X210291904Y-62476666D01*
X210339523Y-62381428D01*
X210387142Y-62333809D01*
X210482380Y-62286190D01*
X210672857Y-62238571D01*
X210768095Y-62190952D01*
X210815714Y-62143333D01*
X210863333Y-62048095D01*
X210863333Y-61952857D01*
X210815714Y-61857619D01*
X210768095Y-61810000D01*
X210672857Y-61762380D01*
X210434761Y-61762380D01*
X210291904Y-61810000D01*
X209958571Y-61762380D02*
X209720476Y-62762380D01*
X209530000Y-62048095D01*
X209339523Y-62762380D01*
X209101428Y-61762380D01*
X208291904Y-61762380D02*
X208482380Y-61762380D01*
X208577619Y-61810000D01*
X208625238Y-61857619D01*
X208720476Y-62000476D01*
X208768095Y-62190952D01*
X208768095Y-62571904D01*
X208720476Y-62667142D01*
X208672857Y-62714761D01*
X208577619Y-62762380D01*
X208387142Y-62762380D01*
X208291904Y-62714761D01*
X208244285Y-62667142D01*
X208196666Y-62571904D01*
X208196666Y-62333809D01*
X208244285Y-62238571D01*
X208291904Y-62190952D01*
X208387142Y-62143333D01*
X208577619Y-62143333D01*
X208672857Y-62190952D01*
X208720476Y-62238571D01*
X208768095Y-62333809D01*
X186689833Y-61364761D02*
X186546976Y-61412380D01*
X186308880Y-61412380D01*
X186213642Y-61364761D01*
X186166023Y-61317142D01*
X186118404Y-61221904D01*
X186118404Y-61126666D01*
X186166023Y-61031428D01*
X186213642Y-60983809D01*
X186308880Y-60936190D01*
X186499357Y-60888571D01*
X186594595Y-60840952D01*
X186642214Y-60793333D01*
X186689833Y-60698095D01*
X186689833Y-60602857D01*
X186642214Y-60507619D01*
X186594595Y-60460000D01*
X186499357Y-60412380D01*
X186261261Y-60412380D01*
X186118404Y-60460000D01*
X185785071Y-60412380D02*
X185546976Y-61412380D01*
X185356500Y-60698095D01*
X185166023Y-61412380D01*
X184927928Y-60412380D01*
X184070785Y-60412380D02*
X184546976Y-60412380D01*
X184594595Y-60888571D01*
X184546976Y-60840952D01*
X184451738Y-60793333D01*
X184213642Y-60793333D01*
X184118404Y-60840952D01*
X184070785Y-60888571D01*
X184023166Y-60983809D01*
X184023166Y-61221904D01*
X184070785Y-61317142D01*
X184118404Y-61364761D01*
X184213642Y-61412380D01*
X184451738Y-61412380D01*
X184546976Y-61364761D01*
X184594595Y-61317142D01*
X172763333Y-56414761D02*
X172620476Y-56462380D01*
X172382380Y-56462380D01*
X172287142Y-56414761D01*
X172239523Y-56367142D01*
X172191904Y-56271904D01*
X172191904Y-56176666D01*
X172239523Y-56081428D01*
X172287142Y-56033809D01*
X172382380Y-55986190D01*
X172572857Y-55938571D01*
X172668095Y-55890952D01*
X172715714Y-55843333D01*
X172763333Y-55748095D01*
X172763333Y-55652857D01*
X172715714Y-55557619D01*
X172668095Y-55510000D01*
X172572857Y-55462380D01*
X172334761Y-55462380D01*
X172191904Y-55510000D01*
X171858571Y-55462380D02*
X171620476Y-56462380D01*
X171430000Y-55748095D01*
X171239523Y-56462380D01*
X171001428Y-55462380D01*
X170191904Y-55795714D02*
X170191904Y-56462380D01*
X170430000Y-55414761D02*
X170668095Y-56129047D01*
X170049047Y-56129047D01*
X153713333Y-55024761D02*
X153570476Y-55072380D01*
X153332380Y-55072380D01*
X153237142Y-55024761D01*
X153189523Y-54977142D01*
X153141904Y-54881904D01*
X153141904Y-54786666D01*
X153189523Y-54691428D01*
X153237142Y-54643809D01*
X153332380Y-54596190D01*
X153522857Y-54548571D01*
X153618095Y-54500952D01*
X153665714Y-54453333D01*
X153713333Y-54358095D01*
X153713333Y-54262857D01*
X153665714Y-54167619D01*
X153618095Y-54120000D01*
X153522857Y-54072380D01*
X153284761Y-54072380D01*
X153141904Y-54120000D01*
X152808571Y-54072380D02*
X152570476Y-55072380D01*
X152380000Y-54358095D01*
X152189523Y-55072380D01*
X151951428Y-54072380D01*
X151665714Y-54072380D02*
X151046666Y-54072380D01*
X151380000Y-54453333D01*
X151237142Y-54453333D01*
X151141904Y-54500952D01*
X151094285Y-54548571D01*
X151046666Y-54643809D01*
X151046666Y-54881904D01*
X151094285Y-54977142D01*
X151141904Y-55024761D01*
X151237142Y-55072380D01*
X151522857Y-55072380D01*
X151618095Y-55024761D01*
X151665714Y-54977142D01*
X134663333Y-56414761D02*
X134520476Y-56462380D01*
X134282380Y-56462380D01*
X134187142Y-56414761D01*
X134139523Y-56367142D01*
X134091904Y-56271904D01*
X134091904Y-56176666D01*
X134139523Y-56081428D01*
X134187142Y-56033809D01*
X134282380Y-55986190D01*
X134472857Y-55938571D01*
X134568095Y-55890952D01*
X134615714Y-55843333D01*
X134663333Y-55748095D01*
X134663333Y-55652857D01*
X134615714Y-55557619D01*
X134568095Y-55510000D01*
X134472857Y-55462380D01*
X134234761Y-55462380D01*
X134091904Y-55510000D01*
X133758571Y-55462380D02*
X133520476Y-56462380D01*
X133330000Y-55748095D01*
X133139523Y-56462380D01*
X132901428Y-55462380D01*
X132568095Y-55557619D02*
X132520476Y-55510000D01*
X132425238Y-55462380D01*
X132187142Y-55462380D01*
X132091904Y-55510000D01*
X132044285Y-55557619D01*
X131996666Y-55652857D01*
X131996666Y-55748095D01*
X132044285Y-55890952D01*
X132615714Y-56462380D01*
X131996666Y-56462380D01*
X112648833Y-58380261D02*
X112505976Y-58427880D01*
X112267880Y-58427880D01*
X112172642Y-58380261D01*
X112125023Y-58332642D01*
X112077404Y-58237404D01*
X112077404Y-58142166D01*
X112125023Y-58046928D01*
X112172642Y-57999309D01*
X112267880Y-57951690D01*
X112458357Y-57904071D01*
X112553595Y-57856452D01*
X112601214Y-57808833D01*
X112648833Y-57713595D01*
X112648833Y-57618357D01*
X112601214Y-57523119D01*
X112553595Y-57475500D01*
X112458357Y-57427880D01*
X112220261Y-57427880D01*
X112077404Y-57475500D01*
X111744071Y-57427880D02*
X111505976Y-58427880D01*
X111315500Y-57713595D01*
X111125023Y-58427880D01*
X110886928Y-57427880D01*
X109982166Y-58427880D02*
X110553595Y-58427880D01*
X110267880Y-58427880D02*
X110267880Y-57427880D01*
X110363119Y-57570738D01*
X110458357Y-57665976D01*
X110553595Y-57713595D01*
%LPC*%
D12*
X93270500Y-84523000D03*
X91770500Y-80323000D03*
X87770500Y-80323000D03*
X84770500Y-80323000D03*
D13*
X89970500Y-82423000D03*
X82970500Y-82423000D03*
D12*
X87770500Y-85873000D03*
X84770500Y-85873000D03*
X93270500Y-81673000D03*
X91770500Y-85873000D03*
D13*
X82970500Y-83773000D03*
X89970500Y-83773000D03*
D14*
X84467700Y-74223880D03*
X84467700Y-73223120D03*
D15*
X83256120Y-87757000D03*
X84256880Y-87757000D03*
D14*
X87767900Y-78075880D03*
X87767900Y-77075120D03*
X90339332Y-78075880D03*
X90339332Y-77075120D03*
X92910766Y-78075880D03*
X92910766Y-77075120D03*
X95418700Y-78075880D03*
X95418700Y-77075120D03*
D16*
X98597449Y-84563949D03*
X102189551Y-88156051D03*
X98660949Y-81452449D03*
X102253051Y-85044551D03*
X102616000Y-40894000D03*
X107696000Y-40894000D03*
X107696000Y-38608000D03*
X102616000Y-38608000D03*
D17*
X97075000Y-72583040D03*
D18*
X86915000Y-72583040D03*
D19*
X93775000Y-72580500D03*
X90375000Y-72580500D03*
D17*
X152397460Y-118380500D03*
D18*
X152397460Y-128540500D03*
D20*
X152400000Y-121680500D03*
X152400000Y-125080500D03*
D17*
X133347460Y-118698000D03*
D18*
X133347460Y-128858000D03*
D20*
X133350000Y-121998000D03*
X133350000Y-125398000D03*
D17*
X114424460Y-119714000D03*
D18*
X114424460Y-129874000D03*
D20*
X114427000Y-123014000D03*
X114427000Y-126414000D03*
D21*
G36*
X108496166Y-129302313D02*
G01*
X110573744Y-128102823D01*
X111773234Y-130180401D01*
X109695656Y-131379891D01*
X108496166Y-129302313D01*
G37*
D18*
X105054700Y-120942539D03*
D21*
G36*
X109855224Y-127362371D02*
G01*
X108209776Y-128312371D01*
X107109776Y-126407115D01*
X108755224Y-125457115D01*
X109855224Y-127362371D01*
G37*
G36*
X108155224Y-124417885D02*
G01*
X106509776Y-125367885D01*
X105409776Y-123462629D01*
X107055224Y-122512629D01*
X108155224Y-124417885D01*
G37*
D17*
X97583000Y-89532460D03*
D18*
X87423000Y-89532460D03*
D19*
X94283000Y-89535000D03*
X90883000Y-89535000D03*
D17*
X200091040Y-114791500D03*
D18*
X200091040Y-104631500D03*
D20*
X200088500Y-111491500D03*
X200088500Y-108091500D03*
D17*
X181041040Y-109902000D03*
D18*
X181041040Y-99742000D03*
D20*
X181038500Y-106602000D03*
X181038500Y-103202000D03*
D17*
X161991040Y-107933500D03*
D18*
X161991040Y-97773500D03*
D20*
X161988500Y-104633500D03*
X161988500Y-101233500D03*
D17*
X143004540Y-107933500D03*
D18*
X143004540Y-97773500D03*
D20*
X143002000Y-104633500D03*
X143002000Y-101233500D03*
D17*
X123954540Y-110156000D03*
D18*
X123954540Y-99996000D03*
D20*
X123952000Y-106856000D03*
X123952000Y-103456000D03*
D17*
X104904540Y-111362500D03*
D18*
X104904540Y-101202500D03*
D20*
X104902000Y-108062500D03*
X104902000Y-104662500D03*
D17*
X200022460Y-84979500D03*
D18*
X200022460Y-95139500D03*
D20*
X200025000Y-88279500D03*
X200025000Y-91679500D03*
D17*
X181162960Y-81995000D03*
D18*
X181162960Y-92155000D03*
D20*
X181165500Y-85295000D03*
X181165500Y-88695000D03*
D17*
X162049460Y-79074000D03*
D18*
X162049460Y-89234000D03*
D20*
X162052000Y-82374000D03*
X162052000Y-85774000D03*
D17*
X143002000Y-78883500D03*
D18*
X143002000Y-89043500D03*
D20*
X143004540Y-82183500D03*
X143004540Y-85583500D03*
D17*
X123822460Y-80217000D03*
D18*
X123822460Y-90377000D03*
D20*
X123825000Y-83517000D03*
X123825000Y-86917000D03*
D17*
X104899460Y-82312500D03*
D18*
X104899460Y-92472500D03*
D20*
X104902000Y-85612500D03*
X104902000Y-89012500D03*
D17*
X200281540Y-78088500D03*
D18*
X200281540Y-67928500D03*
D20*
X200279000Y-74788500D03*
X200279000Y-71388500D03*
D17*
X181231540Y-73008500D03*
D18*
X181231540Y-62848500D03*
D20*
X181229000Y-69708500D03*
X181229000Y-66308500D03*
D17*
X162054540Y-70913000D03*
D18*
X162054540Y-60753000D03*
D20*
X162052000Y-67613000D03*
X162052000Y-64213000D03*
D17*
X142941040Y-70532000D03*
D18*
X142941040Y-60372000D03*
D20*
X142938500Y-67232000D03*
X142938500Y-63832000D03*
D17*
X123954540Y-71675000D03*
D18*
X123954540Y-61515000D03*
D20*
X123952000Y-68375000D03*
X123952000Y-64975000D03*
D17*
X104968040Y-73008500D03*
D18*
X104968040Y-62848500D03*
D20*
X104965500Y-69708500D03*
X104965500Y-66308500D03*
D17*
X200149460Y-47133500D03*
D18*
X200149460Y-57293500D03*
D20*
X200152000Y-50433500D03*
X200152000Y-53833500D03*
D17*
X181226460Y-44593500D03*
D18*
X181226460Y-54753500D03*
D20*
X181229000Y-47893500D03*
X181229000Y-51293500D03*
D17*
X162049460Y-40974000D03*
D18*
X162049460Y-51134000D03*
D20*
X162052000Y-44274000D03*
X162052000Y-47674000D03*
D17*
X142808960Y-41672500D03*
D18*
X142808960Y-51832500D03*
D20*
X142811500Y-44972500D03*
X142811500Y-48372500D03*
D17*
X123949460Y-42117000D03*
D18*
X123949460Y-52277000D03*
D20*
X123952000Y-45417000D03*
X123952000Y-48817000D03*
D17*
X105026460Y-44466500D03*
D18*
X105026460Y-54626500D03*
D20*
X105029000Y-47766500D03*
X105029000Y-51166500D03*
D22*
X119294000Y-60184000D03*
X119294000Y-58434000D03*
X114894000Y-58434000D03*
X114894000Y-60184000D03*
X162093000Y-56755000D03*
X162093000Y-55005000D03*
X157693000Y-55005000D03*
X157693000Y-56755000D03*
X194160500Y-63105000D03*
X194160500Y-61355000D03*
X189760500Y-61355000D03*
X189760500Y-63105000D03*
X106534500Y-116169500D03*
X106534500Y-117919500D03*
X110934500Y-117919500D03*
X110934500Y-116169500D03*
X148930000Y-112599500D03*
X148930000Y-114349500D03*
X153330000Y-114349500D03*
X153330000Y-112599500D03*
X187220500Y-98883500D03*
X187220500Y-100633500D03*
X191620500Y-100633500D03*
X191620500Y-98883500D03*
D23*
X159550000Y-128005000D03*
X159550000Y-129755000D03*
X164350000Y-129755000D03*
X164350000Y-128005000D03*
X140497700Y-129033300D03*
X140497700Y-130783300D03*
X145297700Y-130783300D03*
X145297700Y-129033300D03*
X121450000Y-130405000D03*
X121450000Y-132155000D03*
X126250000Y-132155000D03*
X126250000Y-130405000D03*
D21*
G36*
X94435581Y-126587563D02*
G01*
X93223145Y-127287563D01*
X92223145Y-125555513D01*
X93435581Y-124855513D01*
X94435581Y-126587563D01*
G37*
G36*
X92920037Y-127462563D02*
G01*
X91707601Y-128162563D01*
X90707601Y-126430513D01*
X91920037Y-125730513D01*
X92920037Y-127462563D01*
G37*
G36*
X95320037Y-131619485D02*
G01*
X94107601Y-132319485D01*
X93107601Y-130587435D01*
X94320037Y-129887435D01*
X95320037Y-131619485D01*
G37*
G36*
X96835581Y-130744485D02*
G01*
X95623145Y-131444485D01*
X94623145Y-129712435D01*
X95835581Y-129012435D01*
X96835581Y-130744485D01*
G37*
D23*
X92874800Y-104240300D03*
X92874800Y-102490300D03*
X88074800Y-102490300D03*
X88074800Y-104240300D03*
X212050000Y-117005000D03*
X212050000Y-115255000D03*
X207250000Y-115255000D03*
X207250000Y-117005000D03*
X193000000Y-115505000D03*
X193000000Y-113755000D03*
X188200000Y-113755000D03*
X188200000Y-115505000D03*
X173950000Y-110705000D03*
X173950000Y-108955000D03*
X169150000Y-108955000D03*
X169150000Y-110705000D03*
X154900000Y-109315000D03*
X154900000Y-107565000D03*
X150100000Y-107565000D03*
X150100000Y-109315000D03*
X135850000Y-110705000D03*
X135850000Y-108955000D03*
X131050000Y-108955000D03*
X131050000Y-110705000D03*
X116800000Y-113105000D03*
X116800000Y-111355000D03*
X112000000Y-111355000D03*
X112000000Y-113105000D03*
X207250000Y-96205000D03*
X207250000Y-97955000D03*
X212050000Y-97955000D03*
X212050000Y-96205000D03*
X188200000Y-94705000D03*
X188200000Y-96455000D03*
X193000000Y-96455000D03*
X193000000Y-94705000D03*
X169150000Y-89905000D03*
X169150000Y-91655000D03*
X173950000Y-91655000D03*
X173950000Y-89905000D03*
X150100000Y-88515000D03*
X150100000Y-90265000D03*
X154900000Y-90265000D03*
X154900000Y-88515000D03*
X131050000Y-89905000D03*
X131050000Y-91655000D03*
X135850000Y-91655000D03*
X135850000Y-89905000D03*
X112000000Y-92305000D03*
X112000000Y-94055000D03*
X116800000Y-94055000D03*
X116800000Y-92305000D03*
X212050000Y-78905000D03*
X212050000Y-77155000D03*
X207250000Y-77155000D03*
X207250000Y-78905000D03*
X193000000Y-77405000D03*
X193000000Y-75655000D03*
X188200000Y-75655000D03*
X188200000Y-77405000D03*
X173950000Y-72605000D03*
X173950000Y-70855000D03*
X169150000Y-70855000D03*
X169150000Y-72605000D03*
X154900000Y-71215000D03*
X154900000Y-69465000D03*
X150100000Y-69465000D03*
X150100000Y-71215000D03*
X135850000Y-72605000D03*
X135850000Y-70855000D03*
X131050000Y-70855000D03*
X131050000Y-72605000D03*
X116800000Y-75005000D03*
X116800000Y-73255000D03*
X112000000Y-73255000D03*
X112000000Y-75005000D03*
X207250000Y-58105000D03*
X207250000Y-59855000D03*
X212050000Y-59855000D03*
X212050000Y-58105000D03*
X188200000Y-56605000D03*
X188200000Y-58355000D03*
X193000000Y-58355000D03*
X193000000Y-56605000D03*
X169150000Y-51805000D03*
X169150000Y-53555000D03*
X173950000Y-53555000D03*
X173950000Y-51805000D03*
X150100000Y-50415000D03*
X150100000Y-52165000D03*
X154900000Y-52165000D03*
X154900000Y-50415000D03*
X131000000Y-51805000D03*
X131000000Y-53555000D03*
X135800000Y-53555000D03*
X135800000Y-51805000D03*
X112000000Y-54205000D03*
X112000000Y-55955000D03*
X116800000Y-55955000D03*
X116800000Y-54205000D03*
D24*
X84584815Y-47405745D03*
X99824815Y-65185745D03*
X84584815Y-57565745D03*
X99824815Y-55025745D03*
X99824815Y-49945745D03*
X84584815Y-67725745D03*
X99824815Y-47405745D03*
X99824815Y-42325745D03*
X84584815Y-62645745D03*
X99824815Y-70265745D03*
X84584815Y-55025745D03*
X84584815Y-44865745D03*
X84584815Y-49945745D03*
X84584815Y-52485745D03*
X84584815Y-65185745D03*
X84584815Y-60105745D03*
X99824815Y-62645745D03*
X99824815Y-60105745D03*
X84584815Y-70265745D03*
X99824815Y-67725745D03*
X99824815Y-44865745D03*
X84584815Y-42325745D03*
X99824815Y-57565745D03*
X99824815Y-52485745D03*
X83286000Y-41130000D03*
X83286000Y-43670000D03*
X83286000Y-46210000D03*
X83286000Y-48750000D03*
X83286000Y-51290000D03*
X83286000Y-53830000D03*
X83286000Y-56370000D03*
X83286000Y-58910000D03*
X83286000Y-61450000D03*
X83286000Y-63990000D03*
X83286000Y-66530000D03*
X83286000Y-69070000D03*
X98526000Y-69070000D03*
X98526000Y-66530000D03*
X98526000Y-63990000D03*
X98526000Y-61450000D03*
X98526000Y-58910000D03*
X98526000Y-56370000D03*
X98526000Y-53830000D03*
X98526000Y-51290000D03*
X98526000Y-48750000D03*
X98526000Y-46210000D03*
X98526000Y-43670000D03*
X98526000Y-41130000D03*
D25*
X87820500Y-74993500D03*
X90360500Y-74993500D03*
X92900500Y-74993500D03*
D26*
X95440500Y-74993500D03*
D21*
G36*
X98901442Y-119332662D02*
G01*
X96389968Y-120782662D01*
X94939968Y-118271188D01*
X97451442Y-116821188D01*
X98901442Y-119332662D01*
G37*
G36*
X103841793Y-128501915D02*
G01*
X103832889Y-128463732D01*
X103831593Y-128424755D01*
X103866401Y-127885044D01*
X103872747Y-127846354D01*
X103886519Y-127809645D01*
X103907188Y-127776329D01*
X103933960Y-127747686D01*
X103965986Y-127724710D01*
X105784639Y-126674710D01*
X105820352Y-126658530D01*
X105858534Y-126649626D01*
X105897720Y-126648344D01*
X105936403Y-126654731D01*
X105973097Y-126668541D01*
X106006392Y-126689245D01*
X106035007Y-126716046D01*
X106057845Y-126747916D01*
X107257845Y-128826376D01*
X107274025Y-128862089D01*
X107282929Y-128900271D01*
X107284211Y-128939457D01*
X107277824Y-128978140D01*
X107264014Y-129014834D01*
X107243310Y-129048129D01*
X107216509Y-129076744D01*
X107184639Y-129099582D01*
X105106179Y-130299582D01*
X105070466Y-130315762D01*
X105032284Y-130324666D01*
X104993098Y-130325948D01*
X104954415Y-130319561D01*
X104917721Y-130305751D01*
X104884426Y-130285047D01*
X104855811Y-130258246D01*
X104832973Y-130226376D01*
X103857973Y-128537627D01*
X103841793Y-128501915D01*
G37*
D27*
X102275705Y-128077057D03*
X101300409Y-121307795D03*
X98465705Y-121477943D03*
X103840409Y-125707205D03*
D28*
X100711000Y-130446909D03*
X95631000Y-121648091D03*
D29*
X98171000Y-126047500D03*
D30*
X155050000Y-121260000D03*
D21*
G36*
X166910982Y-120116157D02*
G01*
X166873463Y-120104776D01*
X166839060Y-120086410D01*
X166389060Y-119786410D01*
X166358727Y-119761569D01*
X166333822Y-119731288D01*
X166315304Y-119696730D01*
X166303884Y-119659223D01*
X166300000Y-119620000D01*
X166300000Y-117520000D01*
X166303843Y-117480982D01*
X166315224Y-117443463D01*
X166333706Y-117408886D01*
X166358579Y-117378579D01*
X166388886Y-117353706D01*
X166423463Y-117335224D01*
X166460982Y-117323843D01*
X166500000Y-117320000D01*
X168900000Y-117320000D01*
X168939018Y-117323843D01*
X168976537Y-117335224D01*
X169011114Y-117353706D01*
X169041421Y-117378579D01*
X169066294Y-117408886D01*
X169084776Y-117443463D01*
X169096157Y-117480982D01*
X169100000Y-117520000D01*
X169100000Y-119920000D01*
X169096157Y-119959018D01*
X169084776Y-119996537D01*
X169066294Y-120031114D01*
X169041421Y-120061421D01*
X169011114Y-120086294D01*
X168976537Y-120104776D01*
X168939018Y-120116157D01*
X168900000Y-120120000D01*
X166950000Y-120120000D01*
X166910982Y-120116157D01*
G37*
D27*
X165760000Y-121260000D03*
X159410000Y-118720000D03*
X158140000Y-121260000D03*
X164490000Y-118720000D03*
D28*
X167030000Y-123800000D03*
X156870000Y-123800000D03*
D29*
X161950000Y-123800000D03*
D30*
X135997700Y-122288300D03*
D21*
G36*
X147858682Y-121144457D02*
G01*
X147821163Y-121133076D01*
X147786760Y-121114710D01*
X147336760Y-120814710D01*
X147306427Y-120789869D01*
X147281522Y-120759588D01*
X147263004Y-120725030D01*
X147251584Y-120687523D01*
X147247700Y-120648300D01*
X147247700Y-118548300D01*
X147251543Y-118509282D01*
X147262924Y-118471763D01*
X147281406Y-118437186D01*
X147306279Y-118406879D01*
X147336586Y-118382006D01*
X147371163Y-118363524D01*
X147408682Y-118352143D01*
X147447700Y-118348300D01*
X149847700Y-118348300D01*
X149886718Y-118352143D01*
X149924237Y-118363524D01*
X149958814Y-118382006D01*
X149989121Y-118406879D01*
X150013994Y-118437186D01*
X150032476Y-118471763D01*
X150043857Y-118509282D01*
X150047700Y-118548300D01*
X150047700Y-120948300D01*
X150043857Y-120987318D01*
X150032476Y-121024837D01*
X150013994Y-121059414D01*
X149989121Y-121089721D01*
X149958814Y-121114594D01*
X149924237Y-121133076D01*
X149886718Y-121144457D01*
X149847700Y-121148300D01*
X147897700Y-121148300D01*
X147858682Y-121144457D01*
G37*
D27*
X146707700Y-122288300D03*
X140357700Y-119748300D03*
X139087700Y-122288300D03*
X145437700Y-119748300D03*
D28*
X147977700Y-124828300D03*
X137817700Y-124828300D03*
D29*
X142897700Y-124828300D03*
D30*
X116950000Y-123660000D03*
D21*
G36*
X128810982Y-122516157D02*
G01*
X128773463Y-122504776D01*
X128739060Y-122486410D01*
X128289060Y-122186410D01*
X128258727Y-122161569D01*
X128233822Y-122131288D01*
X128215304Y-122096730D01*
X128203884Y-122059223D01*
X128200000Y-122020000D01*
X128200000Y-119920000D01*
X128203843Y-119880982D01*
X128215224Y-119843463D01*
X128233706Y-119808886D01*
X128258579Y-119778579D01*
X128288886Y-119753706D01*
X128323463Y-119735224D01*
X128360982Y-119723843D01*
X128400000Y-119720000D01*
X130800000Y-119720000D01*
X130839018Y-119723843D01*
X130876537Y-119735224D01*
X130911114Y-119753706D01*
X130941421Y-119778579D01*
X130966294Y-119808886D01*
X130984776Y-119843463D01*
X130996157Y-119880982D01*
X131000000Y-119920000D01*
X131000000Y-122320000D01*
X130996157Y-122359018D01*
X130984776Y-122396537D01*
X130966294Y-122431114D01*
X130941421Y-122461421D01*
X130911114Y-122486294D01*
X130876537Y-122504776D01*
X130839018Y-122516157D01*
X130800000Y-122520000D01*
X128850000Y-122520000D01*
X128810982Y-122516157D01*
G37*
D27*
X127660000Y-123660000D03*
X121310000Y-121120000D03*
X120040000Y-123660000D03*
X126390000Y-121120000D03*
D28*
X128930000Y-126200000D03*
X118770000Y-126200000D03*
D29*
X123850000Y-126200000D03*
D30*
X83574800Y-95745300D03*
D21*
G36*
X95435782Y-94601457D02*
G01*
X95398263Y-94590076D01*
X95363860Y-94571710D01*
X94913860Y-94271710D01*
X94883527Y-94246869D01*
X94858622Y-94216588D01*
X94840104Y-94182030D01*
X94828684Y-94144523D01*
X94824800Y-94105300D01*
X94824800Y-92005300D01*
X94828643Y-91966282D01*
X94840024Y-91928763D01*
X94858506Y-91894186D01*
X94883379Y-91863879D01*
X94913686Y-91839006D01*
X94948263Y-91820524D01*
X94985782Y-91809143D01*
X95024800Y-91805300D01*
X97424800Y-91805300D01*
X97463818Y-91809143D01*
X97501337Y-91820524D01*
X97535914Y-91839006D01*
X97566221Y-91863879D01*
X97591094Y-91894186D01*
X97609576Y-91928763D01*
X97620957Y-91966282D01*
X97624800Y-92005300D01*
X97624800Y-94405300D01*
X97620957Y-94444318D01*
X97609576Y-94481837D01*
X97591094Y-94516414D01*
X97566221Y-94546721D01*
X97535914Y-94571594D01*
X97501337Y-94590076D01*
X97463818Y-94601457D01*
X97424800Y-94605300D01*
X95474800Y-94605300D01*
X95435782Y-94601457D01*
G37*
D27*
X94284800Y-95745300D03*
X87934800Y-93205300D03*
X86664800Y-95745300D03*
X93014800Y-93205300D03*
D28*
X95554800Y-98285300D03*
X85394800Y-98285300D03*
D29*
X90474800Y-98285300D03*
D30*
X202750000Y-108510000D03*
D21*
G36*
X214610982Y-107366157D02*
G01*
X214573463Y-107354776D01*
X214539060Y-107336410D01*
X214089060Y-107036410D01*
X214058727Y-107011569D01*
X214033822Y-106981288D01*
X214015304Y-106946730D01*
X214003884Y-106909223D01*
X214000000Y-106870000D01*
X214000000Y-104770000D01*
X214003843Y-104730982D01*
X214015224Y-104693463D01*
X214033706Y-104658886D01*
X214058579Y-104628579D01*
X214088886Y-104603706D01*
X214123463Y-104585224D01*
X214160982Y-104573843D01*
X214200000Y-104570000D01*
X216600000Y-104570000D01*
X216639018Y-104573843D01*
X216676537Y-104585224D01*
X216711114Y-104603706D01*
X216741421Y-104628579D01*
X216766294Y-104658886D01*
X216784776Y-104693463D01*
X216796157Y-104730982D01*
X216800000Y-104770000D01*
X216800000Y-107170000D01*
X216796157Y-107209018D01*
X216784776Y-107246537D01*
X216766294Y-107281114D01*
X216741421Y-107311421D01*
X216711114Y-107336294D01*
X216676537Y-107354776D01*
X216639018Y-107366157D01*
X216600000Y-107370000D01*
X214650000Y-107370000D01*
X214610982Y-107366157D01*
G37*
D27*
X213460000Y-108510000D03*
X207110000Y-105970000D03*
X205840000Y-108510000D03*
X212190000Y-105970000D03*
D28*
X214730000Y-111050000D03*
X204570000Y-111050000D03*
D29*
X209650000Y-111050000D03*
D30*
X183700000Y-107010000D03*
D21*
G36*
X195560982Y-105866157D02*
G01*
X195523463Y-105854776D01*
X195489060Y-105836410D01*
X195039060Y-105536410D01*
X195008727Y-105511569D01*
X194983822Y-105481288D01*
X194965304Y-105446730D01*
X194953884Y-105409223D01*
X194950000Y-105370000D01*
X194950000Y-103270000D01*
X194953843Y-103230982D01*
X194965224Y-103193463D01*
X194983706Y-103158886D01*
X195008579Y-103128579D01*
X195038886Y-103103706D01*
X195073463Y-103085224D01*
X195110982Y-103073843D01*
X195150000Y-103070000D01*
X197550000Y-103070000D01*
X197589018Y-103073843D01*
X197626537Y-103085224D01*
X197661114Y-103103706D01*
X197691421Y-103128579D01*
X197716294Y-103158886D01*
X197734776Y-103193463D01*
X197746157Y-103230982D01*
X197750000Y-103270000D01*
X197750000Y-105670000D01*
X197746157Y-105709018D01*
X197734776Y-105746537D01*
X197716294Y-105781114D01*
X197691421Y-105811421D01*
X197661114Y-105836294D01*
X197626537Y-105854776D01*
X197589018Y-105866157D01*
X197550000Y-105870000D01*
X195600000Y-105870000D01*
X195560982Y-105866157D01*
G37*
D27*
X194410000Y-107010000D03*
X188060000Y-104470000D03*
X186790000Y-107010000D03*
X193140000Y-104470000D03*
D28*
X195680000Y-109550000D03*
X185520000Y-109550000D03*
D29*
X190600000Y-109550000D03*
D30*
X164650000Y-102210000D03*
D21*
G36*
X176510982Y-101066157D02*
G01*
X176473463Y-101054776D01*
X176439060Y-101036410D01*
X175989060Y-100736410D01*
X175958727Y-100711569D01*
X175933822Y-100681288D01*
X175915304Y-100646730D01*
X175903884Y-100609223D01*
X175900000Y-100570000D01*
X175900000Y-98470000D01*
X175903843Y-98430982D01*
X175915224Y-98393463D01*
X175933706Y-98358886D01*
X175958579Y-98328579D01*
X175988886Y-98303706D01*
X176023463Y-98285224D01*
X176060982Y-98273843D01*
X176100000Y-98270000D01*
X178500000Y-98270000D01*
X178539018Y-98273843D01*
X178576537Y-98285224D01*
X178611114Y-98303706D01*
X178641421Y-98328579D01*
X178666294Y-98358886D01*
X178684776Y-98393463D01*
X178696157Y-98430982D01*
X178700000Y-98470000D01*
X178700000Y-100870000D01*
X178696157Y-100909018D01*
X178684776Y-100946537D01*
X178666294Y-100981114D01*
X178641421Y-101011421D01*
X178611114Y-101036294D01*
X178576537Y-101054776D01*
X178539018Y-101066157D01*
X178500000Y-101070000D01*
X176550000Y-101070000D01*
X176510982Y-101066157D01*
G37*
D27*
X175360000Y-102210000D03*
X169010000Y-99670000D03*
X167740000Y-102210000D03*
X174090000Y-99670000D03*
D28*
X176630000Y-104750000D03*
X166470000Y-104750000D03*
D29*
X171550000Y-104750000D03*
D30*
X145600000Y-100820000D03*
D21*
G36*
X157460982Y-99676157D02*
G01*
X157423463Y-99664776D01*
X157389060Y-99646410D01*
X156939060Y-99346410D01*
X156908727Y-99321569D01*
X156883822Y-99291288D01*
X156865304Y-99256730D01*
X156853884Y-99219223D01*
X156850000Y-99180000D01*
X156850000Y-97080000D01*
X156853843Y-97040982D01*
X156865224Y-97003463D01*
X156883706Y-96968886D01*
X156908579Y-96938579D01*
X156938886Y-96913706D01*
X156973463Y-96895224D01*
X157010982Y-96883843D01*
X157050000Y-96880000D01*
X159450000Y-96880000D01*
X159489018Y-96883843D01*
X159526537Y-96895224D01*
X159561114Y-96913706D01*
X159591421Y-96938579D01*
X159616294Y-96968886D01*
X159634776Y-97003463D01*
X159646157Y-97040982D01*
X159650000Y-97080000D01*
X159650000Y-99480000D01*
X159646157Y-99519018D01*
X159634776Y-99556537D01*
X159616294Y-99591114D01*
X159591421Y-99621421D01*
X159561114Y-99646294D01*
X159526537Y-99664776D01*
X159489018Y-99676157D01*
X159450000Y-99680000D01*
X157500000Y-99680000D01*
X157460982Y-99676157D01*
G37*
D27*
X156310000Y-100820000D03*
X149960000Y-98280000D03*
X148690000Y-100820000D03*
X155040000Y-98280000D03*
D28*
X157580000Y-103360000D03*
X147420000Y-103360000D03*
D29*
X152500000Y-103360000D03*
D30*
X126550000Y-102210000D03*
D21*
G36*
X138410982Y-101066157D02*
G01*
X138373463Y-101054776D01*
X138339060Y-101036410D01*
X137889060Y-100736410D01*
X137858727Y-100711569D01*
X137833822Y-100681288D01*
X137815304Y-100646730D01*
X137803884Y-100609223D01*
X137800000Y-100570000D01*
X137800000Y-98470000D01*
X137803843Y-98430982D01*
X137815224Y-98393463D01*
X137833706Y-98358886D01*
X137858579Y-98328579D01*
X137888886Y-98303706D01*
X137923463Y-98285224D01*
X137960982Y-98273843D01*
X138000000Y-98270000D01*
X140400000Y-98270000D01*
X140439018Y-98273843D01*
X140476537Y-98285224D01*
X140511114Y-98303706D01*
X140541421Y-98328579D01*
X140566294Y-98358886D01*
X140584776Y-98393463D01*
X140596157Y-98430982D01*
X140600000Y-98470000D01*
X140600000Y-100870000D01*
X140596157Y-100909018D01*
X140584776Y-100946537D01*
X140566294Y-100981114D01*
X140541421Y-101011421D01*
X140511114Y-101036294D01*
X140476537Y-101054776D01*
X140439018Y-101066157D01*
X140400000Y-101070000D01*
X138450000Y-101070000D01*
X138410982Y-101066157D01*
G37*
D27*
X137260000Y-102210000D03*
X130910000Y-99670000D03*
X129640000Y-102210000D03*
X135990000Y-99670000D03*
D28*
X138530000Y-104750000D03*
X128370000Y-104750000D03*
D29*
X133450000Y-104750000D03*
D30*
X107500000Y-104610000D03*
D21*
G36*
X119360982Y-103466157D02*
G01*
X119323463Y-103454776D01*
X119289060Y-103436410D01*
X118839060Y-103136410D01*
X118808727Y-103111569D01*
X118783822Y-103081288D01*
X118765304Y-103046730D01*
X118753884Y-103009223D01*
X118750000Y-102970000D01*
X118750000Y-100870000D01*
X118753843Y-100830982D01*
X118765224Y-100793463D01*
X118783706Y-100758886D01*
X118808579Y-100728579D01*
X118838886Y-100703706D01*
X118873463Y-100685224D01*
X118910982Y-100673843D01*
X118950000Y-100670000D01*
X121350000Y-100670000D01*
X121389018Y-100673843D01*
X121426537Y-100685224D01*
X121461114Y-100703706D01*
X121491421Y-100728579D01*
X121516294Y-100758886D01*
X121534776Y-100793463D01*
X121546157Y-100830982D01*
X121550000Y-100870000D01*
X121550000Y-103270000D01*
X121546157Y-103309018D01*
X121534776Y-103346537D01*
X121516294Y-103381114D01*
X121491421Y-103411421D01*
X121461114Y-103436294D01*
X121426537Y-103454776D01*
X121389018Y-103466157D01*
X121350000Y-103470000D01*
X119400000Y-103470000D01*
X119360982Y-103466157D01*
G37*
D27*
X118210000Y-104610000D03*
X111860000Y-102070000D03*
X110590000Y-104610000D03*
X116940000Y-102070000D03*
D28*
X119480000Y-107150000D03*
X109320000Y-107150000D03*
D29*
X114400000Y-107150000D03*
D30*
X202750000Y-89460000D03*
D21*
G36*
X214610982Y-88316157D02*
G01*
X214573463Y-88304776D01*
X214539060Y-88286410D01*
X214089060Y-87986410D01*
X214058727Y-87961569D01*
X214033822Y-87931288D01*
X214015304Y-87896730D01*
X214003884Y-87859223D01*
X214000000Y-87820000D01*
X214000000Y-85720000D01*
X214003843Y-85680982D01*
X214015224Y-85643463D01*
X214033706Y-85608886D01*
X214058579Y-85578579D01*
X214088886Y-85553706D01*
X214123463Y-85535224D01*
X214160982Y-85523843D01*
X214200000Y-85520000D01*
X216600000Y-85520000D01*
X216639018Y-85523843D01*
X216676537Y-85535224D01*
X216711114Y-85553706D01*
X216741421Y-85578579D01*
X216766294Y-85608886D01*
X216784776Y-85643463D01*
X216796157Y-85680982D01*
X216800000Y-85720000D01*
X216800000Y-88120000D01*
X216796157Y-88159018D01*
X216784776Y-88196537D01*
X216766294Y-88231114D01*
X216741421Y-88261421D01*
X216711114Y-88286294D01*
X216676537Y-88304776D01*
X216639018Y-88316157D01*
X216600000Y-88320000D01*
X214650000Y-88320000D01*
X214610982Y-88316157D01*
G37*
D27*
X213460000Y-89460000D03*
X207110000Y-86920000D03*
X205840000Y-89460000D03*
X212190000Y-86920000D03*
D28*
X214730000Y-92000000D03*
X204570000Y-92000000D03*
D29*
X209650000Y-92000000D03*
D30*
X183700000Y-87960000D03*
D21*
G36*
X195560982Y-86816157D02*
G01*
X195523463Y-86804776D01*
X195489060Y-86786410D01*
X195039060Y-86486410D01*
X195008727Y-86461569D01*
X194983822Y-86431288D01*
X194965304Y-86396730D01*
X194953884Y-86359223D01*
X194950000Y-86320000D01*
X194950000Y-84220000D01*
X194953843Y-84180982D01*
X194965224Y-84143463D01*
X194983706Y-84108886D01*
X195008579Y-84078579D01*
X195038886Y-84053706D01*
X195073463Y-84035224D01*
X195110982Y-84023843D01*
X195150000Y-84020000D01*
X197550000Y-84020000D01*
X197589018Y-84023843D01*
X197626537Y-84035224D01*
X197661114Y-84053706D01*
X197691421Y-84078579D01*
X197716294Y-84108886D01*
X197734776Y-84143463D01*
X197746157Y-84180982D01*
X197750000Y-84220000D01*
X197750000Y-86620000D01*
X197746157Y-86659018D01*
X197734776Y-86696537D01*
X197716294Y-86731114D01*
X197691421Y-86761421D01*
X197661114Y-86786294D01*
X197626537Y-86804776D01*
X197589018Y-86816157D01*
X197550000Y-86820000D01*
X195600000Y-86820000D01*
X195560982Y-86816157D01*
G37*
D27*
X194410000Y-87960000D03*
X188060000Y-85420000D03*
X186790000Y-87960000D03*
X193140000Y-85420000D03*
D28*
X195680000Y-90500000D03*
X185520000Y-90500000D03*
D29*
X190600000Y-90500000D03*
D30*
X164650000Y-83160000D03*
D21*
G36*
X176510982Y-82016157D02*
G01*
X176473463Y-82004776D01*
X176439060Y-81986410D01*
X175989060Y-81686410D01*
X175958727Y-81661569D01*
X175933822Y-81631288D01*
X175915304Y-81596730D01*
X175903884Y-81559223D01*
X175900000Y-81520000D01*
X175900000Y-79420000D01*
X175903843Y-79380982D01*
X175915224Y-79343463D01*
X175933706Y-79308886D01*
X175958579Y-79278579D01*
X175988886Y-79253706D01*
X176023463Y-79235224D01*
X176060982Y-79223843D01*
X176100000Y-79220000D01*
X178500000Y-79220000D01*
X178539018Y-79223843D01*
X178576537Y-79235224D01*
X178611114Y-79253706D01*
X178641421Y-79278579D01*
X178666294Y-79308886D01*
X178684776Y-79343463D01*
X178696157Y-79380982D01*
X178700000Y-79420000D01*
X178700000Y-81820000D01*
X178696157Y-81859018D01*
X178684776Y-81896537D01*
X178666294Y-81931114D01*
X178641421Y-81961421D01*
X178611114Y-81986294D01*
X178576537Y-82004776D01*
X178539018Y-82016157D01*
X178500000Y-82020000D01*
X176550000Y-82020000D01*
X176510982Y-82016157D01*
G37*
D27*
X175360000Y-83160000D03*
X169010000Y-80620000D03*
X167740000Y-83160000D03*
X174090000Y-80620000D03*
D28*
X176630000Y-85700000D03*
X166470000Y-85700000D03*
D29*
X171550000Y-85700000D03*
D30*
X145600000Y-81770000D03*
D21*
G36*
X157460982Y-80626157D02*
G01*
X157423463Y-80614776D01*
X157389060Y-80596410D01*
X156939060Y-80296410D01*
X156908727Y-80271569D01*
X156883822Y-80241288D01*
X156865304Y-80206730D01*
X156853884Y-80169223D01*
X156850000Y-80130000D01*
X156850000Y-78030000D01*
X156853843Y-77990982D01*
X156865224Y-77953463D01*
X156883706Y-77918886D01*
X156908579Y-77888579D01*
X156938886Y-77863706D01*
X156973463Y-77845224D01*
X157010982Y-77833843D01*
X157050000Y-77830000D01*
X159450000Y-77830000D01*
X159489018Y-77833843D01*
X159526537Y-77845224D01*
X159561114Y-77863706D01*
X159591421Y-77888579D01*
X159616294Y-77918886D01*
X159634776Y-77953463D01*
X159646157Y-77990982D01*
X159650000Y-78030000D01*
X159650000Y-80430000D01*
X159646157Y-80469018D01*
X159634776Y-80506537D01*
X159616294Y-80541114D01*
X159591421Y-80571421D01*
X159561114Y-80596294D01*
X159526537Y-80614776D01*
X159489018Y-80626157D01*
X159450000Y-80630000D01*
X157500000Y-80630000D01*
X157460982Y-80626157D01*
G37*
D27*
X156310000Y-81770000D03*
X149960000Y-79230000D03*
X148690000Y-81770000D03*
X155040000Y-79230000D03*
D28*
X157580000Y-84310000D03*
X147420000Y-84310000D03*
D29*
X152500000Y-84310000D03*
D30*
X126550000Y-83160000D03*
D21*
G36*
X138410982Y-82016157D02*
G01*
X138373463Y-82004776D01*
X138339060Y-81986410D01*
X137889060Y-81686410D01*
X137858727Y-81661569D01*
X137833822Y-81631288D01*
X137815304Y-81596730D01*
X137803884Y-81559223D01*
X137800000Y-81520000D01*
X137800000Y-79420000D01*
X137803843Y-79380982D01*
X137815224Y-79343463D01*
X137833706Y-79308886D01*
X137858579Y-79278579D01*
X137888886Y-79253706D01*
X137923463Y-79235224D01*
X137960982Y-79223843D01*
X138000000Y-79220000D01*
X140400000Y-79220000D01*
X140439018Y-79223843D01*
X140476537Y-79235224D01*
X140511114Y-79253706D01*
X140541421Y-79278579D01*
X140566294Y-79308886D01*
X140584776Y-79343463D01*
X140596157Y-79380982D01*
X140600000Y-79420000D01*
X140600000Y-81820000D01*
X140596157Y-81859018D01*
X140584776Y-81896537D01*
X140566294Y-81931114D01*
X140541421Y-81961421D01*
X140511114Y-81986294D01*
X140476537Y-82004776D01*
X140439018Y-82016157D01*
X140400000Y-82020000D01*
X138450000Y-82020000D01*
X138410982Y-82016157D01*
G37*
D27*
X137260000Y-83160000D03*
X130910000Y-80620000D03*
X129640000Y-83160000D03*
X135990000Y-80620000D03*
D28*
X138530000Y-85700000D03*
X128370000Y-85700000D03*
D29*
X133450000Y-85700000D03*
D30*
X107500000Y-85560000D03*
D21*
G36*
X119360982Y-84416157D02*
G01*
X119323463Y-84404776D01*
X119289060Y-84386410D01*
X118839060Y-84086410D01*
X118808727Y-84061569D01*
X118783822Y-84031288D01*
X118765304Y-83996730D01*
X118753884Y-83959223D01*
X118750000Y-83920000D01*
X118750000Y-81820000D01*
X118753843Y-81780982D01*
X118765224Y-81743463D01*
X118783706Y-81708886D01*
X118808579Y-81678579D01*
X118838886Y-81653706D01*
X118873463Y-81635224D01*
X118910982Y-81623843D01*
X118950000Y-81620000D01*
X121350000Y-81620000D01*
X121389018Y-81623843D01*
X121426537Y-81635224D01*
X121461114Y-81653706D01*
X121491421Y-81678579D01*
X121516294Y-81708886D01*
X121534776Y-81743463D01*
X121546157Y-81780982D01*
X121550000Y-81820000D01*
X121550000Y-84220000D01*
X121546157Y-84259018D01*
X121534776Y-84296537D01*
X121516294Y-84331114D01*
X121491421Y-84361421D01*
X121461114Y-84386294D01*
X121426537Y-84404776D01*
X121389018Y-84416157D01*
X121350000Y-84420000D01*
X119400000Y-84420000D01*
X119360982Y-84416157D01*
G37*
D27*
X118210000Y-85560000D03*
X111860000Y-83020000D03*
X110590000Y-85560000D03*
X116940000Y-83020000D03*
D28*
X119480000Y-88100000D03*
X109320000Y-88100000D03*
D29*
X114400000Y-88100000D03*
D30*
X202750000Y-70410000D03*
D21*
G36*
X214610982Y-69266157D02*
G01*
X214573463Y-69254776D01*
X214539060Y-69236410D01*
X214089060Y-68936410D01*
X214058727Y-68911569D01*
X214033822Y-68881288D01*
X214015304Y-68846730D01*
X214003884Y-68809223D01*
X214000000Y-68770000D01*
X214000000Y-66670000D01*
X214003843Y-66630982D01*
X214015224Y-66593463D01*
X214033706Y-66558886D01*
X214058579Y-66528579D01*
X214088886Y-66503706D01*
X214123463Y-66485224D01*
X214160982Y-66473843D01*
X214200000Y-66470000D01*
X216600000Y-66470000D01*
X216639018Y-66473843D01*
X216676537Y-66485224D01*
X216711114Y-66503706D01*
X216741421Y-66528579D01*
X216766294Y-66558886D01*
X216784776Y-66593463D01*
X216796157Y-66630982D01*
X216800000Y-66670000D01*
X216800000Y-69070000D01*
X216796157Y-69109018D01*
X216784776Y-69146537D01*
X216766294Y-69181114D01*
X216741421Y-69211421D01*
X216711114Y-69236294D01*
X216676537Y-69254776D01*
X216639018Y-69266157D01*
X216600000Y-69270000D01*
X214650000Y-69270000D01*
X214610982Y-69266157D01*
G37*
D27*
X213460000Y-70410000D03*
X207110000Y-67870000D03*
X205840000Y-70410000D03*
X212190000Y-67870000D03*
D28*
X214730000Y-72950000D03*
X204570000Y-72950000D03*
D29*
X209650000Y-72950000D03*
D30*
X183700000Y-68910000D03*
D21*
G36*
X195560982Y-67766157D02*
G01*
X195523463Y-67754776D01*
X195489060Y-67736410D01*
X195039060Y-67436410D01*
X195008727Y-67411569D01*
X194983822Y-67381288D01*
X194965304Y-67346730D01*
X194953884Y-67309223D01*
X194950000Y-67270000D01*
X194950000Y-65170000D01*
X194953843Y-65130982D01*
X194965224Y-65093463D01*
X194983706Y-65058886D01*
X195008579Y-65028579D01*
X195038886Y-65003706D01*
X195073463Y-64985224D01*
X195110982Y-64973843D01*
X195150000Y-64970000D01*
X197550000Y-64970000D01*
X197589018Y-64973843D01*
X197626537Y-64985224D01*
X197661114Y-65003706D01*
X197691421Y-65028579D01*
X197716294Y-65058886D01*
X197734776Y-65093463D01*
X197746157Y-65130982D01*
X197750000Y-65170000D01*
X197750000Y-67570000D01*
X197746157Y-67609018D01*
X197734776Y-67646537D01*
X197716294Y-67681114D01*
X197691421Y-67711421D01*
X197661114Y-67736294D01*
X197626537Y-67754776D01*
X197589018Y-67766157D01*
X197550000Y-67770000D01*
X195600000Y-67770000D01*
X195560982Y-67766157D01*
G37*
D27*
X194410000Y-68910000D03*
X188060000Y-66370000D03*
X186790000Y-68910000D03*
X193140000Y-66370000D03*
D28*
X195680000Y-71450000D03*
X185520000Y-71450000D03*
D29*
X190600000Y-71450000D03*
D30*
X164650000Y-64110000D03*
D21*
G36*
X176510982Y-62966157D02*
G01*
X176473463Y-62954776D01*
X176439060Y-62936410D01*
X175989060Y-62636410D01*
X175958727Y-62611569D01*
X175933822Y-62581288D01*
X175915304Y-62546730D01*
X175903884Y-62509223D01*
X175900000Y-62470000D01*
X175900000Y-60370000D01*
X175903843Y-60330982D01*
X175915224Y-60293463D01*
X175933706Y-60258886D01*
X175958579Y-60228579D01*
X175988886Y-60203706D01*
X176023463Y-60185224D01*
X176060982Y-60173843D01*
X176100000Y-60170000D01*
X178500000Y-60170000D01*
X178539018Y-60173843D01*
X178576537Y-60185224D01*
X178611114Y-60203706D01*
X178641421Y-60228579D01*
X178666294Y-60258886D01*
X178684776Y-60293463D01*
X178696157Y-60330982D01*
X178700000Y-60370000D01*
X178700000Y-62770000D01*
X178696157Y-62809018D01*
X178684776Y-62846537D01*
X178666294Y-62881114D01*
X178641421Y-62911421D01*
X178611114Y-62936294D01*
X178576537Y-62954776D01*
X178539018Y-62966157D01*
X178500000Y-62970000D01*
X176550000Y-62970000D01*
X176510982Y-62966157D01*
G37*
D27*
X175360000Y-64110000D03*
X169010000Y-61570000D03*
X167740000Y-64110000D03*
X174090000Y-61570000D03*
D28*
X176630000Y-66650000D03*
X166470000Y-66650000D03*
D29*
X171550000Y-66650000D03*
D30*
X145600000Y-62720000D03*
D21*
G36*
X157460982Y-61576157D02*
G01*
X157423463Y-61564776D01*
X157389060Y-61546410D01*
X156939060Y-61246410D01*
X156908727Y-61221569D01*
X156883822Y-61191288D01*
X156865304Y-61156730D01*
X156853884Y-61119223D01*
X156850000Y-61080000D01*
X156850000Y-58980000D01*
X156853843Y-58940982D01*
X156865224Y-58903463D01*
X156883706Y-58868886D01*
X156908579Y-58838579D01*
X156938886Y-58813706D01*
X156973463Y-58795224D01*
X157010982Y-58783843D01*
X157050000Y-58780000D01*
X159450000Y-58780000D01*
X159489018Y-58783843D01*
X159526537Y-58795224D01*
X159561114Y-58813706D01*
X159591421Y-58838579D01*
X159616294Y-58868886D01*
X159634776Y-58903463D01*
X159646157Y-58940982D01*
X159650000Y-58980000D01*
X159650000Y-61380000D01*
X159646157Y-61419018D01*
X159634776Y-61456537D01*
X159616294Y-61491114D01*
X159591421Y-61521421D01*
X159561114Y-61546294D01*
X159526537Y-61564776D01*
X159489018Y-61576157D01*
X159450000Y-61580000D01*
X157500000Y-61580000D01*
X157460982Y-61576157D01*
G37*
D27*
X156310000Y-62720000D03*
X149960000Y-60180000D03*
X148690000Y-62720000D03*
X155040000Y-60180000D03*
D28*
X157580000Y-65260000D03*
X147420000Y-65260000D03*
D29*
X152500000Y-65260000D03*
D30*
X126550000Y-64110000D03*
D21*
G36*
X138410982Y-62966157D02*
G01*
X138373463Y-62954776D01*
X138339060Y-62936410D01*
X137889060Y-62636410D01*
X137858727Y-62611569D01*
X137833822Y-62581288D01*
X137815304Y-62546730D01*
X137803884Y-62509223D01*
X137800000Y-62470000D01*
X137800000Y-60370000D01*
X137803843Y-60330982D01*
X137815224Y-60293463D01*
X137833706Y-60258886D01*
X137858579Y-60228579D01*
X137888886Y-60203706D01*
X137923463Y-60185224D01*
X137960982Y-60173843D01*
X138000000Y-60170000D01*
X140400000Y-60170000D01*
X140439018Y-60173843D01*
X140476537Y-60185224D01*
X140511114Y-60203706D01*
X140541421Y-60228579D01*
X140566294Y-60258886D01*
X140584776Y-60293463D01*
X140596157Y-60330982D01*
X140600000Y-60370000D01*
X140600000Y-62770000D01*
X140596157Y-62809018D01*
X140584776Y-62846537D01*
X140566294Y-62881114D01*
X140541421Y-62911421D01*
X140511114Y-62936294D01*
X140476537Y-62954776D01*
X140439018Y-62966157D01*
X140400000Y-62970000D01*
X138450000Y-62970000D01*
X138410982Y-62966157D01*
G37*
D27*
X137260000Y-64110000D03*
X130910000Y-61570000D03*
X129640000Y-64110000D03*
X135990000Y-61570000D03*
D28*
X138530000Y-66650000D03*
X128370000Y-66650000D03*
D29*
X133450000Y-66650000D03*
D30*
X107500000Y-66510000D03*
D21*
G36*
X119360982Y-65366157D02*
G01*
X119323463Y-65354776D01*
X119289060Y-65336410D01*
X118839060Y-65036410D01*
X118808727Y-65011569D01*
X118783822Y-64981288D01*
X118765304Y-64946730D01*
X118753884Y-64909223D01*
X118750000Y-64870000D01*
X118750000Y-62770000D01*
X118753843Y-62730982D01*
X118765224Y-62693463D01*
X118783706Y-62658886D01*
X118808579Y-62628579D01*
X118838886Y-62603706D01*
X118873463Y-62585224D01*
X118910982Y-62573843D01*
X118950000Y-62570000D01*
X121350000Y-62570000D01*
X121389018Y-62573843D01*
X121426537Y-62585224D01*
X121461114Y-62603706D01*
X121491421Y-62628579D01*
X121516294Y-62658886D01*
X121534776Y-62693463D01*
X121546157Y-62730982D01*
X121550000Y-62770000D01*
X121550000Y-65170000D01*
X121546157Y-65209018D01*
X121534776Y-65246537D01*
X121516294Y-65281114D01*
X121491421Y-65311421D01*
X121461114Y-65336294D01*
X121426537Y-65354776D01*
X121389018Y-65366157D01*
X121350000Y-65370000D01*
X119400000Y-65370000D01*
X119360982Y-65366157D01*
G37*
D27*
X118210000Y-66510000D03*
X111860000Y-63970000D03*
X110590000Y-66510000D03*
X116940000Y-63970000D03*
D28*
X119480000Y-69050000D03*
X109320000Y-69050000D03*
D29*
X114400000Y-69050000D03*
D30*
X202750000Y-51360000D03*
D21*
G36*
X214610982Y-50216157D02*
G01*
X214573463Y-50204776D01*
X214539060Y-50186410D01*
X214089060Y-49886410D01*
X214058727Y-49861569D01*
X214033822Y-49831288D01*
X214015304Y-49796730D01*
X214003884Y-49759223D01*
X214000000Y-49720000D01*
X214000000Y-47620000D01*
X214003843Y-47580982D01*
X214015224Y-47543463D01*
X214033706Y-47508886D01*
X214058579Y-47478579D01*
X214088886Y-47453706D01*
X214123463Y-47435224D01*
X214160982Y-47423843D01*
X214200000Y-47420000D01*
X216600000Y-47420000D01*
X216639018Y-47423843D01*
X216676537Y-47435224D01*
X216711114Y-47453706D01*
X216741421Y-47478579D01*
X216766294Y-47508886D01*
X216784776Y-47543463D01*
X216796157Y-47580982D01*
X216800000Y-47620000D01*
X216800000Y-50020000D01*
X216796157Y-50059018D01*
X216784776Y-50096537D01*
X216766294Y-50131114D01*
X216741421Y-50161421D01*
X216711114Y-50186294D01*
X216676537Y-50204776D01*
X216639018Y-50216157D01*
X216600000Y-50220000D01*
X214650000Y-50220000D01*
X214610982Y-50216157D01*
G37*
D27*
X213460000Y-51360000D03*
X207110000Y-48820000D03*
X205840000Y-51360000D03*
X212190000Y-48820000D03*
D28*
X214730000Y-53900000D03*
X204570000Y-53900000D03*
D29*
X209650000Y-53900000D03*
D30*
X183700000Y-49860000D03*
D21*
G36*
X195560982Y-48716157D02*
G01*
X195523463Y-48704776D01*
X195489060Y-48686410D01*
X195039060Y-48386410D01*
X195008727Y-48361569D01*
X194983822Y-48331288D01*
X194965304Y-48296730D01*
X194953884Y-48259223D01*
X194950000Y-48220000D01*
X194950000Y-46120000D01*
X194953843Y-46080982D01*
X194965224Y-46043463D01*
X194983706Y-46008886D01*
X195008579Y-45978579D01*
X195038886Y-45953706D01*
X195073463Y-45935224D01*
X195110982Y-45923843D01*
X195150000Y-45920000D01*
X197550000Y-45920000D01*
X197589018Y-45923843D01*
X197626537Y-45935224D01*
X197661114Y-45953706D01*
X197691421Y-45978579D01*
X197716294Y-46008886D01*
X197734776Y-46043463D01*
X197746157Y-46080982D01*
X197750000Y-46120000D01*
X197750000Y-48520000D01*
X197746157Y-48559018D01*
X197734776Y-48596537D01*
X197716294Y-48631114D01*
X197691421Y-48661421D01*
X197661114Y-48686294D01*
X197626537Y-48704776D01*
X197589018Y-48716157D01*
X197550000Y-48720000D01*
X195600000Y-48720000D01*
X195560982Y-48716157D01*
G37*
D27*
X194410000Y-49860000D03*
X188060000Y-47320000D03*
X186790000Y-49860000D03*
X193140000Y-47320000D03*
D28*
X195680000Y-52400000D03*
X185520000Y-52400000D03*
D29*
X190600000Y-52400000D03*
D30*
X164650000Y-45060000D03*
D21*
G36*
X176510982Y-43916157D02*
G01*
X176473463Y-43904776D01*
X176439060Y-43886410D01*
X175989060Y-43586410D01*
X175958727Y-43561569D01*
X175933822Y-43531288D01*
X175915304Y-43496730D01*
X175903884Y-43459223D01*
X175900000Y-43420000D01*
X175900000Y-41320000D01*
X175903843Y-41280982D01*
X175915224Y-41243463D01*
X175933706Y-41208886D01*
X175958579Y-41178579D01*
X175988886Y-41153706D01*
X176023463Y-41135224D01*
X176060982Y-41123843D01*
X176100000Y-41120000D01*
X178500000Y-41120000D01*
X178539018Y-41123843D01*
X178576537Y-41135224D01*
X178611114Y-41153706D01*
X178641421Y-41178579D01*
X178666294Y-41208886D01*
X178684776Y-41243463D01*
X178696157Y-41280982D01*
X178700000Y-41320000D01*
X178700000Y-43720000D01*
X178696157Y-43759018D01*
X178684776Y-43796537D01*
X178666294Y-43831114D01*
X178641421Y-43861421D01*
X178611114Y-43886294D01*
X178576537Y-43904776D01*
X178539018Y-43916157D01*
X178500000Y-43920000D01*
X176550000Y-43920000D01*
X176510982Y-43916157D01*
G37*
D27*
X175360000Y-45060000D03*
X169010000Y-42520000D03*
X167740000Y-45060000D03*
X174090000Y-42520000D03*
D28*
X176630000Y-47600000D03*
X166470000Y-47600000D03*
D29*
X171550000Y-47600000D03*
D30*
X145600000Y-43670000D03*
D21*
G36*
X157460982Y-42526157D02*
G01*
X157423463Y-42514776D01*
X157389060Y-42496410D01*
X156939060Y-42196410D01*
X156908727Y-42171569D01*
X156883822Y-42141288D01*
X156865304Y-42106730D01*
X156853884Y-42069223D01*
X156850000Y-42030000D01*
X156850000Y-39930000D01*
X156853843Y-39890982D01*
X156865224Y-39853463D01*
X156883706Y-39818886D01*
X156908579Y-39788579D01*
X156938886Y-39763706D01*
X156973463Y-39745224D01*
X157010982Y-39733843D01*
X157050000Y-39730000D01*
X159450000Y-39730000D01*
X159489018Y-39733843D01*
X159526537Y-39745224D01*
X159561114Y-39763706D01*
X159591421Y-39788579D01*
X159616294Y-39818886D01*
X159634776Y-39853463D01*
X159646157Y-39890982D01*
X159650000Y-39930000D01*
X159650000Y-42330000D01*
X159646157Y-42369018D01*
X159634776Y-42406537D01*
X159616294Y-42441114D01*
X159591421Y-42471421D01*
X159561114Y-42496294D01*
X159526537Y-42514776D01*
X159489018Y-42526157D01*
X159450000Y-42530000D01*
X157500000Y-42530000D01*
X157460982Y-42526157D01*
G37*
D27*
X156310000Y-43670000D03*
X149960000Y-41130000D03*
X148690000Y-43670000D03*
X155040000Y-41130000D03*
D28*
X157580000Y-46210000D03*
X147420000Y-46210000D03*
D29*
X152500000Y-46210000D03*
D30*
X126550000Y-45060000D03*
D21*
G36*
X138410982Y-43916157D02*
G01*
X138373463Y-43904776D01*
X138339060Y-43886410D01*
X137889060Y-43586410D01*
X137858727Y-43561569D01*
X137833822Y-43531288D01*
X137815304Y-43496730D01*
X137803884Y-43459223D01*
X137800000Y-43420000D01*
X137800000Y-41320000D01*
X137803843Y-41280982D01*
X137815224Y-41243463D01*
X137833706Y-41208886D01*
X137858579Y-41178579D01*
X137888886Y-41153706D01*
X137923463Y-41135224D01*
X137960982Y-41123843D01*
X138000000Y-41120000D01*
X140400000Y-41120000D01*
X140439018Y-41123843D01*
X140476537Y-41135224D01*
X140511114Y-41153706D01*
X140541421Y-41178579D01*
X140566294Y-41208886D01*
X140584776Y-41243463D01*
X140596157Y-41280982D01*
X140600000Y-41320000D01*
X140600000Y-43720000D01*
X140596157Y-43759018D01*
X140584776Y-43796537D01*
X140566294Y-43831114D01*
X140541421Y-43861421D01*
X140511114Y-43886294D01*
X140476537Y-43904776D01*
X140439018Y-43916157D01*
X140400000Y-43920000D01*
X138450000Y-43920000D01*
X138410982Y-43916157D01*
G37*
D27*
X137260000Y-45060000D03*
X130910000Y-42520000D03*
X129640000Y-45060000D03*
X135990000Y-42520000D03*
D28*
X138530000Y-47600000D03*
X128370000Y-47600000D03*
D29*
X133450000Y-47600000D03*
D30*
X107500000Y-47460000D03*
D21*
G36*
X119360982Y-46316157D02*
G01*
X119323463Y-46304776D01*
X119289060Y-46286410D01*
X118839060Y-45986410D01*
X118808727Y-45961569D01*
X118783822Y-45931288D01*
X118765304Y-45896730D01*
X118753884Y-45859223D01*
X118750000Y-45820000D01*
X118750000Y-43720000D01*
X118753843Y-43680982D01*
X118765224Y-43643463D01*
X118783706Y-43608886D01*
X118808579Y-43578579D01*
X118838886Y-43553706D01*
X118873463Y-43535224D01*
X118910982Y-43523843D01*
X118950000Y-43520000D01*
X121350000Y-43520000D01*
X121389018Y-43523843D01*
X121426537Y-43535224D01*
X121461114Y-43553706D01*
X121491421Y-43578579D01*
X121516294Y-43608886D01*
X121534776Y-43643463D01*
X121546157Y-43680982D01*
X121550000Y-43720000D01*
X121550000Y-46120000D01*
X121546157Y-46159018D01*
X121534776Y-46196537D01*
X121516294Y-46231114D01*
X121491421Y-46261421D01*
X121461114Y-46286294D01*
X121426537Y-46304776D01*
X121389018Y-46316157D01*
X121350000Y-46320000D01*
X119400000Y-46320000D01*
X119360982Y-46316157D01*
G37*
D27*
X118210000Y-47460000D03*
X111860000Y-44920000D03*
X110590000Y-47460000D03*
X116940000Y-44920000D03*
D28*
X119480000Y-50000000D03*
X109320000Y-50000000D03*
D29*
X114400000Y-50000000D03*
D21*
G36*
X114841157Y-38716018D02*
G01*
X114829776Y-38753537D01*
X114811294Y-38788114D01*
X114786421Y-38818421D01*
X114756114Y-38843294D01*
X114721537Y-38861776D01*
X114684018Y-38873157D01*
X114644998Y-38877000D01*
X114244994Y-38876996D01*
X114237144Y-38876842D01*
X114205761Y-38875609D01*
X114190109Y-38874377D01*
X114158919Y-38870686D01*
X114143408Y-38868230D01*
X114112603Y-38862103D01*
X114097331Y-38858436D01*
X114067103Y-38849911D01*
X114052172Y-38845060D01*
X114022705Y-38834190D01*
X114008190Y-38828178D01*
X113979668Y-38815029D01*
X113965677Y-38807900D01*
X113938273Y-38792553D01*
X113924882Y-38784347D01*
X113898768Y-38766898D01*
X113886065Y-38757669D01*
X113861400Y-38738225D01*
X113849462Y-38728029D01*
X113826398Y-38706710D01*
X113815286Y-38695598D01*
X113793967Y-38672534D01*
X113783771Y-38660596D01*
X113764327Y-38635931D01*
X113755098Y-38623228D01*
X113737649Y-38597114D01*
X113729443Y-38583723D01*
X113714096Y-38556319D01*
X113706967Y-38542328D01*
X113693818Y-38513806D01*
X113687806Y-38499291D01*
X113676936Y-38469824D01*
X113672085Y-38454893D01*
X113663560Y-38424665D01*
X113659893Y-38409393D01*
X113653766Y-38378588D01*
X113651310Y-38363077D01*
X113647619Y-38331887D01*
X113646387Y-38316235D01*
X113645154Y-38284852D01*
X113645000Y-38277000D01*
X113645000Y-38177002D01*
X113495000Y-38177002D01*
X113455982Y-38173159D01*
X113418463Y-38161778D01*
X113383886Y-38143296D01*
X113353579Y-38118423D01*
X113328706Y-38088116D01*
X113310224Y-38053539D01*
X113298843Y-38016020D01*
X113295000Y-37977002D01*
X113295000Y-37327001D01*
X113298843Y-37287983D01*
X113310224Y-37250464D01*
X113328706Y-37215887D01*
X113353579Y-37185580D01*
X113383886Y-37160707D01*
X113418463Y-37142225D01*
X113455982Y-37130844D01*
X113495000Y-37127001D01*
X114645000Y-37127001D01*
X114684018Y-37130844D01*
X114721537Y-37142225D01*
X114756114Y-37160707D01*
X114786421Y-37185580D01*
X114811294Y-37215887D01*
X114829776Y-37250464D01*
X114841157Y-37287983D01*
X114845000Y-37327001D01*
X114845000Y-38677000D01*
X114841157Y-38716018D01*
G37*
G36*
X111486957Y-38012419D02*
G01*
X111475576Y-38049938D01*
X111457094Y-38084515D01*
X111432221Y-38114822D01*
X111401914Y-38139695D01*
X111367337Y-38158177D01*
X111329818Y-38169558D01*
X111290800Y-38173401D01*
X111140800Y-38173401D01*
X111140800Y-38273399D01*
X111140646Y-38281250D01*
X111139413Y-38312634D01*
X111138181Y-38328287D01*
X111134490Y-38359477D01*
X111132033Y-38374989D01*
X111125906Y-38405793D01*
X111122240Y-38421064D01*
X111113715Y-38451292D01*
X111108862Y-38466229D01*
X111097991Y-38495696D01*
X111091985Y-38510197D01*
X111078837Y-38538720D01*
X111071703Y-38552722D01*
X111056356Y-38580125D01*
X111048151Y-38593513D01*
X111030702Y-38619627D01*
X111021473Y-38632330D01*
X111002029Y-38656995D01*
X110991830Y-38668937D01*
X110970510Y-38692001D01*
X110959404Y-38703106D01*
X110936341Y-38724425D01*
X110924403Y-38734621D01*
X110899738Y-38754066D01*
X110887029Y-38763300D01*
X110860914Y-38780749D01*
X110847524Y-38788954D01*
X110820121Y-38804300D01*
X110806129Y-38811429D01*
X110777606Y-38824578D01*
X110763094Y-38830589D01*
X110733627Y-38841459D01*
X110718696Y-38846310D01*
X110688468Y-38854835D01*
X110673197Y-38858501D01*
X110642393Y-38864628D01*
X110626881Y-38867085D01*
X110595691Y-38870776D01*
X110580038Y-38872008D01*
X110548654Y-38873241D01*
X110540805Y-38873395D01*
X110140802Y-38873399D01*
X110101784Y-38869556D01*
X110064265Y-38858176D01*
X110029688Y-38839694D01*
X109999380Y-38814822D01*
X109974507Y-38784515D01*
X109956025Y-38749938D01*
X109944643Y-38712419D01*
X109940800Y-38673399D01*
X109940800Y-37323400D01*
X109944643Y-37284382D01*
X109956024Y-37246863D01*
X109974506Y-37212286D01*
X109999379Y-37181979D01*
X110029686Y-37157106D01*
X110064263Y-37138624D01*
X110101782Y-37127243D01*
X110140800Y-37123400D01*
X111290800Y-37123400D01*
X111329818Y-37127243D01*
X111367337Y-37138624D01*
X111401914Y-37157106D01*
X111432221Y-37181979D01*
X111457094Y-37212286D01*
X111475576Y-37246863D01*
X111486957Y-37284382D01*
X111490800Y-37323400D01*
X111490800Y-37973401D01*
X111486957Y-38012419D01*
G37*
D31*
X94067000Y-48094000D03*
D32*
X91567000Y-48094000D03*
X89067000Y-48094000D03*
X94067000Y-62594000D03*
X89067000Y-62594000D03*
D33*
X98894900Y-114109500D03*
X199700000Y-100000000D03*
X124396500Y-95567500D03*
X199700000Y-61800000D03*
X124325380Y-57409080D03*
M02*
