G04 #@! TF.GenerationSoftware,KiCad,Pcbnew,(5.1.6)-1*
G04 #@! TF.CreationDate,2020-12-11T11:33:57+01:00*
G04 #@! TF.ProjectId,Lily58_HS_RGB,4c696c79-3538-45f4-9853-5f5247422e6b,0.9*
G04 #@! TF.SameCoordinates,Original*
G04 #@! TF.FileFunction,Soldermask,Bot*
G04 #@! TF.FilePolarity,Negative*
%FSLAX46Y46*%
G04 Gerber Fmt 4.6, Leading zero omitted, Abs format (unit mm)*
G04 Created by KiCad (PCBNEW (5.1.6)-1) date 2020-12-11 11:33:57*
%MOMM*%
%LPD*%
G01*
G04 APERTURE LIST*
%ADD10R,2.500000X1.400000*%
%ADD11C,1.600000*%
%ADD12R,1.543000X1.035000*%
%ADD13R,1.035000X1.543000*%
%ADD14C,1.797000*%
%ADD15R,2.398980X2.398980*%
%ADD16C,2.398980*%
%ADD17R,2.200000X1.900000*%
%ADD18R,1.900000X2.200000*%
%ADD19C,0.100000*%
%ADD20R,2.400000X1.400000*%
%ADD21R,2.000000X1.400000*%
%ADD22C,1.924000*%
%ADD23O,2.100000X2.100000*%
%ADD24R,2.100000X2.100000*%
%ADD25C,3.400000*%
%ADD26C,2.101800*%
%ADD27C,4.387800*%
%ADD28R,2.900000X2.900000*%
%ADD29R,2.400000X2.400000*%
%ADD30C,2.400000*%
%ADD31C,3.100000*%
G04 APERTURE END LIST*
D10*
X93270500Y-84523000D03*
X91770500Y-80323000D03*
X87770500Y-80323000D03*
X84770500Y-80323000D03*
D11*
X89970500Y-82423000D03*
X82970500Y-82423000D03*
D10*
X87770500Y-85873000D03*
X84770500Y-85873000D03*
X93270500Y-81673000D03*
X91770500Y-85873000D03*
D11*
X82970500Y-83773000D03*
X89970500Y-83773000D03*
D12*
X84467700Y-74223880D03*
X84467700Y-73223120D03*
D13*
X83256120Y-87757000D03*
X84256880Y-87757000D03*
D12*
X87767900Y-78075880D03*
X87767900Y-77075120D03*
X90339332Y-78075880D03*
X90339332Y-77075120D03*
X92910766Y-78075880D03*
X92910766Y-77075120D03*
X95418700Y-78075880D03*
X95418700Y-77075120D03*
D14*
X98597449Y-84563949D03*
X102189551Y-88156051D03*
X98660949Y-81452449D03*
X102253051Y-85044551D03*
X102616000Y-40894000D03*
X107696000Y-40894000D03*
X107696000Y-38608000D03*
X102616000Y-38608000D03*
D15*
X97075000Y-72583040D03*
D16*
X86915000Y-72583040D03*
D17*
X93775000Y-72580500D03*
X90375000Y-72580500D03*
D15*
X152397460Y-118380500D03*
D16*
X152397460Y-128540500D03*
D18*
X152400000Y-121680500D03*
X152400000Y-125080500D03*
D15*
X133347460Y-118698000D03*
D16*
X133347460Y-128858000D03*
D18*
X133350000Y-121998000D03*
X133350000Y-125398000D03*
D15*
X114424460Y-119714000D03*
D16*
X114424460Y-129874000D03*
D18*
X114427000Y-123014000D03*
X114427000Y-126414000D03*
D19*
G36*
X108496166Y-129302313D02*
G01*
X110573744Y-128102823D01*
X111773234Y-130180401D01*
X109695656Y-131379891D01*
X108496166Y-129302313D01*
G37*
D16*
X105054700Y-120942539D03*
D19*
G36*
X109855224Y-127362371D02*
G01*
X108209776Y-128312371D01*
X107109776Y-126407115D01*
X108755224Y-125457115D01*
X109855224Y-127362371D01*
G37*
G36*
X108155224Y-124417885D02*
G01*
X106509776Y-125367885D01*
X105409776Y-123462629D01*
X107055224Y-122512629D01*
X108155224Y-124417885D01*
G37*
D15*
X97583000Y-89532460D03*
D16*
X87423000Y-89532460D03*
D17*
X94283000Y-89535000D03*
X90883000Y-89535000D03*
D15*
X200091040Y-114791500D03*
D16*
X200091040Y-104631500D03*
D18*
X200088500Y-111491500D03*
X200088500Y-108091500D03*
D15*
X181041040Y-109902000D03*
D16*
X181041040Y-99742000D03*
D18*
X181038500Y-106602000D03*
X181038500Y-103202000D03*
D15*
X161991040Y-107933500D03*
D16*
X161991040Y-97773500D03*
D18*
X161988500Y-104633500D03*
X161988500Y-101233500D03*
D15*
X143004540Y-107933500D03*
D16*
X143004540Y-97773500D03*
D18*
X143002000Y-104633500D03*
X143002000Y-101233500D03*
D15*
X123954540Y-110156000D03*
D16*
X123954540Y-99996000D03*
D18*
X123952000Y-106856000D03*
X123952000Y-103456000D03*
D15*
X104904540Y-111362500D03*
D16*
X104904540Y-101202500D03*
D18*
X104902000Y-108062500D03*
X104902000Y-104662500D03*
D15*
X200022460Y-84979500D03*
D16*
X200022460Y-95139500D03*
D18*
X200025000Y-88279500D03*
X200025000Y-91679500D03*
D15*
X181162960Y-81995000D03*
D16*
X181162960Y-92155000D03*
D18*
X181165500Y-85295000D03*
X181165500Y-88695000D03*
D15*
X162049460Y-79074000D03*
D16*
X162049460Y-89234000D03*
D18*
X162052000Y-82374000D03*
X162052000Y-85774000D03*
D15*
X143002000Y-78883500D03*
D16*
X143002000Y-89043500D03*
D18*
X143004540Y-82183500D03*
X143004540Y-85583500D03*
D15*
X123822460Y-80217000D03*
D16*
X123822460Y-90377000D03*
D18*
X123825000Y-83517000D03*
X123825000Y-86917000D03*
D15*
X104899460Y-82312500D03*
D16*
X104899460Y-92472500D03*
D18*
X104902000Y-85612500D03*
X104902000Y-89012500D03*
D15*
X200281540Y-78088500D03*
D16*
X200281540Y-67928500D03*
D18*
X200279000Y-74788500D03*
X200279000Y-71388500D03*
D15*
X181231540Y-73008500D03*
D16*
X181231540Y-62848500D03*
D18*
X181229000Y-69708500D03*
X181229000Y-66308500D03*
D15*
X162054540Y-70913000D03*
D16*
X162054540Y-60753000D03*
D18*
X162052000Y-67613000D03*
X162052000Y-64213000D03*
D15*
X142941040Y-70532000D03*
D16*
X142941040Y-60372000D03*
D18*
X142938500Y-67232000D03*
X142938500Y-63832000D03*
D15*
X123954540Y-71675000D03*
D16*
X123954540Y-61515000D03*
D18*
X123952000Y-68375000D03*
X123952000Y-64975000D03*
D15*
X104968040Y-73008500D03*
D16*
X104968040Y-62848500D03*
D18*
X104965500Y-69708500D03*
X104965500Y-66308500D03*
D15*
X200149460Y-47133500D03*
D16*
X200149460Y-57293500D03*
D18*
X200152000Y-50433500D03*
X200152000Y-53833500D03*
D15*
X181226460Y-44593500D03*
D16*
X181226460Y-54753500D03*
D18*
X181229000Y-47893500D03*
X181229000Y-51293500D03*
D15*
X162049460Y-40974000D03*
D16*
X162049460Y-51134000D03*
D18*
X162052000Y-44274000D03*
X162052000Y-47674000D03*
D15*
X142808960Y-41672500D03*
D16*
X142808960Y-51832500D03*
D18*
X142811500Y-44972500D03*
X142811500Y-48372500D03*
D15*
X123949460Y-42117000D03*
D16*
X123949460Y-52277000D03*
D18*
X123952000Y-45417000D03*
X123952000Y-48817000D03*
D15*
X105026460Y-44466500D03*
D16*
X105026460Y-54626500D03*
D18*
X105029000Y-47766500D03*
X105029000Y-51166500D03*
D20*
X119294000Y-60184000D03*
X119294000Y-58434000D03*
X114894000Y-58434000D03*
X114894000Y-60184000D03*
X162093000Y-56755000D03*
X162093000Y-55005000D03*
X157693000Y-55005000D03*
X157693000Y-56755000D03*
X194160500Y-63105000D03*
X194160500Y-61355000D03*
X189760500Y-61355000D03*
X189760500Y-63105000D03*
X106534500Y-116169500D03*
X106534500Y-117919500D03*
X110934500Y-117919500D03*
X110934500Y-116169500D03*
X148930000Y-112599500D03*
X148930000Y-114349500D03*
X153330000Y-114349500D03*
X153330000Y-112599500D03*
X187220500Y-98883500D03*
X187220500Y-100633500D03*
X191620500Y-100633500D03*
X191620500Y-98883500D03*
D21*
X159550000Y-128005000D03*
X159550000Y-129755000D03*
X164350000Y-129755000D03*
X164350000Y-128005000D03*
X140497700Y-129033300D03*
X140497700Y-130783300D03*
X145297700Y-130783300D03*
X145297700Y-129033300D03*
X121450000Y-130405000D03*
X121450000Y-132155000D03*
X126250000Y-132155000D03*
X126250000Y-130405000D03*
D19*
G36*
X94435581Y-126587563D02*
G01*
X93223145Y-127287563D01*
X92223145Y-125555513D01*
X93435581Y-124855513D01*
X94435581Y-126587563D01*
G37*
G36*
X92920037Y-127462563D02*
G01*
X91707601Y-128162563D01*
X90707601Y-126430513D01*
X91920037Y-125730513D01*
X92920037Y-127462563D01*
G37*
G36*
X95320037Y-131619485D02*
G01*
X94107601Y-132319485D01*
X93107601Y-130587435D01*
X94320037Y-129887435D01*
X95320037Y-131619485D01*
G37*
G36*
X96835581Y-130744485D02*
G01*
X95623145Y-131444485D01*
X94623145Y-129712435D01*
X95835581Y-129012435D01*
X96835581Y-130744485D01*
G37*
D21*
X92874800Y-104240300D03*
X92874800Y-102490300D03*
X88074800Y-102490300D03*
X88074800Y-104240300D03*
X212050000Y-117005000D03*
X212050000Y-115255000D03*
X207250000Y-115255000D03*
X207250000Y-117005000D03*
X193000000Y-115505000D03*
X193000000Y-113755000D03*
X188200000Y-113755000D03*
X188200000Y-115505000D03*
X173950000Y-110705000D03*
X173950000Y-108955000D03*
X169150000Y-108955000D03*
X169150000Y-110705000D03*
X154900000Y-109315000D03*
X154900000Y-107565000D03*
X150100000Y-107565000D03*
X150100000Y-109315000D03*
X135850000Y-110705000D03*
X135850000Y-108955000D03*
X131050000Y-108955000D03*
X131050000Y-110705000D03*
X116800000Y-113105000D03*
X116800000Y-111355000D03*
X112000000Y-111355000D03*
X112000000Y-113105000D03*
X207250000Y-96205000D03*
X207250000Y-97955000D03*
X212050000Y-97955000D03*
X212050000Y-96205000D03*
X188200000Y-94705000D03*
X188200000Y-96455000D03*
X193000000Y-96455000D03*
X193000000Y-94705000D03*
X169150000Y-89905000D03*
X169150000Y-91655000D03*
X173950000Y-91655000D03*
X173950000Y-89905000D03*
X150100000Y-88515000D03*
X150100000Y-90265000D03*
X154900000Y-90265000D03*
X154900000Y-88515000D03*
X131050000Y-89905000D03*
X131050000Y-91655000D03*
X135850000Y-91655000D03*
X135850000Y-89905000D03*
X112000000Y-92305000D03*
X112000000Y-94055000D03*
X116800000Y-94055000D03*
X116800000Y-92305000D03*
X212050000Y-78905000D03*
X212050000Y-77155000D03*
X207250000Y-77155000D03*
X207250000Y-78905000D03*
X193000000Y-77405000D03*
X193000000Y-75655000D03*
X188200000Y-75655000D03*
X188200000Y-77405000D03*
X173950000Y-72605000D03*
X173950000Y-70855000D03*
X169150000Y-70855000D03*
X169150000Y-72605000D03*
X154900000Y-71215000D03*
X154900000Y-69465000D03*
X150100000Y-69465000D03*
X150100000Y-71215000D03*
X135850000Y-72605000D03*
X135850000Y-70855000D03*
X131050000Y-70855000D03*
X131050000Y-72605000D03*
X116800000Y-75005000D03*
X116800000Y-73255000D03*
X112000000Y-73255000D03*
X112000000Y-75005000D03*
X207250000Y-58105000D03*
X207250000Y-59855000D03*
X212050000Y-59855000D03*
X212050000Y-58105000D03*
X188200000Y-56605000D03*
X188200000Y-58355000D03*
X193000000Y-58355000D03*
X193000000Y-56605000D03*
X169150000Y-51805000D03*
X169150000Y-53555000D03*
X173950000Y-53555000D03*
X173950000Y-51805000D03*
X150100000Y-50415000D03*
X150100000Y-52165000D03*
X154900000Y-52165000D03*
X154900000Y-50415000D03*
X131000000Y-51805000D03*
X131000000Y-53555000D03*
X135800000Y-53555000D03*
X135800000Y-51805000D03*
X112000000Y-54205000D03*
X112000000Y-55955000D03*
X116800000Y-55955000D03*
X116800000Y-54205000D03*
D22*
X84584815Y-47405745D03*
X99824815Y-65185745D03*
X84584815Y-57565745D03*
X99824815Y-55025745D03*
X99824815Y-49945745D03*
X84584815Y-67725745D03*
X99824815Y-47405745D03*
X99824815Y-42325745D03*
X84584815Y-62645745D03*
X99824815Y-70265745D03*
X84584815Y-55025745D03*
X84584815Y-44865745D03*
X84584815Y-49945745D03*
X84584815Y-52485745D03*
X84584815Y-65185745D03*
X84584815Y-60105745D03*
X99824815Y-62645745D03*
X99824815Y-60105745D03*
X84584815Y-70265745D03*
X99824815Y-67725745D03*
X99824815Y-44865745D03*
X84584815Y-42325745D03*
X99824815Y-57565745D03*
X99824815Y-52485745D03*
X83286000Y-41130000D03*
X83286000Y-43670000D03*
X83286000Y-46210000D03*
X83286000Y-48750000D03*
X83286000Y-51290000D03*
X83286000Y-53830000D03*
X83286000Y-56370000D03*
X83286000Y-58910000D03*
X83286000Y-61450000D03*
X83286000Y-63990000D03*
X83286000Y-66530000D03*
X83286000Y-69070000D03*
X98526000Y-69070000D03*
X98526000Y-66530000D03*
X98526000Y-63990000D03*
X98526000Y-61450000D03*
X98526000Y-58910000D03*
X98526000Y-56370000D03*
X98526000Y-53830000D03*
X98526000Y-51290000D03*
X98526000Y-48750000D03*
X98526000Y-46210000D03*
X98526000Y-43670000D03*
X98526000Y-41130000D03*
D23*
X87820500Y-74993500D03*
X90360500Y-74993500D03*
X92900500Y-74993500D03*
D24*
X95440500Y-74993500D03*
D19*
G36*
X98901442Y-119332662D02*
G01*
X96389968Y-120782662D01*
X94939968Y-118271188D01*
X97451442Y-116821188D01*
X98901442Y-119332662D01*
G37*
G36*
X103841793Y-128501915D02*
G01*
X103832889Y-128463732D01*
X103831593Y-128424755D01*
X103866401Y-127885044D01*
X103872747Y-127846354D01*
X103886519Y-127809645D01*
X103907188Y-127776329D01*
X103933960Y-127747686D01*
X103965986Y-127724710D01*
X105784639Y-126674710D01*
X105820352Y-126658530D01*
X105858534Y-126649626D01*
X105897720Y-126648344D01*
X105936403Y-126654731D01*
X105973097Y-126668541D01*
X106006392Y-126689245D01*
X106035007Y-126716046D01*
X106057845Y-126747916D01*
X107257845Y-128826376D01*
X107274025Y-128862089D01*
X107282929Y-128900271D01*
X107284211Y-128939457D01*
X107277824Y-128978140D01*
X107264014Y-129014834D01*
X107243310Y-129048129D01*
X107216509Y-129076744D01*
X107184639Y-129099582D01*
X105106179Y-130299582D01*
X105070466Y-130315762D01*
X105032284Y-130324666D01*
X104993098Y-130325948D01*
X104954415Y-130319561D01*
X104917721Y-130305751D01*
X104884426Y-130285047D01*
X104855811Y-130258246D01*
X104832973Y-130226376D01*
X103857973Y-128537627D01*
X103841793Y-128501915D01*
G37*
D25*
X102275705Y-128077057D03*
X101300409Y-121307795D03*
X98465705Y-121477943D03*
X103840409Y-125707205D03*
D26*
X100711000Y-130446909D03*
X95631000Y-121648091D03*
D27*
X98171000Y-126047500D03*
D28*
X155050000Y-121260000D03*
D19*
G36*
X166910982Y-120116157D02*
G01*
X166873463Y-120104776D01*
X166839060Y-120086410D01*
X166389060Y-119786410D01*
X166358727Y-119761569D01*
X166333822Y-119731288D01*
X166315304Y-119696730D01*
X166303884Y-119659223D01*
X166300000Y-119620000D01*
X166300000Y-117520000D01*
X166303843Y-117480982D01*
X166315224Y-117443463D01*
X166333706Y-117408886D01*
X166358579Y-117378579D01*
X166388886Y-117353706D01*
X166423463Y-117335224D01*
X166460982Y-117323843D01*
X166500000Y-117320000D01*
X168900000Y-117320000D01*
X168939018Y-117323843D01*
X168976537Y-117335224D01*
X169011114Y-117353706D01*
X169041421Y-117378579D01*
X169066294Y-117408886D01*
X169084776Y-117443463D01*
X169096157Y-117480982D01*
X169100000Y-117520000D01*
X169100000Y-119920000D01*
X169096157Y-119959018D01*
X169084776Y-119996537D01*
X169066294Y-120031114D01*
X169041421Y-120061421D01*
X169011114Y-120086294D01*
X168976537Y-120104776D01*
X168939018Y-120116157D01*
X168900000Y-120120000D01*
X166950000Y-120120000D01*
X166910982Y-120116157D01*
G37*
D25*
X165760000Y-121260000D03*
X159410000Y-118720000D03*
X158140000Y-121260000D03*
X164490000Y-118720000D03*
D26*
X167030000Y-123800000D03*
X156870000Y-123800000D03*
D27*
X161950000Y-123800000D03*
D28*
X135997700Y-122288300D03*
D19*
G36*
X147858682Y-121144457D02*
G01*
X147821163Y-121133076D01*
X147786760Y-121114710D01*
X147336760Y-120814710D01*
X147306427Y-120789869D01*
X147281522Y-120759588D01*
X147263004Y-120725030D01*
X147251584Y-120687523D01*
X147247700Y-120648300D01*
X147247700Y-118548300D01*
X147251543Y-118509282D01*
X147262924Y-118471763D01*
X147281406Y-118437186D01*
X147306279Y-118406879D01*
X147336586Y-118382006D01*
X147371163Y-118363524D01*
X147408682Y-118352143D01*
X147447700Y-118348300D01*
X149847700Y-118348300D01*
X149886718Y-118352143D01*
X149924237Y-118363524D01*
X149958814Y-118382006D01*
X149989121Y-118406879D01*
X150013994Y-118437186D01*
X150032476Y-118471763D01*
X150043857Y-118509282D01*
X150047700Y-118548300D01*
X150047700Y-120948300D01*
X150043857Y-120987318D01*
X150032476Y-121024837D01*
X150013994Y-121059414D01*
X149989121Y-121089721D01*
X149958814Y-121114594D01*
X149924237Y-121133076D01*
X149886718Y-121144457D01*
X149847700Y-121148300D01*
X147897700Y-121148300D01*
X147858682Y-121144457D01*
G37*
D25*
X146707700Y-122288300D03*
X140357700Y-119748300D03*
X139087700Y-122288300D03*
X145437700Y-119748300D03*
D26*
X147977700Y-124828300D03*
X137817700Y-124828300D03*
D27*
X142897700Y-124828300D03*
D28*
X116950000Y-123660000D03*
D19*
G36*
X128810982Y-122516157D02*
G01*
X128773463Y-122504776D01*
X128739060Y-122486410D01*
X128289060Y-122186410D01*
X128258727Y-122161569D01*
X128233822Y-122131288D01*
X128215304Y-122096730D01*
X128203884Y-122059223D01*
X128200000Y-122020000D01*
X128200000Y-119920000D01*
X128203843Y-119880982D01*
X128215224Y-119843463D01*
X128233706Y-119808886D01*
X128258579Y-119778579D01*
X128288886Y-119753706D01*
X128323463Y-119735224D01*
X128360982Y-119723843D01*
X128400000Y-119720000D01*
X130800000Y-119720000D01*
X130839018Y-119723843D01*
X130876537Y-119735224D01*
X130911114Y-119753706D01*
X130941421Y-119778579D01*
X130966294Y-119808886D01*
X130984776Y-119843463D01*
X130996157Y-119880982D01*
X131000000Y-119920000D01*
X131000000Y-122320000D01*
X130996157Y-122359018D01*
X130984776Y-122396537D01*
X130966294Y-122431114D01*
X130941421Y-122461421D01*
X130911114Y-122486294D01*
X130876537Y-122504776D01*
X130839018Y-122516157D01*
X130800000Y-122520000D01*
X128850000Y-122520000D01*
X128810982Y-122516157D01*
G37*
D25*
X127660000Y-123660000D03*
X121310000Y-121120000D03*
X120040000Y-123660000D03*
X126390000Y-121120000D03*
D26*
X128930000Y-126200000D03*
X118770000Y-126200000D03*
D27*
X123850000Y-126200000D03*
D28*
X83574800Y-95745300D03*
D19*
G36*
X95435782Y-94601457D02*
G01*
X95398263Y-94590076D01*
X95363860Y-94571710D01*
X94913860Y-94271710D01*
X94883527Y-94246869D01*
X94858622Y-94216588D01*
X94840104Y-94182030D01*
X94828684Y-94144523D01*
X94824800Y-94105300D01*
X94824800Y-92005300D01*
X94828643Y-91966282D01*
X94840024Y-91928763D01*
X94858506Y-91894186D01*
X94883379Y-91863879D01*
X94913686Y-91839006D01*
X94948263Y-91820524D01*
X94985782Y-91809143D01*
X95024800Y-91805300D01*
X97424800Y-91805300D01*
X97463818Y-91809143D01*
X97501337Y-91820524D01*
X97535914Y-91839006D01*
X97566221Y-91863879D01*
X97591094Y-91894186D01*
X97609576Y-91928763D01*
X97620957Y-91966282D01*
X97624800Y-92005300D01*
X97624800Y-94405300D01*
X97620957Y-94444318D01*
X97609576Y-94481837D01*
X97591094Y-94516414D01*
X97566221Y-94546721D01*
X97535914Y-94571594D01*
X97501337Y-94590076D01*
X97463818Y-94601457D01*
X97424800Y-94605300D01*
X95474800Y-94605300D01*
X95435782Y-94601457D01*
G37*
D25*
X94284800Y-95745300D03*
X87934800Y-93205300D03*
X86664800Y-95745300D03*
X93014800Y-93205300D03*
D26*
X95554800Y-98285300D03*
X85394800Y-98285300D03*
D27*
X90474800Y-98285300D03*
D28*
X202750000Y-108510000D03*
D19*
G36*
X214610982Y-107366157D02*
G01*
X214573463Y-107354776D01*
X214539060Y-107336410D01*
X214089060Y-107036410D01*
X214058727Y-107011569D01*
X214033822Y-106981288D01*
X214015304Y-106946730D01*
X214003884Y-106909223D01*
X214000000Y-106870000D01*
X214000000Y-104770000D01*
X214003843Y-104730982D01*
X214015224Y-104693463D01*
X214033706Y-104658886D01*
X214058579Y-104628579D01*
X214088886Y-104603706D01*
X214123463Y-104585224D01*
X214160982Y-104573843D01*
X214200000Y-104570000D01*
X216600000Y-104570000D01*
X216639018Y-104573843D01*
X216676537Y-104585224D01*
X216711114Y-104603706D01*
X216741421Y-104628579D01*
X216766294Y-104658886D01*
X216784776Y-104693463D01*
X216796157Y-104730982D01*
X216800000Y-104770000D01*
X216800000Y-107170000D01*
X216796157Y-107209018D01*
X216784776Y-107246537D01*
X216766294Y-107281114D01*
X216741421Y-107311421D01*
X216711114Y-107336294D01*
X216676537Y-107354776D01*
X216639018Y-107366157D01*
X216600000Y-107370000D01*
X214650000Y-107370000D01*
X214610982Y-107366157D01*
G37*
D25*
X213460000Y-108510000D03*
X207110000Y-105970000D03*
X205840000Y-108510000D03*
X212190000Y-105970000D03*
D26*
X214730000Y-111050000D03*
X204570000Y-111050000D03*
D27*
X209650000Y-111050000D03*
D28*
X183700000Y-107010000D03*
D19*
G36*
X195560982Y-105866157D02*
G01*
X195523463Y-105854776D01*
X195489060Y-105836410D01*
X195039060Y-105536410D01*
X195008727Y-105511569D01*
X194983822Y-105481288D01*
X194965304Y-105446730D01*
X194953884Y-105409223D01*
X194950000Y-105370000D01*
X194950000Y-103270000D01*
X194953843Y-103230982D01*
X194965224Y-103193463D01*
X194983706Y-103158886D01*
X195008579Y-103128579D01*
X195038886Y-103103706D01*
X195073463Y-103085224D01*
X195110982Y-103073843D01*
X195150000Y-103070000D01*
X197550000Y-103070000D01*
X197589018Y-103073843D01*
X197626537Y-103085224D01*
X197661114Y-103103706D01*
X197691421Y-103128579D01*
X197716294Y-103158886D01*
X197734776Y-103193463D01*
X197746157Y-103230982D01*
X197750000Y-103270000D01*
X197750000Y-105670000D01*
X197746157Y-105709018D01*
X197734776Y-105746537D01*
X197716294Y-105781114D01*
X197691421Y-105811421D01*
X197661114Y-105836294D01*
X197626537Y-105854776D01*
X197589018Y-105866157D01*
X197550000Y-105870000D01*
X195600000Y-105870000D01*
X195560982Y-105866157D01*
G37*
D25*
X194410000Y-107010000D03*
X188060000Y-104470000D03*
X186790000Y-107010000D03*
X193140000Y-104470000D03*
D26*
X195680000Y-109550000D03*
X185520000Y-109550000D03*
D27*
X190600000Y-109550000D03*
D28*
X164650000Y-102210000D03*
D19*
G36*
X176510982Y-101066157D02*
G01*
X176473463Y-101054776D01*
X176439060Y-101036410D01*
X175989060Y-100736410D01*
X175958727Y-100711569D01*
X175933822Y-100681288D01*
X175915304Y-100646730D01*
X175903884Y-100609223D01*
X175900000Y-100570000D01*
X175900000Y-98470000D01*
X175903843Y-98430982D01*
X175915224Y-98393463D01*
X175933706Y-98358886D01*
X175958579Y-98328579D01*
X175988886Y-98303706D01*
X176023463Y-98285224D01*
X176060982Y-98273843D01*
X176100000Y-98270000D01*
X178500000Y-98270000D01*
X178539018Y-98273843D01*
X178576537Y-98285224D01*
X178611114Y-98303706D01*
X178641421Y-98328579D01*
X178666294Y-98358886D01*
X178684776Y-98393463D01*
X178696157Y-98430982D01*
X178700000Y-98470000D01*
X178700000Y-100870000D01*
X178696157Y-100909018D01*
X178684776Y-100946537D01*
X178666294Y-100981114D01*
X178641421Y-101011421D01*
X178611114Y-101036294D01*
X178576537Y-101054776D01*
X178539018Y-101066157D01*
X178500000Y-101070000D01*
X176550000Y-101070000D01*
X176510982Y-101066157D01*
G37*
D25*
X175360000Y-102210000D03*
X169010000Y-99670000D03*
X167740000Y-102210000D03*
X174090000Y-99670000D03*
D26*
X176630000Y-104750000D03*
X166470000Y-104750000D03*
D27*
X171550000Y-104750000D03*
D28*
X145600000Y-100820000D03*
D19*
G36*
X157460982Y-99676157D02*
G01*
X157423463Y-99664776D01*
X157389060Y-99646410D01*
X156939060Y-99346410D01*
X156908727Y-99321569D01*
X156883822Y-99291288D01*
X156865304Y-99256730D01*
X156853884Y-99219223D01*
X156850000Y-99180000D01*
X156850000Y-97080000D01*
X156853843Y-97040982D01*
X156865224Y-97003463D01*
X156883706Y-96968886D01*
X156908579Y-96938579D01*
X156938886Y-96913706D01*
X156973463Y-96895224D01*
X157010982Y-96883843D01*
X157050000Y-96880000D01*
X159450000Y-96880000D01*
X159489018Y-96883843D01*
X159526537Y-96895224D01*
X159561114Y-96913706D01*
X159591421Y-96938579D01*
X159616294Y-96968886D01*
X159634776Y-97003463D01*
X159646157Y-97040982D01*
X159650000Y-97080000D01*
X159650000Y-99480000D01*
X159646157Y-99519018D01*
X159634776Y-99556537D01*
X159616294Y-99591114D01*
X159591421Y-99621421D01*
X159561114Y-99646294D01*
X159526537Y-99664776D01*
X159489018Y-99676157D01*
X159450000Y-99680000D01*
X157500000Y-99680000D01*
X157460982Y-99676157D01*
G37*
D25*
X156310000Y-100820000D03*
X149960000Y-98280000D03*
X148690000Y-100820000D03*
X155040000Y-98280000D03*
D26*
X157580000Y-103360000D03*
X147420000Y-103360000D03*
D27*
X152500000Y-103360000D03*
D28*
X126550000Y-102210000D03*
D19*
G36*
X138410982Y-101066157D02*
G01*
X138373463Y-101054776D01*
X138339060Y-101036410D01*
X137889060Y-100736410D01*
X137858727Y-100711569D01*
X137833822Y-100681288D01*
X137815304Y-100646730D01*
X137803884Y-100609223D01*
X137800000Y-100570000D01*
X137800000Y-98470000D01*
X137803843Y-98430982D01*
X137815224Y-98393463D01*
X137833706Y-98358886D01*
X137858579Y-98328579D01*
X137888886Y-98303706D01*
X137923463Y-98285224D01*
X137960982Y-98273843D01*
X138000000Y-98270000D01*
X140400000Y-98270000D01*
X140439018Y-98273843D01*
X140476537Y-98285224D01*
X140511114Y-98303706D01*
X140541421Y-98328579D01*
X140566294Y-98358886D01*
X140584776Y-98393463D01*
X140596157Y-98430982D01*
X140600000Y-98470000D01*
X140600000Y-100870000D01*
X140596157Y-100909018D01*
X140584776Y-100946537D01*
X140566294Y-100981114D01*
X140541421Y-101011421D01*
X140511114Y-101036294D01*
X140476537Y-101054776D01*
X140439018Y-101066157D01*
X140400000Y-101070000D01*
X138450000Y-101070000D01*
X138410982Y-101066157D01*
G37*
D25*
X137260000Y-102210000D03*
X130910000Y-99670000D03*
X129640000Y-102210000D03*
X135990000Y-99670000D03*
D26*
X138530000Y-104750000D03*
X128370000Y-104750000D03*
D27*
X133450000Y-104750000D03*
D28*
X107500000Y-104610000D03*
D19*
G36*
X119360982Y-103466157D02*
G01*
X119323463Y-103454776D01*
X119289060Y-103436410D01*
X118839060Y-103136410D01*
X118808727Y-103111569D01*
X118783822Y-103081288D01*
X118765304Y-103046730D01*
X118753884Y-103009223D01*
X118750000Y-102970000D01*
X118750000Y-100870000D01*
X118753843Y-100830982D01*
X118765224Y-100793463D01*
X118783706Y-100758886D01*
X118808579Y-100728579D01*
X118838886Y-100703706D01*
X118873463Y-100685224D01*
X118910982Y-100673843D01*
X118950000Y-100670000D01*
X121350000Y-100670000D01*
X121389018Y-100673843D01*
X121426537Y-100685224D01*
X121461114Y-100703706D01*
X121491421Y-100728579D01*
X121516294Y-100758886D01*
X121534776Y-100793463D01*
X121546157Y-100830982D01*
X121550000Y-100870000D01*
X121550000Y-103270000D01*
X121546157Y-103309018D01*
X121534776Y-103346537D01*
X121516294Y-103381114D01*
X121491421Y-103411421D01*
X121461114Y-103436294D01*
X121426537Y-103454776D01*
X121389018Y-103466157D01*
X121350000Y-103470000D01*
X119400000Y-103470000D01*
X119360982Y-103466157D01*
G37*
D25*
X118210000Y-104610000D03*
X111860000Y-102070000D03*
X110590000Y-104610000D03*
X116940000Y-102070000D03*
D26*
X119480000Y-107150000D03*
X109320000Y-107150000D03*
D27*
X114400000Y-107150000D03*
D28*
X202750000Y-89460000D03*
D19*
G36*
X214610982Y-88316157D02*
G01*
X214573463Y-88304776D01*
X214539060Y-88286410D01*
X214089060Y-87986410D01*
X214058727Y-87961569D01*
X214033822Y-87931288D01*
X214015304Y-87896730D01*
X214003884Y-87859223D01*
X214000000Y-87820000D01*
X214000000Y-85720000D01*
X214003843Y-85680982D01*
X214015224Y-85643463D01*
X214033706Y-85608886D01*
X214058579Y-85578579D01*
X214088886Y-85553706D01*
X214123463Y-85535224D01*
X214160982Y-85523843D01*
X214200000Y-85520000D01*
X216600000Y-85520000D01*
X216639018Y-85523843D01*
X216676537Y-85535224D01*
X216711114Y-85553706D01*
X216741421Y-85578579D01*
X216766294Y-85608886D01*
X216784776Y-85643463D01*
X216796157Y-85680982D01*
X216800000Y-85720000D01*
X216800000Y-88120000D01*
X216796157Y-88159018D01*
X216784776Y-88196537D01*
X216766294Y-88231114D01*
X216741421Y-88261421D01*
X216711114Y-88286294D01*
X216676537Y-88304776D01*
X216639018Y-88316157D01*
X216600000Y-88320000D01*
X214650000Y-88320000D01*
X214610982Y-88316157D01*
G37*
D25*
X213460000Y-89460000D03*
X207110000Y-86920000D03*
X205840000Y-89460000D03*
X212190000Y-86920000D03*
D26*
X214730000Y-92000000D03*
X204570000Y-92000000D03*
D27*
X209650000Y-92000000D03*
D28*
X183700000Y-87960000D03*
D19*
G36*
X195560982Y-86816157D02*
G01*
X195523463Y-86804776D01*
X195489060Y-86786410D01*
X195039060Y-86486410D01*
X195008727Y-86461569D01*
X194983822Y-86431288D01*
X194965304Y-86396730D01*
X194953884Y-86359223D01*
X194950000Y-86320000D01*
X194950000Y-84220000D01*
X194953843Y-84180982D01*
X194965224Y-84143463D01*
X194983706Y-84108886D01*
X195008579Y-84078579D01*
X195038886Y-84053706D01*
X195073463Y-84035224D01*
X195110982Y-84023843D01*
X195150000Y-84020000D01*
X197550000Y-84020000D01*
X197589018Y-84023843D01*
X197626537Y-84035224D01*
X197661114Y-84053706D01*
X197691421Y-84078579D01*
X197716294Y-84108886D01*
X197734776Y-84143463D01*
X197746157Y-84180982D01*
X197750000Y-84220000D01*
X197750000Y-86620000D01*
X197746157Y-86659018D01*
X197734776Y-86696537D01*
X197716294Y-86731114D01*
X197691421Y-86761421D01*
X197661114Y-86786294D01*
X197626537Y-86804776D01*
X197589018Y-86816157D01*
X197550000Y-86820000D01*
X195600000Y-86820000D01*
X195560982Y-86816157D01*
G37*
D25*
X194410000Y-87960000D03*
X188060000Y-85420000D03*
X186790000Y-87960000D03*
X193140000Y-85420000D03*
D26*
X195680000Y-90500000D03*
X185520000Y-90500000D03*
D27*
X190600000Y-90500000D03*
D28*
X164650000Y-83160000D03*
D19*
G36*
X176510982Y-82016157D02*
G01*
X176473463Y-82004776D01*
X176439060Y-81986410D01*
X175989060Y-81686410D01*
X175958727Y-81661569D01*
X175933822Y-81631288D01*
X175915304Y-81596730D01*
X175903884Y-81559223D01*
X175900000Y-81520000D01*
X175900000Y-79420000D01*
X175903843Y-79380982D01*
X175915224Y-79343463D01*
X175933706Y-79308886D01*
X175958579Y-79278579D01*
X175988886Y-79253706D01*
X176023463Y-79235224D01*
X176060982Y-79223843D01*
X176100000Y-79220000D01*
X178500000Y-79220000D01*
X178539018Y-79223843D01*
X178576537Y-79235224D01*
X178611114Y-79253706D01*
X178641421Y-79278579D01*
X178666294Y-79308886D01*
X178684776Y-79343463D01*
X178696157Y-79380982D01*
X178700000Y-79420000D01*
X178700000Y-81820000D01*
X178696157Y-81859018D01*
X178684776Y-81896537D01*
X178666294Y-81931114D01*
X178641421Y-81961421D01*
X178611114Y-81986294D01*
X178576537Y-82004776D01*
X178539018Y-82016157D01*
X178500000Y-82020000D01*
X176550000Y-82020000D01*
X176510982Y-82016157D01*
G37*
D25*
X175360000Y-83160000D03*
X169010000Y-80620000D03*
X167740000Y-83160000D03*
X174090000Y-80620000D03*
D26*
X176630000Y-85700000D03*
X166470000Y-85700000D03*
D27*
X171550000Y-85700000D03*
D28*
X145600000Y-81770000D03*
D19*
G36*
X157460982Y-80626157D02*
G01*
X157423463Y-80614776D01*
X157389060Y-80596410D01*
X156939060Y-80296410D01*
X156908727Y-80271569D01*
X156883822Y-80241288D01*
X156865304Y-80206730D01*
X156853884Y-80169223D01*
X156850000Y-80130000D01*
X156850000Y-78030000D01*
X156853843Y-77990982D01*
X156865224Y-77953463D01*
X156883706Y-77918886D01*
X156908579Y-77888579D01*
X156938886Y-77863706D01*
X156973463Y-77845224D01*
X157010982Y-77833843D01*
X157050000Y-77830000D01*
X159450000Y-77830000D01*
X159489018Y-77833843D01*
X159526537Y-77845224D01*
X159561114Y-77863706D01*
X159591421Y-77888579D01*
X159616294Y-77918886D01*
X159634776Y-77953463D01*
X159646157Y-77990982D01*
X159650000Y-78030000D01*
X159650000Y-80430000D01*
X159646157Y-80469018D01*
X159634776Y-80506537D01*
X159616294Y-80541114D01*
X159591421Y-80571421D01*
X159561114Y-80596294D01*
X159526537Y-80614776D01*
X159489018Y-80626157D01*
X159450000Y-80630000D01*
X157500000Y-80630000D01*
X157460982Y-80626157D01*
G37*
D25*
X156310000Y-81770000D03*
X149960000Y-79230000D03*
X148690000Y-81770000D03*
X155040000Y-79230000D03*
D26*
X157580000Y-84310000D03*
X147420000Y-84310000D03*
D27*
X152500000Y-84310000D03*
D28*
X126550000Y-83160000D03*
D19*
G36*
X138410982Y-82016157D02*
G01*
X138373463Y-82004776D01*
X138339060Y-81986410D01*
X137889060Y-81686410D01*
X137858727Y-81661569D01*
X137833822Y-81631288D01*
X137815304Y-81596730D01*
X137803884Y-81559223D01*
X137800000Y-81520000D01*
X137800000Y-79420000D01*
X137803843Y-79380982D01*
X137815224Y-79343463D01*
X137833706Y-79308886D01*
X137858579Y-79278579D01*
X137888886Y-79253706D01*
X137923463Y-79235224D01*
X137960982Y-79223843D01*
X138000000Y-79220000D01*
X140400000Y-79220000D01*
X140439018Y-79223843D01*
X140476537Y-79235224D01*
X140511114Y-79253706D01*
X140541421Y-79278579D01*
X140566294Y-79308886D01*
X140584776Y-79343463D01*
X140596157Y-79380982D01*
X140600000Y-79420000D01*
X140600000Y-81820000D01*
X140596157Y-81859018D01*
X140584776Y-81896537D01*
X140566294Y-81931114D01*
X140541421Y-81961421D01*
X140511114Y-81986294D01*
X140476537Y-82004776D01*
X140439018Y-82016157D01*
X140400000Y-82020000D01*
X138450000Y-82020000D01*
X138410982Y-82016157D01*
G37*
D25*
X137260000Y-83160000D03*
X130910000Y-80620000D03*
X129640000Y-83160000D03*
X135990000Y-80620000D03*
D26*
X138530000Y-85700000D03*
X128370000Y-85700000D03*
D27*
X133450000Y-85700000D03*
D28*
X107500000Y-85560000D03*
D19*
G36*
X119360982Y-84416157D02*
G01*
X119323463Y-84404776D01*
X119289060Y-84386410D01*
X118839060Y-84086410D01*
X118808727Y-84061569D01*
X118783822Y-84031288D01*
X118765304Y-83996730D01*
X118753884Y-83959223D01*
X118750000Y-83920000D01*
X118750000Y-81820000D01*
X118753843Y-81780982D01*
X118765224Y-81743463D01*
X118783706Y-81708886D01*
X118808579Y-81678579D01*
X118838886Y-81653706D01*
X118873463Y-81635224D01*
X118910982Y-81623843D01*
X118950000Y-81620000D01*
X121350000Y-81620000D01*
X121389018Y-81623843D01*
X121426537Y-81635224D01*
X121461114Y-81653706D01*
X121491421Y-81678579D01*
X121516294Y-81708886D01*
X121534776Y-81743463D01*
X121546157Y-81780982D01*
X121550000Y-81820000D01*
X121550000Y-84220000D01*
X121546157Y-84259018D01*
X121534776Y-84296537D01*
X121516294Y-84331114D01*
X121491421Y-84361421D01*
X121461114Y-84386294D01*
X121426537Y-84404776D01*
X121389018Y-84416157D01*
X121350000Y-84420000D01*
X119400000Y-84420000D01*
X119360982Y-84416157D01*
G37*
D25*
X118210000Y-85560000D03*
X111860000Y-83020000D03*
X110590000Y-85560000D03*
X116940000Y-83020000D03*
D26*
X119480000Y-88100000D03*
X109320000Y-88100000D03*
D27*
X114400000Y-88100000D03*
D28*
X202750000Y-70410000D03*
D19*
G36*
X214610982Y-69266157D02*
G01*
X214573463Y-69254776D01*
X214539060Y-69236410D01*
X214089060Y-68936410D01*
X214058727Y-68911569D01*
X214033822Y-68881288D01*
X214015304Y-68846730D01*
X214003884Y-68809223D01*
X214000000Y-68770000D01*
X214000000Y-66670000D01*
X214003843Y-66630982D01*
X214015224Y-66593463D01*
X214033706Y-66558886D01*
X214058579Y-66528579D01*
X214088886Y-66503706D01*
X214123463Y-66485224D01*
X214160982Y-66473843D01*
X214200000Y-66470000D01*
X216600000Y-66470000D01*
X216639018Y-66473843D01*
X216676537Y-66485224D01*
X216711114Y-66503706D01*
X216741421Y-66528579D01*
X216766294Y-66558886D01*
X216784776Y-66593463D01*
X216796157Y-66630982D01*
X216800000Y-66670000D01*
X216800000Y-69070000D01*
X216796157Y-69109018D01*
X216784776Y-69146537D01*
X216766294Y-69181114D01*
X216741421Y-69211421D01*
X216711114Y-69236294D01*
X216676537Y-69254776D01*
X216639018Y-69266157D01*
X216600000Y-69270000D01*
X214650000Y-69270000D01*
X214610982Y-69266157D01*
G37*
D25*
X213460000Y-70410000D03*
X207110000Y-67870000D03*
X205840000Y-70410000D03*
X212190000Y-67870000D03*
D26*
X214730000Y-72950000D03*
X204570000Y-72950000D03*
D27*
X209650000Y-72950000D03*
D28*
X183700000Y-68910000D03*
D19*
G36*
X195560982Y-67766157D02*
G01*
X195523463Y-67754776D01*
X195489060Y-67736410D01*
X195039060Y-67436410D01*
X195008727Y-67411569D01*
X194983822Y-67381288D01*
X194965304Y-67346730D01*
X194953884Y-67309223D01*
X194950000Y-67270000D01*
X194950000Y-65170000D01*
X194953843Y-65130982D01*
X194965224Y-65093463D01*
X194983706Y-65058886D01*
X195008579Y-65028579D01*
X195038886Y-65003706D01*
X195073463Y-64985224D01*
X195110982Y-64973843D01*
X195150000Y-64970000D01*
X197550000Y-64970000D01*
X197589018Y-64973843D01*
X197626537Y-64985224D01*
X197661114Y-65003706D01*
X197691421Y-65028579D01*
X197716294Y-65058886D01*
X197734776Y-65093463D01*
X197746157Y-65130982D01*
X197750000Y-65170000D01*
X197750000Y-67570000D01*
X197746157Y-67609018D01*
X197734776Y-67646537D01*
X197716294Y-67681114D01*
X197691421Y-67711421D01*
X197661114Y-67736294D01*
X197626537Y-67754776D01*
X197589018Y-67766157D01*
X197550000Y-67770000D01*
X195600000Y-67770000D01*
X195560982Y-67766157D01*
G37*
D25*
X194410000Y-68910000D03*
X188060000Y-66370000D03*
X186790000Y-68910000D03*
X193140000Y-66370000D03*
D26*
X195680000Y-71450000D03*
X185520000Y-71450000D03*
D27*
X190600000Y-71450000D03*
D28*
X164650000Y-64110000D03*
D19*
G36*
X176510982Y-62966157D02*
G01*
X176473463Y-62954776D01*
X176439060Y-62936410D01*
X175989060Y-62636410D01*
X175958727Y-62611569D01*
X175933822Y-62581288D01*
X175915304Y-62546730D01*
X175903884Y-62509223D01*
X175900000Y-62470000D01*
X175900000Y-60370000D01*
X175903843Y-60330982D01*
X175915224Y-60293463D01*
X175933706Y-60258886D01*
X175958579Y-60228579D01*
X175988886Y-60203706D01*
X176023463Y-60185224D01*
X176060982Y-60173843D01*
X176100000Y-60170000D01*
X178500000Y-60170000D01*
X178539018Y-60173843D01*
X178576537Y-60185224D01*
X178611114Y-60203706D01*
X178641421Y-60228579D01*
X178666294Y-60258886D01*
X178684776Y-60293463D01*
X178696157Y-60330982D01*
X178700000Y-60370000D01*
X178700000Y-62770000D01*
X178696157Y-62809018D01*
X178684776Y-62846537D01*
X178666294Y-62881114D01*
X178641421Y-62911421D01*
X178611114Y-62936294D01*
X178576537Y-62954776D01*
X178539018Y-62966157D01*
X178500000Y-62970000D01*
X176550000Y-62970000D01*
X176510982Y-62966157D01*
G37*
D25*
X175360000Y-64110000D03*
X169010000Y-61570000D03*
X167740000Y-64110000D03*
X174090000Y-61570000D03*
D26*
X176630000Y-66650000D03*
X166470000Y-66650000D03*
D27*
X171550000Y-66650000D03*
D28*
X145600000Y-62720000D03*
D19*
G36*
X157460982Y-61576157D02*
G01*
X157423463Y-61564776D01*
X157389060Y-61546410D01*
X156939060Y-61246410D01*
X156908727Y-61221569D01*
X156883822Y-61191288D01*
X156865304Y-61156730D01*
X156853884Y-61119223D01*
X156850000Y-61080000D01*
X156850000Y-58980000D01*
X156853843Y-58940982D01*
X156865224Y-58903463D01*
X156883706Y-58868886D01*
X156908579Y-58838579D01*
X156938886Y-58813706D01*
X156973463Y-58795224D01*
X157010982Y-58783843D01*
X157050000Y-58780000D01*
X159450000Y-58780000D01*
X159489018Y-58783843D01*
X159526537Y-58795224D01*
X159561114Y-58813706D01*
X159591421Y-58838579D01*
X159616294Y-58868886D01*
X159634776Y-58903463D01*
X159646157Y-58940982D01*
X159650000Y-58980000D01*
X159650000Y-61380000D01*
X159646157Y-61419018D01*
X159634776Y-61456537D01*
X159616294Y-61491114D01*
X159591421Y-61521421D01*
X159561114Y-61546294D01*
X159526537Y-61564776D01*
X159489018Y-61576157D01*
X159450000Y-61580000D01*
X157500000Y-61580000D01*
X157460982Y-61576157D01*
G37*
D25*
X156310000Y-62720000D03*
X149960000Y-60180000D03*
X148690000Y-62720000D03*
X155040000Y-60180000D03*
D26*
X157580000Y-65260000D03*
X147420000Y-65260000D03*
D27*
X152500000Y-65260000D03*
D28*
X126550000Y-64110000D03*
D19*
G36*
X138410982Y-62966157D02*
G01*
X138373463Y-62954776D01*
X138339060Y-62936410D01*
X137889060Y-62636410D01*
X137858727Y-62611569D01*
X137833822Y-62581288D01*
X137815304Y-62546730D01*
X137803884Y-62509223D01*
X137800000Y-62470000D01*
X137800000Y-60370000D01*
X137803843Y-60330982D01*
X137815224Y-60293463D01*
X137833706Y-60258886D01*
X137858579Y-60228579D01*
X137888886Y-60203706D01*
X137923463Y-60185224D01*
X137960982Y-60173843D01*
X138000000Y-60170000D01*
X140400000Y-60170000D01*
X140439018Y-60173843D01*
X140476537Y-60185224D01*
X140511114Y-60203706D01*
X140541421Y-60228579D01*
X140566294Y-60258886D01*
X140584776Y-60293463D01*
X140596157Y-60330982D01*
X140600000Y-60370000D01*
X140600000Y-62770000D01*
X140596157Y-62809018D01*
X140584776Y-62846537D01*
X140566294Y-62881114D01*
X140541421Y-62911421D01*
X140511114Y-62936294D01*
X140476537Y-62954776D01*
X140439018Y-62966157D01*
X140400000Y-62970000D01*
X138450000Y-62970000D01*
X138410982Y-62966157D01*
G37*
D25*
X137260000Y-64110000D03*
X130910000Y-61570000D03*
X129640000Y-64110000D03*
X135990000Y-61570000D03*
D26*
X138530000Y-66650000D03*
X128370000Y-66650000D03*
D27*
X133450000Y-66650000D03*
D28*
X107500000Y-66510000D03*
D19*
G36*
X119360982Y-65366157D02*
G01*
X119323463Y-65354776D01*
X119289060Y-65336410D01*
X118839060Y-65036410D01*
X118808727Y-65011569D01*
X118783822Y-64981288D01*
X118765304Y-64946730D01*
X118753884Y-64909223D01*
X118750000Y-64870000D01*
X118750000Y-62770000D01*
X118753843Y-62730982D01*
X118765224Y-62693463D01*
X118783706Y-62658886D01*
X118808579Y-62628579D01*
X118838886Y-62603706D01*
X118873463Y-62585224D01*
X118910982Y-62573843D01*
X118950000Y-62570000D01*
X121350000Y-62570000D01*
X121389018Y-62573843D01*
X121426537Y-62585224D01*
X121461114Y-62603706D01*
X121491421Y-62628579D01*
X121516294Y-62658886D01*
X121534776Y-62693463D01*
X121546157Y-62730982D01*
X121550000Y-62770000D01*
X121550000Y-65170000D01*
X121546157Y-65209018D01*
X121534776Y-65246537D01*
X121516294Y-65281114D01*
X121491421Y-65311421D01*
X121461114Y-65336294D01*
X121426537Y-65354776D01*
X121389018Y-65366157D01*
X121350000Y-65370000D01*
X119400000Y-65370000D01*
X119360982Y-65366157D01*
G37*
D25*
X118210000Y-66510000D03*
X111860000Y-63970000D03*
X110590000Y-66510000D03*
X116940000Y-63970000D03*
D26*
X119480000Y-69050000D03*
X109320000Y-69050000D03*
D27*
X114400000Y-69050000D03*
D28*
X202750000Y-51360000D03*
D19*
G36*
X214610982Y-50216157D02*
G01*
X214573463Y-50204776D01*
X214539060Y-50186410D01*
X214089060Y-49886410D01*
X214058727Y-49861569D01*
X214033822Y-49831288D01*
X214015304Y-49796730D01*
X214003884Y-49759223D01*
X214000000Y-49720000D01*
X214000000Y-47620000D01*
X214003843Y-47580982D01*
X214015224Y-47543463D01*
X214033706Y-47508886D01*
X214058579Y-47478579D01*
X214088886Y-47453706D01*
X214123463Y-47435224D01*
X214160982Y-47423843D01*
X214200000Y-47420000D01*
X216600000Y-47420000D01*
X216639018Y-47423843D01*
X216676537Y-47435224D01*
X216711114Y-47453706D01*
X216741421Y-47478579D01*
X216766294Y-47508886D01*
X216784776Y-47543463D01*
X216796157Y-47580982D01*
X216800000Y-47620000D01*
X216800000Y-50020000D01*
X216796157Y-50059018D01*
X216784776Y-50096537D01*
X216766294Y-50131114D01*
X216741421Y-50161421D01*
X216711114Y-50186294D01*
X216676537Y-50204776D01*
X216639018Y-50216157D01*
X216600000Y-50220000D01*
X214650000Y-50220000D01*
X214610982Y-50216157D01*
G37*
D25*
X213460000Y-51360000D03*
X207110000Y-48820000D03*
X205840000Y-51360000D03*
X212190000Y-48820000D03*
D26*
X214730000Y-53900000D03*
X204570000Y-53900000D03*
D27*
X209650000Y-53900000D03*
D28*
X183700000Y-49860000D03*
D19*
G36*
X195560982Y-48716157D02*
G01*
X195523463Y-48704776D01*
X195489060Y-48686410D01*
X195039060Y-48386410D01*
X195008727Y-48361569D01*
X194983822Y-48331288D01*
X194965304Y-48296730D01*
X194953884Y-48259223D01*
X194950000Y-48220000D01*
X194950000Y-46120000D01*
X194953843Y-46080982D01*
X194965224Y-46043463D01*
X194983706Y-46008886D01*
X195008579Y-45978579D01*
X195038886Y-45953706D01*
X195073463Y-45935224D01*
X195110982Y-45923843D01*
X195150000Y-45920000D01*
X197550000Y-45920000D01*
X197589018Y-45923843D01*
X197626537Y-45935224D01*
X197661114Y-45953706D01*
X197691421Y-45978579D01*
X197716294Y-46008886D01*
X197734776Y-46043463D01*
X197746157Y-46080982D01*
X197750000Y-46120000D01*
X197750000Y-48520000D01*
X197746157Y-48559018D01*
X197734776Y-48596537D01*
X197716294Y-48631114D01*
X197691421Y-48661421D01*
X197661114Y-48686294D01*
X197626537Y-48704776D01*
X197589018Y-48716157D01*
X197550000Y-48720000D01*
X195600000Y-48720000D01*
X195560982Y-48716157D01*
G37*
D25*
X194410000Y-49860000D03*
X188060000Y-47320000D03*
X186790000Y-49860000D03*
X193140000Y-47320000D03*
D26*
X195680000Y-52400000D03*
X185520000Y-52400000D03*
D27*
X190600000Y-52400000D03*
D28*
X164650000Y-45060000D03*
D19*
G36*
X176510982Y-43916157D02*
G01*
X176473463Y-43904776D01*
X176439060Y-43886410D01*
X175989060Y-43586410D01*
X175958727Y-43561569D01*
X175933822Y-43531288D01*
X175915304Y-43496730D01*
X175903884Y-43459223D01*
X175900000Y-43420000D01*
X175900000Y-41320000D01*
X175903843Y-41280982D01*
X175915224Y-41243463D01*
X175933706Y-41208886D01*
X175958579Y-41178579D01*
X175988886Y-41153706D01*
X176023463Y-41135224D01*
X176060982Y-41123843D01*
X176100000Y-41120000D01*
X178500000Y-41120000D01*
X178539018Y-41123843D01*
X178576537Y-41135224D01*
X178611114Y-41153706D01*
X178641421Y-41178579D01*
X178666294Y-41208886D01*
X178684776Y-41243463D01*
X178696157Y-41280982D01*
X178700000Y-41320000D01*
X178700000Y-43720000D01*
X178696157Y-43759018D01*
X178684776Y-43796537D01*
X178666294Y-43831114D01*
X178641421Y-43861421D01*
X178611114Y-43886294D01*
X178576537Y-43904776D01*
X178539018Y-43916157D01*
X178500000Y-43920000D01*
X176550000Y-43920000D01*
X176510982Y-43916157D01*
G37*
D25*
X175360000Y-45060000D03*
X169010000Y-42520000D03*
X167740000Y-45060000D03*
X174090000Y-42520000D03*
D26*
X176630000Y-47600000D03*
X166470000Y-47600000D03*
D27*
X171550000Y-47600000D03*
D28*
X145600000Y-43670000D03*
D19*
G36*
X157460982Y-42526157D02*
G01*
X157423463Y-42514776D01*
X157389060Y-42496410D01*
X156939060Y-42196410D01*
X156908727Y-42171569D01*
X156883822Y-42141288D01*
X156865304Y-42106730D01*
X156853884Y-42069223D01*
X156850000Y-42030000D01*
X156850000Y-39930000D01*
X156853843Y-39890982D01*
X156865224Y-39853463D01*
X156883706Y-39818886D01*
X156908579Y-39788579D01*
X156938886Y-39763706D01*
X156973463Y-39745224D01*
X157010982Y-39733843D01*
X157050000Y-39730000D01*
X159450000Y-39730000D01*
X159489018Y-39733843D01*
X159526537Y-39745224D01*
X159561114Y-39763706D01*
X159591421Y-39788579D01*
X159616294Y-39818886D01*
X159634776Y-39853463D01*
X159646157Y-39890982D01*
X159650000Y-39930000D01*
X159650000Y-42330000D01*
X159646157Y-42369018D01*
X159634776Y-42406537D01*
X159616294Y-42441114D01*
X159591421Y-42471421D01*
X159561114Y-42496294D01*
X159526537Y-42514776D01*
X159489018Y-42526157D01*
X159450000Y-42530000D01*
X157500000Y-42530000D01*
X157460982Y-42526157D01*
G37*
D25*
X156310000Y-43670000D03*
X149960000Y-41130000D03*
X148690000Y-43670000D03*
X155040000Y-41130000D03*
D26*
X157580000Y-46210000D03*
X147420000Y-46210000D03*
D27*
X152500000Y-46210000D03*
D28*
X126550000Y-45060000D03*
D19*
G36*
X138410982Y-43916157D02*
G01*
X138373463Y-43904776D01*
X138339060Y-43886410D01*
X137889060Y-43586410D01*
X137858727Y-43561569D01*
X137833822Y-43531288D01*
X137815304Y-43496730D01*
X137803884Y-43459223D01*
X137800000Y-43420000D01*
X137800000Y-41320000D01*
X137803843Y-41280982D01*
X137815224Y-41243463D01*
X137833706Y-41208886D01*
X137858579Y-41178579D01*
X137888886Y-41153706D01*
X137923463Y-41135224D01*
X137960982Y-41123843D01*
X138000000Y-41120000D01*
X140400000Y-41120000D01*
X140439018Y-41123843D01*
X140476537Y-41135224D01*
X140511114Y-41153706D01*
X140541421Y-41178579D01*
X140566294Y-41208886D01*
X140584776Y-41243463D01*
X140596157Y-41280982D01*
X140600000Y-41320000D01*
X140600000Y-43720000D01*
X140596157Y-43759018D01*
X140584776Y-43796537D01*
X140566294Y-43831114D01*
X140541421Y-43861421D01*
X140511114Y-43886294D01*
X140476537Y-43904776D01*
X140439018Y-43916157D01*
X140400000Y-43920000D01*
X138450000Y-43920000D01*
X138410982Y-43916157D01*
G37*
D25*
X137260000Y-45060000D03*
X130910000Y-42520000D03*
X129640000Y-45060000D03*
X135990000Y-42520000D03*
D26*
X138530000Y-47600000D03*
X128370000Y-47600000D03*
D27*
X133450000Y-47600000D03*
D28*
X107500000Y-47460000D03*
D19*
G36*
X119360982Y-46316157D02*
G01*
X119323463Y-46304776D01*
X119289060Y-46286410D01*
X118839060Y-45986410D01*
X118808727Y-45961569D01*
X118783822Y-45931288D01*
X118765304Y-45896730D01*
X118753884Y-45859223D01*
X118750000Y-45820000D01*
X118750000Y-43720000D01*
X118753843Y-43680982D01*
X118765224Y-43643463D01*
X118783706Y-43608886D01*
X118808579Y-43578579D01*
X118838886Y-43553706D01*
X118873463Y-43535224D01*
X118910982Y-43523843D01*
X118950000Y-43520000D01*
X121350000Y-43520000D01*
X121389018Y-43523843D01*
X121426537Y-43535224D01*
X121461114Y-43553706D01*
X121491421Y-43578579D01*
X121516294Y-43608886D01*
X121534776Y-43643463D01*
X121546157Y-43680982D01*
X121550000Y-43720000D01*
X121550000Y-46120000D01*
X121546157Y-46159018D01*
X121534776Y-46196537D01*
X121516294Y-46231114D01*
X121491421Y-46261421D01*
X121461114Y-46286294D01*
X121426537Y-46304776D01*
X121389018Y-46316157D01*
X121350000Y-46320000D01*
X119400000Y-46320000D01*
X119360982Y-46316157D01*
G37*
D25*
X118210000Y-47460000D03*
X111860000Y-44920000D03*
X110590000Y-47460000D03*
X116940000Y-44920000D03*
D26*
X119480000Y-50000000D03*
X109320000Y-50000000D03*
D27*
X114400000Y-50000000D03*
D19*
G36*
X114841157Y-38716018D02*
G01*
X114829776Y-38753537D01*
X114811294Y-38788114D01*
X114786421Y-38818421D01*
X114756114Y-38843294D01*
X114721537Y-38861776D01*
X114684018Y-38873157D01*
X114644998Y-38877000D01*
X114244994Y-38876996D01*
X114237144Y-38876842D01*
X114205761Y-38875609D01*
X114190109Y-38874377D01*
X114158919Y-38870686D01*
X114143408Y-38868230D01*
X114112603Y-38862103D01*
X114097331Y-38858436D01*
X114067103Y-38849911D01*
X114052172Y-38845060D01*
X114022705Y-38834190D01*
X114008190Y-38828178D01*
X113979668Y-38815029D01*
X113965677Y-38807900D01*
X113938273Y-38792553D01*
X113924882Y-38784347D01*
X113898768Y-38766898D01*
X113886065Y-38757669D01*
X113861400Y-38738225D01*
X113849462Y-38728029D01*
X113826398Y-38706710D01*
X113815286Y-38695598D01*
X113793967Y-38672534D01*
X113783771Y-38660596D01*
X113764327Y-38635931D01*
X113755098Y-38623228D01*
X113737649Y-38597114D01*
X113729443Y-38583723D01*
X113714096Y-38556319D01*
X113706967Y-38542328D01*
X113693818Y-38513806D01*
X113687806Y-38499291D01*
X113676936Y-38469824D01*
X113672085Y-38454893D01*
X113663560Y-38424665D01*
X113659893Y-38409393D01*
X113653766Y-38378588D01*
X113651310Y-38363077D01*
X113647619Y-38331887D01*
X113646387Y-38316235D01*
X113645154Y-38284852D01*
X113645000Y-38277000D01*
X113645000Y-38177002D01*
X113495000Y-38177002D01*
X113455982Y-38173159D01*
X113418463Y-38161778D01*
X113383886Y-38143296D01*
X113353579Y-38118423D01*
X113328706Y-38088116D01*
X113310224Y-38053539D01*
X113298843Y-38016020D01*
X113295000Y-37977002D01*
X113295000Y-37327001D01*
X113298843Y-37287983D01*
X113310224Y-37250464D01*
X113328706Y-37215887D01*
X113353579Y-37185580D01*
X113383886Y-37160707D01*
X113418463Y-37142225D01*
X113455982Y-37130844D01*
X113495000Y-37127001D01*
X114645000Y-37127001D01*
X114684018Y-37130844D01*
X114721537Y-37142225D01*
X114756114Y-37160707D01*
X114786421Y-37185580D01*
X114811294Y-37215887D01*
X114829776Y-37250464D01*
X114841157Y-37287983D01*
X114845000Y-37327001D01*
X114845000Y-38677000D01*
X114841157Y-38716018D01*
G37*
G36*
X111486957Y-38012419D02*
G01*
X111475576Y-38049938D01*
X111457094Y-38084515D01*
X111432221Y-38114822D01*
X111401914Y-38139695D01*
X111367337Y-38158177D01*
X111329818Y-38169558D01*
X111290800Y-38173401D01*
X111140800Y-38173401D01*
X111140800Y-38273399D01*
X111140646Y-38281250D01*
X111139413Y-38312634D01*
X111138181Y-38328287D01*
X111134490Y-38359477D01*
X111132033Y-38374989D01*
X111125906Y-38405793D01*
X111122240Y-38421064D01*
X111113715Y-38451292D01*
X111108862Y-38466229D01*
X111097991Y-38495696D01*
X111091985Y-38510197D01*
X111078837Y-38538720D01*
X111071703Y-38552722D01*
X111056356Y-38580125D01*
X111048151Y-38593513D01*
X111030702Y-38619627D01*
X111021473Y-38632330D01*
X111002029Y-38656995D01*
X110991830Y-38668937D01*
X110970510Y-38692001D01*
X110959404Y-38703106D01*
X110936341Y-38724425D01*
X110924403Y-38734621D01*
X110899738Y-38754066D01*
X110887029Y-38763300D01*
X110860914Y-38780749D01*
X110847524Y-38788954D01*
X110820121Y-38804300D01*
X110806129Y-38811429D01*
X110777606Y-38824578D01*
X110763094Y-38830589D01*
X110733627Y-38841459D01*
X110718696Y-38846310D01*
X110688468Y-38854835D01*
X110673197Y-38858501D01*
X110642393Y-38864628D01*
X110626881Y-38867085D01*
X110595691Y-38870776D01*
X110580038Y-38872008D01*
X110548654Y-38873241D01*
X110540805Y-38873395D01*
X110140802Y-38873399D01*
X110101784Y-38869556D01*
X110064265Y-38858176D01*
X110029688Y-38839694D01*
X109999380Y-38814822D01*
X109974507Y-38784515D01*
X109956025Y-38749938D01*
X109944643Y-38712419D01*
X109940800Y-38673399D01*
X109940800Y-37323400D01*
X109944643Y-37284382D01*
X109956024Y-37246863D01*
X109974506Y-37212286D01*
X109999379Y-37181979D01*
X110029686Y-37157106D01*
X110064263Y-37138624D01*
X110101782Y-37127243D01*
X110140800Y-37123400D01*
X111290800Y-37123400D01*
X111329818Y-37127243D01*
X111367337Y-37138624D01*
X111401914Y-37157106D01*
X111432221Y-37181979D01*
X111457094Y-37212286D01*
X111475576Y-37246863D01*
X111486957Y-37284382D01*
X111490800Y-37323400D01*
X111490800Y-37973401D01*
X111486957Y-38012419D01*
G37*
D29*
X94067000Y-48094000D03*
D30*
X91567000Y-48094000D03*
X89067000Y-48094000D03*
X94067000Y-62594000D03*
X89067000Y-62594000D03*
D31*
X98894900Y-114109500D03*
X199700000Y-100000000D03*
X124396500Y-95567500D03*
X199700000Y-61800000D03*
X124325380Y-57409080D03*
M02*
