%TF.GenerationSoftware,KiCad,Pcbnew,(5.1.9)-1*%
%TF.CreationDate,2021-12-03T15:32:29+01:00*%
%TF.ProjectId,Lotus58_Glow,4c6f7475-7335-4385-9f47-6c6f772e6b69,v1.21*%
%TF.SameCoordinates,Original*%
%TF.FileFunction,Soldermask,Bot*%
%TF.FilePolarity,Negative*%
%FSLAX46Y46*%
G04 Gerber Fmt 4.6, Leading zero omitted, Abs format (unit mm)*
G04 Created by KiCad (PCBNEW (5.1.9)-1) date 2021-12-03 15:32:29*
%MOMM*%
%LPD*%
G01*
G04 APERTURE LIST*
%ADD10R,2.000000X2.000000*%
%ADD11C,2.000000*%
%ADD12O,1.400000X2.600000*%
%ADD13C,1.524000*%
%ADD14R,1.998980X1.998980*%
%ADD15C,1.998980*%
%ADD16R,1.800000X1.500000*%
%ADD17O,1.700000X1.700000*%
%ADD18R,1.700000X1.700000*%
%ADD19C,1.500000*%
%ADD20R,1.600000X0.850000*%
%ADD21C,1.701800*%
%ADD22C,3.987800*%
%ADD23C,3.000000*%
%ADD24R,2.550000X2.500000*%
%ADD25O,1.400000X1.400000*%
%ADD26C,1.400000*%
%ADD27C,1.397000*%
%ADD28R,1.143000X0.635000*%
%ADD29C,3.700000*%
%ADD30C,0.100000*%
%ADD31C,1.200000*%
%ADD32R,2.100000X1.000000*%
G04 APERTURE END LIST*
D10*
X94067000Y-47094000D03*
D11*
X91567000Y-47094000D03*
X89067000Y-47094000D03*
D12*
X96867000Y-54594000D03*
X86267000Y-54594000D03*
D11*
X94067000Y-61594000D03*
X89067000Y-61594000D03*
D13*
X84584815Y-46405745D03*
X99824815Y-64185745D03*
X84584815Y-56565745D03*
X99824815Y-54025745D03*
X99824815Y-48945745D03*
X84584815Y-66725745D03*
X99824815Y-46405745D03*
X99824815Y-41325745D03*
X84584815Y-61645745D03*
X99824815Y-69265745D03*
X84584815Y-54025745D03*
X84584815Y-43865745D03*
X84584815Y-48945745D03*
X84584815Y-51485745D03*
X84584815Y-64185745D03*
X84584815Y-59105745D03*
X99824815Y-61645745D03*
X99824815Y-59105745D03*
X84584815Y-69265745D03*
X99824815Y-66725745D03*
X99824815Y-43865745D03*
X84584815Y-41325745D03*
X99824815Y-56565745D03*
X99824815Y-51485745D03*
X83286000Y-40130000D03*
X83286000Y-42670000D03*
X83286000Y-45210000D03*
X83286000Y-47750000D03*
X83286000Y-50290000D03*
X83286000Y-52830000D03*
X83286000Y-55370000D03*
X83286000Y-57910000D03*
X83286000Y-60450000D03*
X83286000Y-62990000D03*
X83286000Y-65530000D03*
X83286000Y-68070000D03*
X98526000Y-68070000D03*
X98526000Y-65530000D03*
X98526000Y-62990000D03*
X98526000Y-60450000D03*
X98526000Y-57910000D03*
X98526000Y-55370000D03*
X98526000Y-52830000D03*
X98526000Y-50290000D03*
X98526000Y-47750000D03*
X98526000Y-45210000D03*
X98526000Y-42670000D03*
X98526000Y-40130000D03*
D14*
X96730000Y-77662540D03*
D15*
X86570000Y-77662540D03*
D16*
X93430000Y-77660000D03*
X90030000Y-77660000D03*
D17*
X87820500Y-74943500D03*
X90360500Y-74943500D03*
X92900500Y-74943500D03*
D18*
X95440500Y-74943500D03*
D11*
X96074800Y-98825300D03*
D19*
X96074800Y-97745300D03*
X84874800Y-97745300D03*
D10*
X87974800Y-105785300D03*
D11*
X90474800Y-105785300D03*
X92974800Y-105785300D03*
X87974800Y-91285300D03*
X92974800Y-91285300D03*
X84874800Y-98825300D03*
D20*
X122138500Y-51576000D03*
X122138500Y-53326000D03*
X125638500Y-53326000D03*
X125638500Y-51576000D03*
X160238500Y-51512500D03*
X160238500Y-53262500D03*
X163738500Y-53262500D03*
X163738500Y-51512500D03*
X198402000Y-56021000D03*
X198402000Y-57771000D03*
X201902000Y-57771000D03*
X201902000Y-56021000D03*
X201775000Y-111647000D03*
X201775000Y-113397000D03*
X198275000Y-111647000D03*
X198275000Y-113397000D03*
X154150000Y-128954500D03*
X154150000Y-127204500D03*
X150650000Y-127204500D03*
X150650000Y-128954500D03*
X100358000Y-107519500D03*
X100358000Y-109269500D03*
X103858000Y-109269500D03*
X103858000Y-107519500D03*
D14*
X122960000Y-39107460D03*
D15*
X112800000Y-39107460D03*
D16*
X119660000Y-39110000D03*
X116260000Y-39110000D03*
D21*
X147420000Y-46210000D03*
X157580000Y-46210000D03*
D22*
X152500000Y-46210000D03*
D23*
X148690000Y-43670000D03*
X155040000Y-41130000D03*
X149960000Y-41130000D03*
X156310000Y-43670000D03*
D24*
X158790000Y-41130000D03*
X144940000Y-43670000D03*
D25*
X99568000Y-75438000D03*
D26*
X104648000Y-75438000D03*
D25*
X99568000Y-72898000D03*
D26*
X104648000Y-72898000D03*
D17*
X105030000Y-42660000D03*
D18*
X102490000Y-42660000D03*
D27*
X111840000Y-124300000D03*
X111840000Y-119220000D03*
X180830000Y-110120000D03*
X180830000Y-115200000D03*
X142720000Y-106990000D03*
X142720000Y-112070000D03*
X181000000Y-96620000D03*
X181000000Y-91540000D03*
X142820000Y-93900000D03*
X142820000Y-88820000D03*
X181300000Y-78150000D03*
X181300000Y-73070000D03*
X142570000Y-69940000D03*
X142570000Y-75020000D03*
X181540000Y-58440000D03*
X181540000Y-53360000D03*
X142750000Y-54690000D03*
X142750000Y-49610000D03*
G36*
G01*
X160068000Y-128540001D02*
X158632000Y-128540001D01*
G75*
G02*
X158550000Y-128458001I0J82000D01*
G01*
X158550000Y-127802001D01*
G75*
G02*
X158632000Y-127720001I82000J0D01*
G01*
X160068000Y-127720001D01*
G75*
G02*
X160150000Y-127802001I0J-82000D01*
G01*
X160150000Y-128458001D01*
G75*
G02*
X160068000Y-128540001I-82000J0D01*
G01*
G37*
G36*
G01*
X160068000Y-130040001D02*
X158632000Y-130040001D01*
G75*
G02*
X158550000Y-129958001I0J82000D01*
G01*
X158550000Y-129302001D01*
G75*
G02*
X158632000Y-129220001I82000J0D01*
G01*
X160068000Y-129220001D01*
G75*
G02*
X160150000Y-129302001I0J-82000D01*
G01*
X160150000Y-129958001D01*
G75*
G02*
X160068000Y-130040001I-82000J0D01*
G01*
G37*
G36*
G01*
X165268000Y-128540001D02*
X163832000Y-128540001D01*
G75*
G02*
X163750000Y-128458001I0J82000D01*
G01*
X163750000Y-127802001D01*
G75*
G02*
X163832000Y-127720001I82000J0D01*
G01*
X165268000Y-127720001D01*
G75*
G02*
X165350000Y-127802001I0J-82000D01*
G01*
X165350000Y-128458001D01*
G75*
G02*
X165268000Y-128540001I-82000J0D01*
G01*
G37*
G36*
G01*
X165268000Y-130040001D02*
X163832000Y-130040001D01*
G75*
G02*
X163750000Y-129958001I0J82000D01*
G01*
X163750000Y-129302001D01*
G75*
G02*
X163832000Y-129220001I82000J0D01*
G01*
X165268000Y-129220001D01*
G75*
G02*
X165350000Y-129302001I0J-82000D01*
G01*
X165350000Y-129958001D01*
G75*
G02*
X165268000Y-130040001I-82000J0D01*
G01*
G37*
G36*
G01*
X141015700Y-129568301D02*
X139579700Y-129568301D01*
G75*
G02*
X139497700Y-129486301I0J82000D01*
G01*
X139497700Y-128830301D01*
G75*
G02*
X139579700Y-128748301I82000J0D01*
G01*
X141015700Y-128748301D01*
G75*
G02*
X141097700Y-128830301I0J-82000D01*
G01*
X141097700Y-129486301D01*
G75*
G02*
X141015700Y-129568301I-82000J0D01*
G01*
G37*
G36*
G01*
X141015700Y-131068301D02*
X139579700Y-131068301D01*
G75*
G02*
X139497700Y-130986301I0J82000D01*
G01*
X139497700Y-130330301D01*
G75*
G02*
X139579700Y-130248301I82000J0D01*
G01*
X141015700Y-130248301D01*
G75*
G02*
X141097700Y-130330301I0J-82000D01*
G01*
X141097700Y-130986301D01*
G75*
G02*
X141015700Y-131068301I-82000J0D01*
G01*
G37*
G36*
G01*
X146215700Y-129568301D02*
X144779700Y-129568301D01*
G75*
G02*
X144697700Y-129486301I0J82000D01*
G01*
X144697700Y-128830301D01*
G75*
G02*
X144779700Y-128748301I82000J0D01*
G01*
X146215700Y-128748301D01*
G75*
G02*
X146297700Y-128830301I0J-82000D01*
G01*
X146297700Y-129486301D01*
G75*
G02*
X146215700Y-129568301I-82000J0D01*
G01*
G37*
G36*
G01*
X146215700Y-131068301D02*
X144779700Y-131068301D01*
G75*
G02*
X144697700Y-130986301I0J82000D01*
G01*
X144697700Y-130330301D01*
G75*
G02*
X144779700Y-130248301I82000J0D01*
G01*
X146215700Y-130248301D01*
G75*
G02*
X146297700Y-130330301I0J-82000D01*
G01*
X146297700Y-130986301D01*
G75*
G02*
X146215700Y-131068301I-82000J0D01*
G01*
G37*
G36*
G01*
X121968000Y-130940001D02*
X120532000Y-130940001D01*
G75*
G02*
X120450000Y-130858001I0J82000D01*
G01*
X120450000Y-130202001D01*
G75*
G02*
X120532000Y-130120001I82000J0D01*
G01*
X121968000Y-130120001D01*
G75*
G02*
X122050000Y-130202001I0J-82000D01*
G01*
X122050000Y-130858001D01*
G75*
G02*
X121968000Y-130940001I-82000J0D01*
G01*
G37*
G36*
G01*
X121968000Y-132440001D02*
X120532000Y-132440001D01*
G75*
G02*
X120450000Y-132358001I0J82000D01*
G01*
X120450000Y-131702001D01*
G75*
G02*
X120532000Y-131620001I82000J0D01*
G01*
X121968000Y-131620001D01*
G75*
G02*
X122050000Y-131702001I0J-82000D01*
G01*
X122050000Y-132358001D01*
G75*
G02*
X121968000Y-132440001I-82000J0D01*
G01*
G37*
G36*
G01*
X127168000Y-130940001D02*
X125732000Y-130940001D01*
G75*
G02*
X125650000Y-130858001I0J82000D01*
G01*
X125650000Y-130202001D01*
G75*
G02*
X125732000Y-130120001I82000J0D01*
G01*
X127168000Y-130120001D01*
G75*
G02*
X127250000Y-130202001I0J-82000D01*
G01*
X127250000Y-130858001D01*
G75*
G02*
X127168000Y-130940001I-82000J0D01*
G01*
G37*
G36*
G01*
X127168000Y-132440001D02*
X125732000Y-132440001D01*
G75*
G02*
X125650000Y-132358001I0J82000D01*
G01*
X125650000Y-131702001D01*
G75*
G02*
X125732000Y-131620001I82000J0D01*
G01*
X127168000Y-131620001D01*
G75*
G02*
X127250000Y-131702001I0J-82000D01*
G01*
X127250000Y-132358001D01*
G75*
G02*
X127168000Y-132440001I-82000J0D01*
G01*
G37*
G36*
G01*
X93125039Y-126787639D02*
X92407039Y-125544027D01*
G75*
G02*
X92437053Y-125432013I71014J41000D01*
G01*
X93005165Y-125104013D01*
G75*
G02*
X93117179Y-125134027I41000J-71014D01*
G01*
X93835179Y-126377639D01*
G75*
G02*
X93805165Y-126489653I-71014J-41000D01*
G01*
X93237053Y-126817653D01*
G75*
G02*
X93125039Y-126787639I-41000J71014D01*
G01*
G37*
G36*
G01*
X91826001Y-127537639D02*
X91108001Y-126294027D01*
G75*
G02*
X91138015Y-126182013I71014J41000D01*
G01*
X91706127Y-125854013D01*
G75*
G02*
X91818141Y-125884027I41000J-71014D01*
G01*
X92536141Y-127127639D01*
G75*
G02*
X92506127Y-127239653I-71014J-41000D01*
G01*
X91938015Y-127567653D01*
G75*
G02*
X91826001Y-127537639I-41000J71014D01*
G01*
G37*
G36*
G01*
X95725039Y-131290972D02*
X95007039Y-130047360D01*
G75*
G02*
X95037053Y-129935346I71014J41000D01*
G01*
X95605165Y-129607346D01*
G75*
G02*
X95717179Y-129637360I41000J-71014D01*
G01*
X96435179Y-130880972D01*
G75*
G02*
X96405165Y-130992986I-71014J-41000D01*
G01*
X95837053Y-131320986D01*
G75*
G02*
X95725039Y-131290972I-41000J71014D01*
G01*
G37*
G36*
G01*
X94426001Y-132040972D02*
X93708001Y-130797360D01*
G75*
G02*
X93738015Y-130685346I71014J41000D01*
G01*
X94306127Y-130357346D01*
G75*
G02*
X94418141Y-130387360I41000J-71014D01*
G01*
X95136141Y-131630972D01*
G75*
G02*
X95106127Y-131742986I-71014J-41000D01*
G01*
X94538015Y-132070986D01*
G75*
G02*
X94426001Y-132040972I-41000J71014D01*
G01*
G37*
G36*
G01*
X92356800Y-103705299D02*
X93792800Y-103705299D01*
G75*
G02*
X93874800Y-103787299I0J-82000D01*
G01*
X93874800Y-104443299D01*
G75*
G02*
X93792800Y-104525299I-82000J0D01*
G01*
X92356800Y-104525299D01*
G75*
G02*
X92274800Y-104443299I0J82000D01*
G01*
X92274800Y-103787299D01*
G75*
G02*
X92356800Y-103705299I82000J0D01*
G01*
G37*
G36*
G01*
X92356800Y-102205299D02*
X93792800Y-102205299D01*
G75*
G02*
X93874800Y-102287299I0J-82000D01*
G01*
X93874800Y-102943299D01*
G75*
G02*
X93792800Y-103025299I-82000J0D01*
G01*
X92356800Y-103025299D01*
G75*
G02*
X92274800Y-102943299I0J82000D01*
G01*
X92274800Y-102287299D01*
G75*
G02*
X92356800Y-102205299I82000J0D01*
G01*
G37*
G36*
G01*
X87156800Y-103705299D02*
X88592800Y-103705299D01*
G75*
G02*
X88674800Y-103787299I0J-82000D01*
G01*
X88674800Y-104443299D01*
G75*
G02*
X88592800Y-104525299I-82000J0D01*
G01*
X87156800Y-104525299D01*
G75*
G02*
X87074800Y-104443299I0J82000D01*
G01*
X87074800Y-103787299D01*
G75*
G02*
X87156800Y-103705299I82000J0D01*
G01*
G37*
G36*
G01*
X87156800Y-102205299D02*
X88592800Y-102205299D01*
G75*
G02*
X88674800Y-102287299I0J-82000D01*
G01*
X88674800Y-102943299D01*
G75*
G02*
X88592800Y-103025299I-82000J0D01*
G01*
X87156800Y-103025299D01*
G75*
G02*
X87074800Y-102943299I0J82000D01*
G01*
X87074800Y-102287299D01*
G75*
G02*
X87156800Y-102205299I82000J0D01*
G01*
G37*
G36*
G01*
X211532000Y-116469999D02*
X212968000Y-116469999D01*
G75*
G02*
X213050000Y-116551999I0J-82000D01*
G01*
X213050000Y-117207999D01*
G75*
G02*
X212968000Y-117289999I-82000J0D01*
G01*
X211532000Y-117289999D01*
G75*
G02*
X211450000Y-117207999I0J82000D01*
G01*
X211450000Y-116551999D01*
G75*
G02*
X211532000Y-116469999I82000J0D01*
G01*
G37*
G36*
G01*
X211532000Y-114969999D02*
X212968000Y-114969999D01*
G75*
G02*
X213050000Y-115051999I0J-82000D01*
G01*
X213050000Y-115707999D01*
G75*
G02*
X212968000Y-115789999I-82000J0D01*
G01*
X211532000Y-115789999D01*
G75*
G02*
X211450000Y-115707999I0J82000D01*
G01*
X211450000Y-115051999D01*
G75*
G02*
X211532000Y-114969999I82000J0D01*
G01*
G37*
G36*
G01*
X206332000Y-116469999D02*
X207768000Y-116469999D01*
G75*
G02*
X207850000Y-116551999I0J-82000D01*
G01*
X207850000Y-117207999D01*
G75*
G02*
X207768000Y-117289999I-82000J0D01*
G01*
X206332000Y-117289999D01*
G75*
G02*
X206250000Y-117207999I0J82000D01*
G01*
X206250000Y-116551999D01*
G75*
G02*
X206332000Y-116469999I82000J0D01*
G01*
G37*
G36*
G01*
X206332000Y-114969999D02*
X207768000Y-114969999D01*
G75*
G02*
X207850000Y-115051999I0J-82000D01*
G01*
X207850000Y-115707999D01*
G75*
G02*
X207768000Y-115789999I-82000J0D01*
G01*
X206332000Y-115789999D01*
G75*
G02*
X206250000Y-115707999I0J82000D01*
G01*
X206250000Y-115051999D01*
G75*
G02*
X206332000Y-114969999I82000J0D01*
G01*
G37*
G36*
G01*
X192482000Y-114969999D02*
X193918000Y-114969999D01*
G75*
G02*
X194000000Y-115051999I0J-82000D01*
G01*
X194000000Y-115707999D01*
G75*
G02*
X193918000Y-115789999I-82000J0D01*
G01*
X192482000Y-115789999D01*
G75*
G02*
X192400000Y-115707999I0J82000D01*
G01*
X192400000Y-115051999D01*
G75*
G02*
X192482000Y-114969999I82000J0D01*
G01*
G37*
G36*
G01*
X192482000Y-113469999D02*
X193918000Y-113469999D01*
G75*
G02*
X194000000Y-113551999I0J-82000D01*
G01*
X194000000Y-114207999D01*
G75*
G02*
X193918000Y-114289999I-82000J0D01*
G01*
X192482000Y-114289999D01*
G75*
G02*
X192400000Y-114207999I0J82000D01*
G01*
X192400000Y-113551999D01*
G75*
G02*
X192482000Y-113469999I82000J0D01*
G01*
G37*
G36*
G01*
X187282000Y-114969999D02*
X188718000Y-114969999D01*
G75*
G02*
X188800000Y-115051999I0J-82000D01*
G01*
X188800000Y-115707999D01*
G75*
G02*
X188718000Y-115789999I-82000J0D01*
G01*
X187282000Y-115789999D01*
G75*
G02*
X187200000Y-115707999I0J82000D01*
G01*
X187200000Y-115051999D01*
G75*
G02*
X187282000Y-114969999I82000J0D01*
G01*
G37*
G36*
G01*
X187282000Y-113469999D02*
X188718000Y-113469999D01*
G75*
G02*
X188800000Y-113551999I0J-82000D01*
G01*
X188800000Y-114207999D01*
G75*
G02*
X188718000Y-114289999I-82000J0D01*
G01*
X187282000Y-114289999D01*
G75*
G02*
X187200000Y-114207999I0J82000D01*
G01*
X187200000Y-113551999D01*
G75*
G02*
X187282000Y-113469999I82000J0D01*
G01*
G37*
G36*
G01*
X173432000Y-110169999D02*
X174868000Y-110169999D01*
G75*
G02*
X174950000Y-110251999I0J-82000D01*
G01*
X174950000Y-110907999D01*
G75*
G02*
X174868000Y-110989999I-82000J0D01*
G01*
X173432000Y-110989999D01*
G75*
G02*
X173350000Y-110907999I0J82000D01*
G01*
X173350000Y-110251999D01*
G75*
G02*
X173432000Y-110169999I82000J0D01*
G01*
G37*
G36*
G01*
X173432000Y-108669999D02*
X174868000Y-108669999D01*
G75*
G02*
X174950000Y-108751999I0J-82000D01*
G01*
X174950000Y-109407999D01*
G75*
G02*
X174868000Y-109489999I-82000J0D01*
G01*
X173432000Y-109489999D01*
G75*
G02*
X173350000Y-109407999I0J82000D01*
G01*
X173350000Y-108751999D01*
G75*
G02*
X173432000Y-108669999I82000J0D01*
G01*
G37*
G36*
G01*
X168232000Y-110169999D02*
X169668000Y-110169999D01*
G75*
G02*
X169750000Y-110251999I0J-82000D01*
G01*
X169750000Y-110907999D01*
G75*
G02*
X169668000Y-110989999I-82000J0D01*
G01*
X168232000Y-110989999D01*
G75*
G02*
X168150000Y-110907999I0J82000D01*
G01*
X168150000Y-110251999D01*
G75*
G02*
X168232000Y-110169999I82000J0D01*
G01*
G37*
G36*
G01*
X168232000Y-108669999D02*
X169668000Y-108669999D01*
G75*
G02*
X169750000Y-108751999I0J-82000D01*
G01*
X169750000Y-109407999D01*
G75*
G02*
X169668000Y-109489999I-82000J0D01*
G01*
X168232000Y-109489999D01*
G75*
G02*
X168150000Y-109407999I0J82000D01*
G01*
X168150000Y-108751999D01*
G75*
G02*
X168232000Y-108669999I82000J0D01*
G01*
G37*
G36*
G01*
X154382000Y-108779999D02*
X155818000Y-108779999D01*
G75*
G02*
X155900000Y-108861999I0J-82000D01*
G01*
X155900000Y-109517999D01*
G75*
G02*
X155818000Y-109599999I-82000J0D01*
G01*
X154382000Y-109599999D01*
G75*
G02*
X154300000Y-109517999I0J82000D01*
G01*
X154300000Y-108861999D01*
G75*
G02*
X154382000Y-108779999I82000J0D01*
G01*
G37*
G36*
G01*
X154382000Y-107279999D02*
X155818000Y-107279999D01*
G75*
G02*
X155900000Y-107361999I0J-82000D01*
G01*
X155900000Y-108017999D01*
G75*
G02*
X155818000Y-108099999I-82000J0D01*
G01*
X154382000Y-108099999D01*
G75*
G02*
X154300000Y-108017999I0J82000D01*
G01*
X154300000Y-107361999D01*
G75*
G02*
X154382000Y-107279999I82000J0D01*
G01*
G37*
G36*
G01*
X149182000Y-108779999D02*
X150618000Y-108779999D01*
G75*
G02*
X150700000Y-108861999I0J-82000D01*
G01*
X150700000Y-109517999D01*
G75*
G02*
X150618000Y-109599999I-82000J0D01*
G01*
X149182000Y-109599999D01*
G75*
G02*
X149100000Y-109517999I0J82000D01*
G01*
X149100000Y-108861999D01*
G75*
G02*
X149182000Y-108779999I82000J0D01*
G01*
G37*
G36*
G01*
X149182000Y-107279999D02*
X150618000Y-107279999D01*
G75*
G02*
X150700000Y-107361999I0J-82000D01*
G01*
X150700000Y-108017999D01*
G75*
G02*
X150618000Y-108099999I-82000J0D01*
G01*
X149182000Y-108099999D01*
G75*
G02*
X149100000Y-108017999I0J82000D01*
G01*
X149100000Y-107361999D01*
G75*
G02*
X149182000Y-107279999I82000J0D01*
G01*
G37*
G36*
G01*
X135332000Y-110169999D02*
X136768000Y-110169999D01*
G75*
G02*
X136850000Y-110251999I0J-82000D01*
G01*
X136850000Y-110907999D01*
G75*
G02*
X136768000Y-110989999I-82000J0D01*
G01*
X135332000Y-110989999D01*
G75*
G02*
X135250000Y-110907999I0J82000D01*
G01*
X135250000Y-110251999D01*
G75*
G02*
X135332000Y-110169999I82000J0D01*
G01*
G37*
G36*
G01*
X135332000Y-108669999D02*
X136768000Y-108669999D01*
G75*
G02*
X136850000Y-108751999I0J-82000D01*
G01*
X136850000Y-109407999D01*
G75*
G02*
X136768000Y-109489999I-82000J0D01*
G01*
X135332000Y-109489999D01*
G75*
G02*
X135250000Y-109407999I0J82000D01*
G01*
X135250000Y-108751999D01*
G75*
G02*
X135332000Y-108669999I82000J0D01*
G01*
G37*
G36*
G01*
X130132000Y-110169999D02*
X131568000Y-110169999D01*
G75*
G02*
X131650000Y-110251999I0J-82000D01*
G01*
X131650000Y-110907999D01*
G75*
G02*
X131568000Y-110989999I-82000J0D01*
G01*
X130132000Y-110989999D01*
G75*
G02*
X130050000Y-110907999I0J82000D01*
G01*
X130050000Y-110251999D01*
G75*
G02*
X130132000Y-110169999I82000J0D01*
G01*
G37*
G36*
G01*
X130132000Y-108669999D02*
X131568000Y-108669999D01*
G75*
G02*
X131650000Y-108751999I0J-82000D01*
G01*
X131650000Y-109407999D01*
G75*
G02*
X131568000Y-109489999I-82000J0D01*
G01*
X130132000Y-109489999D01*
G75*
G02*
X130050000Y-109407999I0J82000D01*
G01*
X130050000Y-108751999D01*
G75*
G02*
X130132000Y-108669999I82000J0D01*
G01*
G37*
G36*
G01*
X116282000Y-112569999D02*
X117718000Y-112569999D01*
G75*
G02*
X117800000Y-112651999I0J-82000D01*
G01*
X117800000Y-113307999D01*
G75*
G02*
X117718000Y-113389999I-82000J0D01*
G01*
X116282000Y-113389999D01*
G75*
G02*
X116200000Y-113307999I0J82000D01*
G01*
X116200000Y-112651999D01*
G75*
G02*
X116282000Y-112569999I82000J0D01*
G01*
G37*
G36*
G01*
X116282000Y-111069999D02*
X117718000Y-111069999D01*
G75*
G02*
X117800000Y-111151999I0J-82000D01*
G01*
X117800000Y-111807999D01*
G75*
G02*
X117718000Y-111889999I-82000J0D01*
G01*
X116282000Y-111889999D01*
G75*
G02*
X116200000Y-111807999I0J82000D01*
G01*
X116200000Y-111151999D01*
G75*
G02*
X116282000Y-111069999I82000J0D01*
G01*
G37*
G36*
G01*
X111082000Y-112569999D02*
X112518000Y-112569999D01*
G75*
G02*
X112600000Y-112651999I0J-82000D01*
G01*
X112600000Y-113307999D01*
G75*
G02*
X112518000Y-113389999I-82000J0D01*
G01*
X111082000Y-113389999D01*
G75*
G02*
X111000000Y-113307999I0J82000D01*
G01*
X111000000Y-112651999D01*
G75*
G02*
X111082000Y-112569999I82000J0D01*
G01*
G37*
G36*
G01*
X111082000Y-111069999D02*
X112518000Y-111069999D01*
G75*
G02*
X112600000Y-111151999I0J-82000D01*
G01*
X112600000Y-111807999D01*
G75*
G02*
X112518000Y-111889999I-82000J0D01*
G01*
X111082000Y-111889999D01*
G75*
G02*
X111000000Y-111807999I0J82000D01*
G01*
X111000000Y-111151999D01*
G75*
G02*
X111082000Y-111069999I82000J0D01*
G01*
G37*
G36*
G01*
X207768000Y-96740001D02*
X206332000Y-96740001D01*
G75*
G02*
X206250000Y-96658001I0J82000D01*
G01*
X206250000Y-96002001D01*
G75*
G02*
X206332000Y-95920001I82000J0D01*
G01*
X207768000Y-95920001D01*
G75*
G02*
X207850000Y-96002001I0J-82000D01*
G01*
X207850000Y-96658001D01*
G75*
G02*
X207768000Y-96740001I-82000J0D01*
G01*
G37*
G36*
G01*
X207768000Y-98240001D02*
X206332000Y-98240001D01*
G75*
G02*
X206250000Y-98158001I0J82000D01*
G01*
X206250000Y-97502001D01*
G75*
G02*
X206332000Y-97420001I82000J0D01*
G01*
X207768000Y-97420001D01*
G75*
G02*
X207850000Y-97502001I0J-82000D01*
G01*
X207850000Y-98158001D01*
G75*
G02*
X207768000Y-98240001I-82000J0D01*
G01*
G37*
G36*
G01*
X212968000Y-96740001D02*
X211532000Y-96740001D01*
G75*
G02*
X211450000Y-96658001I0J82000D01*
G01*
X211450000Y-96002001D01*
G75*
G02*
X211532000Y-95920001I82000J0D01*
G01*
X212968000Y-95920001D01*
G75*
G02*
X213050000Y-96002001I0J-82000D01*
G01*
X213050000Y-96658001D01*
G75*
G02*
X212968000Y-96740001I-82000J0D01*
G01*
G37*
G36*
G01*
X212968000Y-98240001D02*
X211532000Y-98240001D01*
G75*
G02*
X211450000Y-98158001I0J82000D01*
G01*
X211450000Y-97502001D01*
G75*
G02*
X211532000Y-97420001I82000J0D01*
G01*
X212968000Y-97420001D01*
G75*
G02*
X213050000Y-97502001I0J-82000D01*
G01*
X213050000Y-98158001D01*
G75*
G02*
X212968000Y-98240001I-82000J0D01*
G01*
G37*
G36*
G01*
X188718000Y-95240001D02*
X187282000Y-95240001D01*
G75*
G02*
X187200000Y-95158001I0J82000D01*
G01*
X187200000Y-94502001D01*
G75*
G02*
X187282000Y-94420001I82000J0D01*
G01*
X188718000Y-94420001D01*
G75*
G02*
X188800000Y-94502001I0J-82000D01*
G01*
X188800000Y-95158001D01*
G75*
G02*
X188718000Y-95240001I-82000J0D01*
G01*
G37*
G36*
G01*
X188718000Y-96740001D02*
X187282000Y-96740001D01*
G75*
G02*
X187200000Y-96658001I0J82000D01*
G01*
X187200000Y-96002001D01*
G75*
G02*
X187282000Y-95920001I82000J0D01*
G01*
X188718000Y-95920001D01*
G75*
G02*
X188800000Y-96002001I0J-82000D01*
G01*
X188800000Y-96658001D01*
G75*
G02*
X188718000Y-96740001I-82000J0D01*
G01*
G37*
G36*
G01*
X193918000Y-95240001D02*
X192482000Y-95240001D01*
G75*
G02*
X192400000Y-95158001I0J82000D01*
G01*
X192400000Y-94502001D01*
G75*
G02*
X192482000Y-94420001I82000J0D01*
G01*
X193918000Y-94420001D01*
G75*
G02*
X194000000Y-94502001I0J-82000D01*
G01*
X194000000Y-95158001D01*
G75*
G02*
X193918000Y-95240001I-82000J0D01*
G01*
G37*
G36*
G01*
X193918000Y-96740001D02*
X192482000Y-96740001D01*
G75*
G02*
X192400000Y-96658001I0J82000D01*
G01*
X192400000Y-96002001D01*
G75*
G02*
X192482000Y-95920001I82000J0D01*
G01*
X193918000Y-95920001D01*
G75*
G02*
X194000000Y-96002001I0J-82000D01*
G01*
X194000000Y-96658001D01*
G75*
G02*
X193918000Y-96740001I-82000J0D01*
G01*
G37*
G36*
G01*
X169668000Y-90440001D02*
X168232000Y-90440001D01*
G75*
G02*
X168150000Y-90358001I0J82000D01*
G01*
X168150000Y-89702001D01*
G75*
G02*
X168232000Y-89620001I82000J0D01*
G01*
X169668000Y-89620001D01*
G75*
G02*
X169750000Y-89702001I0J-82000D01*
G01*
X169750000Y-90358001D01*
G75*
G02*
X169668000Y-90440001I-82000J0D01*
G01*
G37*
G36*
G01*
X169668000Y-91940001D02*
X168232000Y-91940001D01*
G75*
G02*
X168150000Y-91858001I0J82000D01*
G01*
X168150000Y-91202001D01*
G75*
G02*
X168232000Y-91120001I82000J0D01*
G01*
X169668000Y-91120001D01*
G75*
G02*
X169750000Y-91202001I0J-82000D01*
G01*
X169750000Y-91858001D01*
G75*
G02*
X169668000Y-91940001I-82000J0D01*
G01*
G37*
G36*
G01*
X174868000Y-90440001D02*
X173432000Y-90440001D01*
G75*
G02*
X173350000Y-90358001I0J82000D01*
G01*
X173350000Y-89702001D01*
G75*
G02*
X173432000Y-89620001I82000J0D01*
G01*
X174868000Y-89620001D01*
G75*
G02*
X174950000Y-89702001I0J-82000D01*
G01*
X174950000Y-90358001D01*
G75*
G02*
X174868000Y-90440001I-82000J0D01*
G01*
G37*
G36*
G01*
X174868000Y-91940001D02*
X173432000Y-91940001D01*
G75*
G02*
X173350000Y-91858001I0J82000D01*
G01*
X173350000Y-91202001D01*
G75*
G02*
X173432000Y-91120001I82000J0D01*
G01*
X174868000Y-91120001D01*
G75*
G02*
X174950000Y-91202001I0J-82000D01*
G01*
X174950000Y-91858001D01*
G75*
G02*
X174868000Y-91940001I-82000J0D01*
G01*
G37*
G36*
G01*
X150618000Y-89050001D02*
X149182000Y-89050001D01*
G75*
G02*
X149100000Y-88968001I0J82000D01*
G01*
X149100000Y-88312001D01*
G75*
G02*
X149182000Y-88230001I82000J0D01*
G01*
X150618000Y-88230001D01*
G75*
G02*
X150700000Y-88312001I0J-82000D01*
G01*
X150700000Y-88968001D01*
G75*
G02*
X150618000Y-89050001I-82000J0D01*
G01*
G37*
G36*
G01*
X150618000Y-90550001D02*
X149182000Y-90550001D01*
G75*
G02*
X149100000Y-90468001I0J82000D01*
G01*
X149100000Y-89812001D01*
G75*
G02*
X149182000Y-89730001I82000J0D01*
G01*
X150618000Y-89730001D01*
G75*
G02*
X150700000Y-89812001I0J-82000D01*
G01*
X150700000Y-90468001D01*
G75*
G02*
X150618000Y-90550001I-82000J0D01*
G01*
G37*
G36*
G01*
X155818000Y-89050001D02*
X154382000Y-89050001D01*
G75*
G02*
X154300000Y-88968001I0J82000D01*
G01*
X154300000Y-88312001D01*
G75*
G02*
X154382000Y-88230001I82000J0D01*
G01*
X155818000Y-88230001D01*
G75*
G02*
X155900000Y-88312001I0J-82000D01*
G01*
X155900000Y-88968001D01*
G75*
G02*
X155818000Y-89050001I-82000J0D01*
G01*
G37*
G36*
G01*
X155818000Y-90550001D02*
X154382000Y-90550001D01*
G75*
G02*
X154300000Y-90468001I0J82000D01*
G01*
X154300000Y-89812001D01*
G75*
G02*
X154382000Y-89730001I82000J0D01*
G01*
X155818000Y-89730001D01*
G75*
G02*
X155900000Y-89812001I0J-82000D01*
G01*
X155900000Y-90468001D01*
G75*
G02*
X155818000Y-90550001I-82000J0D01*
G01*
G37*
G36*
G01*
X131568000Y-90440001D02*
X130132000Y-90440001D01*
G75*
G02*
X130050000Y-90358001I0J82000D01*
G01*
X130050000Y-89702001D01*
G75*
G02*
X130132000Y-89620001I82000J0D01*
G01*
X131568000Y-89620001D01*
G75*
G02*
X131650000Y-89702001I0J-82000D01*
G01*
X131650000Y-90358001D01*
G75*
G02*
X131568000Y-90440001I-82000J0D01*
G01*
G37*
G36*
G01*
X131568000Y-91940001D02*
X130132000Y-91940001D01*
G75*
G02*
X130050000Y-91858001I0J82000D01*
G01*
X130050000Y-91202001D01*
G75*
G02*
X130132000Y-91120001I82000J0D01*
G01*
X131568000Y-91120001D01*
G75*
G02*
X131650000Y-91202001I0J-82000D01*
G01*
X131650000Y-91858001D01*
G75*
G02*
X131568000Y-91940001I-82000J0D01*
G01*
G37*
G36*
G01*
X136768000Y-90440001D02*
X135332000Y-90440001D01*
G75*
G02*
X135250000Y-90358001I0J82000D01*
G01*
X135250000Y-89702001D01*
G75*
G02*
X135332000Y-89620001I82000J0D01*
G01*
X136768000Y-89620001D01*
G75*
G02*
X136850000Y-89702001I0J-82000D01*
G01*
X136850000Y-90358001D01*
G75*
G02*
X136768000Y-90440001I-82000J0D01*
G01*
G37*
G36*
G01*
X136768000Y-91940001D02*
X135332000Y-91940001D01*
G75*
G02*
X135250000Y-91858001I0J82000D01*
G01*
X135250000Y-91202001D01*
G75*
G02*
X135332000Y-91120001I82000J0D01*
G01*
X136768000Y-91120001D01*
G75*
G02*
X136850000Y-91202001I0J-82000D01*
G01*
X136850000Y-91858001D01*
G75*
G02*
X136768000Y-91940001I-82000J0D01*
G01*
G37*
G36*
G01*
X112518000Y-92840001D02*
X111082000Y-92840001D01*
G75*
G02*
X111000000Y-92758001I0J82000D01*
G01*
X111000000Y-92102001D01*
G75*
G02*
X111082000Y-92020001I82000J0D01*
G01*
X112518000Y-92020001D01*
G75*
G02*
X112600000Y-92102001I0J-82000D01*
G01*
X112600000Y-92758001D01*
G75*
G02*
X112518000Y-92840001I-82000J0D01*
G01*
G37*
G36*
G01*
X112518000Y-94340001D02*
X111082000Y-94340001D01*
G75*
G02*
X111000000Y-94258001I0J82000D01*
G01*
X111000000Y-93602001D01*
G75*
G02*
X111082000Y-93520001I82000J0D01*
G01*
X112518000Y-93520001D01*
G75*
G02*
X112600000Y-93602001I0J-82000D01*
G01*
X112600000Y-94258001D01*
G75*
G02*
X112518000Y-94340001I-82000J0D01*
G01*
G37*
G36*
G01*
X117718000Y-92840001D02*
X116282000Y-92840001D01*
G75*
G02*
X116200000Y-92758001I0J82000D01*
G01*
X116200000Y-92102001D01*
G75*
G02*
X116282000Y-92020001I82000J0D01*
G01*
X117718000Y-92020001D01*
G75*
G02*
X117800000Y-92102001I0J-82000D01*
G01*
X117800000Y-92758001D01*
G75*
G02*
X117718000Y-92840001I-82000J0D01*
G01*
G37*
G36*
G01*
X117718000Y-94340001D02*
X116282000Y-94340001D01*
G75*
G02*
X116200000Y-94258001I0J82000D01*
G01*
X116200000Y-93602001D01*
G75*
G02*
X116282000Y-93520001I82000J0D01*
G01*
X117718000Y-93520001D01*
G75*
G02*
X117800000Y-93602001I0J-82000D01*
G01*
X117800000Y-94258001D01*
G75*
G02*
X117718000Y-94340001I-82000J0D01*
G01*
G37*
G36*
G01*
X211532000Y-78369999D02*
X212968000Y-78369999D01*
G75*
G02*
X213050000Y-78451999I0J-82000D01*
G01*
X213050000Y-79107999D01*
G75*
G02*
X212968000Y-79189999I-82000J0D01*
G01*
X211532000Y-79189999D01*
G75*
G02*
X211450000Y-79107999I0J82000D01*
G01*
X211450000Y-78451999D01*
G75*
G02*
X211532000Y-78369999I82000J0D01*
G01*
G37*
G36*
G01*
X211532000Y-76869999D02*
X212968000Y-76869999D01*
G75*
G02*
X213050000Y-76951999I0J-82000D01*
G01*
X213050000Y-77607999D01*
G75*
G02*
X212968000Y-77689999I-82000J0D01*
G01*
X211532000Y-77689999D01*
G75*
G02*
X211450000Y-77607999I0J82000D01*
G01*
X211450000Y-76951999D01*
G75*
G02*
X211532000Y-76869999I82000J0D01*
G01*
G37*
G36*
G01*
X206332000Y-78369999D02*
X207768000Y-78369999D01*
G75*
G02*
X207850000Y-78451999I0J-82000D01*
G01*
X207850000Y-79107999D01*
G75*
G02*
X207768000Y-79189999I-82000J0D01*
G01*
X206332000Y-79189999D01*
G75*
G02*
X206250000Y-79107999I0J82000D01*
G01*
X206250000Y-78451999D01*
G75*
G02*
X206332000Y-78369999I82000J0D01*
G01*
G37*
G36*
G01*
X206332000Y-76869999D02*
X207768000Y-76869999D01*
G75*
G02*
X207850000Y-76951999I0J-82000D01*
G01*
X207850000Y-77607999D01*
G75*
G02*
X207768000Y-77689999I-82000J0D01*
G01*
X206332000Y-77689999D01*
G75*
G02*
X206250000Y-77607999I0J82000D01*
G01*
X206250000Y-76951999D01*
G75*
G02*
X206332000Y-76869999I82000J0D01*
G01*
G37*
G36*
G01*
X192482000Y-76869999D02*
X193918000Y-76869999D01*
G75*
G02*
X194000000Y-76951999I0J-82000D01*
G01*
X194000000Y-77607999D01*
G75*
G02*
X193918000Y-77689999I-82000J0D01*
G01*
X192482000Y-77689999D01*
G75*
G02*
X192400000Y-77607999I0J82000D01*
G01*
X192400000Y-76951999D01*
G75*
G02*
X192482000Y-76869999I82000J0D01*
G01*
G37*
G36*
G01*
X192482000Y-75369999D02*
X193918000Y-75369999D01*
G75*
G02*
X194000000Y-75451999I0J-82000D01*
G01*
X194000000Y-76107999D01*
G75*
G02*
X193918000Y-76189999I-82000J0D01*
G01*
X192482000Y-76189999D01*
G75*
G02*
X192400000Y-76107999I0J82000D01*
G01*
X192400000Y-75451999D01*
G75*
G02*
X192482000Y-75369999I82000J0D01*
G01*
G37*
G36*
G01*
X187282000Y-76869999D02*
X188718000Y-76869999D01*
G75*
G02*
X188800000Y-76951999I0J-82000D01*
G01*
X188800000Y-77607999D01*
G75*
G02*
X188718000Y-77689999I-82000J0D01*
G01*
X187282000Y-77689999D01*
G75*
G02*
X187200000Y-77607999I0J82000D01*
G01*
X187200000Y-76951999D01*
G75*
G02*
X187282000Y-76869999I82000J0D01*
G01*
G37*
G36*
G01*
X187282000Y-75369999D02*
X188718000Y-75369999D01*
G75*
G02*
X188800000Y-75451999I0J-82000D01*
G01*
X188800000Y-76107999D01*
G75*
G02*
X188718000Y-76189999I-82000J0D01*
G01*
X187282000Y-76189999D01*
G75*
G02*
X187200000Y-76107999I0J82000D01*
G01*
X187200000Y-75451999D01*
G75*
G02*
X187282000Y-75369999I82000J0D01*
G01*
G37*
G36*
G01*
X173432000Y-72069999D02*
X174868000Y-72069999D01*
G75*
G02*
X174950000Y-72151999I0J-82000D01*
G01*
X174950000Y-72807999D01*
G75*
G02*
X174868000Y-72889999I-82000J0D01*
G01*
X173432000Y-72889999D01*
G75*
G02*
X173350000Y-72807999I0J82000D01*
G01*
X173350000Y-72151999D01*
G75*
G02*
X173432000Y-72069999I82000J0D01*
G01*
G37*
G36*
G01*
X173432000Y-70569999D02*
X174868000Y-70569999D01*
G75*
G02*
X174950000Y-70651999I0J-82000D01*
G01*
X174950000Y-71307999D01*
G75*
G02*
X174868000Y-71389999I-82000J0D01*
G01*
X173432000Y-71389999D01*
G75*
G02*
X173350000Y-71307999I0J82000D01*
G01*
X173350000Y-70651999D01*
G75*
G02*
X173432000Y-70569999I82000J0D01*
G01*
G37*
G36*
G01*
X168232000Y-72069999D02*
X169668000Y-72069999D01*
G75*
G02*
X169750000Y-72151999I0J-82000D01*
G01*
X169750000Y-72807999D01*
G75*
G02*
X169668000Y-72889999I-82000J0D01*
G01*
X168232000Y-72889999D01*
G75*
G02*
X168150000Y-72807999I0J82000D01*
G01*
X168150000Y-72151999D01*
G75*
G02*
X168232000Y-72069999I82000J0D01*
G01*
G37*
G36*
G01*
X168232000Y-70569999D02*
X169668000Y-70569999D01*
G75*
G02*
X169750000Y-70651999I0J-82000D01*
G01*
X169750000Y-71307999D01*
G75*
G02*
X169668000Y-71389999I-82000J0D01*
G01*
X168232000Y-71389999D01*
G75*
G02*
X168150000Y-71307999I0J82000D01*
G01*
X168150000Y-70651999D01*
G75*
G02*
X168232000Y-70569999I82000J0D01*
G01*
G37*
G36*
G01*
X154382000Y-70679999D02*
X155818000Y-70679999D01*
G75*
G02*
X155900000Y-70761999I0J-82000D01*
G01*
X155900000Y-71417999D01*
G75*
G02*
X155818000Y-71499999I-82000J0D01*
G01*
X154382000Y-71499999D01*
G75*
G02*
X154300000Y-71417999I0J82000D01*
G01*
X154300000Y-70761999D01*
G75*
G02*
X154382000Y-70679999I82000J0D01*
G01*
G37*
G36*
G01*
X154382000Y-69179999D02*
X155818000Y-69179999D01*
G75*
G02*
X155900000Y-69261999I0J-82000D01*
G01*
X155900000Y-69917999D01*
G75*
G02*
X155818000Y-69999999I-82000J0D01*
G01*
X154382000Y-69999999D01*
G75*
G02*
X154300000Y-69917999I0J82000D01*
G01*
X154300000Y-69261999D01*
G75*
G02*
X154382000Y-69179999I82000J0D01*
G01*
G37*
G36*
G01*
X149182000Y-70679999D02*
X150618000Y-70679999D01*
G75*
G02*
X150700000Y-70761999I0J-82000D01*
G01*
X150700000Y-71417999D01*
G75*
G02*
X150618000Y-71499999I-82000J0D01*
G01*
X149182000Y-71499999D01*
G75*
G02*
X149100000Y-71417999I0J82000D01*
G01*
X149100000Y-70761999D01*
G75*
G02*
X149182000Y-70679999I82000J0D01*
G01*
G37*
G36*
G01*
X149182000Y-69179999D02*
X150618000Y-69179999D01*
G75*
G02*
X150700000Y-69261999I0J-82000D01*
G01*
X150700000Y-69917999D01*
G75*
G02*
X150618000Y-69999999I-82000J0D01*
G01*
X149182000Y-69999999D01*
G75*
G02*
X149100000Y-69917999I0J82000D01*
G01*
X149100000Y-69261999D01*
G75*
G02*
X149182000Y-69179999I82000J0D01*
G01*
G37*
G36*
G01*
X135332000Y-72069999D02*
X136768000Y-72069999D01*
G75*
G02*
X136850000Y-72151999I0J-82000D01*
G01*
X136850000Y-72807999D01*
G75*
G02*
X136768000Y-72889999I-82000J0D01*
G01*
X135332000Y-72889999D01*
G75*
G02*
X135250000Y-72807999I0J82000D01*
G01*
X135250000Y-72151999D01*
G75*
G02*
X135332000Y-72069999I82000J0D01*
G01*
G37*
G36*
G01*
X135332000Y-70569999D02*
X136768000Y-70569999D01*
G75*
G02*
X136850000Y-70651999I0J-82000D01*
G01*
X136850000Y-71307999D01*
G75*
G02*
X136768000Y-71389999I-82000J0D01*
G01*
X135332000Y-71389999D01*
G75*
G02*
X135250000Y-71307999I0J82000D01*
G01*
X135250000Y-70651999D01*
G75*
G02*
X135332000Y-70569999I82000J0D01*
G01*
G37*
G36*
G01*
X130132000Y-72069999D02*
X131568000Y-72069999D01*
G75*
G02*
X131650000Y-72151999I0J-82000D01*
G01*
X131650000Y-72807999D01*
G75*
G02*
X131568000Y-72889999I-82000J0D01*
G01*
X130132000Y-72889999D01*
G75*
G02*
X130050000Y-72807999I0J82000D01*
G01*
X130050000Y-72151999D01*
G75*
G02*
X130132000Y-72069999I82000J0D01*
G01*
G37*
G36*
G01*
X130132000Y-70569999D02*
X131568000Y-70569999D01*
G75*
G02*
X131650000Y-70651999I0J-82000D01*
G01*
X131650000Y-71307999D01*
G75*
G02*
X131568000Y-71389999I-82000J0D01*
G01*
X130132000Y-71389999D01*
G75*
G02*
X130050000Y-71307999I0J82000D01*
G01*
X130050000Y-70651999D01*
G75*
G02*
X130132000Y-70569999I82000J0D01*
G01*
G37*
G36*
G01*
X116282000Y-74469999D02*
X117718000Y-74469999D01*
G75*
G02*
X117800000Y-74551999I0J-82000D01*
G01*
X117800000Y-75207999D01*
G75*
G02*
X117718000Y-75289999I-82000J0D01*
G01*
X116282000Y-75289999D01*
G75*
G02*
X116200000Y-75207999I0J82000D01*
G01*
X116200000Y-74551999D01*
G75*
G02*
X116282000Y-74469999I82000J0D01*
G01*
G37*
G36*
G01*
X116282000Y-72969999D02*
X117718000Y-72969999D01*
G75*
G02*
X117800000Y-73051999I0J-82000D01*
G01*
X117800000Y-73707999D01*
G75*
G02*
X117718000Y-73789999I-82000J0D01*
G01*
X116282000Y-73789999D01*
G75*
G02*
X116200000Y-73707999I0J82000D01*
G01*
X116200000Y-73051999D01*
G75*
G02*
X116282000Y-72969999I82000J0D01*
G01*
G37*
G36*
G01*
X111082000Y-74469999D02*
X112518000Y-74469999D01*
G75*
G02*
X112600000Y-74551999I0J-82000D01*
G01*
X112600000Y-75207999D01*
G75*
G02*
X112518000Y-75289999I-82000J0D01*
G01*
X111082000Y-75289999D01*
G75*
G02*
X111000000Y-75207999I0J82000D01*
G01*
X111000000Y-74551999D01*
G75*
G02*
X111082000Y-74469999I82000J0D01*
G01*
G37*
G36*
G01*
X111082000Y-72969999D02*
X112518000Y-72969999D01*
G75*
G02*
X112600000Y-73051999I0J-82000D01*
G01*
X112600000Y-73707999D01*
G75*
G02*
X112518000Y-73789999I-82000J0D01*
G01*
X111082000Y-73789999D01*
G75*
G02*
X111000000Y-73707999I0J82000D01*
G01*
X111000000Y-73051999D01*
G75*
G02*
X111082000Y-72969999I82000J0D01*
G01*
G37*
G36*
G01*
X207768000Y-58640001D02*
X206332000Y-58640001D01*
G75*
G02*
X206250000Y-58558001I0J82000D01*
G01*
X206250000Y-57902001D01*
G75*
G02*
X206332000Y-57820001I82000J0D01*
G01*
X207768000Y-57820001D01*
G75*
G02*
X207850000Y-57902001I0J-82000D01*
G01*
X207850000Y-58558001D01*
G75*
G02*
X207768000Y-58640001I-82000J0D01*
G01*
G37*
G36*
G01*
X207768000Y-60140001D02*
X206332000Y-60140001D01*
G75*
G02*
X206250000Y-60058001I0J82000D01*
G01*
X206250000Y-59402001D01*
G75*
G02*
X206332000Y-59320001I82000J0D01*
G01*
X207768000Y-59320001D01*
G75*
G02*
X207850000Y-59402001I0J-82000D01*
G01*
X207850000Y-60058001D01*
G75*
G02*
X207768000Y-60140001I-82000J0D01*
G01*
G37*
G36*
G01*
X212968000Y-58640001D02*
X211532000Y-58640001D01*
G75*
G02*
X211450000Y-58558001I0J82000D01*
G01*
X211450000Y-57902001D01*
G75*
G02*
X211532000Y-57820001I82000J0D01*
G01*
X212968000Y-57820001D01*
G75*
G02*
X213050000Y-57902001I0J-82000D01*
G01*
X213050000Y-58558001D01*
G75*
G02*
X212968000Y-58640001I-82000J0D01*
G01*
G37*
G36*
G01*
X212968000Y-60140001D02*
X211532000Y-60140001D01*
G75*
G02*
X211450000Y-60058001I0J82000D01*
G01*
X211450000Y-59402001D01*
G75*
G02*
X211532000Y-59320001I82000J0D01*
G01*
X212968000Y-59320001D01*
G75*
G02*
X213050000Y-59402001I0J-82000D01*
G01*
X213050000Y-60058001D01*
G75*
G02*
X212968000Y-60140001I-82000J0D01*
G01*
G37*
G36*
G01*
X188718000Y-57140001D02*
X187282000Y-57140001D01*
G75*
G02*
X187200000Y-57058001I0J82000D01*
G01*
X187200000Y-56402001D01*
G75*
G02*
X187282000Y-56320001I82000J0D01*
G01*
X188718000Y-56320001D01*
G75*
G02*
X188800000Y-56402001I0J-82000D01*
G01*
X188800000Y-57058001D01*
G75*
G02*
X188718000Y-57140001I-82000J0D01*
G01*
G37*
G36*
G01*
X188718000Y-58640001D02*
X187282000Y-58640001D01*
G75*
G02*
X187200000Y-58558001I0J82000D01*
G01*
X187200000Y-57902001D01*
G75*
G02*
X187282000Y-57820001I82000J0D01*
G01*
X188718000Y-57820001D01*
G75*
G02*
X188800000Y-57902001I0J-82000D01*
G01*
X188800000Y-58558001D01*
G75*
G02*
X188718000Y-58640001I-82000J0D01*
G01*
G37*
G36*
G01*
X193918000Y-57140001D02*
X192482000Y-57140001D01*
G75*
G02*
X192400000Y-57058001I0J82000D01*
G01*
X192400000Y-56402001D01*
G75*
G02*
X192482000Y-56320001I82000J0D01*
G01*
X193918000Y-56320001D01*
G75*
G02*
X194000000Y-56402001I0J-82000D01*
G01*
X194000000Y-57058001D01*
G75*
G02*
X193918000Y-57140001I-82000J0D01*
G01*
G37*
G36*
G01*
X193918000Y-58640001D02*
X192482000Y-58640001D01*
G75*
G02*
X192400000Y-58558001I0J82000D01*
G01*
X192400000Y-57902001D01*
G75*
G02*
X192482000Y-57820001I82000J0D01*
G01*
X193918000Y-57820001D01*
G75*
G02*
X194000000Y-57902001I0J-82000D01*
G01*
X194000000Y-58558001D01*
G75*
G02*
X193918000Y-58640001I-82000J0D01*
G01*
G37*
G36*
G01*
X169668000Y-52340001D02*
X168232000Y-52340001D01*
G75*
G02*
X168150000Y-52258001I0J82000D01*
G01*
X168150000Y-51602001D01*
G75*
G02*
X168232000Y-51520001I82000J0D01*
G01*
X169668000Y-51520001D01*
G75*
G02*
X169750000Y-51602001I0J-82000D01*
G01*
X169750000Y-52258001D01*
G75*
G02*
X169668000Y-52340001I-82000J0D01*
G01*
G37*
G36*
G01*
X169668000Y-53840001D02*
X168232000Y-53840001D01*
G75*
G02*
X168150000Y-53758001I0J82000D01*
G01*
X168150000Y-53102001D01*
G75*
G02*
X168232000Y-53020001I82000J0D01*
G01*
X169668000Y-53020001D01*
G75*
G02*
X169750000Y-53102001I0J-82000D01*
G01*
X169750000Y-53758001D01*
G75*
G02*
X169668000Y-53840001I-82000J0D01*
G01*
G37*
G36*
G01*
X174868000Y-52340001D02*
X173432000Y-52340001D01*
G75*
G02*
X173350000Y-52258001I0J82000D01*
G01*
X173350000Y-51602001D01*
G75*
G02*
X173432000Y-51520001I82000J0D01*
G01*
X174868000Y-51520001D01*
G75*
G02*
X174950000Y-51602001I0J-82000D01*
G01*
X174950000Y-52258001D01*
G75*
G02*
X174868000Y-52340001I-82000J0D01*
G01*
G37*
G36*
G01*
X174868000Y-53840001D02*
X173432000Y-53840001D01*
G75*
G02*
X173350000Y-53758001I0J82000D01*
G01*
X173350000Y-53102001D01*
G75*
G02*
X173432000Y-53020001I82000J0D01*
G01*
X174868000Y-53020001D01*
G75*
G02*
X174950000Y-53102001I0J-82000D01*
G01*
X174950000Y-53758001D01*
G75*
G02*
X174868000Y-53840001I-82000J0D01*
G01*
G37*
G36*
G01*
X150618000Y-50950001D02*
X149182000Y-50950001D01*
G75*
G02*
X149100000Y-50868001I0J82000D01*
G01*
X149100000Y-50212001D01*
G75*
G02*
X149182000Y-50130001I82000J0D01*
G01*
X150618000Y-50130001D01*
G75*
G02*
X150700000Y-50212001I0J-82000D01*
G01*
X150700000Y-50868001D01*
G75*
G02*
X150618000Y-50950001I-82000J0D01*
G01*
G37*
G36*
G01*
X150618000Y-52450001D02*
X149182000Y-52450001D01*
G75*
G02*
X149100000Y-52368001I0J82000D01*
G01*
X149100000Y-51712001D01*
G75*
G02*
X149182000Y-51630001I82000J0D01*
G01*
X150618000Y-51630001D01*
G75*
G02*
X150700000Y-51712001I0J-82000D01*
G01*
X150700000Y-52368001D01*
G75*
G02*
X150618000Y-52450001I-82000J0D01*
G01*
G37*
G36*
G01*
X155818000Y-50950001D02*
X154382000Y-50950001D01*
G75*
G02*
X154300000Y-50868001I0J82000D01*
G01*
X154300000Y-50212001D01*
G75*
G02*
X154382000Y-50130001I82000J0D01*
G01*
X155818000Y-50130001D01*
G75*
G02*
X155900000Y-50212001I0J-82000D01*
G01*
X155900000Y-50868001D01*
G75*
G02*
X155818000Y-50950001I-82000J0D01*
G01*
G37*
G36*
G01*
X155818000Y-52450001D02*
X154382000Y-52450001D01*
G75*
G02*
X154300000Y-52368001I0J82000D01*
G01*
X154300000Y-51712001D01*
G75*
G02*
X154382000Y-51630001I82000J0D01*
G01*
X155818000Y-51630001D01*
G75*
G02*
X155900000Y-51712001I0J-82000D01*
G01*
X155900000Y-52368001D01*
G75*
G02*
X155818000Y-52450001I-82000J0D01*
G01*
G37*
G36*
G01*
X131568000Y-52340001D02*
X130132000Y-52340001D01*
G75*
G02*
X130050000Y-52258001I0J82000D01*
G01*
X130050000Y-51602001D01*
G75*
G02*
X130132000Y-51520001I82000J0D01*
G01*
X131568000Y-51520001D01*
G75*
G02*
X131650000Y-51602001I0J-82000D01*
G01*
X131650000Y-52258001D01*
G75*
G02*
X131568000Y-52340001I-82000J0D01*
G01*
G37*
G36*
G01*
X131568000Y-53840001D02*
X130132000Y-53840001D01*
G75*
G02*
X130050000Y-53758001I0J82000D01*
G01*
X130050000Y-53102001D01*
G75*
G02*
X130132000Y-53020001I82000J0D01*
G01*
X131568000Y-53020001D01*
G75*
G02*
X131650000Y-53102001I0J-82000D01*
G01*
X131650000Y-53758001D01*
G75*
G02*
X131568000Y-53840001I-82000J0D01*
G01*
G37*
G36*
G01*
X136768000Y-52340001D02*
X135332000Y-52340001D01*
G75*
G02*
X135250000Y-52258001I0J82000D01*
G01*
X135250000Y-51602001D01*
G75*
G02*
X135332000Y-51520001I82000J0D01*
G01*
X136768000Y-51520001D01*
G75*
G02*
X136850000Y-51602001I0J-82000D01*
G01*
X136850000Y-52258001D01*
G75*
G02*
X136768000Y-52340001I-82000J0D01*
G01*
G37*
G36*
G01*
X136768000Y-53840001D02*
X135332000Y-53840001D01*
G75*
G02*
X135250000Y-53758001I0J82000D01*
G01*
X135250000Y-53102001D01*
G75*
G02*
X135332000Y-53020001I82000J0D01*
G01*
X136768000Y-53020001D01*
G75*
G02*
X136850000Y-53102001I0J-82000D01*
G01*
X136850000Y-53758001D01*
G75*
G02*
X136768000Y-53840001I-82000J0D01*
G01*
G37*
G36*
G01*
X112518000Y-54740001D02*
X111082000Y-54740001D01*
G75*
G02*
X111000000Y-54658001I0J82000D01*
G01*
X111000000Y-54002001D01*
G75*
G02*
X111082000Y-53920001I82000J0D01*
G01*
X112518000Y-53920001D01*
G75*
G02*
X112600000Y-54002001I0J-82000D01*
G01*
X112600000Y-54658001D01*
G75*
G02*
X112518000Y-54740001I-82000J0D01*
G01*
G37*
G36*
G01*
X112518000Y-56240001D02*
X111082000Y-56240001D01*
G75*
G02*
X111000000Y-56158001I0J82000D01*
G01*
X111000000Y-55502001D01*
G75*
G02*
X111082000Y-55420001I82000J0D01*
G01*
X112518000Y-55420001D01*
G75*
G02*
X112600000Y-55502001I0J-82000D01*
G01*
X112600000Y-56158001D01*
G75*
G02*
X112518000Y-56240001I-82000J0D01*
G01*
G37*
G36*
G01*
X117718000Y-54740001D02*
X116282000Y-54740001D01*
G75*
G02*
X116200000Y-54658001I0J82000D01*
G01*
X116200000Y-54002001D01*
G75*
G02*
X116282000Y-53920001I82000J0D01*
G01*
X117718000Y-53920001D01*
G75*
G02*
X117800000Y-54002001I0J-82000D01*
G01*
X117800000Y-54658001D01*
G75*
G02*
X117718000Y-54740001I-82000J0D01*
G01*
G37*
G36*
G01*
X117718000Y-56240001D02*
X116282000Y-56240001D01*
G75*
G02*
X116200000Y-56158001I0J82000D01*
G01*
X116200000Y-55502001D01*
G75*
G02*
X116282000Y-55420001I82000J0D01*
G01*
X117718000Y-55420001D01*
G75*
G02*
X117800000Y-55502001I0J-82000D01*
G01*
X117800000Y-56158001D01*
G75*
G02*
X117718000Y-56240001I-82000J0D01*
G01*
G37*
D28*
X82910000Y-37009620D03*
X82910000Y-38010380D03*
D29*
X98894900Y-114109500D03*
X199700000Y-100000000D03*
X124396500Y-95567500D03*
X199700000Y-61800000D03*
X124325380Y-57409080D03*
D21*
X166470000Y-47600000D03*
X176630000Y-47600000D03*
D22*
X171550000Y-47600000D03*
D23*
X167740000Y-45060000D03*
X174090000Y-42520000D03*
X169010000Y-42520000D03*
X175360000Y-45060000D03*
D24*
X177840000Y-42520000D03*
X163990000Y-45060000D03*
D21*
X156870000Y-123800000D03*
X167030000Y-123800000D03*
D22*
X161950000Y-123800000D03*
D23*
X158140000Y-121260000D03*
X164490000Y-118720000D03*
X159410000Y-118720000D03*
X165760000Y-121260000D03*
D24*
X168240000Y-118720000D03*
X154390000Y-121260000D03*
D21*
X137817700Y-124828300D03*
X147977700Y-124828300D03*
D22*
X142897700Y-124828300D03*
D23*
X139087700Y-122288300D03*
X145437700Y-119748300D03*
X140357700Y-119748300D03*
X146707700Y-122288300D03*
D24*
X149187700Y-119748300D03*
X135337700Y-122288300D03*
D21*
X118770000Y-126200000D03*
X128930000Y-126200000D03*
D22*
X123850000Y-126200000D03*
D23*
X120040000Y-123660000D03*
X126390000Y-121120000D03*
X121310000Y-121120000D03*
X127660000Y-123660000D03*
D24*
X130140000Y-121120000D03*
X116290000Y-123660000D03*
D21*
X95631000Y-121648091D03*
X100711000Y-130446909D03*
D22*
X98171000Y-126047500D03*
D23*
X98465705Y-121477943D03*
X103840409Y-125707205D03*
X101300409Y-121307795D03*
X102275705Y-128077057D03*
D30*
G36*
X103995377Y-128475618D02*
G01*
X106160441Y-127225618D01*
X107435441Y-129433982D01*
X105270377Y-130683982D01*
X103995377Y-128475618D01*
G37*
G36*
X94870673Y-117751166D02*
G01*
X97035737Y-116501166D01*
X98310737Y-118709530D01*
X96145673Y-119959530D01*
X94870673Y-117751166D01*
G37*
D21*
X85394800Y-98285300D03*
X95554800Y-98285300D03*
D22*
X90474800Y-98285300D03*
D23*
X86664800Y-95745300D03*
X93014800Y-93205300D03*
X87934800Y-93205300D03*
X94284800Y-95745300D03*
D24*
X96764800Y-93205300D03*
X82914800Y-95745300D03*
D21*
X204570000Y-111050000D03*
X214730000Y-111050000D03*
D22*
X209650000Y-111050000D03*
D23*
X205840000Y-108510000D03*
X212190000Y-105970000D03*
X207110000Y-105970000D03*
X213460000Y-108510000D03*
D24*
X215940000Y-105970000D03*
X202090000Y-108510000D03*
D21*
X185520000Y-109550000D03*
X195680000Y-109550000D03*
D22*
X190600000Y-109550000D03*
D23*
X186790000Y-107010000D03*
X193140000Y-104470000D03*
X188060000Y-104470000D03*
X194410000Y-107010000D03*
D24*
X196890000Y-104470000D03*
X183040000Y-107010000D03*
D21*
X166470000Y-104750000D03*
X176630000Y-104750000D03*
D22*
X171550000Y-104750000D03*
D23*
X167740000Y-102210000D03*
X174090000Y-99670000D03*
X169010000Y-99670000D03*
X175360000Y-102210000D03*
D24*
X177840000Y-99670000D03*
X163990000Y-102210000D03*
D21*
X147420000Y-103360000D03*
X157580000Y-103360000D03*
D22*
X152500000Y-103360000D03*
D23*
X148690000Y-100820000D03*
X155040000Y-98280000D03*
X149960000Y-98280000D03*
X156310000Y-100820000D03*
D24*
X158790000Y-98280000D03*
X144940000Y-100820000D03*
D21*
X128370000Y-104750000D03*
X138530000Y-104750000D03*
D22*
X133450000Y-104750000D03*
D23*
X129640000Y-102210000D03*
X135990000Y-99670000D03*
X130910000Y-99670000D03*
X137260000Y-102210000D03*
D24*
X139740000Y-99670000D03*
X125890000Y-102210000D03*
D21*
X109320000Y-107150000D03*
X119480000Y-107150000D03*
D22*
X114400000Y-107150000D03*
D23*
X110590000Y-104610000D03*
X116940000Y-102070000D03*
X111860000Y-102070000D03*
X118210000Y-104610000D03*
D24*
X120690000Y-102070000D03*
X106840000Y-104610000D03*
D21*
X204570000Y-92000000D03*
X214730000Y-92000000D03*
D22*
X209650000Y-92000000D03*
D23*
X205840000Y-89460000D03*
X212190000Y-86920000D03*
X207110000Y-86920000D03*
X213460000Y-89460000D03*
D24*
X215940000Y-86920000D03*
X202090000Y-89460000D03*
D21*
X185520000Y-90500000D03*
X195680000Y-90500000D03*
D22*
X190600000Y-90500000D03*
D23*
X186790000Y-87960000D03*
X193140000Y-85420000D03*
X188060000Y-85420000D03*
X194410000Y-87960000D03*
D24*
X196890000Y-85420000D03*
X183040000Y-87960000D03*
D21*
X166470000Y-85700000D03*
X176630000Y-85700000D03*
D22*
X171550000Y-85700000D03*
D23*
X167740000Y-83160000D03*
X174090000Y-80620000D03*
X169010000Y-80620000D03*
X175360000Y-83160000D03*
D24*
X177840000Y-80620000D03*
X163990000Y-83160000D03*
D21*
X147420000Y-84310000D03*
X157580000Y-84310000D03*
D22*
X152500000Y-84310000D03*
D23*
X148690000Y-81770000D03*
X155040000Y-79230000D03*
X149960000Y-79230000D03*
X156310000Y-81770000D03*
D24*
X158790000Y-79230000D03*
X144940000Y-81770000D03*
D21*
X128370000Y-85700000D03*
X138530000Y-85700000D03*
D22*
X133450000Y-85700000D03*
D23*
X129640000Y-83160000D03*
X135990000Y-80620000D03*
X130910000Y-80620000D03*
X137260000Y-83160000D03*
D24*
X139740000Y-80620000D03*
X125890000Y-83160000D03*
D21*
X109320000Y-88100000D03*
X119480000Y-88100000D03*
D22*
X114400000Y-88100000D03*
D23*
X110590000Y-85560000D03*
X116940000Y-83020000D03*
X111860000Y-83020000D03*
X118210000Y-85560000D03*
D24*
X120690000Y-83020000D03*
X106840000Y-85560000D03*
D21*
X204570000Y-72950000D03*
X214730000Y-72950000D03*
D22*
X209650000Y-72950000D03*
D23*
X205840000Y-70410000D03*
X212190000Y-67870000D03*
X207110000Y-67870000D03*
X213460000Y-70410000D03*
D24*
X215940000Y-67870000D03*
X202090000Y-70410000D03*
D21*
X185520000Y-71450000D03*
X195680000Y-71450000D03*
D22*
X190600000Y-71450000D03*
D23*
X186790000Y-68910000D03*
X193140000Y-66370000D03*
X188060000Y-66370000D03*
X194410000Y-68910000D03*
D24*
X196890000Y-66370000D03*
X183040000Y-68910000D03*
D21*
X166470000Y-66650000D03*
X176630000Y-66650000D03*
D22*
X171550000Y-66650000D03*
D23*
X167740000Y-64110000D03*
X174090000Y-61570000D03*
X169010000Y-61570000D03*
X175360000Y-64110000D03*
D24*
X177840000Y-61570000D03*
X163990000Y-64110000D03*
D21*
X147420000Y-65260000D03*
X157580000Y-65260000D03*
D22*
X152500000Y-65260000D03*
D23*
X148690000Y-62720000D03*
X155040000Y-60180000D03*
X149960000Y-60180000D03*
X156310000Y-62720000D03*
D24*
X158790000Y-60180000D03*
X144940000Y-62720000D03*
D21*
X128370000Y-66650000D03*
X138530000Y-66650000D03*
D22*
X133450000Y-66650000D03*
D23*
X129640000Y-64110000D03*
X135990000Y-61570000D03*
X130910000Y-61570000D03*
X137260000Y-64110000D03*
D24*
X139740000Y-61570000D03*
X125890000Y-64110000D03*
D21*
X109320000Y-69050000D03*
X119480000Y-69050000D03*
D22*
X114400000Y-69050000D03*
D23*
X110590000Y-66510000D03*
X116940000Y-63970000D03*
X111860000Y-63970000D03*
X118210000Y-66510000D03*
D24*
X120690000Y-63970000D03*
X106840000Y-66510000D03*
D21*
X204570000Y-53900000D03*
X214730000Y-53900000D03*
D22*
X209650000Y-53900000D03*
D23*
X205840000Y-51360000D03*
X212190000Y-48820000D03*
X207110000Y-48820000D03*
X213460000Y-51360000D03*
D24*
X215940000Y-48820000D03*
X202090000Y-51360000D03*
D21*
X185520000Y-52400000D03*
X195680000Y-52400000D03*
D22*
X190600000Y-52400000D03*
D23*
X186790000Y-49860000D03*
X193140000Y-47320000D03*
X188060000Y-47320000D03*
X194410000Y-49860000D03*
D24*
X196890000Y-47320000D03*
X183040000Y-49860000D03*
D21*
X128370000Y-47600000D03*
X138530000Y-47600000D03*
D22*
X133450000Y-47600000D03*
D23*
X129640000Y-45060000D03*
X135990000Y-42520000D03*
X130910000Y-42520000D03*
X137260000Y-45060000D03*
D24*
X139740000Y-42520000D03*
X125890000Y-45060000D03*
D21*
X109320000Y-50000000D03*
X119480000Y-50000000D03*
D22*
X114400000Y-50000000D03*
D23*
X110590000Y-47460000D03*
X116940000Y-44920000D03*
X111860000Y-44920000D03*
X118210000Y-47460000D03*
D24*
X120690000Y-44920000D03*
X106840000Y-47460000D03*
D14*
X95678000Y-88262460D03*
D15*
X85518000Y-88262460D03*
D16*
X92378000Y-88265000D03*
X88978000Y-88265000D03*
D31*
X89970500Y-83519000D03*
X82970500Y-83519000D03*
D32*
X91770500Y-85619000D03*
X93270500Y-81419000D03*
X84770500Y-85619000D03*
X87770500Y-85619000D03*
D31*
X82970500Y-82169000D03*
X89970500Y-82169000D03*
D32*
X84770500Y-80069000D03*
X87770500Y-80069000D03*
X91770500Y-80069000D03*
X93270500Y-84269000D03*
D28*
X83789000Y-73351080D03*
X83789000Y-72350320D03*
X87847900Y-72375120D03*
X87847900Y-73375880D03*
X90419332Y-72375120D03*
X90419332Y-73375880D03*
X92990766Y-72375120D03*
X92990766Y-73375880D03*
X95498700Y-72375120D03*
X95498700Y-73375880D03*
D27*
X102579898Y-54116698D03*
X106172000Y-57708800D03*
X106634551Y-55072551D03*
X103042449Y-51480449D03*
D14*
X166950000Y-115297460D03*
D15*
X156790000Y-115297460D03*
D16*
X163650000Y-115300000D03*
X160250000Y-115300000D03*
D14*
X147897700Y-116325760D03*
D15*
X137737700Y-116325760D03*
D16*
X144597700Y-116328300D03*
X141197700Y-116328300D03*
D14*
X128850000Y-117697460D03*
D15*
X118690000Y-117697460D03*
D16*
X125550000Y-117700000D03*
X122150000Y-117700000D03*
D30*
G36*
X106669086Y-125760519D02*
G01*
X108400254Y-124761029D01*
X109399744Y-126492197D01*
X107668576Y-127491687D01*
X106669086Y-125760519D01*
G37*
D15*
X102954415Y-117327540D03*
D30*
G36*
X107481734Y-123674167D02*
G01*
X106182696Y-124424167D01*
X105282696Y-122865321D01*
X106581734Y-122115321D01*
X107481734Y-123674167D01*
G37*
G36*
X105781734Y-120729681D02*
G01*
X104482696Y-121479681D01*
X103582696Y-119920835D01*
X104881734Y-119170835D01*
X105781734Y-120729681D01*
G37*
D14*
X214650000Y-102547460D03*
D15*
X204490000Y-102547460D03*
D16*
X211350000Y-102550000D03*
X207950000Y-102550000D03*
D14*
X195600000Y-101047460D03*
D15*
X185440000Y-101047460D03*
D16*
X192300000Y-101050000D03*
X188900000Y-101050000D03*
D14*
X176550000Y-96247460D03*
D15*
X166390000Y-96247460D03*
D16*
X173250000Y-96250000D03*
X169850000Y-96250000D03*
D14*
X157500000Y-94857460D03*
D15*
X147340000Y-94857460D03*
D16*
X154200000Y-94860000D03*
X150800000Y-94860000D03*
D14*
X138450000Y-96247460D03*
D15*
X128290000Y-96247460D03*
D16*
X135150000Y-96250000D03*
X131750000Y-96250000D03*
D14*
X119400000Y-98647460D03*
D15*
X109240000Y-98647460D03*
D16*
X116100000Y-98650000D03*
X112700000Y-98650000D03*
D14*
X214650000Y-83497460D03*
D15*
X204490000Y-83497460D03*
D16*
X211350000Y-83500000D03*
X207950000Y-83500000D03*
D14*
X195600000Y-81997460D03*
D15*
X185440000Y-81997460D03*
D16*
X192300000Y-82000000D03*
X188900000Y-82000000D03*
D14*
X176550000Y-77197460D03*
D15*
X166390000Y-77197460D03*
D16*
X173250000Y-77200000D03*
X169850000Y-77200000D03*
D14*
X157500000Y-75807460D03*
D15*
X147340000Y-75807460D03*
D16*
X154200000Y-75810000D03*
X150800000Y-75810000D03*
D14*
X138450000Y-77197460D03*
D15*
X128290000Y-77197460D03*
D16*
X135150000Y-77200000D03*
X131750000Y-77200000D03*
D14*
X119400000Y-79597460D03*
D15*
X109240000Y-79597460D03*
D16*
X116100000Y-79600000D03*
X112700000Y-79600000D03*
D14*
X214650000Y-64447460D03*
D15*
X204490000Y-64447460D03*
D16*
X211350000Y-64450000D03*
X207950000Y-64450000D03*
D14*
X195600000Y-62947460D03*
D15*
X185440000Y-62947460D03*
D16*
X192300000Y-62950000D03*
X188900000Y-62950000D03*
D14*
X176550000Y-58147460D03*
D15*
X166390000Y-58147460D03*
D16*
X173250000Y-58150000D03*
X169850000Y-58150000D03*
D14*
X157500000Y-56757460D03*
D15*
X147340000Y-56757460D03*
D16*
X154200000Y-56760000D03*
X150800000Y-56760000D03*
D14*
X138450000Y-58147460D03*
D15*
X128290000Y-58147460D03*
D16*
X135150000Y-58150000D03*
X131750000Y-58150000D03*
D14*
X119400000Y-60547460D03*
D15*
X109240000Y-60547460D03*
D16*
X116100000Y-60550000D03*
X112700000Y-60550000D03*
D14*
X214650000Y-45397460D03*
D15*
X204490000Y-45397460D03*
D16*
X211350000Y-45400000D03*
X207950000Y-45400000D03*
D14*
X195600000Y-43897460D03*
D15*
X185440000Y-43897460D03*
D16*
X192300000Y-43900000D03*
X188900000Y-43900000D03*
D14*
X176550000Y-39097460D03*
D15*
X166390000Y-39097460D03*
D16*
X173250000Y-39100000D03*
X169850000Y-39100000D03*
D14*
X157500000Y-37707460D03*
D15*
X147340000Y-37707460D03*
D16*
X154200000Y-37710000D03*
X150800000Y-37710000D03*
D14*
X138450000Y-39095460D03*
D15*
X128290000Y-39095460D03*
D16*
X135150000Y-39098000D03*
X131750000Y-39098000D03*
M02*
