M48
; DRILL file {KiCad (5.1.9)-1} date 02/12/21 09:18:24
; FORMAT={-:-/ absolute / inch / decimal}
; #@! TF.CreationDate,2021-02-12T09:18:24+01:00
; #@! TF.GenerationSoftware,Kicad,Pcbnew,(5.1.9)-1
FMAT,2
INCH
T1C0.0118
T2C0.0120
T3C0.0157
T4C0.0217
T5C0.0320
T6C0.0394
T7C0.0472
T8C0.0670
T9C0.1063
T10C0.1181
T11C0.1570
%
G90
G05
T2
X3.2644Y-3.7695
X3.3144Y-3.6695
X3.38Y-3.052
X3.384Y-3.97
X3.426Y-3.258
X3.468Y-3.972
X3.5Y-1.726
X3.5Y-4.394
X3.51Y-2.026
X3.552Y-4.27
X3.57Y-5.02
X3.61Y-3.056
X3.6161Y-2.0799
X3.6624Y-4.8996
X3.706Y-2.128
X3.706Y-3.05
X3.71Y-4.938
X3.732Y-4.048
X3.737Y-4.085
X3.75Y-1.674
X3.758Y-3.118
X3.784Y-4.17
X3.7875Y-2.2775
X3.7875Y-2.345
X3.79Y-4.242
X3.7925Y-2.1875
X3.7975Y-1.5825
X3.7975Y-1.975
X3.8025Y-2.59
X3.8025Y-2.68
X3.8028Y-4.6547
X3.803Y-2.727
X3.805Y-2.085
X3.8071Y-3.6669
X3.8075Y-2.495
X3.856Y-4.074
X3.8596Y-3.7695
X3.86Y-3.102
X3.88Y-2.996
X3.908Y-3.486
X3.9162Y-4.6462
X3.936Y-2.888
X3.992Y-4.26
X4.008Y-4.43
X4.01Y-1.815
X4.0146Y-4.0266
X4.022Y-2.414
X4.0299Y-1.5974
X4.0332Y-2.9234
X4.06Y-2.988
X4.074Y-4.158
X4.078Y-3.768
X4.0825Y-1.49
X4.0829Y-2.9482
X4.1004Y-5.1703
X4.1085Y-4.1585
X4.122Y-1.688
X4.166Y-2.108
X4.17Y-2.51
X4.171Y-5.077
X4.172Y-4.268
X4.204Y-4.4
X4.206Y-4.2567
X4.2063Y-1.8685
X4.2063Y-2.6185
X4.2063Y-3.3685
X4.2063Y-4.1185
X4.21Y-4.598
X4.218Y-2.816
X4.218Y-3.114
X4.2563Y-1.7685
X4.2563Y-2.5185
X4.2563Y-3.2685
X4.2563Y-4.0185
X4.2575Y-2.215
X4.306Y-2.952
X4.308Y-2.052
X4.3181Y-2.1104
X4.34Y-2.876
X4.348Y-3.634
X4.3542Y-2.1103
X4.36Y-4.348
X4.3675Y-4.5957
X4.406Y-3.5945
X4.408Y-2.8445
X4.4098Y-4.3445
X4.4099Y-2.9925
X4.4103Y-3.7425
X4.414Y-4.5
X4.414Y-2.26
X4.43Y-5.148
X4.496Y-4.77
X4.5783Y-4.8685
X4.6283Y-4.7685
X4.662Y-3.766
X4.67Y-2.2625
X4.676Y-4.4138
X4.692Y-2.916
X4.698Y-3.566
X4.704Y-2.976
X4.717Y-2.203
X4.734Y-2.068
X4.734Y-5.09
X4.7516Y-2.5185
X4.7516Y-3.2685
X4.7516Y-4.0185
X4.7545Y-1.7715
X4.78Y-5.0945
X4.7828Y-5.2425
X4.786Y-3.074
X4.8016Y-1.8685
X4.8016Y-2.6185
X4.8016Y-3.3685
X4.8016Y-4.1185
X4.866Y-3.91
X4.882Y-2.98
X4.898Y-3.568
X4.912Y-2.702
X4.932Y-2.856
X4.9563Y-2.524
X4.9563Y-3.274
X4.9563Y-4.024
X4.9575Y-1.94
X4.9592Y-1.7712
X5.0063Y-1.674
X5.0063Y-2.424
X5.0063Y-3.174
X5.0063Y-3.924
X5.025Y-2.069
X5.026Y-3.684
X5.066Y-4.34
X5.068Y-2.07
X5.08Y-4.244
X5.084Y-2.13
X5.094Y-3.498
X5.102Y-2.788
X5.1291Y-4.7631
X5.136Y-4.25
X5.15Y-1.998
X5.158Y-2.164
X5.1591Y-3.5
X5.16Y-2.902
X5.16Y-3.652
X5.1601Y-2.7498
X5.1618Y-4.401
X5.1736Y-4.8685
X5.1984Y-4.5252
X5.3283Y-4.8097
X5.3783Y-4.7145
X5.38Y-1.925
X5.4275Y-4.4225
X5.434Y-2.82
X5.444Y-4.332
X5.458Y-5.046
X5.5016Y-2.424
X5.5016Y-3.174
X5.5016Y-3.924
X5.5028Y-1.6752
X5.524Y-5.038
X5.5326Y-5.1885
X5.5516Y-1.774
X5.5516Y-2.524
X5.5516Y-3.274
X5.5516Y-4.024
X5.618Y-2.144
X5.654Y-1.878
X5.67Y-2.662
X5.688Y-2.826
X5.7063Y-1.7193
X5.7063Y-2.4693
X5.7063Y-3.2193
X5.7108Y-3.9648
X5.7525Y-4.945
X5.7563Y-1.6193
X5.7563Y-2.3693
X5.7563Y-3.1193
X5.7563Y-3.8693
X5.822Y-5.07
X5.828Y-4.308
X5.844Y-2.736
X5.852Y-4.186
X5.8571Y-1.9535
X5.8576Y-3.4356
X5.8581Y-1.9894
X5.8735Y-4.7145
X5.9Y-2.848
X5.908Y-2.6953
X5.9093Y-3.4453
X5.9095Y-4.1953
X5.91Y-3.596
X5.9111Y-4.3445
X5.912Y-2.106
X5.9235Y-4.8145
X5.9724Y-5.0543
X5.9775Y-4.4773
X6.012Y-5.002
X6.015Y-4.925
X6.0783Y-4.774
X6.125Y-2.135
X6.1283Y-4.674
X6.194Y-2.772
X6.196Y-4.2646
X6.205Y-4.3775
X6.2085Y-5.0229
X6.21Y-2.03
X6.2125Y-3.595
X6.22Y-1.9125
X6.226Y-2.836
X6.2309Y-2.0969
X6.2516Y-1.6193
X6.2516Y-2.3693
X6.2516Y-3.1193
X6.2516Y-3.8693
X6.28Y-5.0
X6.282Y-5.15
X6.3016Y-1.7193
X6.3016Y-2.4693
X6.3016Y-3.2193
X6.3016Y-3.9693
X6.4Y-2.68
X6.4563Y-1.774
X6.4563Y-4.024
X6.4592Y-3.2712
X6.5063Y-1.674
X6.5063Y-2.424
X6.5063Y-3.174
X6.5063Y-3.924
X6.528Y-2.842
X6.5294Y-2.0626
X6.5475Y-4.265
X6.572Y-4.432
X6.5759Y-3.509
X6.578Y-2.056
X6.584Y-2.784
X6.61Y-4.24
X6.652Y-3.5
X6.654Y-1.994
X6.656Y-2.898
X6.6594Y-2.75
X6.66Y-2.154
X6.66Y-3.66
X6.6608Y-4.2474
X6.6655Y-4.4078
X6.6736Y-4.774
X6.9125Y-2.17
X6.94Y-2.834
X6.9423Y-4.3193
X6.98Y-2.888
X6.9975Y-4.4425
X7.0016Y-1.674
X7.0016Y-2.424
X7.0016Y-3.924
X7.0048Y-3.1708
X7.0516Y-1.774
X7.0516Y-2.524
X7.0516Y-3.274
X7.0516Y-4.024
X7.052Y-3.018
X7.15Y-2.582
X7.158Y-3.786
X7.186Y-2.29
X7.2063Y-2.713
X7.2063Y-3.463
X7.2063Y-4.213
X7.2066Y-1.9626
X7.2563Y-1.863
X7.2563Y-2.613
X7.2563Y-3.363
X7.2563Y-4.113
X7.298Y-4.52
X7.302Y-3.032
X7.322Y-2.188
X7.3351Y-3.6997
X7.35Y-2.976
X7.35Y-4.436
X7.398Y-2.1857
X7.402Y-3.689
X7.408Y-3.09
X7.4092Y-2.939
X7.4095Y-4.439
X7.41Y-2.337
X7.41Y-3.838
X7.412Y-4.598
X7.634Y-2.114
X7.672Y-3.868
X7.672Y-4.514
X7.6775Y-2.365
X7.682Y-4.396
X7.692Y-3.02
X7.694Y-2.216
X7.7Y-4.6475
X7.732Y-2.244
X7.7516Y-1.8684
X7.7516Y-2.613
X7.7516Y-4.113
X7.7553Y-3.3593
X7.8016Y-1.963
X7.8016Y-2.713
X7.8016Y-3.463
X7.8016Y-4.213
X7.822Y-4.66
X7.854Y-4.484
X7.868Y-4.35
X7.8828Y-2.9808
X7.8828Y-3.7686
X7.902Y-4.42
X7.906Y-2.23
X7.9475Y-2.135
X7.954Y-4.546
X7.9563Y-2.0217
X7.9563Y-2.772
X7.9563Y-3.522
X7.9563Y-4.272
X7.966Y-2.344
X7.974Y-3.698
X7.988Y-2.96
X8.0Y-3.904
X8.002Y-3.132
X8.0063Y-1.922
X8.0063Y-2.672
X8.0063Y-3.422
X8.0063Y-4.172
X8.052Y-4.548
X8.076Y-2.236
X8.086Y-2.306
X8.086Y-3.03
X8.0973Y-3.7686
X8.1Y-4.49
X8.14Y-2.998
X8.148Y-2.248
X8.156Y-3.158
X8.156Y-3.748
X8.158Y-4.498
X8.1609Y-4.6466
X8.1616Y-3.8987
X8.162Y-2.408
X8.45Y-2.23
X8.4675Y-3.74
X8.474Y-2.998
X8.5016Y-1.922
X8.5016Y-2.672
X8.5016Y-3.422
X8.5016Y-4.172
X8.5516Y-2.022
X8.5516Y-2.772
X8.5516Y-3.522
X8.5516Y-4.272
X8.6Y-2.284
X8.6Y-3.6925
X8.602Y-3.004
T3
X3.5031Y-3.475
X3.5581Y-2.8181
X3.6369Y-3.475
X3.6919Y-2.8181
X4.1465Y-4.7245
X4.2135Y-4.8405
X4.4356Y-2.3625
X4.4356Y-3.8625
X4.4381Y-1.605
X4.4381Y-3.1125
X4.5694Y-2.3625
X4.5694Y-3.8625
X4.5719Y-1.605
X4.5719Y-3.1125
X4.8106Y-4.6125
X4.9444Y-4.6125
X5.1856Y-2.2675
X5.1856Y-3.0175
X5.1881Y-1.52
X5.1981Y-3.7675
X5.3194Y-2.2675
X5.3194Y-3.0175
X5.3219Y-1.52
X5.3319Y-3.7675
X5.5606Y-4.5575
X5.6944Y-4.5575
X5.9356Y-1.465
X5.9356Y-2.2125
X5.9356Y-2.9625
X5.9381Y-3.7125
X6.0694Y-1.465
X6.0694Y-2.2125
X6.0694Y-2.9625
X6.0719Y-3.7125
X6.3081Y-4.5175
X6.4419Y-4.5175
X6.6856Y-1.52
X6.6856Y-2.2675
X6.6856Y-3.0175
X6.6856Y-3.7675
X6.8194Y-1.52
X6.8194Y-2.2675
X6.8194Y-3.0175
X6.8194Y-3.7675
X7.4306Y-3.955
X7.4356Y-1.705
X7.4356Y-2.455
X7.4381Y-3.2075
X7.5644Y-3.955
X7.5694Y-1.705
X7.5694Y-2.455
X7.5719Y-3.2075
X8.1856Y-1.76
X8.1856Y-2.5175
X8.1881Y-3.2675
X8.1881Y-4.015
X8.3194Y-1.76
X8.3194Y-2.5175
X8.3219Y-3.2675
X8.3219Y-4.015
T4
X4.0122Y-1.4876
X4.1578Y-1.4876
T5
X3.279Y-1.5799
X3.279Y-1.6799
X3.279Y-1.7799
X3.279Y-1.8799
X3.279Y-1.9799
X3.279Y-2.0799
X3.279Y-2.1799
X3.279Y-2.2799
X3.279Y-2.3799
X3.279Y-2.4799
X3.279Y-2.5799
X3.279Y-2.6799
X3.3301Y-1.627
X3.3301Y-1.727
X3.3301Y-1.827
X3.3301Y-1.927
X3.3301Y-2.027
X3.3301Y-2.127
X3.3301Y-2.227
X3.3301Y-2.327
X3.3301Y-2.427
X3.3301Y-2.527
X3.3301Y-2.627
X3.3301Y-2.727
X3.879Y-1.5799
X3.879Y-1.6799
X3.879Y-1.7799
X3.879Y-1.8799
X3.879Y-1.9799
X3.879Y-2.0799
X3.879Y-2.1799
X3.879Y-2.2799
X3.879Y-2.3799
X3.879Y-2.4799
X3.879Y-2.5799
X3.879Y-2.6799
X3.8818Y-3.3293
X3.8843Y-3.2068
X3.9301Y-1.627
X3.9301Y-1.727
X3.9301Y-1.827
X3.9301Y-1.927
X3.9301Y-2.027
X3.9301Y-2.127
X3.9301Y-2.227
X3.9301Y-2.327
X3.9301Y-2.427
X3.9301Y-2.527
X3.9301Y-2.627
X3.9301Y-2.727
X4.0232Y-3.4707
X4.0257Y-3.3482
X4.0386Y-2.1306
X4.0568Y-2.0268
X4.18Y-2.272
X4.1982Y-2.1682
T6
X3.3669Y-3.4749
X3.4219Y-2.8182
X3.4575Y-2.9131
X3.4636Y-3.5939
X3.4636Y-4.1648
X3.5066Y-1.8541
X3.5066Y-2.425
X3.5575Y-2.9131
X3.562Y-4.1648
X3.605Y-1.8541
X3.6575Y-2.9131
X3.6604Y-3.5939
X3.6604Y-4.1648
X3.7034Y-1.8541
X3.7034Y-2.425
X3.7575Y-2.9131
X3.7669Y-3.4749
X3.8219Y-2.8182
X4.0785Y-4.6065
X4.2785Y-4.9529
X4.2994Y-2.3624
X4.2994Y-3.8624
X4.3019Y-1.6049
X4.3019Y-3.1124
X4.6744Y-4.6124
X4.6994Y-2.3624
X4.6994Y-3.8624
X4.7019Y-1.6049
X4.7019Y-3.1124
X5.0494Y-2.2674
X5.0494Y-3.0174
X5.0519Y-1.5199
X5.0619Y-3.7674
X5.0744Y-4.6124
X5.4244Y-4.5574
X5.4494Y-2.2674
X5.4494Y-3.0174
X5.4519Y-1.5199
X5.4619Y-3.7674
X5.7994Y-1.4649
X5.7994Y-2.2124
X5.7994Y-2.9624
X5.8019Y-3.7124
X5.8244Y-4.5574
X6.1719Y-4.5174
X6.1994Y-1.4649
X6.1994Y-2.2124
X6.1994Y-2.9624
X6.2019Y-3.7124
X6.5494Y-1.5199
X6.5494Y-2.2674
X6.5494Y-3.0174
X6.5494Y-3.7674
X6.5719Y-4.5174
X6.9494Y-1.5199
X6.9494Y-2.2674
X6.9494Y-3.0174
X6.9494Y-3.7674
X7.2944Y-3.9549
X7.2994Y-1.7049
X7.2994Y-2.4549
X7.3019Y-3.2074
X7.6944Y-3.9549
X7.6994Y-1.7049
X7.6994Y-2.4549
X7.7019Y-3.2074
X8.0494Y-1.7599
X8.0494Y-2.5174
X8.0519Y-3.2674
X8.0519Y-4.0149
X8.4494Y-1.7599
X8.4494Y-2.5174
X8.4519Y-3.2674
X8.4519Y-4.0149
T7
X3.2666Y-3.235
X3.2666Y-3.2881
X3.5421Y-3.235
X3.5421Y-3.2881
T8
X3.362Y-3.8695
X3.762Y-3.8695
X3.765Y-4.7893
X3.965Y-5.1357
X4.3039Y-1.9685
X4.3039Y-2.7185
X4.3039Y-3.4685
X4.3039Y-4.2185
X4.676Y-4.9685
X4.7039Y-1.9685
X4.7039Y-2.7185
X4.7039Y-3.4685
X4.7039Y-4.2185
X5.0539Y-1.874
X5.0539Y-2.624
X5.0539Y-3.374
X5.0539Y-4.124
X5.076Y-4.9685
X5.4259Y-4.9145
X5.4539Y-1.874
X5.4539Y-2.624
X5.4539Y-3.374
X5.4539Y-4.124
X5.8039Y-1.8193
X5.8039Y-2.5693
X5.8039Y-3.3193
X5.8039Y-4.0693
X5.8259Y-4.9145
X6.176Y-4.874
X6.2039Y-1.8193
X6.2039Y-2.5693
X6.2039Y-3.3193
X6.2039Y-4.0693
X6.5539Y-1.874
X6.5539Y-2.624
X6.5539Y-3.374
X6.5539Y-4.124
X6.576Y-4.874
X6.9539Y-1.874
X6.9539Y-2.624
X6.9539Y-3.374
X6.9539Y-4.124
X7.3039Y-2.063
X7.3039Y-2.813
X7.3039Y-3.563
X7.3039Y-4.313
X7.7039Y-2.063
X7.7039Y-2.813
X7.7039Y-3.563
X7.7039Y-4.313
X8.0539Y-2.122
X8.0539Y-2.872
X8.0539Y-3.622
X8.0539Y-4.372
X8.4539Y-2.122
X8.4539Y-2.872
X8.4539Y-3.622
X8.4539Y-4.372
T9
X3.8935Y-4.4925
X4.8947Y-2.2602
X4.8975Y-3.7625
X7.8622Y-2.4331
X7.8622Y-3.937
T10
X3.412Y-3.7695
X3.462Y-3.6695
X3.662Y-3.6695
X3.712Y-3.7695
X3.8766Y-4.7826
X3.9882Y-4.7759
X4.0266Y-5.0424
X4.0882Y-4.9491
X4.3539Y-1.8685
X4.3539Y-2.6185
X4.3539Y-3.3685
X4.3539Y-4.1185
X4.4039Y-1.7685
X4.4039Y-2.5185
X4.4039Y-3.2685
X4.4039Y-4.0185
X4.6039Y-1.7685
X4.6039Y-2.5185
X4.6039Y-3.2685
X4.6039Y-4.0185
X4.6539Y-1.8685
X4.6539Y-2.6185
X4.6539Y-3.3685
X4.6539Y-4.1185
X4.726Y-4.8685
X4.776Y-4.7685
X4.976Y-4.7685
X5.026Y-4.8685
X5.1039Y-1.774
X5.1039Y-2.524
X5.1039Y-3.274
X5.1039Y-4.024
X5.1539Y-1.674
X5.1539Y-2.424
X5.1539Y-3.174
X5.1539Y-3.924
X5.3539Y-1.674
X5.3539Y-2.424
X5.3539Y-3.174
X5.3539Y-3.924
X5.4039Y-1.774
X5.4039Y-2.524
X5.4039Y-3.274
X5.4039Y-4.024
X5.4759Y-4.8145
X5.5259Y-4.7145
X5.7259Y-4.7145
X5.7759Y-4.8145
X5.8539Y-1.7193
X5.8539Y-2.4693
X5.8539Y-3.2193
X5.8539Y-3.9693
X5.9039Y-1.6193
X5.9039Y-2.3693
X5.9039Y-3.1193
X5.9039Y-3.8693
X6.1039Y-1.6193
X6.1039Y-2.3693
X6.1039Y-3.1193
X6.1039Y-3.8693
X6.1539Y-1.7193
X6.1539Y-2.4693
X6.1539Y-3.2193
X6.1539Y-3.9693
X6.226Y-4.774
X6.276Y-4.674
X6.476Y-4.674
X6.526Y-4.774
X6.6039Y-1.774
X6.6039Y-2.524
X6.6039Y-3.274
X6.6039Y-4.024
X6.6539Y-1.674
X6.6539Y-2.424
X6.6539Y-3.174
X6.6539Y-3.924
X6.8539Y-1.674
X6.8539Y-2.424
X6.8539Y-3.174
X6.8539Y-3.924
X6.9039Y-1.774
X6.9039Y-2.524
X6.9039Y-3.274
X6.9039Y-4.024
X7.3539Y-1.963
X7.3539Y-2.713
X7.3539Y-3.463
X7.3539Y-4.213
X7.4039Y-1.863
X7.4039Y-2.613
X7.4039Y-3.363
X7.4039Y-4.113
X7.6039Y-1.863
X7.6039Y-2.613
X7.6039Y-3.363
X7.6039Y-4.113
X7.6539Y-1.963
X7.6539Y-2.713
X7.6539Y-3.463
X7.6539Y-4.213
X8.1039Y-2.022
X8.1039Y-2.772
X8.1039Y-3.522
X8.1039Y-4.272
X8.1539Y-1.922
X8.1539Y-2.672
X8.1539Y-3.422
X8.1539Y-4.172
X8.3539Y-1.922
X8.3539Y-2.672
X8.3539Y-3.422
X8.3539Y-4.172
X8.4039Y-2.022
X8.4039Y-2.772
X8.4039Y-3.522
X8.4039Y-4.272
T11
X3.562Y-3.8695
X3.865Y-4.9625
X4.5039Y-1.9685
X4.5039Y-2.7185
X4.5039Y-3.4685
X4.5039Y-4.2185
X4.876Y-4.9685
X5.2539Y-1.874
X5.2539Y-2.624
X5.2539Y-3.374
X5.2539Y-4.124
X5.6259Y-4.9145
X6.0039Y-1.8193
X6.0039Y-2.5693
X6.0039Y-3.3193
X6.0039Y-4.0693
X6.376Y-4.874
X6.7539Y-1.874
X6.7539Y-2.624
X6.7539Y-3.374
X6.7539Y-4.124
X7.5039Y-2.063
X7.5039Y-2.813
X7.5039Y-3.563
X7.5039Y-4.313
X8.2539Y-2.122
X8.2539Y-2.872
X8.2539Y-3.622
X8.2539Y-4.372
T1
G00X3.3118Y-3.1523
M15
G01X3.363Y-3.1523
M16
G05
G00X3.3118Y-3.3708
M15
G01X3.363Y-3.3708
M16
G05
G00X3.4299Y-3.1523
M15
G01X3.4811Y-3.1523
M16
G05
G00X3.4299Y-3.3708
M15
G01X3.4811Y-3.3708
M16
G05
G00X3.5874Y-3.1523
M15
G01X3.6386Y-3.1523
M16
G05
G00X3.5874Y-3.3708
M15
G01X3.6386Y-3.3708
M16
G05
G00X3.6465Y-3.2055
M15
G01X3.6977Y-3.2055
M16
G05
G00X3.6465Y-3.3177
M15
G01X3.6977Y-3.3177
M16
G05
T0
M30
