G04 #@! TF.GenerationSoftware,KiCad,Pcbnew,(5.1.9)-1*
G04 #@! TF.CreationDate,2021-02-12T09:18:19+01:00*
G04 #@! TF.ProjectId,Lotus58_Glow,4c6f7475-7335-4385-9f47-6c6f772e6b69,0.95*
G04 #@! TF.SameCoordinates,Original*
G04 #@! TF.FileFunction,Legend,Bot*
G04 #@! TF.FilePolarity,Positive*
%FSLAX46Y46*%
G04 Gerber Fmt 4.6, Leading zero omitted, Abs format (unit mm)*
G04 Created by KiCad (PCBNEW (5.1.9)-1) date 2021-02-12 09:18:19*
%MOMM*%
%LPD*%
G01*
G04 APERTURE LIST*
%ADD10C,0.150000*%
%ADD11C,0.300000*%
%ADD12C,1.701800*%
%ADD13C,3.987800*%
%ADD14C,3.000000*%
%ADD15R,2.550000X2.500000*%
%ADD16R,1.600000X1.000000*%
%ADD17C,0.100000*%
%ADD18R,2.000000X2.000000*%
%ADD19C,2.000000*%
%ADD20R,1.998980X1.998980*%
%ADD21C,1.998980*%
%ADD22R,1.800000X1.500000*%
%ADD23C,1.200000*%
%ADD24R,2.100000X1.000000*%
%ADD25R,1.143000X0.635000*%
%ADD26R,0.635000X1.143000*%
%ADD27C,1.397000*%
%ADD28R,2.000000X1.000000*%
%ADD29C,1.524000*%
%ADD30O,1.700000X1.700000*%
%ADD31R,1.700000X1.700000*%
%ADD32C,2.700000*%
G04 APERTURE END LIST*
D10*
X99699580Y-76160380D02*
X99509104Y-76160380D01*
X99413866Y-76208000D01*
X99318628Y-76303238D01*
X99271009Y-76493714D01*
X99271009Y-76827047D01*
X99318628Y-77017523D01*
X99413866Y-77112761D01*
X99509104Y-77160380D01*
X99699580Y-77160380D01*
X99794819Y-77112761D01*
X99890057Y-77017523D01*
X99937676Y-76827047D01*
X99937676Y-76493714D01*
X99890057Y-76303238D01*
X99794819Y-76208000D01*
X99699580Y-76160380D01*
X98366247Y-77160380D02*
X98842438Y-77160380D01*
X98842438Y-76160380D01*
X98032914Y-76636571D02*
X97699580Y-76636571D01*
X97556723Y-77160380D02*
X98032914Y-77160380D01*
X98032914Y-76160380D01*
X97556723Y-76160380D01*
X97128152Y-77160380D02*
X97128152Y-76160380D01*
X96890057Y-76160380D01*
X96747200Y-76208000D01*
X96651961Y-76303238D01*
X96604342Y-76398476D01*
X96556723Y-76588952D01*
X96556723Y-76731809D01*
X96604342Y-76922285D01*
X96651961Y-77017523D01*
X96747200Y-77112761D01*
X96890057Y-77160380D01*
X97128152Y-77160380D01*
X85389790Y-76858761D02*
X85246933Y-76906380D01*
X85008838Y-76906380D01*
X84913600Y-76858761D01*
X84865980Y-76811142D01*
X84818361Y-76715904D01*
X84818361Y-76620666D01*
X84865980Y-76525428D01*
X84913600Y-76477809D01*
X85008838Y-76430190D01*
X85199314Y-76382571D01*
X85294552Y-76334952D01*
X85342171Y-76287333D01*
X85389790Y-76192095D01*
X85389790Y-76096857D01*
X85342171Y-76001619D01*
X85294552Y-75954000D01*
X85199314Y-75906380D01*
X84961219Y-75906380D01*
X84818361Y-75954000D01*
X84008838Y-76858761D02*
X84104076Y-76906380D01*
X84294552Y-76906380D01*
X84389790Y-76858761D01*
X84437409Y-76763523D01*
X84437409Y-76382571D01*
X84389790Y-76287333D01*
X84294552Y-76239714D01*
X84104076Y-76239714D01*
X84008838Y-76287333D01*
X83961219Y-76382571D01*
X83961219Y-76477809D01*
X84437409Y-76573047D01*
X83532647Y-76906380D02*
X83532647Y-76239714D01*
X83532647Y-76430190D02*
X83485028Y-76334952D01*
X83437409Y-76287333D01*
X83342171Y-76239714D01*
X83246933Y-76239714D01*
X82913600Y-76906380D02*
X82913600Y-76239714D01*
X82913600Y-75906380D02*
X82961219Y-75954000D01*
X82913600Y-76001619D01*
X82865980Y-75954000D01*
X82913600Y-75906380D01*
X82913600Y-76001619D01*
X82008838Y-76906380D02*
X82008838Y-76382571D01*
X82056457Y-76287333D01*
X82151695Y-76239714D01*
X82342171Y-76239714D01*
X82437409Y-76287333D01*
X82008838Y-76858761D02*
X82104076Y-76906380D01*
X82342171Y-76906380D01*
X82437409Y-76858761D01*
X82485028Y-76763523D01*
X82485028Y-76668285D01*
X82437409Y-76573047D01*
X82342171Y-76525428D01*
X82104076Y-76525428D01*
X82008838Y-76477809D01*
X81389790Y-76906380D02*
X81485028Y-76858761D01*
X81532647Y-76763523D01*
X81532647Y-75906380D01*
X103744257Y-79458576D02*
X103696638Y-79506195D01*
X103649019Y-79649052D01*
X103649019Y-79744290D01*
X103696638Y-79887147D01*
X103791876Y-79982385D01*
X103887114Y-80030004D01*
X104077590Y-80077623D01*
X104220447Y-80077623D01*
X104410923Y-80030004D01*
X104506161Y-79982385D01*
X104601400Y-79887147D01*
X104649019Y-79744290D01*
X104649019Y-79649052D01*
X104601400Y-79506195D01*
X104553780Y-79458576D01*
X103649019Y-78887147D02*
X103696638Y-78982385D01*
X103791876Y-79030004D01*
X104649019Y-79030004D01*
X103649019Y-78363338D02*
X103696638Y-78458576D01*
X103744257Y-78506195D01*
X103839495Y-78553814D01*
X104125209Y-78553814D01*
X104220447Y-78506195D01*
X104268066Y-78458576D01*
X104315685Y-78363338D01*
X104315685Y-78220480D01*
X104268066Y-78125242D01*
X104220447Y-78077623D01*
X104125209Y-78030004D01*
X103839495Y-78030004D01*
X103744257Y-78077623D01*
X103696638Y-78125242D01*
X103649019Y-78220480D01*
X103649019Y-78363338D01*
X103696638Y-77649052D02*
X103649019Y-77553814D01*
X103649019Y-77363338D01*
X103696638Y-77268100D01*
X103791876Y-77220480D01*
X103839495Y-77220480D01*
X103934733Y-77268100D01*
X103982352Y-77363338D01*
X103982352Y-77506195D01*
X104029971Y-77601433D01*
X104125209Y-77649052D01*
X104172828Y-77649052D01*
X104268066Y-77601433D01*
X104315685Y-77506195D01*
X104315685Y-77363338D01*
X104268066Y-77268100D01*
X103696638Y-76410957D02*
X103649019Y-76506195D01*
X103649019Y-76696671D01*
X103696638Y-76791909D01*
X103791876Y-76839528D01*
X104172828Y-76839528D01*
X104268066Y-76791909D01*
X104315685Y-76696671D01*
X104315685Y-76506195D01*
X104268066Y-76410957D01*
X104172828Y-76363338D01*
X104077590Y-76363338D01*
X103982352Y-76839528D01*
X104649019Y-74982385D02*
X104649019Y-74791909D01*
X104601400Y-74696671D01*
X104506161Y-74601433D01*
X104315685Y-74553814D01*
X103982352Y-74553814D01*
X103791876Y-74601433D01*
X103696638Y-74696671D01*
X103649019Y-74791909D01*
X103649019Y-74982385D01*
X103696638Y-75077623D01*
X103791876Y-75172861D01*
X103982352Y-75220480D01*
X104315685Y-75220480D01*
X104506161Y-75172861D01*
X104601400Y-75077623D01*
X104649019Y-74982385D01*
X103649019Y-73649052D02*
X103649019Y-74125242D01*
X104649019Y-74125242D01*
X104172828Y-73315719D02*
X104172828Y-72982385D01*
X103649019Y-72839528D02*
X103649019Y-73315719D01*
X104649019Y-73315719D01*
X104649019Y-72839528D01*
X103649019Y-72410957D02*
X104649019Y-72410957D01*
X104649019Y-72172861D01*
X104601400Y-72030004D01*
X104506161Y-71934766D01*
X104410923Y-71887147D01*
X104220447Y-71839528D01*
X104077590Y-71839528D01*
X103887114Y-71887147D01*
X103791876Y-71934766D01*
X103696638Y-72030004D01*
X103649019Y-72172861D01*
X103649019Y-72410957D01*
X104315685Y-70649052D02*
X103458542Y-70649052D01*
X103363304Y-70696671D01*
X103315685Y-70791909D01*
X103315685Y-70839528D01*
X104649019Y-70649052D02*
X104601400Y-70696671D01*
X104553780Y-70649052D01*
X104601400Y-70601433D01*
X104649019Y-70649052D01*
X104553780Y-70649052D01*
X104315685Y-69744290D02*
X103649019Y-69744290D01*
X104315685Y-70172861D02*
X103791876Y-70172861D01*
X103696638Y-70125242D01*
X103649019Y-70030004D01*
X103649019Y-69887147D01*
X103696638Y-69791909D01*
X103744257Y-69744290D01*
X103649019Y-69268100D02*
X104315685Y-69268100D01*
X104220447Y-69268100D02*
X104268066Y-69220480D01*
X104315685Y-69125242D01*
X104315685Y-68982385D01*
X104268066Y-68887147D01*
X104172828Y-68839528D01*
X103649019Y-68839528D01*
X104172828Y-68839528D02*
X104268066Y-68791909D01*
X104315685Y-68696671D01*
X104315685Y-68553814D01*
X104268066Y-68458576D01*
X104172828Y-68410957D01*
X103649019Y-68410957D01*
X104315685Y-67934766D02*
X103315685Y-67934766D01*
X104268066Y-67934766D02*
X104315685Y-67839528D01*
X104315685Y-67649052D01*
X104268066Y-67553814D01*
X104220447Y-67506195D01*
X104125209Y-67458576D01*
X103839495Y-67458576D01*
X103744257Y-67506195D01*
X103696638Y-67553814D01*
X103649019Y-67649052D01*
X103649019Y-67839528D01*
X103696638Y-67934766D01*
X103696638Y-66649052D02*
X103649019Y-66744290D01*
X103649019Y-66934766D01*
X103696638Y-67030004D01*
X103791876Y-67077623D01*
X104172828Y-67077623D01*
X104268066Y-67030004D01*
X104315685Y-66934766D01*
X104315685Y-66744290D01*
X104268066Y-66649052D01*
X104172828Y-66601433D01*
X104077590Y-66601433D01*
X103982352Y-67077623D01*
X103649019Y-66172861D02*
X104315685Y-66172861D01*
X104125209Y-66172861D02*
X104220447Y-66125242D01*
X104268066Y-66077623D01*
X104315685Y-65982385D01*
X104315685Y-65887147D01*
X103696638Y-65601433D02*
X103649019Y-65506195D01*
X103649019Y-65315719D01*
X103696638Y-65220480D01*
X103791876Y-65172861D01*
X103839495Y-65172861D01*
X103934733Y-65220480D01*
X103982352Y-65315719D01*
X103982352Y-65458576D01*
X104029971Y-65553814D01*
X104125209Y-65601433D01*
X104172828Y-65601433D01*
X104268066Y-65553814D01*
X104315685Y-65458576D01*
X104315685Y-65315719D01*
X104268066Y-65220480D01*
X101999019Y-79887147D02*
X102046638Y-79982385D01*
X102094257Y-80030004D01*
X102189495Y-80077623D01*
X102475209Y-80077623D01*
X102570447Y-80030004D01*
X102618066Y-79982385D01*
X102665685Y-79887147D01*
X102665685Y-79744290D01*
X102618066Y-79649052D01*
X102570447Y-79601433D01*
X102475209Y-79553814D01*
X102189495Y-79553814D01*
X102094257Y-79601433D01*
X102046638Y-79649052D01*
X101999019Y-79744290D01*
X101999019Y-79887147D01*
X102665685Y-79125242D02*
X101999019Y-79125242D01*
X102570447Y-79125242D02*
X102618066Y-79077623D01*
X102665685Y-78982385D01*
X102665685Y-78839528D01*
X102618066Y-78744290D01*
X102522828Y-78696671D01*
X101999019Y-78696671D01*
X101999019Y-78077623D02*
X102046638Y-78172861D01*
X102141876Y-78220480D01*
X102999019Y-78220480D01*
X102665685Y-77791909D02*
X101999019Y-77553814D01*
X102665685Y-77315719D02*
X101999019Y-77553814D01*
X101760923Y-77649052D01*
X101713304Y-77696671D01*
X101665685Y-77791909D01*
X101999019Y-76030004D02*
X102046638Y-76125242D01*
X102094257Y-76172861D01*
X102189495Y-76220480D01*
X102475209Y-76220480D01*
X102570447Y-76172861D01*
X102618066Y-76125242D01*
X102665685Y-76030004D01*
X102665685Y-75887147D01*
X102618066Y-75791909D01*
X102570447Y-75744290D01*
X102475209Y-75696671D01*
X102189495Y-75696671D01*
X102094257Y-75744290D01*
X102046638Y-75791909D01*
X101999019Y-75887147D01*
X101999019Y-76030004D01*
X102665685Y-75268100D02*
X101999019Y-75268100D01*
X102570447Y-75268100D02*
X102618066Y-75220480D01*
X102665685Y-75125242D01*
X102665685Y-74982385D01*
X102618066Y-74887147D01*
X102522828Y-74839528D01*
X101999019Y-74839528D01*
X102665685Y-73744290D02*
X102665685Y-73363338D01*
X102999019Y-73601433D02*
X102141876Y-73601433D01*
X102046638Y-73553814D01*
X101999019Y-73458576D01*
X101999019Y-73363338D01*
X101999019Y-72887147D02*
X102046638Y-72982385D01*
X102094257Y-73030004D01*
X102189495Y-73077623D01*
X102475209Y-73077623D01*
X102570447Y-73030004D01*
X102618066Y-72982385D01*
X102665685Y-72887147D01*
X102665685Y-72744290D01*
X102618066Y-72649052D01*
X102570447Y-72601433D01*
X102475209Y-72553814D01*
X102189495Y-72553814D01*
X102094257Y-72601433D01*
X102046638Y-72649052D01*
X101999019Y-72744290D01*
X101999019Y-72887147D01*
X102665685Y-72125242D02*
X101665685Y-72125242D01*
X102618066Y-72125242D02*
X102665685Y-72030004D01*
X102665685Y-71839528D01*
X102618066Y-71744290D01*
X102570447Y-71696671D01*
X102475209Y-71649052D01*
X102189495Y-71649052D01*
X102094257Y-71696671D01*
X102046638Y-71744290D01*
X101999019Y-71839528D01*
X101999019Y-72030004D01*
X102046638Y-72125242D01*
X102046638Y-70506195D02*
X101999019Y-70410957D01*
X101999019Y-70220480D01*
X102046638Y-70125242D01*
X102141876Y-70077623D01*
X102189495Y-70077623D01*
X102284733Y-70125242D01*
X102332352Y-70220480D01*
X102332352Y-70363338D01*
X102379971Y-70458576D01*
X102475209Y-70506195D01*
X102522828Y-70506195D01*
X102618066Y-70458576D01*
X102665685Y-70363338D01*
X102665685Y-70220480D01*
X102618066Y-70125242D01*
X101999019Y-69649052D02*
X102665685Y-69649052D01*
X102999019Y-69649052D02*
X102951400Y-69696671D01*
X102903780Y-69649052D01*
X102951400Y-69601433D01*
X102999019Y-69649052D01*
X102903780Y-69649052D01*
X101999019Y-68744290D02*
X102999019Y-68744290D01*
X102046638Y-68744290D02*
X101999019Y-68839528D01*
X101999019Y-69030004D01*
X102046638Y-69125242D01*
X102094257Y-69172861D01*
X102189495Y-69220480D01*
X102475209Y-69220480D01*
X102570447Y-69172861D01*
X102618066Y-69125242D01*
X102665685Y-69030004D01*
X102665685Y-68839528D01*
X102618066Y-68744290D01*
X102046638Y-67887147D02*
X101999019Y-67982385D01*
X101999019Y-68172861D01*
X102046638Y-68268100D01*
X102141876Y-68315719D01*
X102522828Y-68315719D01*
X102618066Y-68268100D01*
X102665685Y-68172861D01*
X102665685Y-67982385D01*
X102618066Y-67887147D01*
X102522828Y-67839528D01*
X102427590Y-67839528D01*
X102332352Y-68315719D01*
X101999019Y-66506195D02*
X102046638Y-66601433D01*
X102094257Y-66649052D01*
X102189495Y-66696671D01*
X102475209Y-66696671D01*
X102570447Y-66649052D01*
X102618066Y-66601433D01*
X102665685Y-66506195D01*
X102665685Y-66363338D01*
X102618066Y-66268100D01*
X102570447Y-66220480D01*
X102475209Y-66172861D01*
X102189495Y-66172861D01*
X102094257Y-66220480D01*
X102046638Y-66268100D01*
X101999019Y-66363338D01*
X101999019Y-66506195D01*
X102665685Y-65887147D02*
X102665685Y-65506195D01*
X101999019Y-65744290D02*
X102856161Y-65744290D01*
X102951400Y-65696671D01*
X102999019Y-65601433D01*
X102999019Y-65506195D01*
X101999019Y-64410957D02*
X102999019Y-64410957D01*
X102618066Y-64410957D02*
X102665685Y-64315719D01*
X102665685Y-64125242D01*
X102618066Y-64030004D01*
X102570447Y-63982385D01*
X102475209Y-63934766D01*
X102189495Y-63934766D01*
X102094257Y-63982385D01*
X102046638Y-64030004D01*
X101999019Y-64125242D01*
X101999019Y-64315719D01*
X102046638Y-64410957D01*
X101999019Y-63363338D02*
X102046638Y-63458576D01*
X102094257Y-63506195D01*
X102189495Y-63553814D01*
X102475209Y-63553814D01*
X102570447Y-63506195D01*
X102618066Y-63458576D01*
X102665685Y-63363338D01*
X102665685Y-63220480D01*
X102618066Y-63125242D01*
X102570447Y-63077623D01*
X102475209Y-63030004D01*
X102189495Y-63030004D01*
X102094257Y-63077623D01*
X102046638Y-63125242D01*
X101999019Y-63220480D01*
X101999019Y-63363338D01*
X101999019Y-62172861D02*
X102522828Y-62172861D01*
X102618066Y-62220480D01*
X102665685Y-62315719D01*
X102665685Y-62506195D01*
X102618066Y-62601433D01*
X102046638Y-62172861D02*
X101999019Y-62268100D01*
X101999019Y-62506195D01*
X102046638Y-62601433D01*
X102141876Y-62649052D01*
X102237114Y-62649052D01*
X102332352Y-62601433D01*
X102379971Y-62506195D01*
X102379971Y-62268100D01*
X102427590Y-62172861D01*
X101999019Y-61696671D02*
X102665685Y-61696671D01*
X102475209Y-61696671D02*
X102570447Y-61649052D01*
X102618066Y-61601433D01*
X102665685Y-61506195D01*
X102665685Y-61410957D01*
X101999019Y-60649052D02*
X102999019Y-60649052D01*
X102046638Y-60649052D02*
X101999019Y-60744290D01*
X101999019Y-60934766D01*
X102046638Y-61030004D01*
X102094257Y-61077623D01*
X102189495Y-61125242D01*
X102475209Y-61125242D01*
X102570447Y-61077623D01*
X102618066Y-61030004D01*
X102665685Y-60934766D01*
X102665685Y-60744290D01*
X102618066Y-60649052D01*
X102094257Y-60172861D02*
X102046638Y-60125242D01*
X101999019Y-60172861D01*
X102046638Y-60220480D01*
X102094257Y-60172861D01*
X101999019Y-60172861D01*
X102379971Y-60172861D02*
X102951400Y-60220480D01*
X102999019Y-60172861D01*
X102951400Y-60125242D01*
X102379971Y-60172861D01*
X102999019Y-60172861D01*
D11*
X96985042Y-109720771D02*
X97699328Y-109720771D01*
X97699328Y-108220771D01*
X96270757Y-109720771D02*
X96413614Y-109649342D01*
X96485042Y-109577914D01*
X96556471Y-109435057D01*
X96556471Y-109006485D01*
X96485042Y-108863628D01*
X96413614Y-108792200D01*
X96270757Y-108720771D01*
X96056471Y-108720771D01*
X95913614Y-108792200D01*
X95842185Y-108863628D01*
X95770757Y-109006485D01*
X95770757Y-109435057D01*
X95842185Y-109577914D01*
X95913614Y-109649342D01*
X96056471Y-109720771D01*
X96270757Y-109720771D01*
X95342185Y-108720771D02*
X94770757Y-108720771D01*
X95127900Y-108220771D02*
X95127900Y-109506485D01*
X95056471Y-109649342D01*
X94913614Y-109720771D01*
X94770757Y-109720771D01*
X93627900Y-108720771D02*
X93627900Y-109720771D01*
X94270757Y-108720771D02*
X94270757Y-109506485D01*
X94199328Y-109649342D01*
X94056471Y-109720771D01*
X93842185Y-109720771D01*
X93699328Y-109649342D01*
X93627900Y-109577914D01*
X92985042Y-109649342D02*
X92842185Y-109720771D01*
X92556471Y-109720771D01*
X92413614Y-109649342D01*
X92342185Y-109506485D01*
X92342185Y-109435057D01*
X92413614Y-109292200D01*
X92556471Y-109220771D01*
X92770757Y-109220771D01*
X92913614Y-109149342D01*
X92985042Y-109006485D01*
X92985042Y-108935057D01*
X92913614Y-108792200D01*
X92770757Y-108720771D01*
X92556471Y-108720771D01*
X92413614Y-108792200D01*
X89842185Y-108220771D02*
X90556471Y-108220771D01*
X90627900Y-108935057D01*
X90556471Y-108863628D01*
X90413614Y-108792200D01*
X90056471Y-108792200D01*
X89913614Y-108863628D01*
X89842185Y-108935057D01*
X89770757Y-109077914D01*
X89770757Y-109435057D01*
X89842185Y-109577914D01*
X89913614Y-109649342D01*
X90056471Y-109720771D01*
X90413614Y-109720771D01*
X90556471Y-109649342D01*
X90627900Y-109577914D01*
X88913614Y-108863628D02*
X89056471Y-108792200D01*
X89127900Y-108720771D01*
X89199328Y-108577914D01*
X89199328Y-108506485D01*
X89127900Y-108363628D01*
X89056471Y-108292200D01*
X88913614Y-108220771D01*
X88627900Y-108220771D01*
X88485042Y-108292200D01*
X88413614Y-108363628D01*
X88342185Y-108506485D01*
X88342185Y-108577914D01*
X88413614Y-108720771D01*
X88485042Y-108792200D01*
X88627900Y-108863628D01*
X88913614Y-108863628D01*
X89056471Y-108935057D01*
X89127900Y-109006485D01*
X89199328Y-109149342D01*
X89199328Y-109435057D01*
X89127900Y-109577914D01*
X89056471Y-109649342D01*
X88913614Y-109720771D01*
X88627900Y-109720771D01*
X88485042Y-109649342D01*
X88413614Y-109577914D01*
X88342185Y-109435057D01*
X88342185Y-109149342D01*
X88413614Y-109006485D01*
X88485042Y-108935057D01*
X88627900Y-108863628D01*
X85770757Y-108292200D02*
X85913614Y-108220771D01*
X86127900Y-108220771D01*
X86342185Y-108292200D01*
X86485042Y-108435057D01*
X86556471Y-108577914D01*
X86627900Y-108863628D01*
X86627900Y-109077914D01*
X86556471Y-109363628D01*
X86485042Y-109506485D01*
X86342185Y-109649342D01*
X86127900Y-109720771D01*
X85985042Y-109720771D01*
X85770757Y-109649342D01*
X85699328Y-109577914D01*
X85699328Y-109077914D01*
X85985042Y-109077914D01*
X84842185Y-109720771D02*
X84985042Y-109649342D01*
X85056471Y-109506485D01*
X85056471Y-108220771D01*
X84056471Y-109720771D02*
X84199328Y-109649342D01*
X84270757Y-109577914D01*
X84342185Y-109435057D01*
X84342185Y-109006485D01*
X84270757Y-108863628D01*
X84199328Y-108792200D01*
X84056471Y-108720771D01*
X83842185Y-108720771D01*
X83699328Y-108792200D01*
X83627900Y-108863628D01*
X83556471Y-109006485D01*
X83556471Y-109435057D01*
X83627900Y-109577914D01*
X83699328Y-109649342D01*
X83842185Y-109720771D01*
X84056471Y-109720771D01*
X83056471Y-108720771D02*
X82770757Y-109720771D01*
X82485042Y-109006485D01*
X82199328Y-109720771D01*
X81913614Y-108720771D01*
D10*
X176630000Y-40615000D02*
X167740000Y-40615000D01*
X176630000Y-40996000D02*
X176630000Y-40615000D01*
X176630000Y-45060000D02*
X176630000Y-44044000D01*
X171550000Y-45060000D02*
X176630000Y-45060000D01*
X167359000Y-46965000D02*
X169010000Y-46965000D01*
X165200000Y-46965000D02*
X165581000Y-46965000D01*
X165200000Y-46584000D02*
X165200000Y-46965000D01*
X165200000Y-43155000D02*
X165200000Y-43536000D01*
X164550000Y-41600000D02*
X164550000Y-40600000D01*
X177550000Y-40600000D02*
X178550000Y-40600000D01*
X178550000Y-54600000D02*
X177550000Y-54600000D01*
X178550000Y-53600000D02*
X178550000Y-54600000D01*
X165550000Y-54600000D02*
X164550000Y-54600000D01*
X178550000Y-40600000D02*
X178550000Y-40996000D01*
X164550000Y-54600000D02*
X164550000Y-53600000D01*
X164550000Y-40600000D02*
X165550000Y-40600000D01*
X169088732Y-46972497D02*
G75*
G02*
X171550000Y-45060000I2461268J-627503D01*
G01*
X165200000Y-43155000D02*
G75*
G02*
X167740000Y-40615000I2540000J0D01*
G01*
D11*
X136820000Y-52830000D02*
X134770000Y-52830000D01*
X136820000Y-54280000D02*
X136820000Y-52830000D01*
X134770000Y-54280000D02*
X136820000Y-54280000D01*
X134770000Y-52830000D02*
X134770000Y-54280000D01*
X165380000Y-129030000D02*
X165380000Y-130480000D01*
X165380000Y-130480000D02*
X163330000Y-130480000D01*
X163330000Y-130480000D02*
X163330000Y-129030000D01*
X163330000Y-129030000D02*
X165380000Y-129030000D01*
X146327700Y-130058300D02*
X146327700Y-131508300D01*
X146327700Y-131508300D02*
X144277700Y-131508300D01*
X144277700Y-131508300D02*
X144277700Y-130058300D01*
X144277700Y-130058300D02*
X146327700Y-130058300D01*
X127280000Y-131430000D02*
X127280000Y-132880000D01*
X127280000Y-132880000D02*
X125230000Y-132880000D01*
X125230000Y-132880000D02*
X125230000Y-131430000D01*
X125230000Y-131430000D02*
X127280000Y-131430000D01*
X95356687Y-131632966D02*
X94100950Y-132357966D01*
X94100950Y-132357966D02*
X93075950Y-130582614D01*
X93075950Y-130582614D02*
X94331687Y-129857614D01*
X94331687Y-129857614D02*
X95356687Y-131632966D01*
X93904800Y-102956500D02*
X93904800Y-104406500D01*
X93904800Y-104406500D02*
X91854800Y-104406500D01*
X91854800Y-104406500D02*
X91854800Y-102956500D01*
X91854800Y-102956500D02*
X93904800Y-102956500D01*
X213080000Y-116280000D02*
X213080000Y-117730000D01*
X213080000Y-117730000D02*
X211030000Y-117730000D01*
X211030000Y-117730000D02*
X211030000Y-116280000D01*
X211030000Y-116280000D02*
X213080000Y-116280000D01*
X194030000Y-114780000D02*
X194030000Y-116230000D01*
X194030000Y-116230000D02*
X191980000Y-116230000D01*
X191980000Y-116230000D02*
X191980000Y-114780000D01*
X191980000Y-114780000D02*
X194030000Y-114780000D01*
X174980000Y-109980000D02*
X174980000Y-111430000D01*
X174980000Y-111430000D02*
X172930000Y-111430000D01*
X172930000Y-111430000D02*
X172930000Y-109980000D01*
X172930000Y-109980000D02*
X174980000Y-109980000D01*
X155930000Y-108590000D02*
X155930000Y-110040000D01*
X155930000Y-110040000D02*
X153880000Y-110040000D01*
X153880000Y-110040000D02*
X153880000Y-108590000D01*
X153880000Y-108590000D02*
X155930000Y-108590000D01*
X136880000Y-109980000D02*
X136880000Y-111430000D01*
X136880000Y-111430000D02*
X134830000Y-111430000D01*
X134830000Y-111430000D02*
X134830000Y-109980000D01*
X134830000Y-109980000D02*
X136880000Y-109980000D01*
X117830000Y-112380000D02*
X117830000Y-113830000D01*
X117830000Y-113830000D02*
X115780000Y-113830000D01*
X115780000Y-113830000D02*
X115780000Y-112380000D01*
X115780000Y-112380000D02*
X117830000Y-112380000D01*
X213080000Y-97230000D02*
X213080000Y-98680000D01*
X213080000Y-98680000D02*
X211030000Y-98680000D01*
X211030000Y-98680000D02*
X211030000Y-97230000D01*
X211030000Y-97230000D02*
X213080000Y-97230000D01*
X194030000Y-95730000D02*
X194030000Y-97180000D01*
X194030000Y-97180000D02*
X191980000Y-97180000D01*
X191980000Y-97180000D02*
X191980000Y-95730000D01*
X191980000Y-95730000D02*
X194030000Y-95730000D01*
X174980000Y-90930000D02*
X174980000Y-92380000D01*
X174980000Y-92380000D02*
X172930000Y-92380000D01*
X172930000Y-92380000D02*
X172930000Y-90930000D01*
X172930000Y-90930000D02*
X174980000Y-90930000D01*
X155930000Y-89540000D02*
X155930000Y-90990000D01*
X155930000Y-90990000D02*
X153880000Y-90990000D01*
X153880000Y-90990000D02*
X153880000Y-89540000D01*
X153880000Y-89540000D02*
X155930000Y-89540000D01*
X136880000Y-90930000D02*
X136880000Y-92380000D01*
X136880000Y-92380000D02*
X134830000Y-92380000D01*
X134830000Y-92380000D02*
X134830000Y-90930000D01*
X134830000Y-90930000D02*
X136880000Y-90930000D01*
X117830000Y-93330000D02*
X117830000Y-94780000D01*
X117830000Y-94780000D02*
X115780000Y-94780000D01*
X115780000Y-94780000D02*
X115780000Y-93330000D01*
X115780000Y-93330000D02*
X117830000Y-93330000D01*
X213080000Y-78180000D02*
X213080000Y-79630000D01*
X213080000Y-79630000D02*
X211030000Y-79630000D01*
X211030000Y-79630000D02*
X211030000Y-78180000D01*
X211030000Y-78180000D02*
X213080000Y-78180000D01*
X194030000Y-76680000D02*
X194030000Y-78130000D01*
X194030000Y-78130000D02*
X191980000Y-78130000D01*
X191980000Y-78130000D02*
X191980000Y-76680000D01*
X191980000Y-76680000D02*
X194030000Y-76680000D01*
X174980000Y-71880000D02*
X174980000Y-73330000D01*
X174980000Y-73330000D02*
X172930000Y-73330000D01*
X172930000Y-73330000D02*
X172930000Y-71880000D01*
X172930000Y-71880000D02*
X174980000Y-71880000D01*
X155930000Y-70490000D02*
X155930000Y-71940000D01*
X155930000Y-71940000D02*
X153880000Y-71940000D01*
X153880000Y-71940000D02*
X153880000Y-70490000D01*
X153880000Y-70490000D02*
X155930000Y-70490000D01*
X136880000Y-71880000D02*
X136880000Y-73330000D01*
X136880000Y-73330000D02*
X134830000Y-73330000D01*
X134830000Y-73330000D02*
X134830000Y-71880000D01*
X134830000Y-71880000D02*
X136880000Y-71880000D01*
X117830000Y-74280000D02*
X117830000Y-75730000D01*
X117830000Y-75730000D02*
X115780000Y-75730000D01*
X115780000Y-75730000D02*
X115780000Y-74280000D01*
X115780000Y-74280000D02*
X117830000Y-74280000D01*
X213080000Y-59130000D02*
X213080000Y-60580000D01*
X213080000Y-60580000D02*
X211030000Y-60580000D01*
X211030000Y-60580000D02*
X211030000Y-59130000D01*
X211030000Y-59130000D02*
X213080000Y-59130000D01*
X194030000Y-57630000D02*
X194030000Y-59080000D01*
X194030000Y-59080000D02*
X191980000Y-59080000D01*
X191980000Y-59080000D02*
X191980000Y-57630000D01*
X191980000Y-57630000D02*
X194030000Y-57630000D01*
X174980000Y-52830000D02*
X174980000Y-54280000D01*
X174980000Y-54280000D02*
X172930000Y-54280000D01*
X172930000Y-54280000D02*
X172930000Y-52830000D01*
X172930000Y-52830000D02*
X174980000Y-52830000D01*
X155930000Y-51440000D02*
X155930000Y-52890000D01*
X155930000Y-52890000D02*
X153880000Y-52890000D01*
X153880000Y-52890000D02*
X153880000Y-51440000D01*
X153880000Y-51440000D02*
X155930000Y-51440000D01*
X117830000Y-55230000D02*
X117830000Y-56680000D01*
X117830000Y-56680000D02*
X115780000Y-56680000D01*
X115780000Y-56680000D02*
X115780000Y-55230000D01*
X115780000Y-55230000D02*
X117830000Y-55230000D01*
D10*
X167030000Y-116815000D02*
X158140000Y-116815000D01*
X167030000Y-117196000D02*
X167030000Y-116815000D01*
X167030000Y-121260000D02*
X167030000Y-120244000D01*
X161950000Y-121260000D02*
X167030000Y-121260000D01*
X157759000Y-123165000D02*
X159410000Y-123165000D01*
X155600000Y-123165000D02*
X155981000Y-123165000D01*
X155600000Y-122784000D02*
X155600000Y-123165000D01*
X155600000Y-119355000D02*
X155600000Y-119736000D01*
X154950000Y-117800000D02*
X154950000Y-116800000D01*
X167950000Y-116800000D02*
X168950000Y-116800000D01*
X168950000Y-130800000D02*
X167950000Y-130800000D01*
X168950000Y-129800000D02*
X168950000Y-130800000D01*
X155950000Y-130800000D02*
X154950000Y-130800000D01*
X168950000Y-116800000D02*
X168950000Y-117196000D01*
X154950000Y-130800000D02*
X154950000Y-129800000D01*
X154950000Y-116800000D02*
X155950000Y-116800000D01*
X159488732Y-123172497D02*
G75*
G02*
X161950000Y-121260000I2461268J-627503D01*
G01*
X155600000Y-119355000D02*
G75*
G02*
X158140000Y-116815000I2540000J0D01*
G01*
X147977700Y-117843300D02*
X139087700Y-117843300D01*
X147977700Y-118224300D02*
X147977700Y-117843300D01*
X147977700Y-122288300D02*
X147977700Y-121272300D01*
X142897700Y-122288300D02*
X147977700Y-122288300D01*
X138706700Y-124193300D02*
X140357700Y-124193300D01*
X136547700Y-124193300D02*
X136928700Y-124193300D01*
X136547700Y-123812300D02*
X136547700Y-124193300D01*
X136547700Y-120383300D02*
X136547700Y-120764300D01*
X135897700Y-118828300D02*
X135897700Y-117828300D01*
X148897700Y-117828300D02*
X149897700Y-117828300D01*
X149897700Y-131828300D02*
X148897700Y-131828300D01*
X149897700Y-130828300D02*
X149897700Y-131828300D01*
X136897700Y-131828300D02*
X135897700Y-131828300D01*
X149897700Y-117828300D02*
X149897700Y-118224300D01*
X135897700Y-131828300D02*
X135897700Y-130828300D01*
X135897700Y-117828300D02*
X136897700Y-117828300D01*
X140436432Y-124200797D02*
G75*
G02*
X142897700Y-122288300I2461268J-627503D01*
G01*
X136547700Y-120383300D02*
G75*
G02*
X139087700Y-117843300I2540000J0D01*
G01*
X128930000Y-119215000D02*
X120040000Y-119215000D01*
X128930000Y-119596000D02*
X128930000Y-119215000D01*
X128930000Y-123660000D02*
X128930000Y-122644000D01*
X123850000Y-123660000D02*
X128930000Y-123660000D01*
X119659000Y-125565000D02*
X121310000Y-125565000D01*
X117500000Y-125565000D02*
X117881000Y-125565000D01*
X117500000Y-125184000D02*
X117500000Y-125565000D01*
X117500000Y-121755000D02*
X117500000Y-122136000D01*
X116850000Y-120200000D02*
X116850000Y-119200000D01*
X129850000Y-119200000D02*
X130850000Y-119200000D01*
X130850000Y-133200000D02*
X129850000Y-133200000D01*
X130850000Y-132200000D02*
X130850000Y-133200000D01*
X117850000Y-133200000D02*
X116850000Y-133200000D01*
X130850000Y-119200000D02*
X130850000Y-119596000D01*
X116850000Y-133200000D02*
X116850000Y-132200000D01*
X116850000Y-119200000D02*
X117850000Y-119200000D01*
X121388732Y-125572497D02*
G75*
G02*
X123850000Y-123660000I2461268J-627503D01*
G01*
X117500000Y-121755000D02*
G75*
G02*
X120040000Y-119215000I2540000J0D01*
G01*
X106760187Y-126954409D02*
X102315187Y-119255443D01*
X106430232Y-127144909D02*
X106760187Y-126954409D01*
X102910705Y-129176909D02*
X103790586Y-128668909D01*
X100370705Y-124777500D02*
X102910705Y-129176909D01*
X96625426Y-122100488D02*
X97450926Y-123530295D01*
X95545926Y-120230739D02*
X95736426Y-120560694D01*
X95875882Y-120040239D02*
X95545926Y-120230739D01*
X98845483Y-118325739D02*
X98515527Y-118516239D01*
X99867152Y-116985322D02*
X100733178Y-116485322D01*
X107233178Y-127743652D02*
X107733178Y-128609678D01*
X95608822Y-135609678D02*
X95108822Y-134743652D01*
X96474848Y-135109678D02*
X95608822Y-135609678D01*
X89108822Y-124351348D02*
X88608822Y-123485322D01*
X107733178Y-128609678D02*
X107390232Y-128807678D01*
X88608822Y-123485322D02*
X89474848Y-122985322D01*
X100733178Y-116485322D02*
X101233178Y-117351348D01*
X97483799Y-123602228D02*
G75*
G02*
X100370705Y-124777500I687201J-2445272D01*
G01*
X98845483Y-118325739D02*
G75*
G02*
X102315187Y-119255443I1270000J-2199704D01*
G01*
X95554800Y-91300300D02*
X86664800Y-91300300D01*
X95554800Y-91681300D02*
X95554800Y-91300300D01*
X95554800Y-95745300D02*
X95554800Y-94729300D01*
X90474800Y-95745300D02*
X95554800Y-95745300D01*
X86283800Y-97650300D02*
X87934800Y-97650300D01*
X84124800Y-97650300D02*
X84505800Y-97650300D01*
X84124800Y-97269300D02*
X84124800Y-97650300D01*
X84124800Y-93840300D02*
X84124800Y-94221300D01*
X83474800Y-92285300D02*
X83474800Y-91285300D01*
X96474800Y-91285300D02*
X97474800Y-91285300D01*
X97474800Y-105285300D02*
X96474800Y-105285300D01*
X97474800Y-104285300D02*
X97474800Y-105285300D01*
X84474800Y-105285300D02*
X83474800Y-105285300D01*
X97474800Y-91285300D02*
X97474800Y-91681300D01*
X83474800Y-105285300D02*
X83474800Y-104285300D01*
X83474800Y-91285300D02*
X84474800Y-91285300D01*
X88013532Y-97657797D02*
G75*
G02*
X90474800Y-95745300I2461268J-627503D01*
G01*
X84124800Y-93840300D02*
G75*
G02*
X86664800Y-91300300I2540000J0D01*
G01*
X214730000Y-104065000D02*
X205840000Y-104065000D01*
X214730000Y-104446000D02*
X214730000Y-104065000D01*
X214730000Y-108510000D02*
X214730000Y-107494000D01*
X209650000Y-108510000D02*
X214730000Y-108510000D01*
X205459000Y-110415000D02*
X207110000Y-110415000D01*
X203300000Y-110415000D02*
X203681000Y-110415000D01*
X203300000Y-110034000D02*
X203300000Y-110415000D01*
X203300000Y-106605000D02*
X203300000Y-106986000D01*
X202650000Y-105050000D02*
X202650000Y-104050000D01*
X215650000Y-104050000D02*
X216650000Y-104050000D01*
X216650000Y-118050000D02*
X215650000Y-118050000D01*
X216650000Y-117050000D02*
X216650000Y-118050000D01*
X203650000Y-118050000D02*
X202650000Y-118050000D01*
X216650000Y-104050000D02*
X216650000Y-104446000D01*
X202650000Y-118050000D02*
X202650000Y-117050000D01*
X202650000Y-104050000D02*
X203650000Y-104050000D01*
X207188732Y-110422497D02*
G75*
G02*
X209650000Y-108510000I2461268J-627503D01*
G01*
X203300000Y-106605000D02*
G75*
G02*
X205840000Y-104065000I2540000J0D01*
G01*
X195680000Y-102565000D02*
X186790000Y-102565000D01*
X195680000Y-102946000D02*
X195680000Y-102565000D01*
X195680000Y-107010000D02*
X195680000Y-105994000D01*
X190600000Y-107010000D02*
X195680000Y-107010000D01*
X186409000Y-108915000D02*
X188060000Y-108915000D01*
X184250000Y-108915000D02*
X184631000Y-108915000D01*
X184250000Y-108534000D02*
X184250000Y-108915000D01*
X184250000Y-105105000D02*
X184250000Y-105486000D01*
X183600000Y-103550000D02*
X183600000Y-102550000D01*
X196600000Y-102550000D02*
X197600000Y-102550000D01*
X197600000Y-116550000D02*
X196600000Y-116550000D01*
X197600000Y-115550000D02*
X197600000Y-116550000D01*
X184600000Y-116550000D02*
X183600000Y-116550000D01*
X197600000Y-102550000D02*
X197600000Y-102946000D01*
X183600000Y-116550000D02*
X183600000Y-115550000D01*
X183600000Y-102550000D02*
X184600000Y-102550000D01*
X188138732Y-108922497D02*
G75*
G02*
X190600000Y-107010000I2461268J-627503D01*
G01*
X184250000Y-105105000D02*
G75*
G02*
X186790000Y-102565000I2540000J0D01*
G01*
X176630000Y-97765000D02*
X167740000Y-97765000D01*
X176630000Y-98146000D02*
X176630000Y-97765000D01*
X176630000Y-102210000D02*
X176630000Y-101194000D01*
X171550000Y-102210000D02*
X176630000Y-102210000D01*
X167359000Y-104115000D02*
X169010000Y-104115000D01*
X165200000Y-104115000D02*
X165581000Y-104115000D01*
X165200000Y-103734000D02*
X165200000Y-104115000D01*
X165200000Y-100305000D02*
X165200000Y-100686000D01*
X164550000Y-98750000D02*
X164550000Y-97750000D01*
X177550000Y-97750000D02*
X178550000Y-97750000D01*
X178550000Y-111750000D02*
X177550000Y-111750000D01*
X178550000Y-110750000D02*
X178550000Y-111750000D01*
X165550000Y-111750000D02*
X164550000Y-111750000D01*
X178550000Y-97750000D02*
X178550000Y-98146000D01*
X164550000Y-111750000D02*
X164550000Y-110750000D01*
X164550000Y-97750000D02*
X165550000Y-97750000D01*
X169088732Y-104122497D02*
G75*
G02*
X171550000Y-102210000I2461268J-627503D01*
G01*
X165200000Y-100305000D02*
G75*
G02*
X167740000Y-97765000I2540000J0D01*
G01*
X157580000Y-96375000D02*
X148690000Y-96375000D01*
X157580000Y-96756000D02*
X157580000Y-96375000D01*
X157580000Y-100820000D02*
X157580000Y-99804000D01*
X152500000Y-100820000D02*
X157580000Y-100820000D01*
X148309000Y-102725000D02*
X149960000Y-102725000D01*
X146150000Y-102725000D02*
X146531000Y-102725000D01*
X146150000Y-102344000D02*
X146150000Y-102725000D01*
X146150000Y-98915000D02*
X146150000Y-99296000D01*
X145500000Y-97360000D02*
X145500000Y-96360000D01*
X158500000Y-96360000D02*
X159500000Y-96360000D01*
X159500000Y-110360000D02*
X158500000Y-110360000D01*
X159500000Y-109360000D02*
X159500000Y-110360000D01*
X146500000Y-110360000D02*
X145500000Y-110360000D01*
X159500000Y-96360000D02*
X159500000Y-96756000D01*
X145500000Y-110360000D02*
X145500000Y-109360000D01*
X145500000Y-96360000D02*
X146500000Y-96360000D01*
X150038732Y-102732497D02*
G75*
G02*
X152500000Y-100820000I2461268J-627503D01*
G01*
X146150000Y-98915000D02*
G75*
G02*
X148690000Y-96375000I2540000J0D01*
G01*
X138530000Y-97765000D02*
X129640000Y-97765000D01*
X138530000Y-98146000D02*
X138530000Y-97765000D01*
X138530000Y-102210000D02*
X138530000Y-101194000D01*
X133450000Y-102210000D02*
X138530000Y-102210000D01*
X129259000Y-104115000D02*
X130910000Y-104115000D01*
X127100000Y-104115000D02*
X127481000Y-104115000D01*
X127100000Y-103734000D02*
X127100000Y-104115000D01*
X127100000Y-100305000D02*
X127100000Y-100686000D01*
X126450000Y-98750000D02*
X126450000Y-97750000D01*
X139450000Y-97750000D02*
X140450000Y-97750000D01*
X140450000Y-111750000D02*
X139450000Y-111750000D01*
X140450000Y-110750000D02*
X140450000Y-111750000D01*
X127450000Y-111750000D02*
X126450000Y-111750000D01*
X140450000Y-97750000D02*
X140450000Y-98146000D01*
X126450000Y-111750000D02*
X126450000Y-110750000D01*
X126450000Y-97750000D02*
X127450000Y-97750000D01*
X130988732Y-104122497D02*
G75*
G02*
X133450000Y-102210000I2461268J-627503D01*
G01*
X127100000Y-100305000D02*
G75*
G02*
X129640000Y-97765000I2540000J0D01*
G01*
X119480000Y-100165000D02*
X110590000Y-100165000D01*
X119480000Y-100546000D02*
X119480000Y-100165000D01*
X119480000Y-104610000D02*
X119480000Y-103594000D01*
X114400000Y-104610000D02*
X119480000Y-104610000D01*
X110209000Y-106515000D02*
X111860000Y-106515000D01*
X108050000Y-106515000D02*
X108431000Y-106515000D01*
X108050000Y-106134000D02*
X108050000Y-106515000D01*
X108050000Y-102705000D02*
X108050000Y-103086000D01*
X107400000Y-101150000D02*
X107400000Y-100150000D01*
X120400000Y-100150000D02*
X121400000Y-100150000D01*
X121400000Y-114150000D02*
X120400000Y-114150000D01*
X121400000Y-113150000D02*
X121400000Y-114150000D01*
X108400000Y-114150000D02*
X107400000Y-114150000D01*
X121400000Y-100150000D02*
X121400000Y-100546000D01*
X107400000Y-114150000D02*
X107400000Y-113150000D01*
X107400000Y-100150000D02*
X108400000Y-100150000D01*
X111938732Y-106522497D02*
G75*
G02*
X114400000Y-104610000I2461268J-627503D01*
G01*
X108050000Y-102705000D02*
G75*
G02*
X110590000Y-100165000I2540000J0D01*
G01*
X214730000Y-85015000D02*
X205840000Y-85015000D01*
X214730000Y-85396000D02*
X214730000Y-85015000D01*
X214730000Y-89460000D02*
X214730000Y-88444000D01*
X209650000Y-89460000D02*
X214730000Y-89460000D01*
X205459000Y-91365000D02*
X207110000Y-91365000D01*
X203300000Y-91365000D02*
X203681000Y-91365000D01*
X203300000Y-90984000D02*
X203300000Y-91365000D01*
X203300000Y-87555000D02*
X203300000Y-87936000D01*
X202650000Y-86000000D02*
X202650000Y-85000000D01*
X215650000Y-85000000D02*
X216650000Y-85000000D01*
X216650000Y-99000000D02*
X215650000Y-99000000D01*
X216650000Y-98000000D02*
X216650000Y-99000000D01*
X203650000Y-99000000D02*
X202650000Y-99000000D01*
X216650000Y-85000000D02*
X216650000Y-85396000D01*
X202650000Y-99000000D02*
X202650000Y-98000000D01*
X202650000Y-85000000D02*
X203650000Y-85000000D01*
X207188732Y-91372497D02*
G75*
G02*
X209650000Y-89460000I2461268J-627503D01*
G01*
X203300000Y-87555000D02*
G75*
G02*
X205840000Y-85015000I2540000J0D01*
G01*
X195680000Y-83515000D02*
X186790000Y-83515000D01*
X195680000Y-83896000D02*
X195680000Y-83515000D01*
X195680000Y-87960000D02*
X195680000Y-86944000D01*
X190600000Y-87960000D02*
X195680000Y-87960000D01*
X186409000Y-89865000D02*
X188060000Y-89865000D01*
X184250000Y-89865000D02*
X184631000Y-89865000D01*
X184250000Y-89484000D02*
X184250000Y-89865000D01*
X184250000Y-86055000D02*
X184250000Y-86436000D01*
X183600000Y-84500000D02*
X183600000Y-83500000D01*
X196600000Y-83500000D02*
X197600000Y-83500000D01*
X197600000Y-97500000D02*
X196600000Y-97500000D01*
X197600000Y-96500000D02*
X197600000Y-97500000D01*
X184600000Y-97500000D02*
X183600000Y-97500000D01*
X197600000Y-83500000D02*
X197600000Y-83896000D01*
X183600000Y-97500000D02*
X183600000Y-96500000D01*
X183600000Y-83500000D02*
X184600000Y-83500000D01*
X188138732Y-89872497D02*
G75*
G02*
X190600000Y-87960000I2461268J-627503D01*
G01*
X184250000Y-86055000D02*
G75*
G02*
X186790000Y-83515000I2540000J0D01*
G01*
X176630000Y-78715000D02*
X167740000Y-78715000D01*
X176630000Y-79096000D02*
X176630000Y-78715000D01*
X176630000Y-83160000D02*
X176630000Y-82144000D01*
X171550000Y-83160000D02*
X176630000Y-83160000D01*
X167359000Y-85065000D02*
X169010000Y-85065000D01*
X165200000Y-85065000D02*
X165581000Y-85065000D01*
X165200000Y-84684000D02*
X165200000Y-85065000D01*
X165200000Y-81255000D02*
X165200000Y-81636000D01*
X164550000Y-79700000D02*
X164550000Y-78700000D01*
X177550000Y-78700000D02*
X178550000Y-78700000D01*
X178550000Y-92700000D02*
X177550000Y-92700000D01*
X178550000Y-91700000D02*
X178550000Y-92700000D01*
X165550000Y-92700000D02*
X164550000Y-92700000D01*
X178550000Y-78700000D02*
X178550000Y-79096000D01*
X164550000Y-92700000D02*
X164550000Y-91700000D01*
X164550000Y-78700000D02*
X165550000Y-78700000D01*
X169088732Y-85072497D02*
G75*
G02*
X171550000Y-83160000I2461268J-627503D01*
G01*
X165200000Y-81255000D02*
G75*
G02*
X167740000Y-78715000I2540000J0D01*
G01*
X157580000Y-77325000D02*
X148690000Y-77325000D01*
X157580000Y-77706000D02*
X157580000Y-77325000D01*
X157580000Y-81770000D02*
X157580000Y-80754000D01*
X152500000Y-81770000D02*
X157580000Y-81770000D01*
X148309000Y-83675000D02*
X149960000Y-83675000D01*
X146150000Y-83675000D02*
X146531000Y-83675000D01*
X146150000Y-83294000D02*
X146150000Y-83675000D01*
X146150000Y-79865000D02*
X146150000Y-80246000D01*
X145500000Y-78310000D02*
X145500000Y-77310000D01*
X158500000Y-77310000D02*
X159500000Y-77310000D01*
X159500000Y-91310000D02*
X158500000Y-91310000D01*
X159500000Y-90310000D02*
X159500000Y-91310000D01*
X146500000Y-91310000D02*
X145500000Y-91310000D01*
X159500000Y-77310000D02*
X159500000Y-77706000D01*
X145500000Y-91310000D02*
X145500000Y-90310000D01*
X145500000Y-77310000D02*
X146500000Y-77310000D01*
X150038732Y-83682497D02*
G75*
G02*
X152500000Y-81770000I2461268J-627503D01*
G01*
X146150000Y-79865000D02*
G75*
G02*
X148690000Y-77325000I2540000J0D01*
G01*
X138530000Y-78715000D02*
X129640000Y-78715000D01*
X138530000Y-79096000D02*
X138530000Y-78715000D01*
X138530000Y-83160000D02*
X138530000Y-82144000D01*
X133450000Y-83160000D02*
X138530000Y-83160000D01*
X129259000Y-85065000D02*
X130910000Y-85065000D01*
X127100000Y-85065000D02*
X127481000Y-85065000D01*
X127100000Y-84684000D02*
X127100000Y-85065000D01*
X127100000Y-81255000D02*
X127100000Y-81636000D01*
X126450000Y-79700000D02*
X126450000Y-78700000D01*
X139450000Y-78700000D02*
X140450000Y-78700000D01*
X140450000Y-92700000D02*
X139450000Y-92700000D01*
X140450000Y-91700000D02*
X140450000Y-92700000D01*
X127450000Y-92700000D02*
X126450000Y-92700000D01*
X140450000Y-78700000D02*
X140450000Y-79096000D01*
X126450000Y-92700000D02*
X126450000Y-91700000D01*
X126450000Y-78700000D02*
X127450000Y-78700000D01*
X130988732Y-85072497D02*
G75*
G02*
X133450000Y-83160000I2461268J-627503D01*
G01*
X127100000Y-81255000D02*
G75*
G02*
X129640000Y-78715000I2540000J0D01*
G01*
X119480000Y-81115000D02*
X110590000Y-81115000D01*
X119480000Y-81496000D02*
X119480000Y-81115000D01*
X119480000Y-85560000D02*
X119480000Y-84544000D01*
X114400000Y-85560000D02*
X119480000Y-85560000D01*
X110209000Y-87465000D02*
X111860000Y-87465000D01*
X108050000Y-87465000D02*
X108431000Y-87465000D01*
X108050000Y-87084000D02*
X108050000Y-87465000D01*
X108050000Y-83655000D02*
X108050000Y-84036000D01*
X107400000Y-82100000D02*
X107400000Y-81100000D01*
X120400000Y-81100000D02*
X121400000Y-81100000D01*
X121400000Y-95100000D02*
X120400000Y-95100000D01*
X121400000Y-94100000D02*
X121400000Y-95100000D01*
X108400000Y-95100000D02*
X107400000Y-95100000D01*
X121400000Y-81100000D02*
X121400000Y-81496000D01*
X107400000Y-95100000D02*
X107400000Y-94100000D01*
X107400000Y-81100000D02*
X108400000Y-81100000D01*
X111938732Y-87472497D02*
G75*
G02*
X114400000Y-85560000I2461268J-627503D01*
G01*
X108050000Y-83655000D02*
G75*
G02*
X110590000Y-81115000I2540000J0D01*
G01*
X214730000Y-65965000D02*
X205840000Y-65965000D01*
X214730000Y-66346000D02*
X214730000Y-65965000D01*
X214730000Y-70410000D02*
X214730000Y-69394000D01*
X209650000Y-70410000D02*
X214730000Y-70410000D01*
X205459000Y-72315000D02*
X207110000Y-72315000D01*
X203300000Y-72315000D02*
X203681000Y-72315000D01*
X203300000Y-71934000D02*
X203300000Y-72315000D01*
X203300000Y-68505000D02*
X203300000Y-68886000D01*
X202650000Y-66950000D02*
X202650000Y-65950000D01*
X215650000Y-65950000D02*
X216650000Y-65950000D01*
X216650000Y-79950000D02*
X215650000Y-79950000D01*
X216650000Y-78950000D02*
X216650000Y-79950000D01*
X203650000Y-79950000D02*
X202650000Y-79950000D01*
X216650000Y-65950000D02*
X216650000Y-66346000D01*
X202650000Y-79950000D02*
X202650000Y-78950000D01*
X202650000Y-65950000D02*
X203650000Y-65950000D01*
X207188732Y-72322497D02*
G75*
G02*
X209650000Y-70410000I2461268J-627503D01*
G01*
X203300000Y-68505000D02*
G75*
G02*
X205840000Y-65965000I2540000J0D01*
G01*
X195680000Y-64465000D02*
X186790000Y-64465000D01*
X195680000Y-64846000D02*
X195680000Y-64465000D01*
X195680000Y-68910000D02*
X195680000Y-67894000D01*
X190600000Y-68910000D02*
X195680000Y-68910000D01*
X186409000Y-70815000D02*
X188060000Y-70815000D01*
X184250000Y-70815000D02*
X184631000Y-70815000D01*
X184250000Y-70434000D02*
X184250000Y-70815000D01*
X184250000Y-67005000D02*
X184250000Y-67386000D01*
X183600000Y-65450000D02*
X183600000Y-64450000D01*
X196600000Y-64450000D02*
X197600000Y-64450000D01*
X197600000Y-78450000D02*
X196600000Y-78450000D01*
X197600000Y-77450000D02*
X197600000Y-78450000D01*
X184600000Y-78450000D02*
X183600000Y-78450000D01*
X197600000Y-64450000D02*
X197600000Y-64846000D01*
X183600000Y-78450000D02*
X183600000Y-77450000D01*
X183600000Y-64450000D02*
X184600000Y-64450000D01*
X188138732Y-70822497D02*
G75*
G02*
X190600000Y-68910000I2461268J-627503D01*
G01*
X184250000Y-67005000D02*
G75*
G02*
X186790000Y-64465000I2540000J0D01*
G01*
X176630000Y-59665000D02*
X167740000Y-59665000D01*
X176630000Y-60046000D02*
X176630000Y-59665000D01*
X176630000Y-64110000D02*
X176630000Y-63094000D01*
X171550000Y-64110000D02*
X176630000Y-64110000D01*
X167359000Y-66015000D02*
X169010000Y-66015000D01*
X165200000Y-66015000D02*
X165581000Y-66015000D01*
X165200000Y-65634000D02*
X165200000Y-66015000D01*
X165200000Y-62205000D02*
X165200000Y-62586000D01*
X164550000Y-60650000D02*
X164550000Y-59650000D01*
X177550000Y-59650000D02*
X178550000Y-59650000D01*
X178550000Y-73650000D02*
X177550000Y-73650000D01*
X178550000Y-72650000D02*
X178550000Y-73650000D01*
X165550000Y-73650000D02*
X164550000Y-73650000D01*
X178550000Y-59650000D02*
X178550000Y-60046000D01*
X164550000Y-73650000D02*
X164550000Y-72650000D01*
X164550000Y-59650000D02*
X165550000Y-59650000D01*
X169088732Y-66022497D02*
G75*
G02*
X171550000Y-64110000I2461268J-627503D01*
G01*
X165200000Y-62205000D02*
G75*
G02*
X167740000Y-59665000I2540000J0D01*
G01*
X157580000Y-58275000D02*
X148690000Y-58275000D01*
X157580000Y-58656000D02*
X157580000Y-58275000D01*
X157580000Y-62720000D02*
X157580000Y-61704000D01*
X152500000Y-62720000D02*
X157580000Y-62720000D01*
X148309000Y-64625000D02*
X149960000Y-64625000D01*
X146150000Y-64625000D02*
X146531000Y-64625000D01*
X146150000Y-64244000D02*
X146150000Y-64625000D01*
X146150000Y-60815000D02*
X146150000Y-61196000D01*
X145500000Y-59260000D02*
X145500000Y-58260000D01*
X158500000Y-58260000D02*
X159500000Y-58260000D01*
X159500000Y-72260000D02*
X158500000Y-72260000D01*
X159500000Y-71260000D02*
X159500000Y-72260000D01*
X146500000Y-72260000D02*
X145500000Y-72260000D01*
X159500000Y-58260000D02*
X159500000Y-58656000D01*
X145500000Y-72260000D02*
X145500000Y-71260000D01*
X145500000Y-58260000D02*
X146500000Y-58260000D01*
X150038732Y-64632497D02*
G75*
G02*
X152500000Y-62720000I2461268J-627503D01*
G01*
X146150000Y-60815000D02*
G75*
G02*
X148690000Y-58275000I2540000J0D01*
G01*
X138530000Y-59665000D02*
X129640000Y-59665000D01*
X138530000Y-60046000D02*
X138530000Y-59665000D01*
X138530000Y-64110000D02*
X138530000Y-63094000D01*
X133450000Y-64110000D02*
X138530000Y-64110000D01*
X129259000Y-66015000D02*
X130910000Y-66015000D01*
X127100000Y-66015000D02*
X127481000Y-66015000D01*
X127100000Y-65634000D02*
X127100000Y-66015000D01*
X127100000Y-62205000D02*
X127100000Y-62586000D01*
X126450000Y-60650000D02*
X126450000Y-59650000D01*
X139450000Y-59650000D02*
X140450000Y-59650000D01*
X140450000Y-73650000D02*
X139450000Y-73650000D01*
X140450000Y-72650000D02*
X140450000Y-73650000D01*
X127450000Y-73650000D02*
X126450000Y-73650000D01*
X140450000Y-59650000D02*
X140450000Y-60046000D01*
X126450000Y-73650000D02*
X126450000Y-72650000D01*
X126450000Y-59650000D02*
X127450000Y-59650000D01*
X130988732Y-66022497D02*
G75*
G02*
X133450000Y-64110000I2461268J-627503D01*
G01*
X127100000Y-62205000D02*
G75*
G02*
X129640000Y-59665000I2540000J0D01*
G01*
X119480000Y-62065000D02*
X110590000Y-62065000D01*
X119480000Y-62446000D02*
X119480000Y-62065000D01*
X119480000Y-66510000D02*
X119480000Y-65494000D01*
X114400000Y-66510000D02*
X119480000Y-66510000D01*
X110209000Y-68415000D02*
X111860000Y-68415000D01*
X108050000Y-68415000D02*
X108431000Y-68415000D01*
X108050000Y-68034000D02*
X108050000Y-68415000D01*
X108050000Y-64605000D02*
X108050000Y-64986000D01*
X107400000Y-63050000D02*
X107400000Y-62050000D01*
X120400000Y-62050000D02*
X121400000Y-62050000D01*
X121400000Y-76050000D02*
X120400000Y-76050000D01*
X121400000Y-75050000D02*
X121400000Y-76050000D01*
X108400000Y-76050000D02*
X107400000Y-76050000D01*
X121400000Y-62050000D02*
X121400000Y-62446000D01*
X107400000Y-76050000D02*
X107400000Y-75050000D01*
X107400000Y-62050000D02*
X108400000Y-62050000D01*
X111938732Y-68422497D02*
G75*
G02*
X114400000Y-66510000I2461268J-627503D01*
G01*
X108050000Y-64605000D02*
G75*
G02*
X110590000Y-62065000I2540000J0D01*
G01*
X214730000Y-46915000D02*
X205840000Y-46915000D01*
X214730000Y-47296000D02*
X214730000Y-46915000D01*
X214730000Y-51360000D02*
X214730000Y-50344000D01*
X209650000Y-51360000D02*
X214730000Y-51360000D01*
X205459000Y-53265000D02*
X207110000Y-53265000D01*
X203300000Y-53265000D02*
X203681000Y-53265000D01*
X203300000Y-52884000D02*
X203300000Y-53265000D01*
X203300000Y-49455000D02*
X203300000Y-49836000D01*
X202650000Y-47900000D02*
X202650000Y-46900000D01*
X215650000Y-46900000D02*
X216650000Y-46900000D01*
X216650000Y-60900000D02*
X215650000Y-60900000D01*
X216650000Y-59900000D02*
X216650000Y-60900000D01*
X203650000Y-60900000D02*
X202650000Y-60900000D01*
X216650000Y-46900000D02*
X216650000Y-47296000D01*
X202650000Y-60900000D02*
X202650000Y-59900000D01*
X202650000Y-46900000D02*
X203650000Y-46900000D01*
X207188732Y-53272497D02*
G75*
G02*
X209650000Y-51360000I2461268J-627503D01*
G01*
X203300000Y-49455000D02*
G75*
G02*
X205840000Y-46915000I2540000J0D01*
G01*
X195680000Y-45415000D02*
X186790000Y-45415000D01*
X195680000Y-45796000D02*
X195680000Y-45415000D01*
X195680000Y-49860000D02*
X195680000Y-48844000D01*
X190600000Y-49860000D02*
X195680000Y-49860000D01*
X186409000Y-51765000D02*
X188060000Y-51765000D01*
X184250000Y-51765000D02*
X184631000Y-51765000D01*
X184250000Y-51384000D02*
X184250000Y-51765000D01*
X184250000Y-47955000D02*
X184250000Y-48336000D01*
X183600000Y-46400000D02*
X183600000Y-45400000D01*
X196600000Y-45400000D02*
X197600000Y-45400000D01*
X197600000Y-59400000D02*
X196600000Y-59400000D01*
X197600000Y-58400000D02*
X197600000Y-59400000D01*
X184600000Y-59400000D02*
X183600000Y-59400000D01*
X197600000Y-45400000D02*
X197600000Y-45796000D01*
X183600000Y-59400000D02*
X183600000Y-58400000D01*
X183600000Y-45400000D02*
X184600000Y-45400000D01*
X188138732Y-51772497D02*
G75*
G02*
X190600000Y-49860000I2461268J-627503D01*
G01*
X184250000Y-47955000D02*
G75*
G02*
X186790000Y-45415000I2540000J0D01*
G01*
X157580000Y-39225000D02*
X148690000Y-39225000D01*
X157580000Y-39606000D02*
X157580000Y-39225000D01*
X157580000Y-43670000D02*
X157580000Y-42654000D01*
X152500000Y-43670000D02*
X157580000Y-43670000D01*
X148309000Y-45575000D02*
X149960000Y-45575000D01*
X146150000Y-45575000D02*
X146531000Y-45575000D01*
X146150000Y-45194000D02*
X146150000Y-45575000D01*
X146150000Y-41765000D02*
X146150000Y-42146000D01*
X145500000Y-40210000D02*
X145500000Y-39210000D01*
X158500000Y-39210000D02*
X159500000Y-39210000D01*
X159500000Y-53210000D02*
X158500000Y-53210000D01*
X159500000Y-52210000D02*
X159500000Y-53210000D01*
X146500000Y-53210000D02*
X145500000Y-53210000D01*
X159500000Y-39210000D02*
X159500000Y-39606000D01*
X145500000Y-53210000D02*
X145500000Y-52210000D01*
X145500000Y-39210000D02*
X146500000Y-39210000D01*
X150038732Y-45582497D02*
G75*
G02*
X152500000Y-43670000I2461268J-627503D01*
G01*
X146150000Y-41765000D02*
G75*
G02*
X148690000Y-39225000I2540000J0D01*
G01*
X138530000Y-40615000D02*
X129640000Y-40615000D01*
X138530000Y-40996000D02*
X138530000Y-40615000D01*
X138530000Y-45060000D02*
X138530000Y-44044000D01*
X133450000Y-45060000D02*
X138530000Y-45060000D01*
X129259000Y-46965000D02*
X130910000Y-46965000D01*
X127100000Y-46965000D02*
X127481000Y-46965000D01*
X127100000Y-46584000D02*
X127100000Y-46965000D01*
X127100000Y-43155000D02*
X127100000Y-43536000D01*
X126450000Y-41600000D02*
X126450000Y-40600000D01*
X139450000Y-40600000D02*
X140450000Y-40600000D01*
X140450000Y-54600000D02*
X139450000Y-54600000D01*
X140450000Y-53600000D02*
X140450000Y-54600000D01*
X127450000Y-54600000D02*
X126450000Y-54600000D01*
X140450000Y-40600000D02*
X140450000Y-40996000D01*
X126450000Y-54600000D02*
X126450000Y-53600000D01*
X126450000Y-40600000D02*
X127450000Y-40600000D01*
X130988732Y-46972497D02*
G75*
G02*
X133450000Y-45060000I2461268J-627503D01*
G01*
X127100000Y-43155000D02*
G75*
G02*
X129640000Y-40615000I2540000J0D01*
G01*
X119480000Y-43015000D02*
X110590000Y-43015000D01*
X119480000Y-43396000D02*
X119480000Y-43015000D01*
X119480000Y-47460000D02*
X119480000Y-46444000D01*
X114400000Y-47460000D02*
X119480000Y-47460000D01*
X110209000Y-49365000D02*
X111860000Y-49365000D01*
X108050000Y-49365000D02*
X108431000Y-49365000D01*
X108050000Y-48984000D02*
X108050000Y-49365000D01*
X108050000Y-45555000D02*
X108050000Y-45936000D01*
X107400000Y-44000000D02*
X107400000Y-43000000D01*
X120400000Y-43000000D02*
X121400000Y-43000000D01*
X121400000Y-57000000D02*
X120400000Y-57000000D01*
X121400000Y-56000000D02*
X121400000Y-57000000D01*
X108400000Y-57000000D02*
X107400000Y-57000000D01*
X121400000Y-43000000D02*
X121400000Y-43396000D01*
X107400000Y-57000000D02*
X107400000Y-56000000D01*
X107400000Y-43000000D02*
X108400000Y-43000000D01*
X111938732Y-49372497D02*
G75*
G02*
X114400000Y-47460000I2461268J-627503D01*
G01*
X108050000Y-45555000D02*
G75*
G02*
X110590000Y-43015000I2540000J0D01*
G01*
X87878000Y-88265000D02*
X86878000Y-88265000D01*
X94378000Y-88265000D02*
X93478000Y-88265000D01*
X90278000Y-87565000D02*
X90278000Y-88965000D01*
X90278000Y-88965000D02*
X91178000Y-88265000D01*
X91178000Y-88265000D02*
X90278000Y-87565000D01*
X91178000Y-87565000D02*
X91178000Y-88965000D01*
X81470500Y-81019000D02*
X79570500Y-81019000D01*
X81470500Y-80519000D02*
X81470500Y-81019000D01*
X79570500Y-85969000D02*
X79570500Y-81019000D01*
X81470500Y-86019000D02*
X79570500Y-86019000D01*
X93470500Y-86519000D02*
X81470500Y-86519000D01*
X93470500Y-80519000D02*
X93470500Y-86519000D01*
X81470500Y-80519000D02*
X93470500Y-80519000D01*
X81470500Y-86519000D02*
X81470500Y-86019000D01*
X100838000Y-70497700D02*
X99060000Y-70497700D01*
X100838000Y-72783700D02*
X100838000Y-70497700D01*
X99060000Y-72783700D02*
X100838000Y-72783700D01*
X99060000Y-70497700D02*
X99060000Y-72783700D01*
X84645500Y-79184500D02*
X84645500Y-77406500D01*
X82359500Y-79184500D02*
X84645500Y-79184500D01*
X82359500Y-77406500D02*
X82359500Y-79184500D01*
X84645500Y-77406500D02*
X82359500Y-77406500D01*
X88656900Y-75432500D02*
X86878900Y-75432500D01*
X88656900Y-77718500D02*
X88656900Y-75432500D01*
X86878900Y-77718500D02*
X88656900Y-77718500D01*
X86878900Y-75432500D02*
X86878900Y-77718500D01*
X91228332Y-75432500D02*
X89450332Y-75432500D01*
X91228332Y-77718500D02*
X91228332Y-75432500D01*
X89450332Y-77718500D02*
X91228332Y-77718500D01*
X89450332Y-75432500D02*
X89450332Y-77718500D01*
X93799766Y-75432500D02*
X92021766Y-75432500D01*
X93799766Y-77718500D02*
X93799766Y-75432500D01*
X92021766Y-77718500D02*
X93799766Y-77718500D01*
X92021766Y-75432500D02*
X92021766Y-77718500D01*
X96307700Y-75432500D02*
X94529700Y-75432500D01*
X96307700Y-77718500D02*
X96307700Y-75432500D01*
X94529700Y-77718500D02*
X96307700Y-77718500D01*
X94529700Y-75432500D02*
X94529700Y-77718500D01*
X102161267Y-86713553D02*
X100747053Y-88127767D01*
X100039947Y-84592233D02*
X102161267Y-86713553D01*
X98625733Y-86006447D02*
X100039947Y-84592233D01*
X100747053Y-88127767D02*
X98625733Y-86006447D01*
X102224767Y-83602053D02*
X100810553Y-85016267D01*
X100103447Y-81480733D02*
X102224767Y-83602053D01*
X98689233Y-82894947D02*
X100103447Y-81480733D01*
X100810553Y-85016267D02*
X98689233Y-82894947D01*
X104022127Y-54143639D02*
X106145059Y-56266571D01*
X102606839Y-55558927D02*
X104022127Y-54143639D01*
X104729771Y-57681859D02*
X102606839Y-55558927D01*
X106145059Y-56266571D02*
X104729771Y-57681859D01*
X105192322Y-55045610D02*
X103069390Y-52922678D01*
X106607610Y-53630322D02*
X105192322Y-55045610D01*
X104484678Y-51507390D02*
X106607610Y-53630322D01*
X103069390Y-52922678D02*
X104484678Y-51507390D01*
X89275000Y-71580500D02*
X88275000Y-71580500D01*
X94875000Y-71580500D02*
X95775000Y-71580500D01*
X92575000Y-71580500D02*
X91675000Y-72280500D01*
X91675000Y-72280500D02*
X91675000Y-70880500D01*
X91675000Y-70880500D02*
X92575000Y-71580500D01*
X92575000Y-72280500D02*
X92575000Y-70880500D01*
X159125000Y-114744500D02*
X158125000Y-114744500D01*
X165625000Y-114744500D02*
X164725000Y-114744500D01*
X161525000Y-114044500D02*
X161525000Y-115444500D01*
X161525000Y-115444500D02*
X162425000Y-114744500D01*
X162425000Y-114744500D02*
X161525000Y-114044500D01*
X162425000Y-114044500D02*
X162425000Y-115444500D01*
X140138500Y-115760500D02*
X139138500Y-115760500D01*
X146638500Y-115760500D02*
X145738500Y-115760500D01*
X142538500Y-115060500D02*
X142538500Y-116460500D01*
X142538500Y-116460500D02*
X143438500Y-115760500D01*
X143438500Y-115760500D02*
X142538500Y-115060500D01*
X143438500Y-115060500D02*
X143438500Y-116460500D01*
X121088500Y-117157500D02*
X120088500Y-117157500D01*
X127588500Y-117157500D02*
X126688500Y-117157500D01*
X123488500Y-116457500D02*
X123488500Y-117857500D01*
X123488500Y-117857500D02*
X124388500Y-117157500D01*
X124388500Y-117157500D02*
X123488500Y-116457500D01*
X124388500Y-116457500D02*
X124388500Y-117857500D01*
X104772000Y-119050629D02*
X104272000Y-118184603D01*
X108022000Y-124679794D02*
X107572000Y-123900371D01*
X106578218Y-120779090D02*
X105365782Y-121479090D01*
X105365782Y-121479090D02*
X106422000Y-121908513D01*
X106422000Y-121908513D02*
X106578218Y-120779090D01*
X107028218Y-121558513D02*
X105815782Y-122258513D01*
X206877000Y-101981000D02*
X205877000Y-101981000D01*
X213377000Y-101981000D02*
X212477000Y-101981000D01*
X209277000Y-101281000D02*
X209277000Y-102681000D01*
X209277000Y-102681000D02*
X210177000Y-101981000D01*
X210177000Y-101981000D02*
X209277000Y-101281000D01*
X210177000Y-101281000D02*
X210177000Y-102681000D01*
X187636500Y-100457000D02*
X186636500Y-100457000D01*
X194136500Y-100457000D02*
X193236500Y-100457000D01*
X190036500Y-99757000D02*
X190036500Y-101157000D01*
X190036500Y-101157000D02*
X190936500Y-100457000D01*
X190936500Y-100457000D02*
X190036500Y-99757000D01*
X190936500Y-99757000D02*
X190936500Y-101157000D01*
X168713500Y-95694500D02*
X167713500Y-95694500D01*
X175213500Y-95694500D02*
X174313500Y-95694500D01*
X171113500Y-94994500D02*
X171113500Y-96394500D01*
X171113500Y-96394500D02*
X172013500Y-95694500D01*
X172013500Y-95694500D02*
X171113500Y-94994500D01*
X172013500Y-94994500D02*
X172013500Y-96394500D01*
X149727000Y-94297500D02*
X148727000Y-94297500D01*
X156227000Y-94297500D02*
X155327000Y-94297500D01*
X152127000Y-93597500D02*
X152127000Y-94997500D01*
X152127000Y-94997500D02*
X153027000Y-94297500D01*
X153027000Y-94297500D02*
X152127000Y-93597500D01*
X153027000Y-93597500D02*
X153027000Y-94997500D01*
X130931000Y-95694500D02*
X129931000Y-95694500D01*
X137431000Y-95694500D02*
X136531000Y-95694500D01*
X133331000Y-94994500D02*
X133331000Y-96394500D01*
X133331000Y-96394500D02*
X134231000Y-95694500D01*
X134231000Y-95694500D02*
X133331000Y-94994500D01*
X134231000Y-94994500D02*
X134231000Y-96394500D01*
X111563500Y-98107500D02*
X110563500Y-98107500D01*
X118063500Y-98107500D02*
X117163500Y-98107500D01*
X113963500Y-97407500D02*
X113963500Y-98807500D01*
X113963500Y-98807500D02*
X114863500Y-98107500D01*
X114863500Y-98107500D02*
X113963500Y-97407500D01*
X114863500Y-97407500D02*
X114863500Y-98807500D01*
X206877000Y-82994500D02*
X205877000Y-82994500D01*
X213377000Y-82994500D02*
X212477000Y-82994500D01*
X209277000Y-82294500D02*
X209277000Y-83694500D01*
X209277000Y-83694500D02*
X210177000Y-82994500D01*
X210177000Y-82994500D02*
X209277000Y-82294500D01*
X210177000Y-82294500D02*
X210177000Y-83694500D01*
X187827000Y-81470500D02*
X186827000Y-81470500D01*
X194327000Y-81470500D02*
X193427000Y-81470500D01*
X190227000Y-80770500D02*
X190227000Y-82170500D01*
X190227000Y-82170500D02*
X191127000Y-81470500D01*
X191127000Y-81470500D02*
X190227000Y-80770500D01*
X191127000Y-80770500D02*
X191127000Y-82170500D01*
X168713500Y-76644500D02*
X167713500Y-76644500D01*
X175213500Y-76644500D02*
X174313500Y-76644500D01*
X171113500Y-75944500D02*
X171113500Y-77344500D01*
X171113500Y-77344500D02*
X172013500Y-76644500D01*
X172013500Y-76644500D02*
X171113500Y-75944500D01*
X172013500Y-75944500D02*
X172013500Y-77344500D01*
X149663500Y-75247500D02*
X148663500Y-75247500D01*
X156163500Y-75247500D02*
X155263500Y-75247500D01*
X152063500Y-74547500D02*
X152063500Y-75947500D01*
X152063500Y-75947500D02*
X152963500Y-75247500D01*
X152963500Y-75247500D02*
X152063500Y-74547500D01*
X152963500Y-74547500D02*
X152963500Y-75947500D01*
X130613500Y-76644500D02*
X129613500Y-76644500D01*
X137113500Y-76644500D02*
X136213500Y-76644500D01*
X133013500Y-75944500D02*
X133013500Y-77344500D01*
X133013500Y-77344500D02*
X133913500Y-76644500D01*
X133913500Y-76644500D02*
X133013500Y-75944500D01*
X133913500Y-75944500D02*
X133913500Y-77344500D01*
X111627000Y-79057500D02*
X110627000Y-79057500D01*
X118127000Y-79057500D02*
X117227000Y-79057500D01*
X114027000Y-78357500D02*
X114027000Y-79757500D01*
X114027000Y-79757500D02*
X114927000Y-79057500D01*
X114927000Y-79057500D02*
X114027000Y-78357500D01*
X114927000Y-78357500D02*
X114927000Y-79757500D01*
X206813500Y-63944500D02*
X205813500Y-63944500D01*
X213313500Y-63944500D02*
X212413500Y-63944500D01*
X209213500Y-63244500D02*
X209213500Y-64644500D01*
X209213500Y-64644500D02*
X210113500Y-63944500D01*
X210113500Y-63944500D02*
X209213500Y-63244500D01*
X210113500Y-63244500D02*
X210113500Y-64644500D01*
X187763500Y-62357000D02*
X186763500Y-62357000D01*
X194263500Y-62357000D02*
X193363500Y-62357000D01*
X190163500Y-61657000D02*
X190163500Y-63057000D01*
X190163500Y-63057000D02*
X191063500Y-62357000D01*
X191063500Y-62357000D02*
X190163500Y-61657000D01*
X191063500Y-61657000D02*
X191063500Y-63057000D01*
X168713500Y-57594500D02*
X167713500Y-57594500D01*
X175213500Y-57594500D02*
X174313500Y-57594500D01*
X171113500Y-56894500D02*
X171113500Y-58294500D01*
X171113500Y-58294500D02*
X172013500Y-57594500D01*
X172013500Y-57594500D02*
X171113500Y-56894500D01*
X172013500Y-56894500D02*
X172013500Y-58294500D01*
X149663500Y-56197500D02*
X148663500Y-56197500D01*
X156163500Y-56197500D02*
X155263500Y-56197500D01*
X152063500Y-55497500D02*
X152063500Y-56897500D01*
X152063500Y-56897500D02*
X152963500Y-56197500D01*
X152963500Y-56197500D02*
X152063500Y-55497500D01*
X152963500Y-55497500D02*
X152963500Y-56897500D01*
X130613500Y-57594500D02*
X129613500Y-57594500D01*
X137113500Y-57594500D02*
X136213500Y-57594500D01*
X133013500Y-56894500D02*
X133013500Y-58294500D01*
X133013500Y-58294500D02*
X133913500Y-57594500D01*
X133913500Y-57594500D02*
X133013500Y-56894500D01*
X133913500Y-56894500D02*
X133913500Y-58294500D01*
X111563500Y-60007500D02*
X110563500Y-60007500D01*
X118063500Y-60007500D02*
X117163500Y-60007500D01*
X113963500Y-59307500D02*
X113963500Y-60707500D01*
X113963500Y-60707500D02*
X114863500Y-60007500D01*
X114863500Y-60007500D02*
X113963500Y-59307500D01*
X114863500Y-59307500D02*
X114863500Y-60707500D01*
X206813500Y-44704000D02*
X205813500Y-44704000D01*
X213313500Y-44704000D02*
X212413500Y-44704000D01*
X209213500Y-44004000D02*
X209213500Y-45404000D01*
X209213500Y-45404000D02*
X210113500Y-44704000D01*
X210113500Y-44704000D02*
X209213500Y-44004000D01*
X210113500Y-44004000D02*
X210113500Y-45404000D01*
X187763500Y-43307000D02*
X186763500Y-43307000D01*
X194263500Y-43307000D02*
X193363500Y-43307000D01*
X190163500Y-42607000D02*
X190163500Y-44007000D01*
X190163500Y-44007000D02*
X191063500Y-43307000D01*
X191063500Y-43307000D02*
X190163500Y-42607000D01*
X191063500Y-42607000D02*
X191063500Y-44007000D01*
X168713500Y-38608000D02*
X167713500Y-38608000D01*
X175213500Y-38608000D02*
X174313500Y-38608000D01*
X171113500Y-37908000D02*
X171113500Y-39308000D01*
X171113500Y-39308000D02*
X172013500Y-38608000D01*
X172013500Y-38608000D02*
X171113500Y-37908000D01*
X172013500Y-37908000D02*
X172013500Y-39308000D01*
X149663500Y-37211000D02*
X148663500Y-37211000D01*
X156163500Y-37211000D02*
X155263500Y-37211000D01*
X152063500Y-36511000D02*
X152063500Y-37911000D01*
X152063500Y-37911000D02*
X152963500Y-37211000D01*
X152963500Y-37211000D02*
X152063500Y-36511000D01*
X152963500Y-36511000D02*
X152963500Y-37911000D01*
X130677000Y-38608000D02*
X129677000Y-38608000D01*
X137177000Y-38608000D02*
X136277000Y-38608000D01*
X133077000Y-37908000D02*
X133077000Y-39308000D01*
X133077000Y-39308000D02*
X133977000Y-38608000D01*
X133977000Y-38608000D02*
X133077000Y-37908000D01*
X133977000Y-37908000D02*
X133977000Y-39308000D01*
X111627000Y-40767000D02*
X110627000Y-40767000D01*
X118127000Y-40767000D02*
X117227000Y-40767000D01*
X114027000Y-40067000D02*
X114027000Y-41467000D01*
X114027000Y-41467000D02*
X114927000Y-40767000D01*
X114927000Y-40767000D02*
X114027000Y-40067000D01*
X114927000Y-40067000D02*
X114927000Y-41467000D01*
D11*
X127318500Y-52601000D02*
X127318500Y-54051000D01*
X124868500Y-52601000D02*
X127288500Y-52601000D01*
X124868500Y-54051000D02*
X124868500Y-52601000D01*
X127318500Y-54051000D02*
X124868500Y-54051000D01*
X165418500Y-52537500D02*
X165418500Y-53987500D01*
X162968500Y-52537500D02*
X165388500Y-52537500D01*
X162968500Y-53987500D02*
X162968500Y-52537500D01*
X165418500Y-53987500D02*
X162968500Y-53987500D01*
X203582000Y-57046000D02*
X203582000Y-58496000D01*
X201132000Y-57046000D02*
X203552000Y-57046000D01*
X201132000Y-58496000D02*
X201132000Y-57046000D01*
X203582000Y-58496000D02*
X201132000Y-58496000D01*
X105538000Y-108544500D02*
X105538000Y-109994500D01*
X103088000Y-108544500D02*
X105508000Y-108544500D01*
X103088000Y-109994500D02*
X103088000Y-108544500D01*
X105538000Y-109994500D02*
X103088000Y-109994500D01*
X155830000Y-128229500D02*
X155830000Y-129679500D01*
X153380000Y-128229500D02*
X155800000Y-128229500D01*
X153380000Y-129679500D02*
X153380000Y-128229500D01*
X155830000Y-129679500D02*
X153380000Y-129679500D01*
X203455000Y-112672000D02*
X201005000Y-112672000D01*
X201005000Y-112672000D02*
X201005000Y-114122000D01*
X201005000Y-114122000D02*
X203425000Y-114122000D01*
X203455000Y-114122000D02*
X203455000Y-112672000D01*
D10*
X82016000Y-36320000D02*
X99796000Y-36320000D01*
X99796000Y-36320000D02*
X99796000Y-69340000D01*
X82016000Y-69340000D02*
X82016000Y-36320000D01*
X97256000Y-38860000D02*
X99796000Y-38860000D01*
X99796000Y-38860000D02*
X99796000Y-69340000D01*
X99796000Y-69340000D02*
X97256000Y-69340000D01*
X97256000Y-69340000D02*
X97256000Y-38860000D01*
X82016000Y-38860000D02*
X84556000Y-38860000D01*
X84556000Y-38860000D02*
X84556000Y-69340000D01*
X84556000Y-69340000D02*
X82016000Y-69340000D01*
X82016000Y-69340000D02*
X82016000Y-38860000D01*
X168414533Y-50239561D02*
X168271676Y-50287180D01*
X168033580Y-50287180D01*
X167938342Y-50239561D01*
X167890723Y-50191942D01*
X167843104Y-50096704D01*
X167843104Y-50001466D01*
X167890723Y-49906228D01*
X167938342Y-49858609D01*
X168033580Y-49810990D01*
X168224057Y-49763371D01*
X168319295Y-49715752D01*
X168366914Y-49668133D01*
X168414533Y-49572895D01*
X168414533Y-49477657D01*
X168366914Y-49382419D01*
X168319295Y-49334800D01*
X168224057Y-49287180D01*
X167985961Y-49287180D01*
X167843104Y-49334800D01*
X167509771Y-49287180D02*
X167271676Y-50287180D01*
X167081200Y-49572895D01*
X166890723Y-50287180D01*
X166652628Y-49287180D01*
X165843104Y-49620514D02*
X165843104Y-50287180D01*
X166081200Y-49239561D02*
X166319295Y-49953847D01*
X165700247Y-49953847D01*
X159187923Y-126337961D02*
X159045066Y-126385580D01*
X158806971Y-126385580D01*
X158711733Y-126337961D01*
X158664114Y-126290342D01*
X158616495Y-126195104D01*
X158616495Y-126099866D01*
X158664114Y-126004628D01*
X158711733Y-125957009D01*
X158806971Y-125909390D01*
X158997447Y-125861771D01*
X159092685Y-125814152D01*
X159140304Y-125766533D01*
X159187923Y-125671295D01*
X159187923Y-125576057D01*
X159140304Y-125480819D01*
X159092685Y-125433200D01*
X158997447Y-125385580D01*
X158759352Y-125385580D01*
X158616495Y-125433200D01*
X158283161Y-125385580D02*
X158045066Y-126385580D01*
X157854590Y-125671295D01*
X157664114Y-126385580D01*
X157426019Y-125385580D01*
X157092685Y-125480819D02*
X157045066Y-125433200D01*
X156949828Y-125385580D01*
X156711733Y-125385580D01*
X156616495Y-125433200D01*
X156568876Y-125480819D01*
X156521257Y-125576057D01*
X156521257Y-125671295D01*
X156568876Y-125814152D01*
X157140304Y-126385580D01*
X156521257Y-126385580D01*
X156045066Y-126385580D02*
X155854590Y-126385580D01*
X155759352Y-126337961D01*
X155711733Y-126290342D01*
X155616495Y-126147485D01*
X155568876Y-125957009D01*
X155568876Y-125576057D01*
X155616495Y-125480819D01*
X155664114Y-125433200D01*
X155759352Y-125385580D01*
X155949828Y-125385580D01*
X156045066Y-125433200D01*
X156092685Y-125480819D01*
X156140304Y-125576057D01*
X156140304Y-125814152D01*
X156092685Y-125909390D01*
X156045066Y-125957009D01*
X155949828Y-126004628D01*
X155759352Y-126004628D01*
X155664114Y-125957009D01*
X155616495Y-125909390D01*
X155568876Y-125814152D01*
X139934723Y-127607961D02*
X139791866Y-127655580D01*
X139553771Y-127655580D01*
X139458533Y-127607961D01*
X139410914Y-127560342D01*
X139363295Y-127465104D01*
X139363295Y-127369866D01*
X139410914Y-127274628D01*
X139458533Y-127227009D01*
X139553771Y-127179390D01*
X139744247Y-127131771D01*
X139839485Y-127084152D01*
X139887104Y-127036533D01*
X139934723Y-126941295D01*
X139934723Y-126846057D01*
X139887104Y-126750819D01*
X139839485Y-126703200D01*
X139744247Y-126655580D01*
X139506152Y-126655580D01*
X139363295Y-126703200D01*
X139029961Y-126655580D02*
X138791866Y-127655580D01*
X138601390Y-126941295D01*
X138410914Y-127655580D01*
X138172819Y-126655580D01*
X137839485Y-126750819D02*
X137791866Y-126703200D01*
X137696628Y-126655580D01*
X137458533Y-126655580D01*
X137363295Y-126703200D01*
X137315676Y-126750819D01*
X137268057Y-126846057D01*
X137268057Y-126941295D01*
X137315676Y-127084152D01*
X137887104Y-127655580D01*
X137268057Y-127655580D01*
X136696628Y-127084152D02*
X136791866Y-127036533D01*
X136839485Y-126988914D01*
X136887104Y-126893676D01*
X136887104Y-126846057D01*
X136839485Y-126750819D01*
X136791866Y-126703200D01*
X136696628Y-126655580D01*
X136506152Y-126655580D01*
X136410914Y-126703200D01*
X136363295Y-126750819D01*
X136315676Y-126846057D01*
X136315676Y-126893676D01*
X136363295Y-126988914D01*
X136410914Y-127036533D01*
X136506152Y-127084152D01*
X136696628Y-127084152D01*
X136791866Y-127131771D01*
X136839485Y-127179390D01*
X136887104Y-127274628D01*
X136887104Y-127465104D01*
X136839485Y-127560342D01*
X136791866Y-127607961D01*
X136696628Y-127655580D01*
X136506152Y-127655580D01*
X136410914Y-127607961D01*
X136363295Y-127560342D01*
X136315676Y-127465104D01*
X136315676Y-127274628D01*
X136363295Y-127179390D01*
X136410914Y-127131771D01*
X136506152Y-127084152D01*
X120884723Y-129030361D02*
X120741866Y-129077980D01*
X120503771Y-129077980D01*
X120408533Y-129030361D01*
X120360914Y-128982742D01*
X120313295Y-128887504D01*
X120313295Y-128792266D01*
X120360914Y-128697028D01*
X120408533Y-128649409D01*
X120503771Y-128601790D01*
X120694247Y-128554171D01*
X120789485Y-128506552D01*
X120837104Y-128458933D01*
X120884723Y-128363695D01*
X120884723Y-128268457D01*
X120837104Y-128173219D01*
X120789485Y-128125600D01*
X120694247Y-128077980D01*
X120456152Y-128077980D01*
X120313295Y-128125600D01*
X119979961Y-128077980D02*
X119741866Y-129077980D01*
X119551390Y-128363695D01*
X119360914Y-129077980D01*
X119122819Y-128077980D01*
X118789485Y-128173219D02*
X118741866Y-128125600D01*
X118646628Y-128077980D01*
X118408533Y-128077980D01*
X118313295Y-128125600D01*
X118265676Y-128173219D01*
X118218057Y-128268457D01*
X118218057Y-128363695D01*
X118265676Y-128506552D01*
X118837104Y-129077980D01*
X118218057Y-129077980D01*
X117884723Y-128077980D02*
X117218057Y-128077980D01*
X117646628Y-129077980D01*
X94585027Y-124959473D02*
X94472359Y-124859565D01*
X94353312Y-124653368D01*
X94346932Y-124547080D01*
X94364362Y-124482031D01*
X94423031Y-124393173D01*
X94505510Y-124345554D01*
X94611798Y-124339174D01*
X94676847Y-124356604D01*
X94765705Y-124415273D01*
X94902182Y-124556421D01*
X94991041Y-124615090D01*
X95056089Y-124632519D01*
X95162378Y-124626140D01*
X95244856Y-124578521D01*
X95303525Y-124489662D01*
X95320955Y-124424613D01*
X95314575Y-124318325D01*
X95195528Y-124112129D01*
X95082860Y-124012220D01*
X94957432Y-123699736D02*
X93972359Y-123993539D01*
X94495711Y-123471439D01*
X93781883Y-123663625D01*
X94528861Y-122957428D01*
X94279716Y-122716372D02*
X94297146Y-122651323D01*
X94290766Y-122545035D01*
X94171718Y-122338839D01*
X94082860Y-122280170D01*
X94017811Y-122262740D01*
X93911523Y-122269120D01*
X93829044Y-122316739D01*
X93729136Y-122429407D01*
X93519978Y-123209992D01*
X93210455Y-122673881D01*
X93647909Y-121431574D02*
X93743147Y-121596531D01*
X93749526Y-121702819D01*
X93732097Y-121767868D01*
X93655998Y-121921775D01*
X93514850Y-122058253D01*
X93184936Y-122248729D01*
X93078648Y-122255109D01*
X93013599Y-122237679D01*
X92924740Y-122179010D01*
X92829502Y-122014053D01*
X92823123Y-121907764D01*
X92840552Y-121842716D01*
X92899221Y-121753857D01*
X93105418Y-121634810D01*
X93211706Y-121628430D01*
X93276755Y-121645860D01*
X93365613Y-121704529D01*
X93460851Y-121869486D01*
X93467231Y-121975774D01*
X93449801Y-122040823D01*
X93391132Y-122129681D01*
X87255123Y-100887161D02*
X87112266Y-100934780D01*
X86874171Y-100934780D01*
X86778933Y-100887161D01*
X86731314Y-100839542D01*
X86683695Y-100744304D01*
X86683695Y-100649066D01*
X86731314Y-100553828D01*
X86778933Y-100506209D01*
X86874171Y-100458590D01*
X87064647Y-100410971D01*
X87159885Y-100363352D01*
X87207504Y-100315733D01*
X87255123Y-100220495D01*
X87255123Y-100125257D01*
X87207504Y-100030019D01*
X87159885Y-99982400D01*
X87064647Y-99934780D01*
X86826552Y-99934780D01*
X86683695Y-99982400D01*
X86350361Y-99934780D02*
X86112266Y-100934780D01*
X85921790Y-100220495D01*
X85731314Y-100934780D01*
X85493219Y-99934780D01*
X85159885Y-100030019D02*
X85112266Y-99982400D01*
X85017028Y-99934780D01*
X84778933Y-99934780D01*
X84683695Y-99982400D01*
X84636076Y-100030019D01*
X84588457Y-100125257D01*
X84588457Y-100220495D01*
X84636076Y-100363352D01*
X85207504Y-100934780D01*
X84588457Y-100934780D01*
X83683695Y-99934780D02*
X84159885Y-99934780D01*
X84207504Y-100410971D01*
X84159885Y-100363352D01*
X84064647Y-100315733D01*
X83826552Y-100315733D01*
X83731314Y-100363352D01*
X83683695Y-100410971D01*
X83636076Y-100506209D01*
X83636076Y-100744304D01*
X83683695Y-100839542D01*
X83731314Y-100887161D01*
X83826552Y-100934780D01*
X84064647Y-100934780D01*
X84159885Y-100887161D01*
X84207504Y-100839542D01*
X207549523Y-113790361D02*
X207406666Y-113837980D01*
X207168571Y-113837980D01*
X207073333Y-113790361D01*
X207025714Y-113742742D01*
X206978095Y-113647504D01*
X206978095Y-113552266D01*
X207025714Y-113457028D01*
X207073333Y-113409409D01*
X207168571Y-113361790D01*
X207359047Y-113314171D01*
X207454285Y-113266552D01*
X207501904Y-113218933D01*
X207549523Y-113123695D01*
X207549523Y-113028457D01*
X207501904Y-112933219D01*
X207454285Y-112885600D01*
X207359047Y-112837980D01*
X207120952Y-112837980D01*
X206978095Y-112885600D01*
X206644761Y-112837980D02*
X206406666Y-113837980D01*
X206216190Y-113123695D01*
X206025714Y-113837980D01*
X205787619Y-112837980D01*
X205454285Y-112933219D02*
X205406666Y-112885600D01*
X205311428Y-112837980D01*
X205073333Y-112837980D01*
X204978095Y-112885600D01*
X204930476Y-112933219D01*
X204882857Y-113028457D01*
X204882857Y-113123695D01*
X204930476Y-113266552D01*
X205501904Y-113837980D01*
X204882857Y-113837980D01*
X204025714Y-113171314D02*
X204025714Y-113837980D01*
X204263809Y-112790361D02*
X204501904Y-113504647D01*
X203882857Y-113504647D01*
X188093123Y-112063161D02*
X187950266Y-112110780D01*
X187712171Y-112110780D01*
X187616933Y-112063161D01*
X187569314Y-112015542D01*
X187521695Y-111920304D01*
X187521695Y-111825066D01*
X187569314Y-111729828D01*
X187616933Y-111682209D01*
X187712171Y-111634590D01*
X187902647Y-111586971D01*
X187997885Y-111539352D01*
X188045504Y-111491733D01*
X188093123Y-111396495D01*
X188093123Y-111301257D01*
X188045504Y-111206019D01*
X187997885Y-111158400D01*
X187902647Y-111110780D01*
X187664552Y-111110780D01*
X187521695Y-111158400D01*
X187188361Y-111110780D02*
X186950266Y-112110780D01*
X186759790Y-111396495D01*
X186569314Y-112110780D01*
X186331219Y-111110780D01*
X185997885Y-111206019D02*
X185950266Y-111158400D01*
X185855028Y-111110780D01*
X185616933Y-111110780D01*
X185521695Y-111158400D01*
X185474076Y-111206019D01*
X185426457Y-111301257D01*
X185426457Y-111396495D01*
X185474076Y-111539352D01*
X186045504Y-112110780D01*
X185426457Y-112110780D01*
X185093123Y-111110780D02*
X184474076Y-111110780D01*
X184807409Y-111491733D01*
X184664552Y-111491733D01*
X184569314Y-111539352D01*
X184521695Y-111586971D01*
X184474076Y-111682209D01*
X184474076Y-111920304D01*
X184521695Y-112015542D01*
X184569314Y-112063161D01*
X184664552Y-112110780D01*
X184950266Y-112110780D01*
X185045504Y-112063161D01*
X185093123Y-112015542D01*
X169043123Y-107338761D02*
X168900266Y-107386380D01*
X168662171Y-107386380D01*
X168566933Y-107338761D01*
X168519314Y-107291142D01*
X168471695Y-107195904D01*
X168471695Y-107100666D01*
X168519314Y-107005428D01*
X168566933Y-106957809D01*
X168662171Y-106910190D01*
X168852647Y-106862571D01*
X168947885Y-106814952D01*
X168995504Y-106767333D01*
X169043123Y-106672095D01*
X169043123Y-106576857D01*
X168995504Y-106481619D01*
X168947885Y-106434000D01*
X168852647Y-106386380D01*
X168614552Y-106386380D01*
X168471695Y-106434000D01*
X168138361Y-106386380D02*
X167900266Y-107386380D01*
X167709790Y-106672095D01*
X167519314Y-107386380D01*
X167281219Y-106386380D01*
X166947885Y-106481619D02*
X166900266Y-106434000D01*
X166805028Y-106386380D01*
X166566933Y-106386380D01*
X166471695Y-106434000D01*
X166424076Y-106481619D01*
X166376457Y-106576857D01*
X166376457Y-106672095D01*
X166424076Y-106814952D01*
X166995504Y-107386380D01*
X166376457Y-107386380D01*
X165995504Y-106481619D02*
X165947885Y-106434000D01*
X165852647Y-106386380D01*
X165614552Y-106386380D01*
X165519314Y-106434000D01*
X165471695Y-106481619D01*
X165424076Y-106576857D01*
X165424076Y-106672095D01*
X165471695Y-106814952D01*
X166043123Y-107386380D01*
X165424076Y-107386380D01*
X149891523Y-106017961D02*
X149748666Y-106065580D01*
X149510571Y-106065580D01*
X149415333Y-106017961D01*
X149367714Y-105970342D01*
X149320095Y-105875104D01*
X149320095Y-105779866D01*
X149367714Y-105684628D01*
X149415333Y-105637009D01*
X149510571Y-105589390D01*
X149701047Y-105541771D01*
X149796285Y-105494152D01*
X149843904Y-105446533D01*
X149891523Y-105351295D01*
X149891523Y-105256057D01*
X149843904Y-105160819D01*
X149796285Y-105113200D01*
X149701047Y-105065580D01*
X149462952Y-105065580D01*
X149320095Y-105113200D01*
X148986761Y-105065580D02*
X148748666Y-106065580D01*
X148558190Y-105351295D01*
X148367714Y-106065580D01*
X148129619Y-105065580D01*
X147796285Y-105160819D02*
X147748666Y-105113200D01*
X147653428Y-105065580D01*
X147415333Y-105065580D01*
X147320095Y-105113200D01*
X147272476Y-105160819D01*
X147224857Y-105256057D01*
X147224857Y-105351295D01*
X147272476Y-105494152D01*
X147843904Y-106065580D01*
X147224857Y-106065580D01*
X146272476Y-106065580D02*
X146843904Y-106065580D01*
X146558190Y-106065580D02*
X146558190Y-105065580D01*
X146653428Y-105208438D01*
X146748666Y-105303676D01*
X146843904Y-105351295D01*
X130790723Y-107643561D02*
X130647866Y-107691180D01*
X130409771Y-107691180D01*
X130314533Y-107643561D01*
X130266914Y-107595942D01*
X130219295Y-107500704D01*
X130219295Y-107405466D01*
X130266914Y-107310228D01*
X130314533Y-107262609D01*
X130409771Y-107214990D01*
X130600247Y-107167371D01*
X130695485Y-107119752D01*
X130743104Y-107072133D01*
X130790723Y-106976895D01*
X130790723Y-106881657D01*
X130743104Y-106786419D01*
X130695485Y-106738800D01*
X130600247Y-106691180D01*
X130362152Y-106691180D01*
X130219295Y-106738800D01*
X129885961Y-106691180D02*
X129647866Y-107691180D01*
X129457390Y-106976895D01*
X129266914Y-107691180D01*
X129028819Y-106691180D01*
X128695485Y-106786419D02*
X128647866Y-106738800D01*
X128552628Y-106691180D01*
X128314533Y-106691180D01*
X128219295Y-106738800D01*
X128171676Y-106786419D01*
X128124057Y-106881657D01*
X128124057Y-106976895D01*
X128171676Y-107119752D01*
X128743104Y-107691180D01*
X128124057Y-107691180D01*
X127505009Y-106691180D02*
X127409771Y-106691180D01*
X127314533Y-106738800D01*
X127266914Y-106786419D01*
X127219295Y-106881657D01*
X127171676Y-107072133D01*
X127171676Y-107310228D01*
X127219295Y-107500704D01*
X127266914Y-107595942D01*
X127314533Y-107643561D01*
X127409771Y-107691180D01*
X127505009Y-107691180D01*
X127600247Y-107643561D01*
X127647866Y-107595942D01*
X127695485Y-107500704D01*
X127743104Y-107310228D01*
X127743104Y-107072133D01*
X127695485Y-106881657D01*
X127647866Y-106786419D01*
X127600247Y-106738800D01*
X127505009Y-106691180D01*
X112096323Y-109726361D02*
X111953466Y-109773980D01*
X111715371Y-109773980D01*
X111620133Y-109726361D01*
X111572514Y-109678742D01*
X111524895Y-109583504D01*
X111524895Y-109488266D01*
X111572514Y-109393028D01*
X111620133Y-109345409D01*
X111715371Y-109297790D01*
X111905847Y-109250171D01*
X112001085Y-109202552D01*
X112048704Y-109154933D01*
X112096323Y-109059695D01*
X112096323Y-108964457D01*
X112048704Y-108869219D01*
X112001085Y-108821600D01*
X111905847Y-108773980D01*
X111667752Y-108773980D01*
X111524895Y-108821600D01*
X111191561Y-108773980D02*
X110953466Y-109773980D01*
X110762990Y-109059695D01*
X110572514Y-109773980D01*
X110334419Y-108773980D01*
X109429657Y-109773980D02*
X110001085Y-109773980D01*
X109715371Y-109773980D02*
X109715371Y-108773980D01*
X109810609Y-108916838D01*
X109905847Y-109012076D01*
X110001085Y-109059695D01*
X108953466Y-109773980D02*
X108762990Y-109773980D01*
X108667752Y-109726361D01*
X108620133Y-109678742D01*
X108524895Y-109535885D01*
X108477276Y-109345409D01*
X108477276Y-108964457D01*
X108524895Y-108869219D01*
X108572514Y-108821600D01*
X108667752Y-108773980D01*
X108858228Y-108773980D01*
X108953466Y-108821600D01*
X109001085Y-108869219D01*
X109048704Y-108964457D01*
X109048704Y-109202552D01*
X109001085Y-109297790D01*
X108953466Y-109345409D01*
X108858228Y-109393028D01*
X108667752Y-109393028D01*
X108572514Y-109345409D01*
X108524895Y-109297790D01*
X108477276Y-109202552D01*
X207193923Y-94638761D02*
X207051066Y-94686380D01*
X206812971Y-94686380D01*
X206717733Y-94638761D01*
X206670114Y-94591142D01*
X206622495Y-94495904D01*
X206622495Y-94400666D01*
X206670114Y-94305428D01*
X206717733Y-94257809D01*
X206812971Y-94210190D01*
X207003447Y-94162571D01*
X207098685Y-94114952D01*
X207146304Y-94067333D01*
X207193923Y-93972095D01*
X207193923Y-93876857D01*
X207146304Y-93781619D01*
X207098685Y-93734000D01*
X207003447Y-93686380D01*
X206765352Y-93686380D01*
X206622495Y-93734000D01*
X206289161Y-93686380D02*
X206051066Y-94686380D01*
X205860590Y-93972095D01*
X205670114Y-94686380D01*
X205432019Y-93686380D01*
X204527257Y-94686380D02*
X205098685Y-94686380D01*
X204812971Y-94686380D02*
X204812971Y-93686380D01*
X204908209Y-93829238D01*
X205003447Y-93924476D01*
X205098685Y-93972095D01*
X203955828Y-94114952D02*
X204051066Y-94067333D01*
X204098685Y-94019714D01*
X204146304Y-93924476D01*
X204146304Y-93876857D01*
X204098685Y-93781619D01*
X204051066Y-93734000D01*
X203955828Y-93686380D01*
X203765352Y-93686380D01*
X203670114Y-93734000D01*
X203622495Y-93781619D01*
X203574876Y-93876857D01*
X203574876Y-93924476D01*
X203622495Y-94019714D01*
X203670114Y-94067333D01*
X203765352Y-94114952D01*
X203955828Y-94114952D01*
X204051066Y-94162571D01*
X204098685Y-94210190D01*
X204146304Y-94305428D01*
X204146304Y-94495904D01*
X204098685Y-94591142D01*
X204051066Y-94638761D01*
X203955828Y-94686380D01*
X203765352Y-94686380D01*
X203670114Y-94638761D01*
X203622495Y-94591142D01*
X203574876Y-94495904D01*
X203574876Y-94305428D01*
X203622495Y-94210190D01*
X203670114Y-94162571D01*
X203765352Y-94114952D01*
X188194723Y-93114761D02*
X188051866Y-93162380D01*
X187813771Y-93162380D01*
X187718533Y-93114761D01*
X187670914Y-93067142D01*
X187623295Y-92971904D01*
X187623295Y-92876666D01*
X187670914Y-92781428D01*
X187718533Y-92733809D01*
X187813771Y-92686190D01*
X188004247Y-92638571D01*
X188099485Y-92590952D01*
X188147104Y-92543333D01*
X188194723Y-92448095D01*
X188194723Y-92352857D01*
X188147104Y-92257619D01*
X188099485Y-92210000D01*
X188004247Y-92162380D01*
X187766152Y-92162380D01*
X187623295Y-92210000D01*
X187289961Y-92162380D02*
X187051866Y-93162380D01*
X186861390Y-92448095D01*
X186670914Y-93162380D01*
X186432819Y-92162380D01*
X185528057Y-93162380D02*
X186099485Y-93162380D01*
X185813771Y-93162380D02*
X185813771Y-92162380D01*
X185909009Y-92305238D01*
X186004247Y-92400476D01*
X186099485Y-92448095D01*
X185194723Y-92162380D02*
X184528057Y-92162380D01*
X184956628Y-93162380D01*
X169195523Y-88237961D02*
X169052666Y-88285580D01*
X168814571Y-88285580D01*
X168719333Y-88237961D01*
X168671714Y-88190342D01*
X168624095Y-88095104D01*
X168624095Y-87999866D01*
X168671714Y-87904628D01*
X168719333Y-87857009D01*
X168814571Y-87809390D01*
X169005047Y-87761771D01*
X169100285Y-87714152D01*
X169147904Y-87666533D01*
X169195523Y-87571295D01*
X169195523Y-87476057D01*
X169147904Y-87380819D01*
X169100285Y-87333200D01*
X169005047Y-87285580D01*
X168766952Y-87285580D01*
X168624095Y-87333200D01*
X168290761Y-87285580D02*
X168052666Y-88285580D01*
X167862190Y-87571295D01*
X167671714Y-88285580D01*
X167433619Y-87285580D01*
X166528857Y-88285580D02*
X167100285Y-88285580D01*
X166814571Y-88285580D02*
X166814571Y-87285580D01*
X166909809Y-87428438D01*
X167005047Y-87523676D01*
X167100285Y-87571295D01*
X165671714Y-87285580D02*
X165862190Y-87285580D01*
X165957428Y-87333200D01*
X166005047Y-87380819D01*
X166100285Y-87523676D01*
X166147904Y-87714152D01*
X166147904Y-88095104D01*
X166100285Y-88190342D01*
X166052666Y-88237961D01*
X165957428Y-88285580D01*
X165766952Y-88285580D01*
X165671714Y-88237961D01*
X165624095Y-88190342D01*
X165576476Y-88095104D01*
X165576476Y-87857009D01*
X165624095Y-87761771D01*
X165671714Y-87714152D01*
X165766952Y-87666533D01*
X165957428Y-87666533D01*
X166052666Y-87714152D01*
X166100285Y-87761771D01*
X166147904Y-87857009D01*
X149891523Y-86866361D02*
X149748666Y-86913980D01*
X149510571Y-86913980D01*
X149415333Y-86866361D01*
X149367714Y-86818742D01*
X149320095Y-86723504D01*
X149320095Y-86628266D01*
X149367714Y-86533028D01*
X149415333Y-86485409D01*
X149510571Y-86437790D01*
X149701047Y-86390171D01*
X149796285Y-86342552D01*
X149843904Y-86294933D01*
X149891523Y-86199695D01*
X149891523Y-86104457D01*
X149843904Y-86009219D01*
X149796285Y-85961600D01*
X149701047Y-85913980D01*
X149462952Y-85913980D01*
X149320095Y-85961600D01*
X148986761Y-85913980D02*
X148748666Y-86913980D01*
X148558190Y-86199695D01*
X148367714Y-86913980D01*
X148129619Y-85913980D01*
X147224857Y-86913980D02*
X147796285Y-86913980D01*
X147510571Y-86913980D02*
X147510571Y-85913980D01*
X147605809Y-86056838D01*
X147701047Y-86152076D01*
X147796285Y-86199695D01*
X146320095Y-85913980D02*
X146796285Y-85913980D01*
X146843904Y-86390171D01*
X146796285Y-86342552D01*
X146701047Y-86294933D01*
X146462952Y-86294933D01*
X146367714Y-86342552D01*
X146320095Y-86390171D01*
X146272476Y-86485409D01*
X146272476Y-86723504D01*
X146320095Y-86818742D01*
X146367714Y-86866361D01*
X146462952Y-86913980D01*
X146701047Y-86913980D01*
X146796285Y-86866361D01*
X146843904Y-86818742D01*
X130485923Y-88491961D02*
X130343066Y-88539580D01*
X130104971Y-88539580D01*
X130009733Y-88491961D01*
X129962114Y-88444342D01*
X129914495Y-88349104D01*
X129914495Y-88253866D01*
X129962114Y-88158628D01*
X130009733Y-88111009D01*
X130104971Y-88063390D01*
X130295447Y-88015771D01*
X130390685Y-87968152D01*
X130438304Y-87920533D01*
X130485923Y-87825295D01*
X130485923Y-87730057D01*
X130438304Y-87634819D01*
X130390685Y-87587200D01*
X130295447Y-87539580D01*
X130057352Y-87539580D01*
X129914495Y-87587200D01*
X129581161Y-87539580D02*
X129343066Y-88539580D01*
X129152590Y-87825295D01*
X128962114Y-88539580D01*
X128724019Y-87539580D01*
X127819257Y-88539580D02*
X128390685Y-88539580D01*
X128104971Y-88539580D02*
X128104971Y-87539580D01*
X128200209Y-87682438D01*
X128295447Y-87777676D01*
X128390685Y-87825295D01*
X126962114Y-87872914D02*
X126962114Y-88539580D01*
X127200209Y-87491961D02*
X127438304Y-88206247D01*
X126819257Y-88206247D01*
X111994723Y-90523961D02*
X111851866Y-90571580D01*
X111613771Y-90571580D01*
X111518533Y-90523961D01*
X111470914Y-90476342D01*
X111423295Y-90381104D01*
X111423295Y-90285866D01*
X111470914Y-90190628D01*
X111518533Y-90143009D01*
X111613771Y-90095390D01*
X111804247Y-90047771D01*
X111899485Y-90000152D01*
X111947104Y-89952533D01*
X111994723Y-89857295D01*
X111994723Y-89762057D01*
X111947104Y-89666819D01*
X111899485Y-89619200D01*
X111804247Y-89571580D01*
X111566152Y-89571580D01*
X111423295Y-89619200D01*
X111089961Y-89571580D02*
X110851866Y-90571580D01*
X110661390Y-89857295D01*
X110470914Y-90571580D01*
X110232819Y-89571580D01*
X109328057Y-90571580D02*
X109899485Y-90571580D01*
X109613771Y-90571580D02*
X109613771Y-89571580D01*
X109709009Y-89714438D01*
X109804247Y-89809676D01*
X109899485Y-89857295D01*
X108994723Y-89571580D02*
X108375676Y-89571580D01*
X108709009Y-89952533D01*
X108566152Y-89952533D01*
X108470914Y-90000152D01*
X108423295Y-90047771D01*
X108375676Y-90143009D01*
X108375676Y-90381104D01*
X108423295Y-90476342D01*
X108470914Y-90523961D01*
X108566152Y-90571580D01*
X108851866Y-90571580D01*
X108947104Y-90523961D01*
X108994723Y-90476342D01*
X206939923Y-75639561D02*
X206797066Y-75687180D01*
X206558971Y-75687180D01*
X206463733Y-75639561D01*
X206416114Y-75591942D01*
X206368495Y-75496704D01*
X206368495Y-75401466D01*
X206416114Y-75306228D01*
X206463733Y-75258609D01*
X206558971Y-75210990D01*
X206749447Y-75163371D01*
X206844685Y-75115752D01*
X206892304Y-75068133D01*
X206939923Y-74972895D01*
X206939923Y-74877657D01*
X206892304Y-74782419D01*
X206844685Y-74734800D01*
X206749447Y-74687180D01*
X206511352Y-74687180D01*
X206368495Y-74734800D01*
X206035161Y-74687180D02*
X205797066Y-75687180D01*
X205606590Y-74972895D01*
X205416114Y-75687180D01*
X205178019Y-74687180D01*
X204273257Y-75687180D02*
X204844685Y-75687180D01*
X204558971Y-75687180D02*
X204558971Y-74687180D01*
X204654209Y-74830038D01*
X204749447Y-74925276D01*
X204844685Y-74972895D01*
X203892304Y-74782419D02*
X203844685Y-74734800D01*
X203749447Y-74687180D01*
X203511352Y-74687180D01*
X203416114Y-74734800D01*
X203368495Y-74782419D01*
X203320876Y-74877657D01*
X203320876Y-74972895D01*
X203368495Y-75115752D01*
X203939923Y-75687180D01*
X203320876Y-75687180D01*
X187635923Y-73963161D02*
X187493066Y-74010780D01*
X187254971Y-74010780D01*
X187159733Y-73963161D01*
X187112114Y-73915542D01*
X187064495Y-73820304D01*
X187064495Y-73725066D01*
X187112114Y-73629828D01*
X187159733Y-73582209D01*
X187254971Y-73534590D01*
X187445447Y-73486971D01*
X187540685Y-73439352D01*
X187588304Y-73391733D01*
X187635923Y-73296495D01*
X187635923Y-73201257D01*
X187588304Y-73106019D01*
X187540685Y-73058400D01*
X187445447Y-73010780D01*
X187207352Y-73010780D01*
X187064495Y-73058400D01*
X186731161Y-73010780D02*
X186493066Y-74010780D01*
X186302590Y-73296495D01*
X186112114Y-74010780D01*
X185874019Y-73010780D01*
X184969257Y-74010780D02*
X185540685Y-74010780D01*
X185254971Y-74010780D02*
X185254971Y-73010780D01*
X185350209Y-73153638D01*
X185445447Y-73248876D01*
X185540685Y-73296495D01*
X184016876Y-74010780D02*
X184588304Y-74010780D01*
X184302590Y-74010780D02*
X184302590Y-73010780D01*
X184397828Y-73153638D01*
X184493066Y-73248876D01*
X184588304Y-73296495D01*
X168941523Y-69238761D02*
X168798666Y-69286380D01*
X168560571Y-69286380D01*
X168465333Y-69238761D01*
X168417714Y-69191142D01*
X168370095Y-69095904D01*
X168370095Y-69000666D01*
X168417714Y-68905428D01*
X168465333Y-68857809D01*
X168560571Y-68810190D01*
X168751047Y-68762571D01*
X168846285Y-68714952D01*
X168893904Y-68667333D01*
X168941523Y-68572095D01*
X168941523Y-68476857D01*
X168893904Y-68381619D01*
X168846285Y-68334000D01*
X168751047Y-68286380D01*
X168512952Y-68286380D01*
X168370095Y-68334000D01*
X168036761Y-68286380D02*
X167798666Y-69286380D01*
X167608190Y-68572095D01*
X167417714Y-69286380D01*
X167179619Y-68286380D01*
X166274857Y-69286380D02*
X166846285Y-69286380D01*
X166560571Y-69286380D02*
X166560571Y-68286380D01*
X166655809Y-68429238D01*
X166751047Y-68524476D01*
X166846285Y-68572095D01*
X165655809Y-68286380D02*
X165560571Y-68286380D01*
X165465333Y-68334000D01*
X165417714Y-68381619D01*
X165370095Y-68476857D01*
X165322476Y-68667333D01*
X165322476Y-68905428D01*
X165370095Y-69095904D01*
X165417714Y-69191142D01*
X165465333Y-69238761D01*
X165560571Y-69286380D01*
X165655809Y-69286380D01*
X165751047Y-69238761D01*
X165798666Y-69191142D01*
X165846285Y-69095904D01*
X165893904Y-68905428D01*
X165893904Y-68667333D01*
X165846285Y-68476857D01*
X165798666Y-68381619D01*
X165751047Y-68334000D01*
X165655809Y-68286380D01*
X148856533Y-67968761D02*
X148713676Y-68016380D01*
X148475580Y-68016380D01*
X148380342Y-67968761D01*
X148332723Y-67921142D01*
X148285104Y-67825904D01*
X148285104Y-67730666D01*
X148332723Y-67635428D01*
X148380342Y-67587809D01*
X148475580Y-67540190D01*
X148666057Y-67492571D01*
X148761295Y-67444952D01*
X148808914Y-67397333D01*
X148856533Y-67302095D01*
X148856533Y-67206857D01*
X148808914Y-67111619D01*
X148761295Y-67064000D01*
X148666057Y-67016380D01*
X148427961Y-67016380D01*
X148285104Y-67064000D01*
X147951771Y-67016380D02*
X147713676Y-68016380D01*
X147523200Y-67302095D01*
X147332723Y-68016380D01*
X147094628Y-67016380D01*
X146666057Y-68016380D02*
X146475580Y-68016380D01*
X146380342Y-67968761D01*
X146332723Y-67921142D01*
X146237485Y-67778285D01*
X146189866Y-67587809D01*
X146189866Y-67206857D01*
X146237485Y-67111619D01*
X146285104Y-67064000D01*
X146380342Y-67016380D01*
X146570819Y-67016380D01*
X146666057Y-67064000D01*
X146713676Y-67111619D01*
X146761295Y-67206857D01*
X146761295Y-67444952D01*
X146713676Y-67540190D01*
X146666057Y-67587809D01*
X146570819Y-67635428D01*
X146380342Y-67635428D01*
X146285104Y-67587809D01*
X146237485Y-67540190D01*
X146189866Y-67444952D01*
X130111333Y-69086361D02*
X129968476Y-69133980D01*
X129730380Y-69133980D01*
X129635142Y-69086361D01*
X129587523Y-69038742D01*
X129539904Y-68943504D01*
X129539904Y-68848266D01*
X129587523Y-68753028D01*
X129635142Y-68705409D01*
X129730380Y-68657790D01*
X129920857Y-68610171D01*
X130016095Y-68562552D01*
X130063714Y-68514933D01*
X130111333Y-68419695D01*
X130111333Y-68324457D01*
X130063714Y-68229219D01*
X130016095Y-68181600D01*
X129920857Y-68133980D01*
X129682761Y-68133980D01*
X129539904Y-68181600D01*
X129206571Y-68133980D02*
X128968476Y-69133980D01*
X128778000Y-68419695D01*
X128587523Y-69133980D01*
X128349428Y-68133980D01*
X127825619Y-68562552D02*
X127920857Y-68514933D01*
X127968476Y-68467314D01*
X128016095Y-68372076D01*
X128016095Y-68324457D01*
X127968476Y-68229219D01*
X127920857Y-68181600D01*
X127825619Y-68133980D01*
X127635142Y-68133980D01*
X127539904Y-68181600D01*
X127492285Y-68229219D01*
X127444666Y-68324457D01*
X127444666Y-68372076D01*
X127492285Y-68467314D01*
X127539904Y-68514933D01*
X127635142Y-68562552D01*
X127825619Y-68562552D01*
X127920857Y-68610171D01*
X127968476Y-68657790D01*
X128016095Y-68753028D01*
X128016095Y-68943504D01*
X127968476Y-69038742D01*
X127920857Y-69086361D01*
X127825619Y-69133980D01*
X127635142Y-69133980D01*
X127539904Y-69086361D01*
X127492285Y-69038742D01*
X127444666Y-68943504D01*
X127444666Y-68753028D01*
X127492285Y-68657790D01*
X127539904Y-68610171D01*
X127635142Y-68562552D01*
X110807333Y-71931161D02*
X110664476Y-71978780D01*
X110426380Y-71978780D01*
X110331142Y-71931161D01*
X110283523Y-71883542D01*
X110235904Y-71788304D01*
X110235904Y-71693066D01*
X110283523Y-71597828D01*
X110331142Y-71550209D01*
X110426380Y-71502590D01*
X110616857Y-71454971D01*
X110712095Y-71407352D01*
X110759714Y-71359733D01*
X110807333Y-71264495D01*
X110807333Y-71169257D01*
X110759714Y-71074019D01*
X110712095Y-71026400D01*
X110616857Y-70978780D01*
X110378761Y-70978780D01*
X110235904Y-71026400D01*
X109902571Y-70978780D02*
X109664476Y-71978780D01*
X109474000Y-71264495D01*
X109283523Y-71978780D01*
X109045428Y-70978780D01*
X108759714Y-70978780D02*
X108093047Y-70978780D01*
X108521619Y-71978780D01*
X207073333Y-56183161D02*
X206930476Y-56230780D01*
X206692380Y-56230780D01*
X206597142Y-56183161D01*
X206549523Y-56135542D01*
X206501904Y-56040304D01*
X206501904Y-55945066D01*
X206549523Y-55849828D01*
X206597142Y-55802209D01*
X206692380Y-55754590D01*
X206882857Y-55706971D01*
X206978095Y-55659352D01*
X207025714Y-55611733D01*
X207073333Y-55516495D01*
X207073333Y-55421257D01*
X207025714Y-55326019D01*
X206978095Y-55278400D01*
X206882857Y-55230780D01*
X206644761Y-55230780D01*
X206501904Y-55278400D01*
X206168571Y-55230780D02*
X205930476Y-56230780D01*
X205740000Y-55516495D01*
X205549523Y-56230780D01*
X205311428Y-55230780D01*
X204501904Y-55230780D02*
X204692380Y-55230780D01*
X204787619Y-55278400D01*
X204835238Y-55326019D01*
X204930476Y-55468876D01*
X204978095Y-55659352D01*
X204978095Y-56040304D01*
X204930476Y-56135542D01*
X204882857Y-56183161D01*
X204787619Y-56230780D01*
X204597142Y-56230780D01*
X204501904Y-56183161D01*
X204454285Y-56135542D01*
X204406666Y-56040304D01*
X204406666Y-55802209D01*
X204454285Y-55706971D01*
X204501904Y-55659352D01*
X204597142Y-55611733D01*
X204787619Y-55611733D01*
X204882857Y-55659352D01*
X204930476Y-55706971D01*
X204978095Y-55802209D01*
X187312133Y-54963961D02*
X187169276Y-55011580D01*
X186931180Y-55011580D01*
X186835942Y-54963961D01*
X186788323Y-54916342D01*
X186740704Y-54821104D01*
X186740704Y-54725866D01*
X186788323Y-54630628D01*
X186835942Y-54583009D01*
X186931180Y-54535390D01*
X187121657Y-54487771D01*
X187216895Y-54440152D01*
X187264514Y-54392533D01*
X187312133Y-54297295D01*
X187312133Y-54202057D01*
X187264514Y-54106819D01*
X187216895Y-54059200D01*
X187121657Y-54011580D01*
X186883561Y-54011580D01*
X186740704Y-54059200D01*
X186407371Y-54011580D02*
X186169276Y-55011580D01*
X185978800Y-54297295D01*
X185788323Y-55011580D01*
X185550228Y-54011580D01*
X184693085Y-54011580D02*
X185169276Y-54011580D01*
X185216895Y-54487771D01*
X185169276Y-54440152D01*
X185074038Y-54392533D01*
X184835942Y-54392533D01*
X184740704Y-54440152D01*
X184693085Y-54487771D01*
X184645466Y-54583009D01*
X184645466Y-54821104D01*
X184693085Y-54916342D01*
X184740704Y-54963961D01*
X184835942Y-55011580D01*
X185074038Y-55011580D01*
X185169276Y-54963961D01*
X185216895Y-54916342D01*
X149059733Y-49020361D02*
X148916876Y-49067980D01*
X148678780Y-49067980D01*
X148583542Y-49020361D01*
X148535923Y-48972742D01*
X148488304Y-48877504D01*
X148488304Y-48782266D01*
X148535923Y-48687028D01*
X148583542Y-48639409D01*
X148678780Y-48591790D01*
X148869257Y-48544171D01*
X148964495Y-48496552D01*
X149012114Y-48448933D01*
X149059733Y-48353695D01*
X149059733Y-48258457D01*
X149012114Y-48163219D01*
X148964495Y-48115600D01*
X148869257Y-48067980D01*
X148631161Y-48067980D01*
X148488304Y-48115600D01*
X148154971Y-48067980D02*
X147916876Y-49067980D01*
X147726400Y-48353695D01*
X147535923Y-49067980D01*
X147297828Y-48067980D01*
X147012114Y-48067980D02*
X146393066Y-48067980D01*
X146726400Y-48448933D01*
X146583542Y-48448933D01*
X146488304Y-48496552D01*
X146440685Y-48544171D01*
X146393066Y-48639409D01*
X146393066Y-48877504D01*
X146440685Y-48972742D01*
X146488304Y-49020361D01*
X146583542Y-49067980D01*
X146869257Y-49067980D01*
X146964495Y-49020361D01*
X147012114Y-48972742D01*
X130416133Y-50239561D02*
X130273276Y-50287180D01*
X130035180Y-50287180D01*
X129939942Y-50239561D01*
X129892323Y-50191942D01*
X129844704Y-50096704D01*
X129844704Y-50001466D01*
X129892323Y-49906228D01*
X129939942Y-49858609D01*
X130035180Y-49810990D01*
X130225657Y-49763371D01*
X130320895Y-49715752D01*
X130368514Y-49668133D01*
X130416133Y-49572895D01*
X130416133Y-49477657D01*
X130368514Y-49382419D01*
X130320895Y-49334800D01*
X130225657Y-49287180D01*
X129987561Y-49287180D01*
X129844704Y-49334800D01*
X129511371Y-49287180D02*
X129273276Y-50287180D01*
X129082800Y-49572895D01*
X128892323Y-50287180D01*
X128654228Y-49287180D01*
X128320895Y-49382419D02*
X128273276Y-49334800D01*
X128178038Y-49287180D01*
X127939942Y-49287180D01*
X127844704Y-49334800D01*
X127797085Y-49382419D01*
X127749466Y-49477657D01*
X127749466Y-49572895D01*
X127797085Y-49715752D01*
X128368514Y-50287180D01*
X127749466Y-50287180D01*
X111315333Y-52423961D02*
X111172476Y-52471580D01*
X110934380Y-52471580D01*
X110839142Y-52423961D01*
X110791523Y-52376342D01*
X110743904Y-52281104D01*
X110743904Y-52185866D01*
X110791523Y-52090628D01*
X110839142Y-52043009D01*
X110934380Y-51995390D01*
X111124857Y-51947771D01*
X111220095Y-51900152D01*
X111267714Y-51852533D01*
X111315333Y-51757295D01*
X111315333Y-51662057D01*
X111267714Y-51566819D01*
X111220095Y-51519200D01*
X111124857Y-51471580D01*
X110886761Y-51471580D01*
X110743904Y-51519200D01*
X110410571Y-51471580D02*
X110172476Y-52471580D01*
X109982000Y-51757295D01*
X109791523Y-52471580D01*
X109553428Y-51471580D01*
X108648666Y-52471580D02*
X109220095Y-52471580D01*
X108934380Y-52471580D02*
X108934380Y-51471580D01*
X109029619Y-51614438D01*
X109124857Y-51709676D01*
X109220095Y-51757295D01*
X100231875Y-86710186D02*
X100689811Y-86629374D01*
X100555124Y-87033435D02*
X101120809Y-86467749D01*
X100905310Y-86252250D01*
X100824498Y-86225312D01*
X100770623Y-86225312D01*
X100689811Y-86252250D01*
X100608999Y-86333062D01*
X100582061Y-86413874D01*
X100582061Y-86467749D01*
X100608999Y-86548561D01*
X100824498Y-86764061D01*
X99693127Y-86171438D02*
X100016376Y-86494687D01*
X99854751Y-86333062D02*
X100420437Y-85767377D01*
X100393499Y-85902064D01*
X100393499Y-86009813D01*
X100420437Y-86090625D01*
X100295375Y-83598686D02*
X100753311Y-83517874D01*
X100618624Y-83921935D02*
X101184309Y-83356249D01*
X100968810Y-83140750D01*
X100887998Y-83113812D01*
X100834123Y-83113812D01*
X100753311Y-83140750D01*
X100672499Y-83221562D01*
X100645561Y-83302374D01*
X100645561Y-83356249D01*
X100672499Y-83437061D01*
X100887998Y-83652561D01*
X99756627Y-83059938D02*
X100079876Y-83383187D01*
X99918251Y-83221562D02*
X100483937Y-82655877D01*
X100456999Y-82790564D01*
X100456999Y-82898313D01*
X100483937Y-82979125D01*
X104268199Y-56209060D02*
X104268199Y-56262935D01*
X104322074Y-56370684D01*
X104375949Y-56424559D01*
X104483698Y-56478434D01*
X104591448Y-56478434D01*
X104672260Y-56451497D01*
X104806947Y-56370684D01*
X104887759Y-56289872D01*
X104968571Y-56155185D01*
X104995509Y-56074373D01*
X104995509Y-55966623D01*
X104941634Y-55858874D01*
X104887759Y-55804999D01*
X104780010Y-55751124D01*
X104726135Y-55751124D01*
X104510636Y-55535625D02*
X104510636Y-55481750D01*
X104483698Y-55400938D01*
X104349011Y-55266251D01*
X104268199Y-55239313D01*
X104214324Y-55239313D01*
X104133512Y-55266251D01*
X104079637Y-55320126D01*
X104025762Y-55427875D01*
X104025762Y-56074373D01*
X103675576Y-55724187D01*
X104730750Y-53572811D02*
X104730750Y-53626686D01*
X104784625Y-53734435D01*
X104838500Y-53788310D01*
X104946249Y-53842185D01*
X105053999Y-53842185D01*
X105134811Y-53815248D01*
X105269498Y-53734435D01*
X105350310Y-53653623D01*
X105431122Y-53518936D01*
X105458060Y-53438124D01*
X105458060Y-53330374D01*
X105404185Y-53222625D01*
X105350310Y-53168750D01*
X105242561Y-53114875D01*
X105188686Y-53114875D01*
X104138127Y-53087938D02*
X104461376Y-53411187D01*
X104299751Y-53249562D02*
X104865437Y-52683877D01*
X104838499Y-52818564D01*
X104838499Y-52926313D01*
X104865437Y-53007125D01*
X117895595Y-58364380D02*
X117895595Y-57364380D01*
X117657500Y-57364380D01*
X117514642Y-57412000D01*
X117419404Y-57507238D01*
X117371785Y-57602476D01*
X117324166Y-57792952D01*
X117324166Y-57935809D01*
X117371785Y-58126285D01*
X117419404Y-58221523D01*
X117514642Y-58316761D01*
X117657500Y-58364380D01*
X117895595Y-58364380D01*
X116990833Y-57364380D02*
X116324166Y-57364380D01*
X116752738Y-58364380D01*
%LPC*%
D12*
X166470000Y-47600000D03*
X176630000Y-47600000D03*
D13*
X171550000Y-47600000D03*
D14*
X167740000Y-45060000D03*
X174090000Y-42520000D03*
X169010000Y-42520000D03*
X175360000Y-45060000D03*
D15*
X177840000Y-42520000D03*
X163990000Y-45060000D03*
D16*
X131000000Y-53555000D03*
X131000000Y-51805000D03*
X135800000Y-53555000D03*
X135800000Y-51805000D03*
X164350000Y-129755000D03*
X164350000Y-128005000D03*
X159550000Y-128005000D03*
X159550000Y-129755000D03*
X145297700Y-130783300D03*
X145297700Y-129033300D03*
X140497700Y-129033300D03*
X140497700Y-130783300D03*
X126250000Y-132155000D03*
X126250000Y-130405000D03*
X121450000Y-130405000D03*
X121450000Y-132155000D03*
D17*
G36*
X93380806Y-130660640D02*
G01*
X94246832Y-130160640D01*
X95046832Y-131546280D01*
X94180806Y-132046280D01*
X93380806Y-130660640D01*
G37*
G36*
X94896350Y-129785640D02*
G01*
X95762376Y-129285640D01*
X96562376Y-130671280D01*
X95696350Y-131171280D01*
X94896350Y-129785640D01*
G37*
G36*
X92496350Y-125628718D02*
G01*
X93362376Y-125128718D01*
X94162376Y-126514358D01*
X93296350Y-127014358D01*
X92496350Y-125628718D01*
G37*
G36*
X90980806Y-126503718D02*
G01*
X91846832Y-126003718D01*
X92646832Y-127389358D01*
X91780806Y-127889358D01*
X90980806Y-126503718D01*
G37*
D16*
X92874800Y-103681500D03*
X92874800Y-101931500D03*
X88074800Y-101931500D03*
X88074800Y-103681500D03*
X212050000Y-117005000D03*
X212050000Y-115255000D03*
X207250000Y-115255000D03*
X207250000Y-117005000D03*
X193000000Y-115505000D03*
X193000000Y-113755000D03*
X188200000Y-113755000D03*
X188200000Y-115505000D03*
X173950000Y-110705000D03*
X173950000Y-108955000D03*
X169150000Y-108955000D03*
X169150000Y-110705000D03*
X154900000Y-109315000D03*
X154900000Y-107565000D03*
X150100000Y-107565000D03*
X150100000Y-109315000D03*
X135850000Y-110705000D03*
X135850000Y-108955000D03*
X131050000Y-108955000D03*
X131050000Y-110705000D03*
X116800000Y-113105000D03*
X116800000Y-111355000D03*
X112000000Y-111355000D03*
X112000000Y-113105000D03*
X212050000Y-97955000D03*
X212050000Y-96205000D03*
X207250000Y-96205000D03*
X207250000Y-97955000D03*
X193000000Y-96455000D03*
X193000000Y-94705000D03*
X188200000Y-94705000D03*
X188200000Y-96455000D03*
X173950000Y-91655000D03*
X173950000Y-89905000D03*
X169150000Y-89905000D03*
X169150000Y-91655000D03*
X154900000Y-90265000D03*
X154900000Y-88515000D03*
X150100000Y-88515000D03*
X150100000Y-90265000D03*
X135850000Y-91655000D03*
X135850000Y-89905000D03*
X131050000Y-89905000D03*
X131050000Y-91655000D03*
X116800000Y-94055000D03*
X116800000Y-92305000D03*
X112000000Y-92305000D03*
X112000000Y-94055000D03*
X212050000Y-78905000D03*
X212050000Y-77155000D03*
X207250000Y-77155000D03*
X207250000Y-78905000D03*
X193000000Y-77405000D03*
X193000000Y-75655000D03*
X188200000Y-75655000D03*
X188200000Y-77405000D03*
X173950000Y-72605000D03*
X173950000Y-70855000D03*
X169150000Y-70855000D03*
X169150000Y-72605000D03*
X154900000Y-71215000D03*
X154900000Y-69465000D03*
X150100000Y-69465000D03*
X150100000Y-71215000D03*
X135850000Y-72605000D03*
X135850000Y-70855000D03*
X131050000Y-70855000D03*
X131050000Y-72605000D03*
X116800000Y-75005000D03*
X116800000Y-73255000D03*
X112000000Y-73255000D03*
X112000000Y-75005000D03*
X212050000Y-59855000D03*
X212050000Y-58105000D03*
X207250000Y-58105000D03*
X207250000Y-59855000D03*
X193000000Y-58355000D03*
X193000000Y-56605000D03*
X188200000Y-56605000D03*
X188200000Y-58355000D03*
X173950000Y-53555000D03*
X173950000Y-51805000D03*
X169150000Y-51805000D03*
X169150000Y-53555000D03*
X154900000Y-52165000D03*
X154900000Y-50415000D03*
X150100000Y-50415000D03*
X150100000Y-52165000D03*
X116800000Y-55955000D03*
X116800000Y-54205000D03*
X112000000Y-54205000D03*
X112000000Y-55955000D03*
D12*
X156870000Y-123800000D03*
X167030000Y-123800000D03*
D13*
X161950000Y-123800000D03*
D14*
X158140000Y-121260000D03*
X164490000Y-118720000D03*
X159410000Y-118720000D03*
X165760000Y-121260000D03*
D15*
X168240000Y-118720000D03*
X154390000Y-121260000D03*
D12*
X137817700Y-124828300D03*
X147977700Y-124828300D03*
D13*
X142897700Y-124828300D03*
D14*
X139087700Y-122288300D03*
X145437700Y-119748300D03*
X140357700Y-119748300D03*
X146707700Y-122288300D03*
D15*
X149187700Y-119748300D03*
X135337700Y-122288300D03*
D12*
X118770000Y-126200000D03*
X128930000Y-126200000D03*
D13*
X123850000Y-126200000D03*
D14*
X120040000Y-123660000D03*
X126390000Y-121120000D03*
X121310000Y-121120000D03*
X127660000Y-123660000D03*
D15*
X130140000Y-121120000D03*
X116290000Y-123660000D03*
D12*
X95631000Y-121648091D03*
X100711000Y-130446909D03*
D13*
X98171000Y-126047500D03*
D14*
X98465705Y-121477943D03*
X103840409Y-125707205D03*
X101300409Y-121307795D03*
X102275705Y-128077057D03*
D17*
G36*
X103995377Y-128475618D02*
G01*
X106160441Y-127225618D01*
X107435441Y-129433982D01*
X105270377Y-130683982D01*
X103995377Y-128475618D01*
G37*
G36*
X94870673Y-117751166D02*
G01*
X97035737Y-116501166D01*
X98310737Y-118709530D01*
X96145673Y-119959530D01*
X94870673Y-117751166D01*
G37*
D12*
X85394800Y-98285300D03*
X95554800Y-98285300D03*
D13*
X90474800Y-98285300D03*
D14*
X86664800Y-95745300D03*
X93014800Y-93205300D03*
X87934800Y-93205300D03*
X94284800Y-95745300D03*
D15*
X96764800Y-93205300D03*
X82914800Y-95745300D03*
D12*
X204570000Y-111050000D03*
X214730000Y-111050000D03*
D13*
X209650000Y-111050000D03*
D14*
X205840000Y-108510000D03*
X212190000Y-105970000D03*
X207110000Y-105970000D03*
X213460000Y-108510000D03*
D15*
X215940000Y-105970000D03*
X202090000Y-108510000D03*
D12*
X185520000Y-109550000D03*
X195680000Y-109550000D03*
D13*
X190600000Y-109550000D03*
D14*
X186790000Y-107010000D03*
X193140000Y-104470000D03*
X188060000Y-104470000D03*
X194410000Y-107010000D03*
D15*
X196890000Y-104470000D03*
X183040000Y-107010000D03*
D12*
X166470000Y-104750000D03*
X176630000Y-104750000D03*
D13*
X171550000Y-104750000D03*
D14*
X167740000Y-102210000D03*
X174090000Y-99670000D03*
X169010000Y-99670000D03*
X175360000Y-102210000D03*
D15*
X177840000Y-99670000D03*
X163990000Y-102210000D03*
D12*
X147420000Y-103360000D03*
X157580000Y-103360000D03*
D13*
X152500000Y-103360000D03*
D14*
X148690000Y-100820000D03*
X155040000Y-98280000D03*
X149960000Y-98280000D03*
X156310000Y-100820000D03*
D15*
X158790000Y-98280000D03*
X144940000Y-100820000D03*
D12*
X128370000Y-104750000D03*
X138530000Y-104750000D03*
D13*
X133450000Y-104750000D03*
D14*
X129640000Y-102210000D03*
X135990000Y-99670000D03*
X130910000Y-99670000D03*
X137260000Y-102210000D03*
D15*
X139740000Y-99670000D03*
X125890000Y-102210000D03*
D12*
X109320000Y-107150000D03*
X119480000Y-107150000D03*
D13*
X114400000Y-107150000D03*
D14*
X110590000Y-104610000D03*
X116940000Y-102070000D03*
X111860000Y-102070000D03*
X118210000Y-104610000D03*
D15*
X120690000Y-102070000D03*
X106840000Y-104610000D03*
D12*
X204570000Y-92000000D03*
X214730000Y-92000000D03*
D13*
X209650000Y-92000000D03*
D14*
X205840000Y-89460000D03*
X212190000Y-86920000D03*
X207110000Y-86920000D03*
X213460000Y-89460000D03*
D15*
X215940000Y-86920000D03*
X202090000Y-89460000D03*
D12*
X185520000Y-90500000D03*
X195680000Y-90500000D03*
D13*
X190600000Y-90500000D03*
D14*
X186790000Y-87960000D03*
X193140000Y-85420000D03*
X188060000Y-85420000D03*
X194410000Y-87960000D03*
D15*
X196890000Y-85420000D03*
X183040000Y-87960000D03*
D12*
X166470000Y-85700000D03*
X176630000Y-85700000D03*
D13*
X171550000Y-85700000D03*
D14*
X167740000Y-83160000D03*
X174090000Y-80620000D03*
X169010000Y-80620000D03*
X175360000Y-83160000D03*
D15*
X177840000Y-80620000D03*
X163990000Y-83160000D03*
D12*
X147420000Y-84310000D03*
X157580000Y-84310000D03*
D13*
X152500000Y-84310000D03*
D14*
X148690000Y-81770000D03*
X155040000Y-79230000D03*
X149960000Y-79230000D03*
X156310000Y-81770000D03*
D15*
X158790000Y-79230000D03*
X144940000Y-81770000D03*
D12*
X128370000Y-85700000D03*
X138530000Y-85700000D03*
D13*
X133450000Y-85700000D03*
D14*
X129640000Y-83160000D03*
X135990000Y-80620000D03*
X130910000Y-80620000D03*
X137260000Y-83160000D03*
D15*
X139740000Y-80620000D03*
X125890000Y-83160000D03*
D12*
X109320000Y-88100000D03*
X119480000Y-88100000D03*
D13*
X114400000Y-88100000D03*
D14*
X110590000Y-85560000D03*
X116940000Y-83020000D03*
X111860000Y-83020000D03*
X118210000Y-85560000D03*
D15*
X120690000Y-83020000D03*
X106840000Y-85560000D03*
D12*
X204570000Y-72950000D03*
X214730000Y-72950000D03*
D13*
X209650000Y-72950000D03*
D14*
X205840000Y-70410000D03*
X212190000Y-67870000D03*
X207110000Y-67870000D03*
X213460000Y-70410000D03*
D15*
X215940000Y-67870000D03*
X202090000Y-70410000D03*
D12*
X185520000Y-71450000D03*
X195680000Y-71450000D03*
D13*
X190600000Y-71450000D03*
D14*
X186790000Y-68910000D03*
X193140000Y-66370000D03*
X188060000Y-66370000D03*
X194410000Y-68910000D03*
D15*
X196890000Y-66370000D03*
X183040000Y-68910000D03*
D12*
X166470000Y-66650000D03*
X176630000Y-66650000D03*
D13*
X171550000Y-66650000D03*
D14*
X167740000Y-64110000D03*
X174090000Y-61570000D03*
X169010000Y-61570000D03*
X175360000Y-64110000D03*
D15*
X177840000Y-61570000D03*
X163990000Y-64110000D03*
D12*
X147420000Y-65260000D03*
X157580000Y-65260000D03*
D13*
X152500000Y-65260000D03*
D14*
X148690000Y-62720000D03*
X155040000Y-60180000D03*
X149960000Y-60180000D03*
X156310000Y-62720000D03*
D15*
X158790000Y-60180000D03*
X144940000Y-62720000D03*
D12*
X128370000Y-66650000D03*
X138530000Y-66650000D03*
D13*
X133450000Y-66650000D03*
D14*
X129640000Y-64110000D03*
X135990000Y-61570000D03*
X130910000Y-61570000D03*
X137260000Y-64110000D03*
D15*
X139740000Y-61570000D03*
X125890000Y-64110000D03*
D12*
X109320000Y-69050000D03*
X119480000Y-69050000D03*
D13*
X114400000Y-69050000D03*
D14*
X110590000Y-66510000D03*
X116940000Y-63970000D03*
X111860000Y-63970000D03*
X118210000Y-66510000D03*
D15*
X120690000Y-63970000D03*
X106840000Y-66510000D03*
D12*
X204570000Y-53900000D03*
X214730000Y-53900000D03*
D13*
X209650000Y-53900000D03*
D14*
X205840000Y-51360000D03*
X212190000Y-48820000D03*
X207110000Y-48820000D03*
X213460000Y-51360000D03*
D15*
X215940000Y-48820000D03*
X202090000Y-51360000D03*
D12*
X185520000Y-52400000D03*
X195680000Y-52400000D03*
D13*
X190600000Y-52400000D03*
D14*
X186790000Y-49860000D03*
X193140000Y-47320000D03*
X188060000Y-47320000D03*
X194410000Y-49860000D03*
D15*
X196890000Y-47320000D03*
X183040000Y-49860000D03*
D12*
X147420000Y-46210000D03*
X157580000Y-46210000D03*
D13*
X152500000Y-46210000D03*
D14*
X148690000Y-43670000D03*
X155040000Y-41130000D03*
X149960000Y-41130000D03*
X156310000Y-43670000D03*
D15*
X158790000Y-41130000D03*
X144940000Y-43670000D03*
D12*
X128370000Y-47600000D03*
X138530000Y-47600000D03*
D13*
X133450000Y-47600000D03*
D14*
X129640000Y-45060000D03*
X135990000Y-42520000D03*
X130910000Y-42520000D03*
X137260000Y-45060000D03*
D15*
X139740000Y-42520000D03*
X125890000Y-45060000D03*
D12*
X109320000Y-50000000D03*
X119480000Y-50000000D03*
D13*
X114400000Y-50000000D03*
D14*
X110590000Y-47460000D03*
X116940000Y-44920000D03*
X111860000Y-44920000D03*
X118210000Y-47460000D03*
D15*
X120690000Y-44920000D03*
X106840000Y-47460000D03*
D18*
X87974800Y-105785300D03*
D19*
X90474800Y-105785300D03*
X92974800Y-105785300D03*
X87974800Y-91285300D03*
X92974800Y-91285300D03*
D20*
X95678000Y-88262460D03*
D21*
X85518000Y-88262460D03*
D22*
X92378000Y-88265000D03*
X88978000Y-88265000D03*
D23*
X89970500Y-83519000D03*
X82970500Y-83519000D03*
D24*
X91770500Y-85619000D03*
X93270500Y-81419000D03*
X84770500Y-85619000D03*
X87770500Y-85619000D03*
D23*
X82970500Y-82169000D03*
X89970500Y-82169000D03*
D24*
X84770500Y-80069000D03*
X87770500Y-80069000D03*
X91770500Y-80069000D03*
X93270500Y-84269000D03*
D25*
X99949000Y-72141080D03*
X99949000Y-71140320D03*
D26*
X83002120Y-78295500D03*
X84002880Y-78295500D03*
D25*
X87767900Y-77075880D03*
X87767900Y-76075120D03*
X90339332Y-77075880D03*
X90339332Y-76075120D03*
X92910766Y-77075880D03*
X92910766Y-76075120D03*
X95418700Y-77075880D03*
X95418700Y-76075120D03*
D27*
X98597449Y-84563949D03*
X102189551Y-88156051D03*
X98660949Y-81452449D03*
X102253051Y-85044551D03*
X102579898Y-54116698D03*
X106172000Y-57708800D03*
X106634551Y-55072551D03*
X103042449Y-51480449D03*
D20*
X97075000Y-71583040D03*
D21*
X86915000Y-71583040D03*
D22*
X93775000Y-71580500D03*
X90375000Y-71580500D03*
D20*
X166925000Y-114741960D03*
D21*
X156765000Y-114741960D03*
D22*
X163625000Y-114744500D03*
X160225000Y-114744500D03*
D20*
X147938500Y-115757960D03*
D21*
X137778500Y-115757960D03*
D22*
X144638500Y-115760500D03*
X141238500Y-115760500D03*
D20*
X128888500Y-117154960D03*
D21*
X118728500Y-117154960D03*
D22*
X125588500Y-117157500D03*
X122188500Y-117157500D03*
D17*
G36*
X107308871Y-125438518D02*
G01*
X109040039Y-124439028D01*
X110039529Y-126170196D01*
X108308361Y-127169686D01*
X107308871Y-125438518D01*
G37*
D21*
X103594200Y-117005539D03*
D17*
G36*
X108121519Y-123352166D02*
G01*
X106822481Y-124102166D01*
X105922481Y-122543320D01*
X107221519Y-121793320D01*
X108121519Y-123352166D01*
G37*
G36*
X106421519Y-120407680D02*
G01*
X105122481Y-121157680D01*
X104222481Y-119598834D01*
X105521519Y-118848834D01*
X106421519Y-120407680D01*
G37*
D20*
X214677000Y-101978460D03*
D21*
X204517000Y-101978460D03*
D22*
X211377000Y-101981000D03*
X207977000Y-101981000D03*
D20*
X195436500Y-100454460D03*
D21*
X185276500Y-100454460D03*
D22*
X192136500Y-100457000D03*
X188736500Y-100457000D03*
D20*
X176513500Y-95691960D03*
D21*
X166353500Y-95691960D03*
D22*
X173213500Y-95694500D03*
X169813500Y-95694500D03*
D20*
X157527000Y-94294960D03*
D21*
X147367000Y-94294960D03*
D22*
X154227000Y-94297500D03*
X150827000Y-94297500D03*
D20*
X138731000Y-95691960D03*
D21*
X128571000Y-95691960D03*
D22*
X135431000Y-95694500D03*
X132031000Y-95694500D03*
D20*
X119363500Y-98104960D03*
D21*
X109203500Y-98104960D03*
D22*
X116063500Y-98107500D03*
X112663500Y-98107500D03*
D20*
X214677000Y-82991960D03*
D21*
X204517000Y-82991960D03*
D22*
X211377000Y-82994500D03*
X207977000Y-82994500D03*
D20*
X195627000Y-81467960D03*
D21*
X185467000Y-81467960D03*
D22*
X192327000Y-81470500D03*
X188927000Y-81470500D03*
D20*
X176513500Y-76641960D03*
D21*
X166353500Y-76641960D03*
D22*
X173213500Y-76644500D03*
X169813500Y-76644500D03*
D20*
X157463500Y-75244960D03*
D21*
X147303500Y-75244960D03*
D22*
X154163500Y-75247500D03*
X150763500Y-75247500D03*
D20*
X138413500Y-76641960D03*
D21*
X128253500Y-76641960D03*
D22*
X135113500Y-76644500D03*
X131713500Y-76644500D03*
D20*
X119427000Y-79054960D03*
D21*
X109267000Y-79054960D03*
D22*
X116127000Y-79057500D03*
X112727000Y-79057500D03*
D20*
X214613500Y-63941960D03*
D21*
X204453500Y-63941960D03*
D22*
X211313500Y-63944500D03*
X207913500Y-63944500D03*
D20*
X195563500Y-62354460D03*
D21*
X185403500Y-62354460D03*
D22*
X192263500Y-62357000D03*
X188863500Y-62357000D03*
D20*
X176513500Y-57591960D03*
D21*
X166353500Y-57591960D03*
D22*
X173213500Y-57594500D03*
X169813500Y-57594500D03*
D20*
X157463500Y-56194960D03*
D21*
X147303500Y-56194960D03*
D22*
X154163500Y-56197500D03*
X150763500Y-56197500D03*
D20*
X138413500Y-57591960D03*
D21*
X128253500Y-57591960D03*
D22*
X135113500Y-57594500D03*
X131713500Y-57594500D03*
D20*
X119363500Y-60004960D03*
D21*
X109203500Y-60004960D03*
D22*
X116063500Y-60007500D03*
X112663500Y-60007500D03*
D20*
X214613500Y-44701460D03*
D21*
X204453500Y-44701460D03*
D22*
X211313500Y-44704000D03*
X207913500Y-44704000D03*
D20*
X195563500Y-43304460D03*
D21*
X185403500Y-43304460D03*
D22*
X192263500Y-43307000D03*
X188863500Y-43307000D03*
D20*
X176513500Y-38605460D03*
D21*
X166353500Y-38605460D03*
D22*
X173213500Y-38608000D03*
X169813500Y-38608000D03*
D20*
X157463500Y-37208460D03*
D21*
X147303500Y-37208460D03*
D22*
X154163500Y-37211000D03*
X150763500Y-37211000D03*
D20*
X138477000Y-38605460D03*
D21*
X128317000Y-38605460D03*
D22*
X135177000Y-38608000D03*
X131777000Y-38608000D03*
D20*
X119427000Y-40764460D03*
D21*
X109267000Y-40764460D03*
D22*
X116127000Y-40767000D03*
X112727000Y-40767000D03*
D28*
X121688500Y-51576000D03*
X121688500Y-53326000D03*
X126088500Y-53326000D03*
X126088500Y-51576000D03*
X159788500Y-51512500D03*
X159788500Y-53262500D03*
X164188500Y-53262500D03*
X164188500Y-51512500D03*
X197952000Y-56021000D03*
X197952000Y-57771000D03*
X202352000Y-57771000D03*
X202352000Y-56021000D03*
X99908000Y-107519500D03*
X99908000Y-109269500D03*
X104308000Y-109269500D03*
X104308000Y-107519500D03*
X150200000Y-127204500D03*
X150200000Y-128954500D03*
X154600000Y-128954500D03*
X154600000Y-127204500D03*
X197825000Y-111647000D03*
X197825000Y-113397000D03*
X202225000Y-111647000D03*
X202225000Y-113397000D03*
D29*
X84584815Y-46405745D03*
X99824815Y-64185745D03*
X84584815Y-56565745D03*
X99824815Y-54025745D03*
X99824815Y-48945745D03*
X84584815Y-66725745D03*
X99824815Y-46405745D03*
X99824815Y-41325745D03*
X84584815Y-61645745D03*
X99824815Y-69265745D03*
X84584815Y-54025745D03*
X84584815Y-43865745D03*
X84584815Y-48945745D03*
X84584815Y-51485745D03*
X84584815Y-64185745D03*
X84584815Y-59105745D03*
X99824815Y-61645745D03*
X99824815Y-59105745D03*
X84584815Y-69265745D03*
X99824815Y-66725745D03*
X99824815Y-43865745D03*
X84584815Y-41325745D03*
X99824815Y-56565745D03*
X99824815Y-51485745D03*
X83286000Y-40130000D03*
X83286000Y-42670000D03*
X83286000Y-45210000D03*
X83286000Y-47750000D03*
X83286000Y-50290000D03*
X83286000Y-52830000D03*
X83286000Y-55370000D03*
X83286000Y-57910000D03*
X83286000Y-60450000D03*
X83286000Y-62990000D03*
X83286000Y-65530000D03*
X83286000Y-68070000D03*
X98526000Y-68070000D03*
X98526000Y-65530000D03*
X98526000Y-62990000D03*
X98526000Y-60450000D03*
X98526000Y-57910000D03*
X98526000Y-55370000D03*
X98526000Y-52830000D03*
X98526000Y-50290000D03*
X98526000Y-47750000D03*
X98526000Y-45210000D03*
X98526000Y-42670000D03*
X98526000Y-40130000D03*
D30*
X87820500Y-73993500D03*
X90360500Y-73993500D03*
X92900500Y-73993500D03*
D31*
X95440500Y-73993500D03*
D17*
G36*
X102304800Y-37481401D02*
G01*
X102304800Y-37781399D01*
X102303567Y-37812783D01*
X102299876Y-37843973D01*
X102293749Y-37874777D01*
X102285224Y-37905005D01*
X102274353Y-37934472D01*
X102261205Y-37962995D01*
X102245858Y-37990398D01*
X102228409Y-38016512D01*
X102208965Y-38041177D01*
X102187645Y-38064241D01*
X102164582Y-38085560D01*
X102139917Y-38105005D01*
X102113802Y-38122454D01*
X102086399Y-38137800D01*
X102057876Y-38150949D01*
X102028409Y-38161819D01*
X101998181Y-38170344D01*
X101967377Y-38176471D01*
X101936187Y-38180162D01*
X101904803Y-38181395D01*
X101504800Y-38181399D01*
X101504800Y-36831400D01*
X102654800Y-36831400D01*
X102654800Y-37481401D01*
X102304800Y-37481401D01*
G37*
G36*
X105608996Y-38184996D02*
G01*
X105577613Y-38183763D01*
X105546423Y-38180072D01*
X105515618Y-38173945D01*
X105485390Y-38165420D01*
X105455923Y-38154550D01*
X105427401Y-38141401D01*
X105399997Y-38126054D01*
X105373883Y-38108605D01*
X105349218Y-38089161D01*
X105326154Y-38067842D01*
X105304835Y-38044778D01*
X105285391Y-38020113D01*
X105267942Y-37993999D01*
X105252595Y-37966595D01*
X105239446Y-37938073D01*
X105228576Y-37908606D01*
X105220051Y-37878378D01*
X105213924Y-37847573D01*
X105210233Y-37816383D01*
X105209000Y-37785000D01*
X105209000Y-37485002D01*
X104859000Y-37485002D01*
X104859000Y-36835001D01*
X106009000Y-36835001D01*
X106009000Y-38185000D01*
X105608996Y-38184996D01*
G37*
D18*
X94067000Y-47094000D03*
D19*
X91567000Y-47094000D03*
X89067000Y-47094000D03*
X94067000Y-61594000D03*
X89067000Y-61594000D03*
D32*
X98894900Y-114109500D03*
X199700000Y-100000000D03*
X124396500Y-95567500D03*
X199700000Y-61800000D03*
X124325380Y-57409080D03*
M02*
